<?xml version="1.0" encoding="UTF-8"?>
<svg version="1.1" viewBox="0 0 2048 601" width="175" height="57" xmlns="http://www.w3.org/2000/svg">
<path transform="translate(75,1)" d="m0 0h1887l20 1 16 4 15 8 11 9 8 9 8 14 4 11 2 12v461l-3 16-5 13-7 11-8 9-12 9-12 6-14 4-6 1h-1910l-18-4-16-8-9-7-8-8-7-10-6-13-3-12-1-15v-423l1-36 3-12 7-14 10-13 12-10 16-8 15-4z"/>
<path transform="translate(75,1)" d="m0 0h1887l20 1 16 4 15 8 11 9 8 9 8 14 4 11 2 12v461l-3 16-5 13-7 11-8 9-12 9-12 6-14 4-6 1h-1910l-18-4-16-8-9-7-8-8-7-10-6-13-3-12-1-15v-423l1-36 3-12 7-14 10-13 12-10 16-8 15-4zm1 13-19 3-14 7-10 8-8 9-8 15-3 13v462l4 16 7 13 11 12 12 8 10 4 10 2 15 1h1882l20-2 14-5 10-7 8-7 8-11 5-10 3-14 1-12v-440l-2-16-5-14-7-11-10-10-13-8-12-4-13-2z" fill="#AFAFAF"/>
<path transform="translate(1167,267)" d="m0 0h16l12 3 11 6 10 10 7 12 4 13 2 12v25l-3 15-5 13-7 11-9 9-14 7-13 3h-11l-16-4-12-6-3-2-1 60-4 2h-23l-4-3-1-7v-167l2-7 1-1h22l3 2 1 9 18-10 11-4z" fill="#F7F7F7"/>
<path transform="translate(1313,267)" d="m0 0h16l12 3 11 6 10 10 7 12 4 13 2 12v24l-3 16-5 13-7 11-8 8-9 6-13 4-7 1h-10l-17-4-11-6-3-2-1 60-4 2h-23l-3-1-1-2v-180l2-2h23l2 2 1 9 9-5 16-8z" fill="#F7F7F7"/>
<path transform="translate(309,266)" d="m0 0h10l8 2 7 4 8 8 4 7 4-6 6-7 8-5 11-3h9l9 2 11 6 6 7 4 8 1 5v110l-2 1h-31l-2-3-1-92-3-7-3-2-8-1-7 2-5 6-2 5-1 9-1 82-2 1h-31l-1-1-1-85-2-10-3-6-6-3h-7l-6 3-4 7-1 5-1 86-1 3-2 1h-31l-2-6v-113l1-16 2-1h29l2 3 1 12 7-9 9-6z" fill="#F8F8F8"/>
<path transform="translate(1646,267)" d="m0 0h20l16 4 12 6 12 11 8 14 4 13 2 15v15l-3 18-6 15-9 12-10 8-13 6-16 3h-15l-12-2-13-5-10-7-7-7-7-11-6-18-1-7v-26l3-15 6-14 10-13 10-7 8-4 10-3z" fill="#F8F8F8"/>
<path transform="translate(728,266)" d="m0 0h10l14 3 10 5 10 9 6 7 7 15 4 15 1 7v22l-4 18-6 14-8 10-7 7-8 5-12 4-7 1h-12l-13-3-11-6-11-11-7-12-5-15-2-11v-25l3-16 5-12 6-11 10-10 16-8z" fill="#F8F8F8"/>
<path transform="translate(489,265)" d="m0 0h11l14 2 12 5 9 7 6 9 2 7 1 9 1 61 4 10 5 7 1 4-5 5-14 13-4 3-5-1-9-9-4-6-8 6-9 6-14 4h-18l-12-4-8-6-6-9-3-9-1-5v-11l4-15 8-11 9-7 10-5 13-3 28-4v-12l-3-7-4-4-10-2-9 3-5 5-5 10-5 1-25-3-2-4 2-9 6-11 6-7 9-6 9-4 8-2z" fill="#F8F8F8"/>
<path transform="translate(167,265)" d="m0 0h10l15 2 10 4 8 6 6 7 4 9 1 5 1 66 4 10 6 9-1 5-13 12-9 7-5-2-8-7-4-6v-2l-14 11-9 4-8 2h-19l-10-3-8-6-6-7-4-10-1-4v-16l3-12 7-11 8-7 12-6 20-4 22-3-1-13-4-8-5-3-7-1-8 2-7 6-5 11-25-2-6-2v-7l5-13 9-10 5-4 12-6 9-2z" fill="#F8F8F8"/>
<path transform="translate(1016,267)" d="m0 0h23l14 3 12 6 7 8 5 12 1 9v96l-1 1h-25l-2-9-5 2-10 6-16 5-5 1h-12l-12-3-8-5-7-7-5-8-3-12v-9l3-12 6-10 8-7 14-7 15-2h14l21 3-1-20-4-10-6-4-4-1h-23l-20 4-7 2h-5l-2-5v-12l2-5 12-5 18-4z" fill="#F7F7F7"/>
<path transform="translate(1878,267)" d="m0 0h20l13 3 11 6 8 7 6 10 3 7 2 13v14l-1 13-2 4-2 1-81 1 4 16 5 8 8 6 12 4 7 1h10l19-3 16-3 2 3v17l-4 4-15 5-18 3h-18l-16-3-11-4-10-7-8-8-6-10-5-15-1-6v-32l4-17 7-14 11-12 10-6 10-4z" fill="#F8F8F8"/>
<path transform="translate(869,266)" d="m0 0h9l9 2 10 6 6 7 5 12 1 7v104l-2 1h-31l-2-3-1-89-4-10-5-3h-9l-8 7-3 8-1 12-1 77-2 1h-31l-2-2v-132l3-2h28l2 2v16h2l2-5 9-10 10-5z" fill="#F9F9F9"/>
<path transform="translate(227,418)" d="m0 0 6 1 15 8 23 11 25 10 27 9 37 9 34 5 22 2 18 1h15l29-2 35-5 28-6 27-8 28-10 5-2 7 1 3 4-1 6-14 10-17 10-17 8-21 8-26 8-29 6-24 3-17 1h-23l-34-3-34-7-36-12-24-11-22-12-19-13-14-11-13-11-1-6z" fill="#F8F8F8"/>
<path transform="translate(574,269)" d="m0 0h88l2 3v20l-10 16-11 15-11 16-12 17-2 3 20 2 14 4 12 6 2 3v26l-1 2-7-1-13-5-13-3-8-1h-15l-16 3-12 4-8 3-4-1-1-2v-28l5-9 13-18 22-32 10-14-44-1-1-1v-26z" fill="#F8F8F8"/>
<path transform="translate(1428,267)" d="m0 0h20l19 4 9 4 1 2v18l-4 2-22-4-16-1-10 2-5 4-2 5 1 7 5 5 17 8 20 8 9 5 8 7 6 12v20l-5 12-7 8-9 6-12 4-12 2h-16l-14-2-15-4-7-5v-19l1-2 11 2 19 4 17 1 12-3 5-3 2-4v-9l-3-5-12-6-28-11-11-7-7-8-4-9-1-4v-13l3-10 7-10 10-7 10-4z" fill="#F8F8F8"/>
<path transform="translate(1522,235)" d="m0 0h23l2 2v34h36l1 2v21l-2 1h-35l1 74 3 6 6 3 4 1h9l12-1 3 3v17l-6 4-12 2h-24l-10-3-6-4-7-8-4-10-1-6v-78h-20l-1-1v-18l5-2 17-3 4-31z" fill="#F8F8F8"/>
<path transform="translate(1801,270)" d="m0 0h14l4 2 1 2v22l-2 3-25 1-14 4-5 3h-2l-1 94-1 1h-29l-1-1v-128l2-2h23l3 5 1 12 5-3 10-8 12-6z" fill="#F9F9F9"/>
<path transform="translate(1162,292)" d="m0 0h8l9 2 8 6 4 5 4 9 2 10v23l-3 14-5 10-7 6-11 4h-9l-14-3-12-6-1-1v-69l8-5 11-4z"/>
<path transform="translate(1307,292)" d="m0 0h9l9 2 8 6 4 5 4 9 2 12v20l-3 15-6 11-8 6-9 3h-9l-14-3-13-7v-69l8-5 11-4z"/>
<path transform="translate(1651,292)" d="m0 0h9l9 2 8 6 6 9 3 8 2 16-1 18-3 12-6 10-8 6-10 3h-8l-10-3-6-4-6-7-4-10-2-12v-19l3-14 5-10 7-7 6-3z"/>
<path transform="translate(1067,89)" d="m0 0h11l2 1v35l11-5 4-1h13l10 4 7 8 4 9 1 4v21l-4 11-6 9-8 5-4 1h-16l-12-6-3 5h-7l-4-1v-99z" fill="#F7F7F7"/>
<path transform="translate(832,119)" d="m0 0h14l9 4 5 5 4 5 3 9 1 15-2 14-4 8-7 8-9 4h-17l-9-4-2-1v31h-14l-1-12v-78l1-6h11l3 5 8-5z" fill="#F6F6F6"/>
<path transform="translate(685,89)" d="m0 0h11l2 1v99h-12v-4l-11 5-4 1h-15l-7-3-7-6-6-12-2-10 1-16 4-11 6-8 12-6h14l10 4 2 1 1-29z" fill="#F6F6F6"/>
<path transform="translate(903,119)" d="m0 0h16l9 3 9 8 5 10 2 12-1 15-3 9-6 8-9 6-7 2h-15l-11-4-7-6-6-12-2-12 1-14 4-11 8-9 8-4z" fill="#F5F5F5"/>
<path transform="translate(1201,119)" d="m0 0h15l9 3 8 9 3 10v13l-1 4-2 1h-43l3 11 6 7 5 2h17l12-3 2 4-1 6-3 3-14 3h-15l-10-3-8-6-6-11-2-8v-17l4-12 4-6 8-7z" fill="#F6F6F6"/>
<path transform="translate(1304,119)" d="m0 0h15l8 3 5 5 4 6 2 7v16l-2 3h-44l3 11 6 7 5 2h17l8-2h5v10l-6 3-10 2h-15l-13-4-8-8-4-9-2-12 1-16 5-12 7-7 8-4z" fill="#F5F5F5"/>
<path transform="translate(730,293)" d="m0 0 10 1 5 4 5 10 2 12 1 22-2 18-3 11-6 7-6 3-8-1-5-3-6-12-2-9-1-10v-22l2-13 5-12 6-5z"/>
<path transform="translate(1383,119)" d="m0 0h15l6 3 6 7 2 7v53h-15l-1-50-2-6-4-1h-10l-10 3-4 1-1 53h-14l-1-5v-54l1-8 1-1h10l2 2v4l12-6z" fill="#F5F5F5"/>
<path transform="translate(989,119)" d="m0 0h15l6 3 5 5 3 10v52h-15l-1-50-2-6-4-1h-11l-11 4h-2l-1 53h-14v-68h11l3 5 5-2 9-4z" fill="#F6F6F6"/>
<path transform="translate(605,410)" d="m0 0h25l10 2 7 4 1 2v14l-3 15-6 15-5 10-9 11-6 5-4 1-2-2 1-6 8-22 4-16v-10l-3-3-3-1h-34l-18 1-1-3 5-6 12-6 9-3z" fill="#F5F5F5"/>
<path transform="translate(761,119)" d="m0 0h16l10 3 3 5v5l-1 1-9-1h-18l-4 4 1 7 8 4 15 6 9 8 2 4v11l-3 6-4 5-8 4-5 1h-16l-11-3-3-2v-10l8 1 5 1h17l4-2 2-3-1-8-6-2-18-7-8-7-3-10 2-10 6-7z" fill="#F4F4F4"/>
<path transform="translate(1018,345)" d="m0 0h13l15 2 2 2v22l-5 5-13 6-7 2h-11l-8-4-5-8-1-3v-8l4-8 8-6z"/>
<path transform="translate(1878,291)" d="m0 0h17l8 4 6 7 3 8 1 5v7l-2 2h-55l-1-5 4-12 6-8 6-5z"/>
<path transform="translate(1144,89)" d="m0 0h10l4 1 1 87 1 1 8 1 1 1v8l-3 2h-15l-5-4-2-4-1-7v-24z" fill="#F8F8F8"/>
<path transform="translate(905,131)" d="m0 0h11l6 3 4 5 2 5 1 6-1 16-3 7-5 5-4 2h-11l-8-5-4-8-1-5v-12l2-9 5-7z"/>
<path transform="translate(1092,131)" d="m0 0h11l6 3 4 5 2 7v17l-3 9-4 5-8 3-9-1-7-3-3-2-1-4v-28l2-7z"/>
<path transform="translate(662,131)" d="m0 0h11l8 3 3 2 1 13v16l-1 9-10 5-9 1-8-3-5-6-3-9v-12l2-9 6-8z"/>
<path transform="translate(830,131)" d="m0 0h11l6 3 5 9 1 4v14l-2 8-4 6-3 3-6 2-9-1-9-4-2-2v-35l5-5z"/>
<path transform="translate(174,340)" d="m0 0h12v9l-2 14-6 12-7 5-3 1h-7l-7-4-3-6-1-4v-7l3-9 5-5 8-4z"/>
<path transform="translate(496,340)" d="m0 0h12v17l-4 13-7 8-6 3h-7l-6-3-5-8v-12l3-7 5-5 8-4z"/>
<path transform="translate(1035,121)" d="m0 0h13l1 1v67h-14l-1-28v-20z" fill="#F7F7F7"/>
<path transform="translate(716,121)" d="m0 0h14l1 16-1 52h-14z" fill="#F9F9F9"/>
<path transform="translate(1205,130)" d="m0 0h7l6 3 4 5 1 10-1 1h-32l2-9 5-7z"/>
<path transform="translate(1307,130)" d="m0 0h8l5 3 4 5 1 10-1 1h-31l1-9 5-7z"/>
<path transform="translate(719,93)" d="m0 0h8l5 5v7l-6 5h-7l-6-7 1-5z" fill="#F4F4F4"/>
<path transform="translate(1038,93)" d="m0 0h7l5 4 1 7-4 5-3 1h-7l-4-5-1-6 4-5z" fill="#F4F4F4"/>
</svg>
