<svg id="app-gallery-es.svg" xmlns="http://www.w3.org/2000/svg" xmlns:xlink="http://www.w3.org/1999/xlink" width="175" height="57">
  <defs>
    <style>
      .cls-1 {
        fill: url(#linear-gradient);
      }

      .cls-2, .cls-3, .cls-5, .cls-6 {
        fill-rule: evenodd;
      }

      .cls-2 {
        fill: url(#linear-gradient-2);
      }

      .cls-3, .cls-6 {
        fill: #fff;
      }

      .cls-3 {
        filter: url(#filter);
      }

      .cls-4 {
        opacity: 0.5;
      }

      .cls-5 {
        fill: none;
        stroke: #fff;
        stroke-linecap: round;
        stroke-width: 1px;
        filter: url(#filter-2);
      }
    </style>
    <linearGradient id="linear-gradient" x1="29.5" y1="51" x2="29.5" y2="6" gradientUnits="userSpaceOnUse">
      <stop offset="0" stop-color="#8c2f39"/>
      <stop offset="1" stop-color="#de929a"/>
    </linearGradient>
    <linearGradient id="linear-gradient-2" x1="717.5" y1="830.469" x2="717.5" y2="786.531" gradientUnits="userSpaceOnUse">
      <stop offset="0" stop-color="#b73341"/>
      <stop offset="1" stop-color="#cc5966"/>
    </linearGradient>
    <filter id="filter" x="699" y="800" width="38" height="32" filterUnits="userSpaceOnUse">
      <feOffset result="offset" dy="2" in="SourceAlpha"/>
      <feGaussianBlur result="blur" stdDeviation="2.449"/>
      <feFlood result="flood" flood-opacity="0.51"/>
      <feComposite result="composite" operator="in" in2="blur"/>
      <feBlend result="blend" in="SourceGraphic"/>
    </filter>
    <filter id="filter-2" x="700" y="790" width="36" height="19" filterUnits="userSpaceOnUse">
      <feOffset result="offset" dy="2" in="SourceAlpha"/>
      <feGaussianBlur result="blur" stdDeviation="2.449"/>
      <feFlood result="flood" flood-opacity="0.34"/>
      <feComposite result="composite" operator="in" in2="blur"/>
      <feBlend result="blend" in="SourceGraphic"/>
    </filter>
  </defs>
  <rect id="bkg" width="179" height="57" rx="8" ry="8"/>
  <rect id="Rounded_Rectangle_1" data-name="Rounded Rectangle 1" class="cls-1" x="7" y="6" width="45" height="45" rx="8" ry="8"/>
  <path id="Rounded_Rectangle_1_copy" data-name="Rounded Rectangle 1 copy" class="cls-2" d="M706.542,786.542h21.916a11,11,0,0,1,11,11v21.916a11,11,0,0,1-11,11H706.542a11,11,0,0,1-11-11V797.542A11,11,0,0,1,706.542,786.542Z" transform="translate(-688 -780)"/>
  <path id="logo" class="cls-3" d="M715.734,819.022a59.353,59.353,0,0,0-7.166-11.691s-2.253,2.149-2.092,4.3a3.814,3.814,0,0,0,1.3,2.594c1.967,1.927,6.722,4.357,7.827,4.907a0.09,0.09,0,0,0,.106-0.018,0.083,0.083,0,0,0,.02-0.095h0Zm-0.756,1.742a0.111,0.111,0,0,0-.1-0.072v0l-7.915.277c0.858,1.541,2.305,2.736,3.811,2.37a20.112,20.112,0,0,0,4.172-2.472l0,0A0.089,0.089,0,0,0,714.978,820.764Zm0.088-.834h0c-3.477-2.36-10.218-5.98-10.218-5.98a4.723,4.723,0,0,0,2.711,5.821,4.786,4.786,0,0,0,1.514.335c0.12,0.02,4.711,0,5.94,0a0.1,0.1,0,0,0,.079-0.054A0.1,0.1,0,0,0,715.066,819.93Zm0.556-16.039c-0.345.032-1.275,0.246-1.275,0.246a3.68,3.68,0,0,0-2.592,2.457,4.88,4.88,0,0,0,.01,2.526c0.7,3.121,4.143,8.251,4.884,9.328a0.085,0.085,0,0,0,.093.035,0.1,0.1,0,0,0,.075-0.1C717.955,806.93,715.622,803.891,715.622,803.891Zm7.627,2.7a3.684,3.684,0,0,0-2.617-2.457s-0.6-.154-1.245-0.246c0,0-2.346,3.04-1.206,14.5h0a0.093,0.093,0,0,0,.175.044h0c0.757-1.106,4.178-6.207,4.877-9.316A5.316,5.316,0,0,0,723.249,806.594Zm-3.131,14.1a0.117,0.117,0,0,0-.09.062,0.115,0.115,0,0,0,.03.107v0a20.767,20.767,0,0,0,4.162,2.477s2.046,0.7,3.826-2.371l-7.928-.278h0Zm10.033-6.765s-6.729,3.633-10.21,5.991l0,0a0.1,0.1,0,0,0-.042.114,0.118,0.118,0,0,0,.082.062h0c1.245,0,5.962.006,6.082-.015a4.709,4.709,0,0,0,1.361-.316,4.648,4.648,0,0,0,2.549-2.451A4.833,4.833,0,0,0,730.151,813.931Zm-1.628-2.307c0.141-2.229-2.088-4.293-2.088-4.293a59.23,59.23,0,0,0-7.154,11.659h0a0.114,0.114,0,0,0,.024.127,0.1,0.1,0,0,0,.105.009c1.134-.565,5.855-2.981,7.81-4.9A3.839,3.839,0,0,0,728.523,811.624Z" transform="translate(-688 -780)"/>
  <circle id="o" class="cls-4" cx="18.188" cy="13.39" r="1.157"/>
  <circle id="o-2" data-name="o" class="cls-4" cx="40.813" cy="13.39" r="1.157"/>
  <g transform="translate(-688 -780)" style="fill: none; filter: url(#filter-2)">
    <path id="handle" class="cls-5" d="M728.687,793.515a12.89,12.89,0,0,1-22.378.065" style="stroke: inherit; filter: none; fill: inherit"/>
  </g>
  <use transform="translate(-688 -780)" xlink:href="#handle" style="stroke: #fff; filter: none; fill: none"/>
  <path id="text-app-gallery" class="cls-6" d="M757.746,820.164H753.1l-1.145,3.373H749l5.443-15.342h2.181l5.443,15.342h-3.11Zm-3.887-2.394H757.1l-1.123-3.394-0.453-2.394h-0.108L754.96,814.4Zm9.437-5.114h2.052l0.324,1.306h0.087a3.6,3.6,0,0,1,1.328-1.219,4.072,4.072,0,0,1,1.868-.391,3.633,3.633,0,0,1,3.045,1.3,6.786,6.786,0,0,1,1.015,4.167,9.042,9.042,0,0,1-.324,2.513,5.312,5.312,0,0,1-.961,1.9,4.2,4.2,0,0,1-1.555,1.2,5.8,5.8,0,0,1-3.207.316,3.815,3.815,0,0,1-.864-0.316v4.461H763.3V812.656Zm4.817,2.089a1.861,1.861,0,0,0-1.285.414,2.7,2.7,0,0,0-.724,1.24v4.526a2.3,2.3,0,0,0,1.6.523,2.07,2.07,0,0,0,1.814-.86,5.076,5.076,0,0,0,.605-2.84,4.3,4.3,0,0,0-.475-2.219A1.658,1.658,0,0,0,768.113,814.745Zm6.846-2.089h2.051l0.324,1.306h0.087a3.6,3.6,0,0,1,1.328-1.219,4.072,4.072,0,0,1,1.868-.391,3.633,3.633,0,0,1,3.045,1.3,6.786,6.786,0,0,1,1.015,4.167,9.042,9.042,0,0,1-.324,2.513,5.312,5.312,0,0,1-.961,1.9,4.2,4.2,0,0,1-1.555,1.2,5.088,5.088,0,0,1-2.105.413,5.144,5.144,0,0,1-1.1-.1,3.815,3.815,0,0,1-.864-0.316v4.461h-2.807V812.656Zm4.816,2.089a1.861,1.861,0,0,0-1.285.414,2.7,2.7,0,0,0-.724,1.24v4.526a2.3,2.3,0,0,0,1.6.523,2.07,2.07,0,0,0,1.814-.86,5.076,5.076,0,0,0,.605-2.84,4.3,4.3,0,0,0-.475-2.219A1.658,1.658,0,0,0,779.775,814.745Zm12.245,0.849h5.637v6.79a5.658,5.658,0,0,1-2.171,1.109,9.357,9.357,0,0,1-2.494.348,7.719,7.719,0,0,1-2.689-.457,5.505,5.505,0,0,1-2.149-1.425,6.785,6.785,0,0,1-1.425-2.47,10.95,10.95,0,0,1-.519-3.568,9.735,9.735,0,0,1,.616-3.667,6.875,6.875,0,0,1,1.62-2.459,6.123,6.123,0,0,1,2.257-1.371,7.882,7.882,0,0,1,2.548-.424,11.822,11.822,0,0,1,2.279.2,10.578,10.578,0,0,1,1.565.414l-0.6,2.5a6.213,6.213,0,0,0-1.21-.337,10.063,10.063,0,0,0-1.706-.12,4.969,4.969,0,0,0-1.706.283,3.3,3.3,0,0,0-1.35.925,4.394,4.394,0,0,0-.885,1.643,8.231,8.231,0,0,0-.314,2.437,8.12,8.12,0,0,0,.3,2.361,4.555,4.555,0,0,0,.842,1.632,3.327,3.327,0,0,0,1.263.947,3.943,3.943,0,0,0,1.545.305,4.3,4.3,0,0,0,1.1-.142,2.5,2.5,0,0,0,.907-0.424v-2.873l-3.261-.348v-1.806Zm7.688-2.307a9.232,9.232,0,0,1,2.052-.62,13.157,13.157,0,0,1,2.484-.228,5.616,5.616,0,0,1,1.879.272,2.855,2.855,0,0,1,1.2.772,2.887,2.887,0,0,1,.626,1.2,6.132,6.132,0,0,1,.184,1.567q0,0.957-.065,1.926t-0.075,1.9q-0.012.936,0.054,1.817a6.883,6.883,0,0,0,.324,1.665h-2.29l-0.453-1.5h-0.108a3.852,3.852,0,0,1-1.2,1.164,3.61,3.61,0,0,1-1.976.49,3.807,3.807,0,0,1-1.36-.229,2.943,2.943,0,0,1-1.037-.652,2.991,2.991,0,0,1-.67-1,3.38,3.38,0,0,1-.237-1.295,3.041,3.041,0,0,1,.443-1.687,3.2,3.2,0,0,1,1.274-1.109,6.288,6.288,0,0,1,1.987-.588,14,14,0,0,1,2.581-.1,2.854,2.854,0,0,0-.173-1.752,1.585,1.585,0,0,0-1.447-.533,9.794,9.794,0,0,0-1.782.174,6.55,6.55,0,0,0-1.544.457Zm3.564,8.095a2.149,2.149,0,0,0,1.339-.38,2.649,2.649,0,0,0,.734-0.816v-1.415a7.833,7.833,0,0,0-1.285-.022,4.747,4.747,0,0,0-1.091.2,1.832,1.832,0,0,0-.755.436,0.973,0.973,0,0,0-.281.718,1.242,1.242,0,0,0,.356.946A1.372,1.372,0,0,0,803.272,821.382Zm10.107-1.5a2.392,2.392,0,0,0,.194,1.11,0.664,0.664,0,0,0,.626.348,2.848,2.848,0,0,0,.508-0.044,3.005,3.005,0,0,0,.615-0.195l0.3,2.219a5.306,5.306,0,0,1-1.058.348,6.178,6.178,0,0,1-1.469.174,2.742,2.742,0,0,1-1.879-.576,2.437,2.437,0,0,1-.648-1.9V808.3h2.808v11.577Zm6.349,0a2.377,2.377,0,0,0,.2,1.11,0.663,0.663,0,0,0,.626.348,2.829,2.829,0,0,0,.507-0.044,3.011,3.011,0,0,0,.616-0.195l0.3,2.219a5.284,5.284,0,0,1-1.058.348,6.172,6.172,0,0,1-1.469.174,2.743,2.743,0,0,1-1.879-.576,2.441,2.441,0,0,1-.647-1.9V808.3h2.807v11.577Zm12.094,2.72a5.48,5.48,0,0,1-1.76.881,7.637,7.637,0,0,1-2.365.359,4.568,4.568,0,0,1-3.822-1.534,6.627,6.627,0,0,1-1.21-4.21,6.056,6.056,0,0,1,1.361-4.309,5.013,5.013,0,0,1,3.822-1.436,5.941,5.941,0,0,1,1.6.217,3.738,3.738,0,0,1,1.383.718,3.538,3.538,0,0,1,.971,1.35,5.316,5.316,0,0,1,.368,2.11c0,0.305-.019.631-0.054,0.98s-0.09.711-.162,1.088h-6.479a3.2,3.2,0,0,0,.7,2.067,2.681,2.681,0,0,0,2.063.7,4.572,4.572,0,0,0,2.656-.827Zm-4.017-7.986a1.959,1.959,0,0,0-1.631.664,3.3,3.3,0,0,0-.637,1.773h4.017a2.756,2.756,0,0,0-.356-1.806A1.583,1.583,0,0,0,827.805,814.615Zm11.878,0.7a3.643,3.643,0,0,0-1.209-.239,1.969,1.969,0,0,0-1.263.4,1.942,1.942,0,0,0-.681,1.034v7.029h-2.807V812.656H835.9l0.324,1.437h0.086a2.968,2.968,0,0,1,.994-1.241,2.508,2.508,0,0,1,1.468-.435,4.078,4.078,0,0,1,1.275.239Zm5.982,3.46,0.389,1.7h0.13l0.281-1.719,1.641-6.093H851l-3.283,9.815q-0.41,1.218-.788,2.23a10.2,10.2,0,0,1-.831,1.752,3.944,3.944,0,0,1-1,1.142,2.15,2.15,0,0,1-1.306.4,3.717,3.717,0,0,1-1.793-.37l0.518-2.263a1.722,1.722,0,0,0,.648.13,1.418,1.418,0,0,0,.961-0.424,2.883,2.883,0,0,0,.7-1.534l-4.514-10.881h3.37Z" transform="translate(-688 -780)"/>
  <path id="text-1" class="cls-6" d="M750.009,800.975v-10.95h4.713a4.728,4.728,0,0,1,5.254,5.246,5.834,5.834,0,0,1-1.436,4.206,5.3,5.3,0,0,1-4.017,1.5h-4.514Zm2.279-1.554h1.7a3.4,3.4,0,0,0,2.682-1,4.443,4.443,0,0,0,.884-3.022,4.54,4.54,0,0,0-.71-2.612,2.585,2.585,0,0,0-1.177-.992,5.684,5.684,0,0,0-2-.273h-1.376v7.894Zm9.585-7.939v-1.827h2.191v1.827h-2.191Zm0,9.493v-8.124h2.191v8.124h-2.191Zm4.562-.259v-1.605a7.472,7.472,0,0,0,2.782.68q1.347,0,1.347-.917a1.378,1.378,0,0,0-1.11-1.036l-0.74-.3a4.805,4.805,0,0,1-1.724-1.051,1.977,1.977,0,0,1-.518-1.391,2.091,2.091,0,0,1,.881-1.794,4.125,4.125,0,0,1,2.463-.64,11.661,11.661,0,0,1,2.361.289v1.539a6.928,6.928,0,0,0-2.183-.459q-1.362,0-1.361.843a1.22,1.22,0,0,0,1.006.94l0.636,0.244a5.846,5.846,0,0,1,1.987,1.1,1.928,1.928,0,0,1,.559,1.428,2.222,2.222,0,0,1-.951,1.861,4.015,4.015,0,0,1-2.475.714A10.353,10.353,0,0,1,766.435,800.716Zm8.632,3.182V792.851h2.19v1.532a2.955,2.955,0,0,1,4.961-.644,4.672,4.672,0,0,1,.84,2.952,5.154,5.154,0,0,1-.947,3.256,3.055,3.055,0,0,1-2.538,1.213,3.249,3.249,0,0,1-2.316-1.006V803.9h-2.19Zm2.19-5.046a2.3,2.3,0,0,0,1.7.888,1.458,1.458,0,0,0,1.287-.781,3.936,3.936,0,0,0,.481-2.083q0-2.493-1.606-2.493a2.428,2.428,0,0,0-1.864,1.25v3.219Zm11.11,2.308a4.027,4.027,0,0,1-3.023-1.15,4.841,4.841,0,0,1,.008-6.205,4.708,4.708,0,0,1,6.141,0A4.251,4.251,0,0,1,788.367,801.16Zm0.037-1.369q1.887,0,1.887-2.893a3.812,3.812,0,0,0-.5-2.094,1.6,1.6,0,0,0-2.738,0,4.7,4.7,0,0,0,0,4.21A1.531,1.531,0,0,0,788.4,799.791Zm6.078,1.184v-8.124h2.19v1.532a3.184,3.184,0,0,1,2.768-1.717,2.207,2.207,0,0,1,1.716.688,2.681,2.681,0,0,1,.629,1.879v5.742H799.6v-5.2q0-1.385-.918-1.384a2.6,2.6,0,0,0-2,1.472v5.113h-2.19Zm9.8-9.493v-1.827h2.19v1.827h-2.19Zm0,9.493v-8.124h2.19v8.124h-2.19Zm4.777,0V789.292h2.19v5.091a2.955,2.955,0,0,1,4.961-.644,4.672,4.672,0,0,1,.84,2.952,5.156,5.156,0,0,1-.947,3.252,3.042,3.042,0,0,1-2.531,1.217,3.1,3.1,0,0,1-2.323-1.006l-0.407.821h-1.783Zm2.19-2.123a2.3,2.3,0,0,0,1.7.888,1.457,1.457,0,0,0,1.287-.781,3.936,3.936,0,0,0,.481-2.083q0-2.493-1.605-2.493a2.43,2.43,0,0,0-1.865,1.25v3.219Zm7.7,2.123V789.292h2.19v11.683h-2.19Zm11.391-.274a10.5,10.5,0,0,1-2.96.459,4.389,4.389,0,0,1-3.211-1.154,4.215,4.215,0,0,1-1.176-3.152,4.263,4.263,0,0,1,1.076-3.037,3.714,3.714,0,0,1,2.845-1.151,3.009,3.009,0,0,1,2.605,1.125,6.1,6.1,0,0,1,.821,3.559H825.3a2.291,2.291,0,0,0,2.553,2.323,7.261,7.261,0,0,0,2.486-.511V800.7Zm-5.068-4.587h2.915q0-2.079-1.34-2.079Q825.486,794.035,825.271,796.114Zm18.638,4.587a10.5,10.5,0,0,1-2.959.459,4.387,4.387,0,0,1-3.211-1.154,4.212,4.212,0,0,1-1.177-3.152,4.264,4.264,0,0,1,1.077-3.037,3.712,3.712,0,0,1,2.845-1.151,3.007,3.007,0,0,1,2.6,1.125,6.1,6.1,0,0,1,.821,3.559h-5.038a2.29,2.29,0,0,0,2.552,2.323,7.261,7.261,0,0,0,2.486-.511V800.7Zm-5.068-4.587h2.915q0-2.079-1.339-2.079Q839.055,794.035,838.841,796.114Zm7.181,4.861v-8.124h2.19v1.532a3.182,3.182,0,0,1,2.767-1.717,2.208,2.208,0,0,1,1.717.688,2.681,2.681,0,0,1,.629,1.879v5.742h-2.19v-5.2q0-1.385-.918-1.384a2.6,2.6,0,0,0-2,1.472v5.113h-2.19Z" transform="translate(-688 -780)"/>
</svg>





