<?xml version="1.0" encoding="UTF-8"?>
<svg version="1.1" viewBox="0 0 2048 606" width="178" height="100" xmlns="http://www.w3.org/2000/svg">
<path transform="translate(96,29)" d="m0 0h1859l12 2 12 5 10 6 10 9 6 7 8 16 2 8 1 10v408l-1 23-4 13-5 10-11 13-13 9-12 5-47 1-1843-1-16-8-12-11-7-9-6-12-3-13v-436l4-15 8-13 9-10 11-8 11-5 11-3z" fill="#050507"/>
<path transform="translate(224,103)" d="m0 0h217l23 2 19 4 16 6 14 8 12 11 7 10 7 15 5 19 2 18v214l-2 18-5 19-8 17-9 11-9 8-12 7-16 6-18 4-13 2h-242l-19-2-20-5-14-6-11-7-8-7-10-14-7-16-4-16-2-14-1-15v-198l2-22 5-21 8-16 7-10 9-9 13-8 15-6 17-4 14-2z" fill="#E6534F"/>
<path transform="translate(96,29)" d="m0 0h1859l12 2 12 5 10 6 10 9 6 7 8 16 2 8 1 10v408l-1 23-4 13-5 10-11 13-13 9-12 5-47 1-1843-1-16-8-12-11-7-9-6-12-3-13v-436l4-15 8-13 9-10 11-8 11-5 11-3zm7 12-15 2-16 8-10 9-6 8-5 11-2 15v410l1 18 4 11 6 10 7 8 11 7 9 4 9 2 69 1 130 1h235l45 1h1250l95-2 35-1 12-3 12-6 10-9 7-9 5-11 2-14v-416l-2-16-4-10-8-11-8-7-10-6-12-4-8-1z" fill="#C4C3C5"/>
<path transform="translate(90,30)" d="m0 0 1842 1v1l-33 1-64 1h-938l-384 1h-283l-123 2v2l-8 1 4 2-15 2-16 8-10 9-6 9-4 9-2 15v410l1 18 4 11 6 10 6 7 11 7 9 4 9 2 69 1 130 1h235l45 1 1079 1v1l-1076 1-27 1-8 1-38 1-232 1h-193l-16-8-12-11-7-9-6-12-3-13v-436l4-15 8-13 9-10 11-8 11-5z" fill="#A7A8AB"/>
<path transform="translate(1e3 335)" d="m0 0h14l9 2 12 6 7 7 8 16 2 9v25l-2 10-5 12-7 9-9 8-13 6-7 2h-29l-5-2v42l-6 2-27 1-1-1v-151h31l1 1v9l9-5 14-7z" fill="#F8F9F8"/>
<path transform="translate(868,335)" d="m0 0h13l12 3 10 6 7 7 7 14 3 14v18l-4 17-5 10-8 10-10 7-9 4-8 2-17 1-12-1-5-2v42l-7 2-25 1-1-1-1-151h31l2 5 1 5 14-9 7-3z" fill="#F9FAF9"/>
<path transform="translate(701,301)" d="m0 0h31l7 15 26 60 15 35 10 23 3 7v5h-34l-7-15-8-21h-57l-13 34-2 2h-32l1-6 15-37 11-25 16-38 11-26 5-12z" fill="#F9F9F9"/>
<path transform="translate(1137,300)" d="m0 0h35l21 5 9 4 1 5-6 18-7-1-16-5-7-1h-23l-13 4-9 6-8 9-5 11-2 7-1 9v9l3 15 6 12 6 7 8 5 10 3 6 1h13l17-3 1-2 1-23-32 1-1-1-1-13 1-10h64l1 1v62l-5 3-20 6-16 3-24 1-17-2-18-6-10-6-12-11-7-10-6-15-2-7-1-9v-14l2-13 4-13 5-9 7-9 7-7 14-9 13-5z" fill="#F8F9F8"/>
<path transform="translate(1277,335)" d="m0 0h14l13 2 12 4 6 4 7 7 5 10 2 13 1 71h-31l-1-1v-11l-16 10-9 3-15 1-13-2-9-5-6-5-6-12-1-6v-9l3-10 4-6 7-6 12-5 11-2h37l-3-11-4-6-8-4h-19l-18 4-5 2-4-1-4-18v-3l17-5 10-2z" fill="#F9F9F9"/>
<path transform="translate(1550,335)" d="m0 0h13l11 2 12 5 10 9 4 5 5 10 3 11 1 6v14l-2 1h-73l4 12 6 8 8 4 9 2h9l20-4 10-1 6 16-1 4-10 4-18 4-23 1-15-2-13-5-8-5-5-4-7-11-4-10-1-11-2-8 2-5 1-12 6-15 8-10 9-7 11-5z" fill="#F8F9F8"/>
<path transform="translate(1710,338)" d="m0 0h33l4 9 12 35 6 18 2 12 4-10 9-27 13-36 1-1h32l-1 5-18 47-18 46-9 22-8 13-10 10-14 7-10 2h-22l-10-2-2-2 1-7 4-13 4-2 5 2h12l10-5 7-8 2-7-5-15-10-25-19-49-5-14z" fill="#F8F9F8"/>
<path transform="translate(1654,567)" d="m0 0h116l82 1 16 1 5 1 25 1 45 1v1l-20 1-1650-1v-1l232-1 38-1 8-1 27-1z" fill="#FBFCFB"/>
<path transform="translate(731,108)" d="m0 0h32l14 2 16 8 8 9 5 11 2 8v18l-3 14-6 11-7 7-8 5-14 4-10 1h-31l-2-1v-95z" fill="#F4F4F4"/>
<path transform="translate(1460,291)" d="m0 0h9l1 124 2 6 3 1h11l3 9 2 12-6 3-13 2h-13l-9-3-8-7-4-6-2-8v-130l1-1z" fill="#F8F9F8"/>
<path transform="translate(1388,291)" d="m0 0h9l1 5v51l1 69 1 5 16 2 2 7 2 13-9 4-9 1h-14l-9-3-9-8-4-8v-135l1-1z" fill="#F8F9F9"/>
<path transform="translate(1233,101)" d="m0 0h13l1 1v40l13-8 4-1h15l9 4 7 8 4 9 1 4v22l-3 10-6 9-8 6-7 2h-14l-8-3-9-6v8h-11l-1-1z" fill="#F4F5F5"/>
<path transform="translate(962,133)" d="m0 0h15l8 3 7 6 5 10 2 10v15l-3 12-5 8-8 7-8 3h-14l-10-4-5-4v14l-1 20h-13v-99h10l1 1 1 8 6-4z" fill="#F5F6F5"/>
<path transform="translate(134,30)" d="m0 0 1798 1v1l-33 1-64 1h-1189l-468-1-43-1z" fill="#818288"/>
<path transform="translate(1690,335)" d="m0 0h11l7 2-3 23-1 3h-16l-9 3-9 7-4 5-1 67-1 1h-31l-1-1-1-106 1-1h30l2 3v13l12-12 10-6z" fill="#F7F8F7"/>
<path transform="translate(1042,133)" d="m0 0h19l9 3 6 4 5 5 5 10 2 11-1 13-4 11-4 6-8 7-11 4h-20l-10-3-9-8-5-10-2-7v-17l4-12 7-9 9-6z" fill="#F3F4F4"/>
<path transform="translate(1694,34)" d="m0 0h171l2 1 40 1 6 1v1l23 1v1h-1332v-1l58-1 10-2h202l-2 1v2l171-1 16-1h44l11 1h248v-2l63-1z" fill="#E8E9EA"/>
<path transform="translate(309,217)" d="m0 0h5l5 8 5 16 3 19 1 11v32l-2 35h-4l-7-10-14-21-12-20-7-15-4-12-1-6v-9l4-11 8-9 10-5z" fill="#FCFDFC"/>
<path transform="translate(349,217)" d="m0 0 9 1 11 4 9 7 4 5 3 7v15l-3 12-7 16-7 13-12 19-8 11-9 12h-2l-1-3-1-17v-56l4-22 5-17 4-6z" fill="#FCFDFC"/>
<path transform="translate(2e3 128)" d="m0 0h1l1 140h1l2 118 1 8 1 1 3 25 1 18v90l-6 15-11 14-10 8-14 7-3 1h-27l-45-1-25-1-5-1-16-1-166-2v-1h139l95-2 35-1 12-3 12-6 10-9 7-10 4-9 2-14z" fill="#ACA9AC"/>
<path transform="translate(648,35)" d="m0 0h777v1l-61 1-2 2h-252l-7-1h-49l-19 1h-163v-2h-200l-10 2-58 1h-400v-1l17-1v-1l57-1h107l71 1v1h26v-1z" fill="#D8D3D5"/>
<path transform="translate(741,119)" d="m0 0h21l12 3 7 4 5 5 4 6 3 12v15l-3 13-6 9-9 6-11 3h-23z" fill="#050507"/>
<path transform="translate(249,246)" d="m0 0 6 5 9 11 10 13 7 10 10 15 8 13 14 24 3 5v3l-5-1-27-14-22-12-12-8-13-11-6-12-1-10 3-10 7-11z" fill="#FCFDFC"/>
<path transform="translate(412,246)" d="m0 0 4 2 9 11 7 14v13l-5 10-8 9-15 11-22 12-23 12-10 5h-2l1-5 12-21 13-21 8-12 14-19 13-16z" fill="#FCFDFC"/>
<path transform="translate(1502,133)" d="m0 0h17l10 4 6 5 5 9 2 6v13l-5 3h-49l4 13 4 6 5 3 5 1h11l16-3 6-1v9l-8 4-10 2h-20l-10-3-8-6-6-10-2-7v-21l5-13 7-8 10-5z" fill="#F2F3F2"/>
<path transform="translate(1380,133)" d="m0 0h18l8 3 8 6 6 10 2 10-1 9-5 2h-48l3 13 7 8 8 2h11l12-2 9-2 1 4-2 6-11 4-5 1h-20l-11-3-9-8-6-12-1-4v-19l4-11 6-8 7-6z" fill="#F2F2F2"/>
<path transform="translate(212,124)" d="m0 0h7l20 12 21 10 17 6 22 5 14 2h37l19-3 25-7 19-8 15-8 11-7h4v-2h5v2l3 1-1 5-12 9-19 11-24 10-19 6-14 3-15 2h-36l-27-5-30-10-19-9-21-14-2-4h-2v-5z" fill="#F6887B"/>
<path transform="translate(897,33)" d="m0 0h57l740 1v1l-1046 1-90 1-55 1v1h-96v-1l-22-1h-107l-51 1v1l20 1v1h-151l3-2h8v-2l10-1 113-2h287z" fill="#BDBEC1"/>
<path transform="translate(2014,82)" d="m0 0h1l1 10v408l-1 23h-1l-1-85-2-29-2-14-1-1-1-8-1-57-1-36h-1l-1-165v-41h1l1 7 1 106 1-11v-8l6 5z" fill="#CDCED0"/>
<path transform="translate(858,360)" d="m0 0h14l7 4 5 8 3 14-1 14-4 12-5 7-8 5-11 2-12-2-4-2v-52l7-6z" fill="#050507"/>
<path transform="translate(992,360)" d="m0 0h15l6 4 5 6 2 6 1 18-2 13-4 8-9 8-5 2h-17l-7-3v-52l5-5z" fill="#050507"/>
<path transform="translate(1593,133)" d="m0 0h14l7 3 7 6 4 8 1 6v49l-1 1h-12l-1-1-1-48-4-9-5-3h-11l-8 5-5 5-1 2-1 48-1 1h-12l-1-1v-70l1-1h11l1 1 1 8 11-8z" fill="#F0F1F1"/>
<path transform="translate(1137,133)" d="m0 0h15l7 3 6 5 4 8 1 4 1 29v23l-1 1h-13l-1-48-3-8-1-3-6-2h-10l-9 5-5 6-1 49-1 1h-13v-72h12l1 8h2l10-7z" fill="#F3F4F4"/>
<path transform="translate(443,302)" d="m0 0 5 1 1 4v13l-5 12-8 10-9 6-13 4-60 1 1-4 46-25 27-14z" fill="#FBFCFB"/>
<path transform="translate(215,302)" d="m0 0 6 1 19 10 16 8 30 16 17 10 6 3v2h-61l-10-3-10-6-7-7-6-12-2-8 1-11z" fill="#FCFCFC"/>
<path transform="translate(1047,143)" d="m0 0 12 1 7 4 5 7 2 9v11l-2 9-4 6-6 5-3 1h-16l-8-5-5-10-1-6v-8l2-10 3-6 7-6z" fill="#050507"/>
<path transform="translate(119,566)" d="m0 0h118l18 1h290l33 1v1l-27 1-8 1-38 1-232 1h-135v-1l66-1h21v-2h-72l-33-1z" fill="#CBC9CB"/>
<path transform="translate(210,565)" d="m0 0h320l45 1 1079 1v1h-1399l-45-2z" fill="#86878C"/>
<path transform="translate(886,132)" d="m0 0 16 2 5 3 2 3v6l-3 2-11-4h-13l-5 4v8l5 4 22 10 7 8 1 3v11l-6 9-10 5-4 1h-18l-11-4-3-5v-6l2-2 12 5 6 1h8l7-2 3-4-1-8-5-4-19-8-6-4-4-7-1-10 4-8 8-6z" fill="#F1F2F2"/>
<path transform="translate(1263,144)" d="m0 0h11l6 4 4 6 2 8v15l-3 10-6 7-4 2h-11l-9-5-6-7-1-5v-17l2-8 8-7z" fill="#050507"/>
<path transform="translate(961,144)" d="m0 0h11l6 4 4 5 2 6v20l-3 9-4 5-5 3h-10l-9-4-7-7-1-4v-23l3-5 8-7z" fill="#050507"/>
<path transform="translate(47,362)" d="m0 0h1l1 43 1 99 1 18 4 11 6 10 6 7 11 7 9 4 9 2 69 1 45 1v1l-90 1 33 1v1h-52l-16-1-5-2-1-3h-5l-7-3-6-6h-2l-6-8-4-7-2-6-2-7v-9l-2-11v-20l-1-2-1-45 2-61 1-11z" fill="#B6B2B4"/>
<path transform="translate(672,36)" d="m0 0h202l-2 1v2l171-1 16-1h44l11 1 247 1v1h-757v-1l58-1z" fill="#E6E7E8"/>
<path transform="translate(648,35)" d="m0 0h24v2l-10 2-58 1h-400v-1l17-1v-1l57-1h107l71 1v1h26v-1z" fill="#D7D2D4"/>
<path transform="translate(1321,101)" d="m0 0h13v105h-13z" fill="#FAFBFA"/>
<path transform="translate(230,34)" d="m0 0h396v1l-82 1-266 1-51 1v1l20 1v1h-151l3-2h8v-2l10-1z" fill="#B8B4B6"/>
<path transform="translate(84,40)" d="m0 0m-1 1m-1 1m-6 1h6l-3 3h-2v3l-9 6-8 8-8 16-2 15-1 74-1 35-2 1-4-28-2-75v-8l5-17 4-7 1-3 5-4 2-4h2v-2h2v-2l5-5 3-1v-2z" fill="#B6B2B5"/>
<path transform="translate(828,134)" d="m0 0h13l1 1v70l-1 1h-12l-1-1z" fill="#F1F2F1"/>
<path transform="translate(714,335)" d="m0 0 3 3 9 24 9 23v1l-39 1 1-5 15-39z" fill="#050507"/>
<path transform="translate(1195,134)" d="m0 0h13l1 3v68l-1 1h-13l-1-50v-21z" fill="#F3F4F4"/>
<path transform="translate(306,357)" d="m0 0v3l-9 6-16 9-12 5h-9l-9-4-8-6-8-9v-1z" fill="#FAFBFA"/>
<path transform="translate(355,358)" d="m0 0h18l54 2-2 4-4 5-9 7-9 4h-10l-16-7-20-12z" fill="#FBFCFB"/>
<path transform="translate(1276,398)" d="m0 0h26l1 1 1 12-2 5-9 6-8 3-10 1-7-3-4-6-1-6 3-8 6-4z" fill="#050507"/>
<path transform="translate(391,405)" d="m0 0 2 1-1 6-8 21-4 8h-6l-7-16-2-4-2 2-7 18h-6l-5-10-7-20-1-5h6l3 4 6 17 2 1 3-10 4-10 2-2 5 1 4 8 4 11v2l2-1 6-17 3-4z" fill="#F8F9F8"/>
<path transform="translate(210,565)" d="m0 0h320l45 1 24 1v1h-344l-45-2z" fill="#939498"/>
<path transform="translate(1551,357)" d="m0 0h10l8 3 5 6 3 9v3h-41l-1-4 4-8 4-5z" fill="#050507"/>
<path transform="translate(318,405)" d="m0 0 3 1 6 11 11 22-1 3-6-1-4-6h-18l-3 6h-7l-1-2 8-16 8-15z" fill="#F7F7F7"/>
<path transform="translate(1382,143)" d="m0 0h12l7 3 4 5 3 7v5h-39l-1-3 3-8 5-6z" fill="#050507"/>
<path transform="translate(1502,143)" d="m0 0h13l8 4 4 7 1 9h-39l1-8 4-6 6-5z" fill="#050507"/>
<path transform="translate(215,406)" d="m0 0h6l1 1 1 13 17 1v-14l1-1h7v35l-5 1-3-2v-13h-18v14l-1 1h-5l-1-1z" fill="#F6F6F6"/>
<path transform="translate(2e3 531)" d="m0 0 2 1-1 7h-2l-1 5-5 8h-2v2h-2v2l-12 8-11 4-2-1 1 3h-35l-33-1-10-1v-2l39-1 22-1 16-3 11-5 9-6 7-7 6-10z" fill="#BCBCBF"/>
<path transform="translate(402,406)" d="m0 0h27l1 5-1 1-19 1-2 7 13-1 2 1v5l-1 1-13 1v7l4 1h17l1 5-7 2h-21l-2-2v-33z" fill="#F9FAF9"/>
<path transform="translate(423,567)" d="m0 0h122l33 1v1l-27 1-8 1-38 1h-62l-24-2-1-2z" fill="#B9B6B8"/>
<path transform="translate(260,406)" d="m0 0h7l1 21 2 6 4 2 8-1 3-5 1-23h7v26l-4 6-7 4h-11l-6-3-4-5-1-2z" fill="#FAFAF9"/>
<path transform="translate(1654,567)" d="m0 0h116l82 1 16 1 5 1 25 1v1h-29l-39-2h-156l-19-1z" fill="#E4E5E6"/>
<path transform="translate(113,36)" d="m0 0h60v1h-10v2l84 1v1h-151l3-2h8v-2z" fill="#B1AFB2"/>
<path transform="translate(178,36)" d="m0 0h100v1l-51 1v1l-23 1h-96v-1h55v-2z" fill="#BFC0C3"/>
<path transform="translate(1876,566)" d="m0 0h11v2h14l47 2 23 1-1 2h-27l-45-1-25-1-5-1-16-1v-1l18-1z" fill="#ABABAE"/>
<path transform="translate(90,564)" d="m0 0h75l45 1v1l-90 1 33 1v1h-52l-9-2z" fill="#AEAEB2"/>
<path transform="translate(453,567)" d="m0 0h92l33 1v1l-27 1-8 1h-22v-1l-65-1z" fill="#BEBFC2"/>
<path transform="translate(441,406)" d="m0 0h6v35h-7v-34z" fill="#F3F2F2"/>
<path transform="translate(1654,567)" d="m0 0h67l43 2v1h-90l-19-1z" fill="#CFCCCE"/>
<path transform="translate(119,566)" d="m0 0h84l15 1v1l-33 1h-32l-33-1z" fill="#DCD9DA"/>
<path transform="translate(1197,106)" d="m0 0h10l2 1 1 7-1 5-2 1h-12l-2-3v-9z" fill="#ECEDED"/>
<path transform="translate(830,106)" d="m0 0h9l4 3v9l-3 2-8 1-5-3-1-7 2-4z" fill="#EDEDED"/>
<path transform="translate(385,36)" d="m0 0h96v2l-2 1h-72v-1l-22-1z" fill="#C2C2C5"/>
<path transform="translate(1926,565)" d="m0 0h27l-2 3-18 1h-36l-10-1v-2z" fill="#DBD7D9"/>
<path transform="translate(1907,36)" d="m0 0h30l3 2 16 2v1h-81v-1l36-1z" fill="#B9B9BC"/>
<path transform="translate(1813,568)" d="m0 0h39l16 1 5 1 25 1v1h-29l-56-3z" fill="#DDDADB"/>
<path transform="translate(1876,566)" d="m0 0h11v2h14l1 2-11 1h-18l-5-1-16-1v-1l18-1z" fill="#BDBCBF"/>
<path transform="translate(1872,36)" d="m0 0h35l6 1v1l23 1v1h-26l-31-1v-2h-7z" fill="#D8D3D5"/>
<path transform="translate(203,566)" d="m0 0h34v2l-6 1h-46v-1l18-1z" fill="#BEBEC1"/>
<path transform="translate(317,416)" d="m0 0 4 2 3 7v3h-11l-1-3 4-8z" fill="#E95D57"/>
<path transform="translate(1993,63)" d="m0 0 4 1v3h2l4 8 1 1v8l-3 1-4-13-4-7z" fill="#BEBDC0"/>
<path transform="translate(443,125)" d="m0 0h4v2h2l-1 5-5 2 4-6-6 2-11 6-3 2-3-1 11-7z" fill="#D7D2D4"/>
<path transform="translate(90,38)" d="m0 0 6 2 7 1v1l-15 2-9 4h-2v-2l6-4 3-3z" fill="#AEACAF"/>
<path transform="translate(1887,566)" d="m0 0h18l11 1 1 2h-20l-10-1z" fill="#D8D3D5"/>
<path transform="translate(1979,48)" d="m0 0 7 4 6 7v2l-4-2-7-6z" fill="#BEBDC0"/>
<path transform="translate(1993,63)" d="m0 0 4 1v3h2l2 4-1 3-5-5z" fill="#C0BFC2"/>
<path transform="translate(514,126)" d="m0 0 4 1 7 7-1 3-4-5-6-5z" fill="#F1766C"/>
</svg>
