<svg version="1.1" id="Layer_1" xmlns="http://www.w3.org/2000/svg" xmlns:xlink="http://www.w3.org/1999/xlink" x="0px" y="0px"
	 width="100%" viewBox="0 0 512 512" enable-background="new 0 0 512 512" xml:space="preserve">
<path fill="transparent" opacity="1.000000" stroke="none" 
	d="
M0.999998,336.000000 
	C1.000000,224.374252 1.000000,112.748497 1.000000,1.061370 
	C171.563217,1.061370 342.126465,1.061370 513.000000,1.061370 
	C513.000000,111.355782 513.000000,221.711853 512.668579,332.785156 
	C511.835999,332.335632 511.334839,331.168915 510.900757,329.591431 
	C510.590088,326.787170 510.212311,324.393646 509.887024,321.614929 
	C509.570831,319.486816 509.202148,317.743896 508.886047,315.617767 
	C508.310547,313.122803 507.682495,311.011078 507.032410,308.500916 
	C506.284729,305.403534 505.559021,302.704559 504.899384,299.604462 
	C504.254730,296.468597 503.544006,293.733795 502.896790,290.610413 
	C502.009125,287.134369 501.058014,284.046967 500.061951,280.577271 
	C499.394470,278.107819 498.771881,276.020630 498.088013,273.568726 
	C497.391693,271.456970 496.756622,269.709930 496.071259,267.594299 
	C495.386993,265.471802 494.752991,263.717896 494.068085,261.576294 
	C492.713928,257.444946 491.410706,253.701279 490.047974,249.579834 
	C487.675537,243.435120 485.362610,237.668213 483.011047,231.529099 
	C479.663910,224.069809 476.355408,216.982742 473.012726,209.530487 
	C469.358795,202.101257 465.739044,195.037186 461.967896,187.651459 
	C457.583893,180.873962 453.351379,174.418091 449.059387,167.607910 
	C444.350067,161.134430 439.700226,155.015274 434.914673,148.593018 
	C430.058441,143.901855 425.658081,139.088806 420.537628,135.231735 
	C413.925995,130.251434 406.896149,125.940346 397.982513,125.947304 
	C304.055084,126.020630 210.127518,125.977112 116.200104,126.066978 
	C113.354790,126.069702 110.397530,126.854576 107.685326,127.817833 
	C95.908386,132.000458 88.057701,141.206970 79.588272,150.133316 
	C78.554108,151.339844 77.811905,152.379395 77.079109,153.425537 
	C73.701538,158.247360 70.326584,163.071030 66.635086,168.041367 
	C63.912441,171.798676 61.505409,175.408630 58.955727,179.343842 
	C56.504940,183.767426 54.196800,187.865723 51.583794,192.140533 
	C49.556503,196.089417 47.834084,199.861816 45.838783,203.817047 
	C42.099281,211.332260 38.632656,218.664627 35.000881,226.321594 
	C32.279034,232.763565 29.722330,238.880936 26.995617,245.330627 
	C24.533381,252.074081 22.241154,258.485229 19.631443,265.097198 
	C18.508539,268.189911 17.703119,271.081818 16.588875,274.182068 
	C15.814328,276.580078 15.348604,278.769653 14.573090,281.161469 
	C13.564534,284.242889 12.865770,287.122101 11.986803,290.345825 
	C10.926810,294.127533 10.047020,297.564728 9.084948,301.392151 
	C8.298028,305.174927 7.593390,308.567474 6.573068,312.175415 
	C6.133348,313.912903 6.009314,315.435059 5.562247,317.184204 
	C5.121628,319.259125 5.004043,321.106995 4.569974,323.169128 
	C3.890941,325.589813 3.528391,327.796326 3.099799,330.424744 
	C2.984248,332.550873 2.934738,334.255066 2.513778,336.131714 
	C1.761551,336.202789 1.380773,336.101410 0.999998,336.000000 
M230.500000,98.997276 
	C222.008453,98.997284 213.516815,98.976288 205.025375,99.005066 
	C199.830307,99.022667 198.036942,100.890587 198.002182,106.192825 
	C197.990494,107.976799 198.000336,109.760902 198.000336,111.750366 
	C237.501587,111.750366 276.537598,111.750366 315.540131,111.750366 
	C316.788635,102.518745 316.934479,98.653549 304.924652,98.867081 
	C280.456757,99.302101 255.975662,98.997276 230.500000,98.997276 
M240.501465,84.997360 
	C257.242615,84.997360 273.983765,84.997360 290.671143,84.997360 
	C291.510925,75.133224 289.559204,72.997292 280.263031,72.997200 
	C263.472076,72.997025 246.679977,73.104691 229.890854,72.928818 
	C225.119476,72.878838 223.512482,75.449532 223.037949,79.440132 
	C222.832214,81.170288 223.003433,82.945282 223.003433,84.997360 
	C228.908249,84.997360 234.205231,84.997360 240.501465,84.997360 
z"/>
<path fill="transparent" opacity="1.000000" stroke="none" 
	d="
M513.000000,386.000000 
	C513.000000,428.309113 513.000000,470.618195 513.000000,512.963623 
	C342.455231,512.963623 171.910461,512.963623 1.000000,512.963623 
	C1.000000,471.313141 1.000000,429.625244 1.215007,387.117462 
	C1.916914,386.546997 2.403814,386.796356 2.936639,387.455902 
	C3.638474,390.613525 4.294384,393.360931 4.972189,396.495422 
	C5.718099,399.254974 6.442114,401.627441 7.203506,404.340942 
	C8.244329,406.658051 9.247775,408.634155 10.470806,410.888733 
	C12.753961,414.125580 14.817531,417.083893 17.027237,420.357056 
	C19.744978,423.129974 22.316584,425.588043 25.055622,428.355896 
	C31.413069,431.788086 37.372219,435.543579 43.840717,437.902191 
	C57.698421,442.955048 71.791519,442.486420 85.490982,437.077026 
	C91.863907,434.560547 97.874710,431.127045 104.285309,428.055664 
	C104.520958,428.002106 104.986488,427.872192 105.263657,427.905762 
	C105.745041,427.642181 105.949249,427.345032 106.451683,426.904358 
	C109.204720,424.528137 111.659538,422.295380 114.414024,419.898865 
	C116.847397,416.503632 118.981087,413.272186 121.412674,409.885742 
	C122.751579,407.820404 123.792587,405.910095 124.989342,403.686584 
	C126.711105,400.910370 128.277115,398.447327 129.999878,395.669128 
	C131.805771,392.586060 133.454941,389.818207 135.406601,386.883789 
	C137.083344,384.146301 138.457581,381.575348 139.986237,378.689819 
	C141.705032,375.917969 143.269409,373.460724 144.989670,370.687714 
	C146.446976,367.949615 147.748428,365.527283 149.354431,362.933838 
	C151.383911,359.842163 153.108826,356.921600 155.023132,353.645416 
	C156.969955,352.526550 158.726181,351.099060 160.484940,351.095978 
	C225.182083,350.981964 289.879456,350.993103 354.576752,351.042084 
	C356.107788,351.043243 357.638397,351.670807 359.218384,352.350739 
	C361.496216,356.500885 363.724884,360.306458 366.098938,364.425842 
	C367.884399,367.492310 369.524536,370.244965 371.205475,373.337616 
	C372.547455,375.786865 373.848572,377.896118 375.187103,380.347809 
	C376.771820,383.142426 378.319092,385.594604 380.023895,388.362244 
	C381.750092,391.133606 383.318787,393.589539 384.941742,396.377441 
	C386.031403,398.249512 387.066803,399.789642 388.090637,401.716675 
	C389.681335,404.749390 391.283569,407.395233 392.937927,410.394073 
	C395.311340,413.535309 397.632629,416.323517 400.086578,419.412567 
	C402.440125,421.822021 404.660980,423.930664 407.032501,426.355713 
	C425.006287,440.064240 444.823120,444.262329 466.421356,438.901703 
	C475.065826,436.756226 483.502502,433.694611 490.366486,426.966064 
	C493.400208,423.883392 496.117004,420.942810 498.985443,417.690979 
	C500.440277,415.286133 501.743500,413.192535 503.360657,410.921387 
	C505.059723,407.497681 506.444855,404.251465 507.901306,400.622223 
	C508.352997,398.506531 508.733368,396.773895 509.439148,394.833801 
	C510.120758,392.084930 510.476959,389.543488 511.032776,386.651672 
	C511.821564,386.200867 512.410767,386.100433 513.000000,386.000000 
z"/>
<path fill="#6C6CAE" opacity="1.000000" stroke="none" 
	d="
M0.999998,336.449982 
	C1.380773,336.101410 1.761551,336.202789 2.987275,336.141357 
	C173.554810,335.985718 343.277405,335.992859 513.000000,336.000000 
	C513.000000,339.030609 513.000000,342.061188 512.591675,345.457581 
	C509.046234,345.548981 505.909149,345.035187 502.771973,345.034454 
	C335.514648,344.995605 168.257324,345.000061 1.000000,345.000000 
	C1.000000,342.299988 1.000000,339.599976 0.999998,336.449982 
z"/>
<path fill="#6571B2" opacity="1.000000" stroke="none" 
	d="
M1.000000,345.449982 
	C168.257324,345.000061 335.514648,344.995605 502.771973,345.034454 
	C505.909149,345.035187 509.046234,345.548981 512.591675,345.911682 
	C513.000000,347.714355 513.000000,349.428711 512.531372,351.572021 
	C461.098175,352.002716 410.133698,352.004456 359.169189,352.006165 
	C357.638397,351.670807 356.107788,351.043243 354.576752,351.042084 
	C289.879456,350.993103 225.182083,350.981964 160.484940,351.095978 
	C158.726181,351.099060 156.969955,352.526550 154.565186,353.645020 
	C102.945213,354.000183 51.972607,354.000092 1.000000,354.000000 
	C1.000000,351.299988 1.000000,348.599976 1.000000,345.449982 
z"/>
<path fill="#7168AB" opacity="1.000000" stroke="none" 
	d="
M513.000000,335.625000 
	C343.277405,335.992859 173.554810,335.985718 3.358726,335.968872 
	C2.934738,334.255066 2.984248,332.550873 3.557767,330.424194 
	C172.999084,330.001862 341.916412,330.002014 510.833710,330.002167 
	C511.334839,331.168915 511.835999,332.335632 512.668579,333.251190 
	C513.000000,333.750000 513.000000,334.500000 513.000000,335.625000 
z"/>
<path fill="#577BBA" opacity="1.000000" stroke="none" 
	d="
M371.164642,372.997620 
	C369.524536,370.244965 367.884399,367.492310 366.284882,364.079346 
	C368.503052,362.946045 370.679871,362.063965 372.858215,362.060272 
	C419.572052,361.980957 466.286041,362.000000 513.000000,362.000000 
	C513.000000,365.361298 513.000000,368.722565 512.531372,372.540955 
	C465.096680,372.997894 418.130646,372.997772 371.164642,372.997620 
z"/>
<path fill="#5E76B6" opacity="1.000000" stroke="none" 
	d="
M513.000000,361.545898 
	C466.286041,362.000000 419.572052,361.980957 372.858215,362.060272 
	C370.679871,362.063965 368.503052,362.946045 366.139526,363.765533 
	C363.724884,360.306458 361.496216,356.500885 359.218384,352.350739 
	C410.133698,352.004456 461.098175,352.002716 512.531372,352.000488 
	C513.000000,355.030609 513.000000,358.061188 513.000000,361.545898 
z"/>
<path fill="#577BBA" opacity="1.000000" stroke="none" 
	d="
M149.049881,363.104950 
	C147.748428,365.527283 146.446976,367.949615 144.531677,370.686890 
	C96.278542,371.001251 48.639271,371.000641 1.000000,371.000000 
	C1.000000,368.299988 1.000000,365.599976 1.468657,362.449982 
	C48.553608,362.000000 95.169922,361.983459 141.786133,362.047028 
	C144.207855,362.050323 146.628647,362.736633 149.049881,363.104950 
z"/>
<path fill="#5E76B6" opacity="1.000000" stroke="none" 
	d="
M149.354431,362.933838 
	C146.628647,362.736633 144.207855,362.050323 141.786133,362.047028 
	C95.169922,361.983459 48.553608,362.000000 1.468657,362.000000 
	C1.000000,359.629425 1.000000,357.258881 1.000000,354.444153 
	C51.972607,354.000092 102.945213,354.000183 154.375778,354.000671 
	C153.108826,356.921600 151.383911,359.842163 149.354431,362.933838 
z"/>
<path fill="#5081BE" opacity="1.000000" stroke="none" 
	d="
M1.000000,371.444153 
	C48.639271,371.000641 96.278542,371.001251 144.375809,371.002686 
	C143.269409,373.460724 141.705032,375.917969 139.528366,378.688965 
	C92.944054,379.001831 46.972027,379.000916 1.000000,379.000000 
	C1.000000,376.629425 1.000000,374.258881 1.000000,371.444153 
z"/>
<path fill="#4985C2" opacity="1.000000" stroke="none" 
	d="
M379.866394,388.046783 
	C378.319092,385.594604 376.771820,383.142426 375.596313,380.305359 
	C379.097321,379.613800 382.226166,379.044495 385.355774,379.040131 
	C427.903778,378.980988 470.451904,379.000153 513.000000,379.000000 
	C513.000000,381.041656 513.000000,383.083344 513.000000,385.562500 
	C512.410767,386.100433 511.821564,386.200867 510.574768,386.651215 
	C469.343994,387.000763 428.770721,386.979919 388.197571,387.045074 
	C385.419983,387.049530 382.643433,387.697876 379.866394,388.046783 
z"/>
<path fill="#4985C2" opacity="1.000000" stroke="none" 
	d="
M1.000000,379.444153 
	C46.972027,379.000916 92.944054,379.001831 139.373962,379.003601 
	C138.457581,381.575348 137.083344,384.146301 135.014145,386.724030 
	C132.187851,386.487732 130.056747,386.034912 127.925156,386.032593 
	C88.690636,385.990112 49.456024,385.982849 10.221560,386.046234 
	C7.777414,386.050171 5.334309,386.697632 2.890716,387.045715 
	C2.403814,386.796356 1.916914,386.546997 1.215007,386.648804 
	C1.000000,384.629425 1.000000,382.258881 1.000000,379.444153 
z"/>
<path fill="#5081BE" opacity="1.000000" stroke="none" 
	d="
M513.000000,378.571533 
	C470.451904,379.000153 427.903778,378.980988 385.355774,379.040131 
	C382.226166,379.044495 379.097321,379.613800 375.558899,379.962921 
	C373.848572,377.896118 372.547455,375.786865 371.205475,373.337616 
	C418.130646,372.997772 465.096680,372.997894 512.531372,372.999023 
	C513.000000,374.714355 513.000000,376.428711 513.000000,378.571533 
z"/>
<path fill="#DA5479" opacity="1.000000" stroke="none" 
	d="
M79.884575,149.969360 
	C88.057701,141.206970 95.908386,132.000458 107.685326,127.817833 
	C110.397530,126.854576 113.354790,126.069702 116.200104,126.066978 
	C210.127518,125.977112 304.055084,126.020630 397.982513,125.947304 
	C406.896149,125.940346 413.925995,130.251434 420.537628,135.231735 
	C425.658081,139.088806 430.058441,143.901855 434.668640,148.900696 
	C432.196228,150.007523 429.834412,150.936050 427.471985,150.937546 
	C314.571350,151.008698 201.670700,151.007523 88.770065,150.956528 
	C85.808083,150.955200 82.846397,150.312790 79.884575,149.969360 
z"/>
<path fill="#D3507C" opacity="1.000000" stroke="none" 
	d="
M79.588272,150.133301 
	C82.846397,150.312790 85.808083,150.955200 88.770065,150.956528 
	C201.670700,151.007523 314.571350,151.008698 427.471985,150.937546 
	C429.834412,150.936050 432.196228,150.007523 434.804382,149.203781 
	C439.700226,155.015274 444.350067,161.134430 448.583130,167.615417 
	C431.172272,167.984833 414.178162,167.998428 397.184082,167.998962 
	C320.710571,168.001373 244.237045,167.979523 167.763702,168.088058 
	C165.162750,168.091736 162.563629,169.392639 159.568268,170.036652 
	C151.476761,166.587372 143.792252,167.624496 135.718109,169.886292 
	C133.031601,169.485138 130.738968,169.039062 128.444962,169.031876 
	C110.027863,168.974182 91.610344,169.034424 73.193443,168.950562 
	C71.110970,168.941086 69.031532,168.262390 66.950691,167.894028 
	C70.326584,163.071030 73.701538,158.247360 77.079109,153.425537 
	C77.811905,152.379395 78.554108,151.339844 79.588272,150.133301 
z"/>
<path fill="#87579F" opacity="1.000000" stroke="none" 
	d="
M504.833344,300.005554 
	C505.559021,302.704559 506.284729,305.403534 506.678253,308.723755 
	C504.046112,309.563690 501.746216,309.972076 499.446075,309.973480 
	C440.962402,310.008667 382.478668,309.966431 323.995209,310.091705 
	C320.648865,310.098877 317.305359,311.412964 313.628113,311.947449 
	C312.343323,311.181976 311.401978,310.092712 310.436890,310.071320 
	C302.099091,309.886139 293.732483,309.526245 285.432098,310.081055 
	C283.133362,310.234680 281.027618,313.276672 278.437073,314.899506 
	C269.983734,314.536224 261.926544,314.061890 253.869461,314.063660 
	C247.634827,314.065033 241.400345,314.662415 235.087189,314.635254 
	C233.687943,312.880371 232.505966,310.454712 231.024399,310.255371 
	C220.648041,308.859100 210.136612,306.760742 199.642975,312.030640 
	C179.226181,312.014282 159.285446,312.004089 139.344696,311.997925 
	C95.192711,311.984222 51.040733,311.972534 6.888751,311.960022 
	C7.593390,308.567474 8.298028,305.174927 9.542830,301.391754 
	C47.321396,301.000732 84.559837,301.021240 121.798111,300.951782 
	C124.213699,300.947296 126.627983,300.250824 129.351044,300.024231 
	C132.432663,302.133484 134.957764,304.710907 138.023666,305.946655 
	C149.781845,310.685913 160.167679,308.273285 169.279572,299.045776 
	C172.830383,299.426727 175.964432,299.964966 179.098724,299.966248 
	C287.676910,300.010712 396.255127,300.004517 504.833344,300.005554 
z"/>
<path fill="#CD4D7E" opacity="1.000000" stroke="none" 
	d="
M159.963654,170.088898 
	C162.563629,169.392639 165.162750,168.091736 167.763702,168.088058 
	C244.237045,167.979523 320.710571,168.001373 397.184082,167.998962 
	C414.178162,167.998428 431.172272,167.984833 448.642578,167.969742 
	C453.351379,174.418091 457.583893,180.873962 461.491150,187.656189 
	C442.458405,187.988678 423.750305,187.930084 405.044220,188.093689 
	C403.010895,188.111465 400.988831,189.412338 398.658813,189.950409 
	C391.659119,177.609344 375.481689,175.678848 365.635559,182.939865 
	C363.088470,182.565262 360.952179,182.039368 358.815613,182.038330 
	C296.838623,182.008057 234.861603,182.030243 172.576950,181.900452 
	C168.167435,177.867554 164.065536,173.978226 159.963654,170.088898 
z"/>
<path fill="#7962A7" opacity="1.000000" stroke="none" 
	d="
M510.900757,329.591431 
	C341.916412,330.002014 172.999084,330.001862 3.623809,330.002258 
	C3.528391,327.796326 3.890941,325.589813 5.045763,323.177887 
	C68.302559,322.980835 130.767090,323.001892 193.231567,322.953766 
	C195.860901,322.951721 198.489746,322.306000 201.468384,322.137146 
	C209.995468,322.865875 218.169022,323.687378 226.352890,323.807556 
	C228.858688,323.844330 231.392746,321.957245 234.326508,321.047058 
	C236.361877,321.421539 237.983215,321.932129 239.607513,321.941681 
	C251.505325,322.011749 263.403992,322.020111 275.301575,321.936890 
	C276.905853,321.925659 278.505798,321.294495 280.438599,321.119751 
	C281.728821,321.855042 282.634552,322.778198 283.655884,322.931610 
	C293.782684,324.453064 303.909088,325.275818 314.363190,321.964264 
	C379.837402,321.982056 444.835968,321.991089 509.834534,322.000122 
	C510.212311,324.393646 510.590088,326.787170 510.900757,329.591431 
z"/>
<path fill="#BE4483" opacity="1.000000" stroke="none" 
	d="
M473.046906,209.895660 
	C476.355408,216.982742 479.663910,224.069809 482.656891,231.750961 
	C480.384369,232.562271 478.428223,232.958878 476.470337,232.967545 
	C464.037476,233.022583 451.604218,232.991943 439.007019,232.661804 
	C433.928101,217.724335 418.071350,212.611694 406.553467,219.997559 
	C402.953369,222.306122 400.234619,225.989120 396.636658,229.034134 
	C384.736206,229.031052 373.311493,229.036804 361.590546,228.873444 
	C354.107147,214.707047 336.202820,213.134796 325.721680,222.952606 
	C322.841949,222.574966 320.379547,222.045059 317.916229,222.040741 
	C286.015686,221.984802 254.114990,221.980682 222.214508,222.048813 
	C219.772141,222.054031 217.331131,222.702972 214.588715,222.911819 
	C210.269485,218.386520 205.954376,214.428574 200.201141,212.510941 
	C202.620270,211.793945 204.835541,211.052536 207.051849,211.049469 
	C255.126419,210.982971 303.201172,211.031586 351.275513,210.908554 
	C353.868225,210.901932 356.457611,209.588486 359.361816,209.060699 
	C361.838257,212.172119 363.493866,215.752029 366.256592,217.923157 
	C375.768280,225.398071 390.742645,223.663956 399.361542,210.969879 
	C422.151581,210.984161 444.465942,211.020645 466.779968,210.950378 
	C468.870026,210.943802 470.957977,210.263275 473.046906,209.895660 
z"/>
<path fill="#925099" opacity="1.000000" stroke="none" 
	d="
M504.899384,299.604462 
	C396.255127,300.004517 287.676910,300.010712 179.098724,299.966248 
	C175.964432,299.964966 172.830383,299.426727 169.435852,298.743073 
	C170.839340,295.784637 172.503159,293.222046 174.688004,290.723755 
	C176.538406,290.855835 177.867767,290.982574 179.197174,290.982849 
	C238.127670,290.994598 297.058167,291.006439 355.988617,290.955261 
	C358.283966,290.953247 360.578766,290.334595 363.024475,290.321045 
	C374.086426,300.474884 387.161987,299.371979 396.240356,290.036621 
	C399.456787,290.419708 402.253418,290.956665 405.050995,290.961731 
	C437.645020,291.020508 470.239197,290.999176 502.833313,290.999023 
	C503.544006,293.733795 504.254730,296.468597 504.899384,299.604462 
z"/>
<path fill="#AF3C88" opacity="1.000000" stroke="none" 
	d="
M490.107483,249.957626 
	C491.410706,253.701279 492.713928,257.444946 493.591736,261.583588 
	C464.365570,261.985840 435.564697,261.963074 406.764130,262.045593 
	C403.802551,262.054077 400.842773,262.691711 397.581482,262.897400 
	C396.461121,261.948639 395.554199,261.210327 394.835266,260.320160 
	C387.935638,251.776413 371.073151,251.461487 364.375793,260.083801 
	C363.488770,261.225830 362.209656,262.063293 360.686157,262.997528 
	C350.338928,262.635529 340.418396,262.070709 330.496368,262.043732 
	C291.401062,261.937378 252.305252,262.019653 213.209747,261.952606 
	C210.789856,261.948456 208.371155,261.263000 206.119385,260.600342 
	C209.841949,256.835876 213.397034,253.365524 217.305435,250.118439 
	C219.285583,250.560333 220.912277,250.968430 222.539261,250.969650 
	C256.064392,250.994827 289.589569,250.973709 323.418884,251.101181 
	C333.838684,263.220001 354.822815,262.293274 362.687897,245.744949 
	C374.418213,245.536026 385.626404,245.267395 396.913208,245.354324 
	C401.306763,254.002777 407.599365,258.843414 417.456451,259.139740 
	C425.538330,259.382690 431.055969,255.651245 436.359528,249.968628 
	C454.592773,249.969986 472.350128,249.963806 490.107483,249.957626 
z"/>
<path fill="#C44881" opacity="1.000000" stroke="none" 
	d="
M473.012726,209.530487 
	C470.957977,210.263275 468.870026,210.943802 466.779968,210.950378 
	C444.465942,211.020645 422.151581,210.984161 399.426239,210.579666 
	C402.170624,203.485748 401.877594,196.798386 398.961548,190.118042 
	C400.988831,189.412338 403.010895,188.111465 405.044220,188.093689 
	C423.750305,187.930084 442.458405,187.988678 461.642609,187.977844 
	C465.739044,195.037186 469.358795,202.101257 473.012726,209.530487 
z"/>
<path fill="#E65B74" opacity="1.000000" stroke="none" 
	d="
M231.000000,98.997276 
	C255.975662,98.997276 280.456757,99.302101 304.924652,98.867081 
	C316.934479,98.653549 316.788635,102.518745 315.540131,111.750366 
	C276.537598,111.750366 237.501587,111.750366 198.000336,111.750366 
	C198.000336,109.760902 197.990494,107.976799 198.002182,106.192825 
	C198.036942,100.890587 199.830307,99.022667 205.025375,99.005066 
	C213.516815,98.976288 222.008453,98.997284 231.000000,98.997276 
z"/>
<path fill="#BE4483" opacity="1.000000" stroke="none" 
	d="
M35.166023,225.996994 
	C38.632656,218.664627 42.099281,211.332260 46.363804,203.886871 
	C71.719887,203.848724 96.278076,203.923615 120.905594,204.442856 
	C120.974930,206.803024 120.974930,208.718826 120.974930,211.003510 
	C118.622620,211.003510 116.824654,210.887543 115.046257,211.024933 
	C109.361702,211.464066 103.595894,211.535751 98.025444,212.604218 
	C90.045898,214.134781 84.941452,220.024796 79.639969,226.034180 
	C64.498085,226.016296 49.832054,226.006638 35.166023,225.996994 
z"/>
<path fill="#AF3C88" opacity="1.000000" stroke="none" 
	d="
M19.948929,264.896362 
	C22.241154,258.485229 24.533381,252.074081 27.403755,245.372452 
	C44.696968,245.043106 61.412037,245.004257 78.431152,245.153046 
	C82.230385,255.674622 89.883583,261.312317 99.796371,264.487671 
	C97.879333,265.204346 96.166840,265.941681 94.451889,265.947418 
	C71.534729,266.024414 48.617142,266.025391 25.699965,265.951477 
	C23.781836,265.945282 21.865889,265.263977 19.948929,264.896362 
z"/>
<path fill="#925099" opacity="1.000000" stroke="none" 
	d="
M129.042877,299.876251 
	C126.627983,300.250824 124.213699,300.947296 121.798111,300.951782 
	C84.559837,301.021240 47.321396,301.000732 9.625113,301.001526 
	C10.047020,297.564728 10.926810,294.127533 12.444700,290.345703 
	C49.666328,290.001129 86.249855,290.001190 122.910461,290.356201 
	C125.005981,293.766205 127.024429,296.821228 129.042877,299.876251 
z"/>
<path fill="#7F5EA4" opacity="1.000000" stroke="none" 
	d="
M201.118820,321.960144 
	C198.489746,322.306000 195.860901,322.951721 193.231567,322.953766 
	C130.767090,323.001892 68.302559,322.980835 5.362246,322.963684 
	C5.004043,321.106995 5.121628,319.259125 6.038213,317.192749 
	C70.836533,316.982697 134.835861,316.991058 198.902100,317.351440 
	C199.685623,319.122375 200.402222,320.541260 201.118820,321.960144 
z"/>
<path fill="#7F5EA4" opacity="1.000000" stroke="none" 
	d="
M509.887024,321.614929 
	C444.835968,321.991089 379.837402,321.982056 314.418335,321.614807 
	C314.386597,320.170807 314.775360,319.085022 315.433228,317.734741 
	C318.230652,316.980225 320.758453,316.065491 323.287415,316.062256 
	C385.136017,315.983032 446.984772,316.000671 508.833496,316.000977 
	C509.202148,317.743896 509.570831,319.486816 509.887024,321.614929 
z"/>
<path fill="#825CA2" opacity="1.000000" stroke="none" 
	d="
M508.886047,315.617767 
	C446.984772,316.000671 385.136017,315.983032 323.287415,316.062256 
	C320.758453,316.065491 318.230652,316.980225 315.363617,317.351624 
	C314.670105,315.528229 314.315308,313.823517 313.960510,312.118774 
	C317.305359,311.412964 320.648865,310.098877 323.995209,310.091705 
	C382.478668,309.966431 440.962402,310.008667 499.446075,309.973480 
	C501.746216,309.972076 504.046112,309.563690 506.700256,309.122131 
	C507.682495,311.011078 508.310547,313.122803 508.886047,315.617767 
z"/>
<path fill="#994A95" opacity="1.000000" stroke="none" 
	d="
M502.896790,290.610413 
	C470.239197,290.999176 437.645020,291.020508 405.050995,290.961731 
	C402.253418,290.956665 399.456787,290.419708 396.410217,289.731750 
	C397.828979,286.556946 399.497223,283.780182 401.623749,281.003082 
	C434.756989,280.988312 467.431915,280.973938 500.106873,280.959564 
	C501.058014,284.046967 502.009125,287.134369 502.896790,290.610413 
z"/>
<path fill="#994A95" opacity="1.000000" stroke="none" 
	d="
M122.833374,290.001251 
	C86.249855,290.001190 49.666328,290.001129 12.624903,290.001221 
	C12.865770,287.122101 13.564534,284.242889 15.049320,281.169922 
	C50.834816,280.985382 85.834290,280.994568 121.019699,281.356506 
	C121.748222,284.473267 122.290802,287.237274 122.833374,290.001251 
z"/>
<path fill="#825CA2" opacity="1.000000" stroke="none" 
	d="
M198.835175,316.999420 
	C134.835861,316.991058 70.836533,316.982697 6.361247,316.965759 
	C6.009314,315.435059 6.133348,313.912903 6.573066,312.175415 
	C51.040733,311.972534 95.192711,311.984222 139.344696,311.997925 
	C159.285446,312.004089 179.226181,312.014282 199.582733,312.399109 
	C199.610748,314.183502 199.222961,315.591461 198.835175,316.999420 
z"/>
<path fill="#B63F86" opacity="1.000000" stroke="none" 
	d="
M78.127106,244.965424 
	C61.412037,245.004257 44.696968,245.043106 27.573765,245.040131 
	C29.722330,238.880936 32.279034,232.763565 35.000877,226.321594 
	C49.832054,226.006638 64.498085,226.016296 79.593430,226.433533 
	C79.390869,232.882538 78.758987,238.923965 78.127106,244.965424 
z"/>
<path fill="#C74A80" opacity="1.000000" stroke="none" 
	d="
M51.888664,191.964035 
	C54.196800,187.865723 56.504940,183.767426 59.417976,179.340683 
	C82.055321,179.022842 104.087769,179.033417 126.046585,179.403778 
	C124.355637,184.189438 122.738312,188.615326 120.726639,192.884201 
	C118.044136,192.485077 115.756638,192.040024 113.467735,192.032593 
	C92.941521,191.965958 72.415054,191.976318 51.888664,191.964035 
z"/>
<path fill="#C44881" opacity="1.000000" stroke="none" 
	d="
M51.583794,192.140533 
	C72.415054,191.976318 92.941521,191.965958 113.467735,192.032593 
	C115.756638,192.040024 118.044136,192.485077 120.678543,193.337540 
	C120.961960,197.298096 120.899109,200.648285 120.836266,203.998489 
	C96.278076,203.923615 71.719887,203.848724 46.636681,203.704041 
	C47.834084,199.861816 49.556503,196.089417 51.583794,192.140533 
z"/>
<path fill="#A4428E" opacity="1.000000" stroke="none" 
	d="
M19.631443,265.097168 
	C21.865889,265.263977 23.781836,265.945282 25.699965,265.951477 
	C48.617142,266.025391 71.534729,266.024414 94.451889,265.947418 
	C96.166840,265.941681 97.879333,265.204346 100.227859,264.419983 
	C107.482414,264.516602 114.102074,265.000305 120.833603,265.492188 
	C120.833603,268.452515 120.833603,271.227142 120.375381,274.001709 
	C85.577339,273.992371 51.237518,273.983032 16.897701,273.973694 
	C17.703119,271.081818 18.508539,268.189911 19.631443,265.097168 
z"/>
<path fill="#B63F86" opacity="1.000000" stroke="none" 
	d="
M490.047974,249.579834 
	C472.350128,249.963806 454.592773,249.969986 436.526794,249.633881 
	C439.901703,244.346512 438.693542,238.515350 439.171112,232.989548 
	C451.604218,232.991943 464.037476,233.022583 476.470337,232.967545 
	C478.428223,232.958878 480.384369,232.562271 482.695496,232.123184 
	C485.362610,237.668213 487.675537,243.435120 490.047974,249.579834 
z"/>
<path fill="#F06171" opacity="1.000000" stroke="none" 
	d="
M240.001846,84.997360 
	C234.205231,84.997360 228.908249,84.997360 223.003433,84.997360 
	C223.003433,82.945282 222.832214,81.170288 223.037949,79.440132 
	C223.512482,75.449532 225.119476,72.878838 229.890854,72.928818 
	C246.679977,73.104691 263.472076,72.997025 280.263031,72.997200 
	C289.559204,72.997292 291.510925,75.133224 290.671143,84.997360 
	C273.983765,84.997360 257.242615,84.997360 240.001846,84.997360 
z"/>
<path fill="#A04691" opacity="1.000000" stroke="none" 
	d="
M16.588879,274.182068 
	C51.237518,273.983032 85.577339,273.992371 120.442047,274.435394 
	C120.922539,276.914001 120.878151,278.958862 120.833763,281.003754 
	C85.834290,280.994568 50.834816,280.985382 15.359112,280.967712 
	C15.348604,278.769653 15.814328,276.580078 16.588879,274.182068 
z"/>
<path fill="#CD4D7E" opacity="1.000000" stroke="none" 
	d="
M126.120224,179.043991 
	C104.087769,179.033417 82.055321,179.022842 59.560631,179.015411 
	C61.505409,175.408630 63.912441,171.798676 66.635086,168.041367 
	C69.031532,168.262390 71.110970,168.941086 73.193443,168.950562 
	C91.610344,169.034424 110.027863,168.974182 128.444962,169.031876 
	C130.738968,169.039062 133.031601,169.485138 135.572754,170.199554 
	C132.587189,173.462173 129.353699,176.253082 126.120224,179.043991 
z"/>
<path fill="#A04691" opacity="1.000000" stroke="none" 
	d="
M500.061951,280.577271 
	C467.431915,280.973938 434.756989,280.988312 401.557739,280.588867 
	C401.081696,278.780365 401.129913,277.385742 401.486237,275.778259 
	C404.334412,275.044037 406.872559,274.080048 409.414856,274.069031 
	C438.992645,273.940735 468.571045,273.956116 498.149292,273.933472 
	C498.771881,276.020630 499.394470,278.107819 500.061951,280.577271 
z"/>
<path fill="#AA3E8B" opacity="1.000000" stroke="none" 
	d="
M397.882141,263.037384 
	C400.842773,262.691711 403.802551,262.054077 406.764130,262.045593 
	C435.564697,261.963074 464.365570,261.985840 493.642700,261.971313 
	C494.752991,263.717896 495.386993,265.471802 495.655060,267.685608 
	C492.485260,268.430328 489.682007,268.955627 486.877411,268.962769 
	C458.211334,269.035950 429.545074,269.024994 400.582642,268.863586 
	C399.484985,266.805573 398.683563,264.921478 397.882141,263.037384 
z"/>
<path fill="#A4428E" opacity="1.000000" stroke="none" 
	d="
M400.878845,269.037537 
	C429.545074,269.024994 458.211334,269.035950 486.877411,268.962769 
	C489.682007,268.955627 492.485260,268.430328 495.705353,268.054199 
	C496.756622,269.709930 497.391693,271.456970 498.088013,273.568726 
	C468.571045,273.956116 438.992645,273.940735 409.414856,274.069031 
	C406.872559,274.080048 404.334412,275.044037 401.414917,275.348572 
	C400.983246,273.100342 400.931030,271.068939 400.878845,269.037537 
z"/>
<path fill="#438AC5" opacity="1.000000" stroke="none" 
	d="
M2.936642,387.455902 
	C5.334309,386.697632 7.777414,386.050171 10.221560,386.046234 
	C49.456024,385.982849 88.690636,385.990112 127.925156,386.032593 
	C130.056747,386.034912 132.187851,386.487732 134.711639,386.890594 
	C133.454941,389.818207 131.805771,392.586060 129.602509,395.578430 
	C126.744804,395.535492 124.441498,395.038086 122.137535,395.035034 
	C85.163811,394.986237 48.189983,394.982483 11.216318,395.047729 
	C9.127027,395.051392 7.038942,395.739075 4.950294,396.108368 
	C4.294384,393.360931 3.638474,390.613525 2.936642,387.455902 
z"/>
<path fill="#3098D0" opacity="1.000000" stroke="none" 
	d="
M121.114784,410.040741 
	C118.981087,413.272186 116.847397,416.503632 113.981819,419.870239 
	C108.300880,419.669861 103.352936,419.064911 98.402565,419.044373 
	C74.179100,418.943726 49.954868,418.963287 25.731255,419.044891 
	C22.780117,419.054840 19.831100,419.694427 16.881100,420.042206 
	C14.817531,417.083893 12.753961,414.125580 10.870229,410.622070 
	C13.316296,409.718445 15.581870,409.052612 17.848852,409.047791 
	C49.822266,408.979706 81.795921,408.978821 113.769341,409.046387 
	C116.218506,409.051575 118.666336,409.694336 121.114784,410.040741 
z"/>
<path fill="#3793CC" opacity="1.000000" stroke="none" 
	d="
M392.885803,410.041077 
	C391.283569,407.395233 389.681335,404.749390 388.615723,401.658386 
	C391.643494,401.142639 394.134583,401.011353 396.625763,401.010559 
	C433.693848,400.998657 470.761932,401.003998 507.830017,401.005249 
	C506.444855,404.251465 505.059723,407.497681 503.007233,410.698547 
	C500.712524,410.435822 499.085266,410.029907 497.457764,410.028839 
	C462.600464,410.005615 427.743134,410.027740 392.885803,410.041077 
z"/>
<path fill="#438AC5" opacity="1.000000" stroke="none" 
	d="
M380.023926,388.362244 
	C382.643433,387.697876 385.419983,387.049530 388.197571,387.045074 
	C428.770721,386.979919 469.343994,387.000763 510.375214,387.001587 
	C510.476959,389.543488 510.120758,392.084930 508.963318,394.825592 
	C469.352325,395.016785 430.542542,394.991089 391.732880,395.045502 
	C389.450623,395.048706 387.169250,395.697235 384.887482,396.045471 
	C383.318787,393.589539 381.750092,391.133606 380.023926,388.362244 
z"/>
<path fill="#3C8FC9" opacity="1.000000" stroke="none" 
	d="
M4.972190,396.495422 
	C7.038942,395.739075 9.127027,395.051392 11.216318,395.047729 
	C48.189983,394.982483 85.163811,394.986237 122.137535,395.035034 
	C124.441498,395.038086 126.744804,395.535492 129.445770,395.893616 
	C128.277115,398.447327 126.711105,400.910370 124.593094,403.591553 
	C121.745064,403.540009 119.449371,403.038666 117.152931,403.035278 
	C83.111359,402.984833 49.069653,402.978455 15.028130,403.043549 
	C12.406861,403.048553 9.786766,403.666748 7.166127,403.999939 
	C6.442114,401.627441 5.718099,399.254974 4.972190,396.495422 
z"/>
<path fill="#22A2D7" opacity="1.000000" stroke="none" 
	d="
M490.049591,427.108185 
	C483.502502,433.694611 475.065826,436.756226 466.421356,438.901703 
	C444.823120,444.262329 425.006287,440.064240 407.508575,426.347900 
	C433.150452,426.015900 458.466949,425.982056 483.783203,426.048401 
	C485.872894,426.053894 487.960846,426.738892 490.049591,427.108185 
z"/>
<path fill="#3098D0" opacity="1.000000" stroke="none" 
	d="
M392.937927,410.394073 
	C427.743134,410.027740 462.600464,410.005615 497.457764,410.028839 
	C499.085266,410.029907 500.712524,410.435822 502.693298,410.876068 
	C501.743500,413.192535 500.440277,415.286133 498.527405,417.690491 
	C467.512115,418.000824 437.106476,417.976959 406.701050,418.048004 
	C404.451202,418.053253 402.202911,418.741180 399.953918,419.111755 
	C397.632629,416.323517 395.311340,413.535309 392.937927,410.394073 
z"/>
<path fill="#22A2D7" opacity="1.000000" stroke="none" 
	d="
M104.049667,428.109253 
	C97.874710,431.127045 91.863907,434.560547 85.490982,437.077026 
	C71.791519,442.486420 57.698421,442.955048 43.840717,437.902191 
	C37.372219,435.543579 31.413069,431.788086 25.448902,428.196960 
	C27.471231,427.485687 29.267277,427.036011 31.064268,427.032196 
	C53.643211,426.984222 76.222366,426.976166 98.801186,427.048523 
	C100.551796,427.054108 102.300232,427.739716 104.049667,428.109253 
z"/>
<path fill="#2A9CD3" opacity="1.000000" stroke="none" 
	d="
M400.086578,419.412598 
	C402.202911,418.741180 404.451202,418.053253 406.701050,418.048004 
	C437.106476,417.976959 467.512115,418.000824 498.375793,418.001709 
	C496.117004,420.942810 493.400208,423.883392 490.366486,426.966064 
	C487.960846,426.738892 485.872894,426.053894 483.783203,426.048401 
	C458.466949,425.982056 433.150452,426.015900 407.357941,426.031494 
	C404.660980,423.930664 402.440125,421.822021 400.086578,419.412598 
z"/>
<path fill="#3C8FC9" opacity="1.000000" stroke="none" 
	d="
M384.941742,396.377441 
	C387.169250,395.697235 389.450623,395.048706 391.732880,395.045502 
	C430.542542,394.991089 469.352325,395.016785 508.637909,395.033020 
	C508.733368,396.773895 508.352997,398.506531 507.901306,400.622223 
	C470.761932,401.003998 433.693848,400.998657 396.625763,401.010559 
	C394.134583,401.011353 391.643494,401.142639 388.627258,401.271484 
	C387.066803,399.789642 386.031403,398.249512 384.941742,396.377441 
z"/>
<path fill="#2A9CD3" opacity="1.000000" stroke="none" 
	d="
M104.285316,428.055664 
	C102.300232,427.739716 100.551796,427.054108 98.801186,427.048523 
	C76.222366,426.976166 53.643211,426.984222 31.064268,427.032196 
	C29.267277,427.036011 27.471231,427.485687 25.281467,427.887115 
	C22.316584,425.588043 19.744978,423.129974 17.027237,420.357056 
	C19.831100,419.694427 22.780117,419.054840 25.731255,419.044891 
	C49.954868,418.963287 74.179100,418.943726 98.402565,419.044373 
	C103.352936,419.064911 108.300880,419.669861 113.682144,420.034027 
	C111.659538,422.295380 109.204720,424.528137 106.241959,427.019257 
	C105.457230,427.441132 105.208054,427.639313 104.986488,427.872192 
	C104.986488,427.872192 104.520958,428.002106 104.285316,428.055664 
z"/>
<path fill="#3793CC" opacity="1.000000" stroke="none" 
	d="
M7.203505,404.340942 
	C9.786766,403.666748 12.406861,403.048553 15.028130,403.043549 
	C49.069653,402.978455 83.111359,402.984833 117.152931,403.035278 
	C119.449371,403.038666 121.745064,403.540009 124.437347,403.904785 
	C123.792587,405.910095 122.751579,407.820404 121.412674,409.885742 
	C118.666336,409.694336 116.218506,409.051575 113.769341,409.046387 
	C81.795921,408.978821 49.822266,408.979706 17.848852,409.047791 
	C15.581870,409.052612 13.316296,409.718445 10.650644,410.343567 
	C9.247775,408.634155 8.244329,406.658051 7.203505,404.340942 
z"/>
<path fill="#22A2D7" opacity="1.000000" stroke="none" 
	d="
M105.263657,427.905762 
	C105.208054,427.639313 105.457230,427.441132 105.943741,427.162781 
	C105.949249,427.345032 105.745041,427.642181 105.263657,427.905762 
z"/>
<path fill="#000000" opacity="1.000000" stroke="none" 
	d="
M126.046585,179.403778 
	C129.353699,176.253082 132.587189,173.462173 135.966019,170.358002 
	C143.792252,167.624496 151.476761,166.587372 159.568268,170.036652 
	C164.065536,173.978226 168.167435,177.867554 172.624207,182.294342 
	C173.949966,186.568954 174.920822,190.306137 175.934937,194.506622 
	C175.978210,200.202286 175.978210,205.434631 175.978210,210.161942 
	C184.471207,211.105469 192.234497,211.967941 199.997772,212.830414 
	C205.954376,214.428574 210.269485,218.386520 214.642303,223.280762 
	C217.541336,228.186203 219.760101,232.694626 218.967316,237.998230 
	C218.372787,241.975433 217.629303,245.930359 216.952118,249.895203 
	C213.397034,253.365524 209.841949,256.835876 205.743164,260.656677 
	C195.613159,262.855560 186.026871,264.703979 176.166183,266.605316 
	C176.166183,266.719849 176.166183,267.859222 176.099426,269.423523 
	C176.077316,271.565735 176.121964,273.283051 176.099945,275.431366 
	C175.986649,277.894379 175.939987,279.926361 175.562195,282.203186 
	C174.876358,285.185150 174.521683,287.922302 174.166992,290.659424 
	C172.503159,293.222046 170.839340,295.784637 169.019211,298.649963 
	C160.167679,308.273285 149.781845,310.685913 138.023666,305.946655 
	C134.957764,304.710907 132.432663,302.133484 129.351044,300.024231 
	C127.024429,296.821228 125.005981,293.766205 122.910454,290.356201 
	C122.290802,287.237274 121.748222,284.473267 121.019699,281.356506 
	C120.878151,278.958862 120.922539,276.914001 120.900269,274.435425 
	C120.833603,271.227142 120.833603,268.452515 120.833603,265.492188 
	C114.102074,265.000305 107.482414,264.516602 100.431274,264.100525 
	C89.883583,261.312317 82.230385,255.674622 78.431152,245.153046 
	C78.758987,238.923965 79.390869,232.882538 80.069290,226.441757 
	C84.941452,220.024796 90.045898,214.134781 98.025444,212.604218 
	C103.595894,211.535751 109.361702,211.464066 115.046257,211.024933 
	C116.824654,210.887543 118.622620,211.003510 120.974930,211.003510 
	C120.974930,208.718826 120.974930,206.803024 120.905594,204.442856 
	C120.899109,200.648285 120.961960,197.298096 121.072899,193.494553 
	C122.738312,188.615326 124.355637,184.189438 126.046585,179.403778 
M136.038330,285.734680 
	C138.120407,293.306549 142.657455,295.957916 151.875946,294.990112 
	C156.410324,294.514069 160.408401,290.051544 160.965332,284.080444 
	C160.921112,280.384979 160.876907,276.689545 160.964645,272.072296 
	C161.253036,267.045929 161.541428,262.019592 161.981735,256.271393 
	C163.954468,254.828796 165.829102,252.323227 167.917191,252.130539 
	C176.255447,251.361008 184.658173,251.239426 193.040726,251.015640 
	C200.545059,250.815292 204.998489,246.043762 205.000687,237.959229 
	C205.002808,230.170593 200.251480,225.053741 192.916153,224.998642 
	C184.958099,224.938858 176.999725,224.919022 168.641953,224.259476 
	C163.562347,223.438660 161.265823,220.842026 161.027481,215.330704 
	C160.849899,211.223648 160.890030,207.107162 160.964401,202.071777 
	C160.975677,199.077896 161.000092,196.084000 160.995697,193.090134 
	C160.984055,185.146225 156.987015,181.014297 149.313095,180.995621 
	C141.205978,180.975861 136.019440,185.838409 136.011551,193.523499 
	C136.008301,196.680542 136.111832,199.837708 136.025375,203.918716 
	C136.016418,206.917297 136.004242,209.915863 135.999115,212.914444 
	C135.986084,220.532806 134.608276,222.585526 127.030128,224.971985 
	C119.538429,224.979126 112.046692,224.973068 104.555046,224.996979 
	C96.401932,225.022995 91.994789,229.599579 91.999382,237.997101 
	C92.003975,246.402863 96.402176,250.965073 104.565849,250.990417 
	C111.225113,251.011078 117.896622,250.751923 124.539497,251.082748 
	C128.850967,251.297470 133.621964,251.461349 135.361313,257.808716 
	C135.629974,262.870514 135.898636,267.932312 136.033157,273.908081 
	C136.077728,277.602997 136.122299,281.297943 136.038330,285.734680 
z"/>
<path fill="#000000" opacity="1.000000" stroke="none" 
	d="
M313.628113,311.947449 
	C314.315308,313.823517 314.670105,315.528229 315.094513,317.616089 
	C314.775360,319.085022 314.386597,320.170807 313.942688,321.606079 
	C303.909088,325.275818 293.782684,324.453064 283.655884,322.931610 
	C282.634552,322.778198 281.728821,321.855042 280.263702,320.772339 
	C279.449738,318.501556 279.141510,316.747528 278.833313,314.993469 
	C281.027618,313.276672 283.133362,310.234680 285.432098,310.081055 
	C293.732483,309.526245 302.099091,309.886139 310.436890,310.071320 
	C311.401978,310.092712 312.343323,311.181976 313.628113,311.947449 
z"/>
<path fill="#000000" opacity="1.000000" stroke="none" 
	d="
M198.902100,317.351440 
	C199.222961,315.591461 199.610748,314.183502 200.058777,312.407074 
	C210.136612,306.760742 220.648041,308.859100 231.024399,310.255371 
	C232.505966,310.454712 233.687943,312.880371 235.021240,315.024536 
	C234.660568,317.499329 234.287216,319.225250 233.913864,320.951202 
	C231.392746,321.957245 228.858688,323.844330 226.352890,323.807556 
	C218.169022,323.687378 209.995468,322.865875 201.468384,322.137146 
	C200.402222,320.541260 199.685623,319.122375 198.902100,317.351440 
z"/>
<path fill="#7F5EA4" opacity="1.000000" stroke="none" 
	d="
M234.326508,321.047058 
	C234.287216,319.225250 234.660568,317.499329 235.099854,315.384094 
	C241.400345,314.662415 247.634827,314.065033 253.869461,314.063660 
	C261.926544,314.061890 269.983734,314.536224 278.437073,314.899506 
	C279.141510,316.747528 279.449738,318.501556 279.932861,320.603027 
	C278.505798,321.294495 276.905853,321.925659 275.301575,321.936890 
	C263.403992,322.020111 251.505325,322.011749 239.607513,321.941681 
	C237.983215,321.932129 236.361877,321.421539 234.326508,321.047058 
z"/>
<path fill="#C74A80" opacity="1.000000" stroke="none" 
	d="
M175.891663,194.043304 
	C174.920822,190.306137 173.949966,186.568954 172.931854,182.437897 
	C234.861603,182.030243 296.838623,182.008057 358.815613,182.038330 
	C360.952179,182.039368 363.088470,182.565262 365.452881,183.232269 
	C363.065186,187.411133 360.449493,191.204239 357.375671,194.997955 
	C299.705200,194.999008 242.492828,195.014526 185.280548,194.959152 
	C182.150635,194.956131 179.021271,194.362183 175.891663,194.043304 
z"/>
<path fill="#000000" opacity="1.000000" stroke="none" 
	d="
M357.833740,194.997360 
	C360.449493,191.204239 363.065186,187.411133 365.863586,183.325607 
	C375.481689,175.678848 391.659119,177.609344 398.658813,189.950409 
	C401.877594,196.798386 402.170624,203.485748 398.950470,210.572540 
	C390.742645,223.663956 375.768280,225.398071 366.256592,217.923157 
	C363.493866,215.752029 361.838257,212.172119 359.315369,208.647171 
	C358.581665,203.703339 358.207703,199.350357 357.833740,194.997360 
M384.880615,206.565414 
	C385.615875,204.628662 386.504456,202.734360 387.055084,200.746460 
	C388.278809,196.328583 385.960175,192.788940 381.507324,192.024261 
	C376.275513,191.125839 371.458221,193.969147 371.004364,198.223465 
	C370.139557,206.329849 375.820343,210.098511 384.880615,206.565414 
z"/>
<path fill="#B63F86" opacity="1.000000" stroke="none" 
	d="
M217.305450,250.118439 
	C217.629303,245.930359 218.372787,241.975433 218.967316,237.998230 
	C219.760101,232.694626 217.541336,228.186203 214.943085,223.421661 
	C217.331131,222.702972 219.772141,222.054031 222.214508,222.048813 
	C254.114990,221.980682 286.015686,221.984802 317.916229,222.040741 
	C320.379547,222.045059 322.841949,222.574966 325.575928,223.267639 
	C322.513336,226.910248 320.625885,230.674042 319.830292,235.417511 
	C318.855408,241.229797 321.148376,245.974792 323.114716,250.961777 
	C289.589569,250.973709 256.064392,250.994827 222.539261,250.969650 
	C220.912277,250.968430 219.285583,250.560333 217.305450,250.118439 
z"/>
<path fill="#C44881" opacity="1.000000" stroke="none" 
	d="
M357.375641,194.997955 
	C358.207703,199.350357 358.581665,203.703339 359.002075,208.469864 
	C356.457611,209.588486 353.868225,210.901932 351.275513,210.908554 
	C303.201172,211.031586 255.126419,210.982971 207.051849,211.049469 
	C204.835541,211.052536 202.620270,211.793945 200.201141,212.510941 
	C192.234497,211.967941 184.471207,211.105469 175.978210,210.161942 
	C175.978210,205.434631 175.978210,200.202286 175.934937,194.506622 
	C179.021271,194.362183 182.150635,194.956131 185.280548,194.959152 
	C242.492828,195.014526 299.705200,194.999008 357.375641,194.997955 
z"/>
<path fill="#000000" opacity="1.000000" stroke="none" 
	d="
M323.418884,251.101181 
	C321.148376,245.974792 318.855408,241.229797 319.830292,235.417511 
	C320.625885,230.674042 322.513336,226.910248 325.992859,223.359650 
	C336.202820,213.134796 354.107147,214.707047 361.637512,229.296661 
	C362.042389,235.154404 362.104095,240.419815 362.165771,245.685242 
	C354.822815,262.293274 333.838684,263.220001 323.418884,251.101181 
M343.181732,244.996216 
	C345.117126,243.361938 348.087219,242.065628 348.756134,240.017700 
	C349.884613,236.562622 349.349091,232.023666 345.629120,230.521851 
	C343.025818,229.470856 338.948761,230.047470 336.362274,231.441498 
	C332.259064,233.652985 333.639435,238.266159 334.485809,241.747726 
	C335.427368,245.620773 339.231293,244.984909 343.181732,244.996216 
z"/>
<path fill="#000000" opacity="1.000000" stroke="none" 
	d="
M439.007019,232.661804 
	C438.693542,238.515350 439.901703,244.346512 436.050903,249.626328 
	C431.055969,255.651245 425.538330,259.382690 417.456451,259.139740 
	C407.599365,258.843414 401.306763,254.002777 396.813354,244.950623 
	C396.794067,239.141907 396.953247,234.092453 397.112427,229.042969 
	C400.234619,225.989120 402.953369,222.306122 406.553467,219.997559 
	C418.071350,212.611694 433.928101,217.724335 439.007019,232.661804 
M416.725433,229.997711 
	C410.985504,231.140411 408.847504,234.209503 410.065033,240.229202 
	C411.135437,245.521362 415.421509,245.261642 419.425323,244.964050 
	C424.115814,244.615433 425.200378,241.491501 425.024384,237.371094 
	C424.796417,232.034561 422.950958,230.126236 416.725433,229.997711 
z"/>
<path fill="#B63F86" opacity="1.000000" stroke="none" 
	d="
M396.636688,229.034149 
	C396.953247,234.092453 396.794067,239.141907 396.734741,244.595062 
	C385.626404,245.267395 374.418213,245.536026 362.687897,245.744949 
	C362.104095,240.419815 362.042389,235.154404 361.933746,229.465759 
	C373.311493,229.036804 384.736206,229.031052 396.636688,229.034149 
z"/>
<path fill="#994A95" opacity="1.000000" stroke="none" 
	d="
M174.688004,290.723755 
	C174.521683,287.922302 174.876358,285.185150 176.037552,282.211792 
	C237.266022,281.970398 297.687988,281.965240 358.410156,282.147339 
	C360.098206,284.890808 361.486023,287.447021 362.873840,290.003265 
	C360.578766,290.334595 358.283966,290.953247 355.988617,290.955261 
	C297.058167,291.006439 238.127670,290.994598 179.197174,290.982849 
	C177.867767,290.982574 176.538406,290.855835 174.688004,290.723755 
z"/>
<path fill="#000000" opacity="1.000000" stroke="none" 
	d="
M363.024475,290.321045 
	C361.486023,287.447021 360.098206,284.890808 358.366211,281.720551 
	C357.955597,279.392731 357.889221,277.678925 357.893982,275.537659 
	C358.014923,273.087891 358.064728,271.065582 358.411438,268.869537 
	C359.509583,266.811127 360.310852,264.926453 361.112122,263.041809 
	C362.209656,262.063293 363.488770,261.225830 364.375793,260.083801 
	C371.073151,251.461487 387.935638,251.776413 394.835266,260.320160 
	C395.554199,261.210327 396.461121,261.948639 397.581482,262.897400 
	C398.683563,264.921478 399.484985,266.805573 400.582642,268.863586 
	C400.931030,271.068939 400.983246,273.100342 401.106812,275.561432 
	C401.129913,277.385742 401.081696,278.780365 401.099487,280.589233 
	C399.497223,283.780182 397.828979,286.556946 395.990845,289.638550 
	C387.161987,299.371979 374.086426,300.474884 363.024475,290.321045 
M378.625061,283.998871 
	C384.881927,283.796936 386.811188,282.147705 386.998749,276.840576 
	C387.203735,271.040100 385.400696,268.466766 380.809052,268.006592 
	C375.722565,267.496857 371.560181,270.040680 371.010193,273.995148 
	C370.244995,279.497040 372.506592,282.832275 378.625061,283.998871 
z"/>
<path fill="#AA3E8B" opacity="1.000000" stroke="none" 
	d="
M360.686157,262.997528 
	C360.310852,264.926453 359.509583,266.811127 357.935486,268.860809 
	C296.830475,269.016754 236.498337,269.007660 176.166183,268.998566 
	C176.166183,267.859222 176.166183,266.719849 176.166183,266.605316 
	C186.026871,264.703979 195.613159,262.855560 205.575668,260.950806 
	C208.371155,261.263000 210.789856,261.948456 213.209747,261.952606 
	C252.305252,262.019653 291.401062,261.937378 330.496368,262.043732 
	C340.418396,262.070709 350.338928,262.635529 360.686157,262.997528 
z"/>
<path fill="#B63F86" opacity="1.000000" stroke="none" 
	d="
M169.041489,224.881775 
	C176.999725,224.919022 184.958099,224.938858 192.916153,224.998642 
	C200.251480,225.053741 205.002808,230.170593 205.000687,237.959229 
	C204.998489,246.043762 200.545059,250.815292 193.040726,251.015640 
	C184.658173,251.239426 176.255447,251.361008 167.917191,252.130539 
	C165.829102,252.323227 163.954468,254.828796 161.497894,256.592041 
	C152.399414,256.939545 143.784805,256.966431 135.170181,256.993286 
	C133.621964,251.461349 128.850967,251.297470 124.539497,251.082748 
	C117.896622,250.751923 111.225113,251.011078 104.565849,250.990417 
	C96.402176,250.965073 92.003975,246.402863 91.999382,237.997101 
	C91.994789,229.599579 96.401932,225.022995 104.555046,224.996979 
	C112.046692,224.973068 119.538429,224.979126 127.678833,225.274292 
	C129.495544,226.043823 130.659775,226.905624 131.832169,226.916855 
	C142.876099,227.022614 153.922516,227.056107 164.964981,226.892776 
	C166.333435,226.872528 167.683105,225.583084 169.041489,224.881775 
z"/>
<path fill="#A04691" opacity="1.000000" stroke="none" 
	d="
M357.822815,275.965118 
	C357.889221,277.678925 357.955597,279.392731 358.065979,281.533325 
	C297.687988,281.965240 237.266022,281.970398 176.368683,281.966919 
	C175.939987,279.926361 175.986649,277.894379 176.557892,275.431274 
	C234.712067,275.000122 292.341675,274.987457 349.971252,275.041016 
	C352.588715,275.043457 355.205627,275.643433 357.822815,275.965118 
z"/>
<path fill="#A4428E" opacity="1.000000" stroke="none" 
	d="
M357.893982,275.537659 
	C355.205627,275.643433 352.588715,275.043457 349.971252,275.041016 
	C292.341675,274.987457 234.712067,275.000122 176.624527,275.000244 
	C176.121964,273.283051 176.077316,271.565735 176.099426,269.423523 
	C236.498337,269.007660 296.830475,269.016754 357.638580,269.034576 
	C358.064728,271.065582 358.014923,273.087891 357.893982,275.537659 
z"/>
<path fill="#BE4483" opacity="1.000000" stroke="none" 
	d="
M168.841721,224.570633 
	C167.683105,225.583084 166.333435,226.872528 164.964981,226.892776 
	C153.922516,227.056107 142.876099,227.022614 131.832169,226.916855 
	C130.659775,226.905624 129.495544,226.043823 128.142944,225.229279 
	C134.608276,222.585526 135.986084,220.532806 135.999115,212.914444 
	C136.004242,209.915863 136.016418,206.917297 136.554047,203.457855 
	C144.999557,202.996292 152.916367,202.995590 160.833191,202.994888 
	C160.890030,207.107162 160.849899,211.223648 161.027481,215.330704 
	C161.265823,220.842026 163.562347,223.438660 168.841721,224.570633 
z"/>
<path fill="#C74A80" opacity="1.000000" stroke="none" 
	d="
M160.898804,202.533325 
	C152.916367,202.995590 144.999557,202.996292 136.624771,202.995911 
	C136.111832,199.837708 136.008301,196.680542 136.011551,193.523499 
	C136.019440,185.838409 141.205978,180.975861 149.313095,180.995621 
	C156.987015,181.014297 160.984055,185.146225 160.995697,193.090134 
	C161.000092,196.084000 160.975677,199.077896 160.898804,202.533325 
z"/>
<path fill="#AA3E8B" opacity="1.000000" stroke="none" 
	d="
M135.265747,257.401001 
	C143.784805,256.966431 152.399414,256.939545 161.421936,256.952942 
	C161.541428,262.019592 161.253036,267.045929 160.440796,272.534088 
	C152.000412,272.995270 144.083847,272.994690 136.167297,272.994110 
	C135.898636,267.932312 135.629974,262.870514 135.265747,257.401001 
z"/>
<path fill="#A04691" opacity="1.000000" stroke="none" 
	d="
M136.100220,273.451111 
	C144.083847,272.994690 152.000412,272.995270 160.374832,272.994995 
	C160.876907,276.689545 160.921112,280.384979 160.491028,284.496338 
	C152.066757,284.939087 144.116821,284.965973 136.166870,284.992859 
	C136.122299,281.297943 136.077728,277.602997 136.100220,273.451111 
z"/>
<path fill="#994A95" opacity="1.000000" stroke="none" 
	d="
M136.102600,285.363770 
	C144.116821,284.965973 152.066757,284.939087 160.424728,284.952515 
	C160.408401,290.051544 156.410324,294.514069 151.875946,294.990112 
	C142.657455,295.957916 138.120407,293.306549 136.102600,285.363770 
z"/>
<path fill="#C44881" opacity="1.000000" stroke="none" 
	d="
M384.519287,206.757507 
	C375.820343,210.098511 370.139557,206.329849 371.004364,198.223465 
	C371.458221,193.969147 376.275513,191.125839 381.507324,192.024261 
	C385.960175,192.788940 388.278809,196.328583 387.055084,200.746460 
	C386.504456,202.734360 385.615875,204.628662 384.519287,206.757507 
z"/>
<path fill="#B63F86" opacity="1.000000" stroke="none" 
	d="
M342.749939,244.997025 
	C339.231293,244.984909 335.427368,245.620773 334.485809,241.747726 
	C333.639435,238.266159 332.259064,233.652985 336.362274,231.441498 
	C338.948761,230.047470 343.025818,229.470856 345.629120,230.521851 
	C349.349091,232.023666 349.884613,236.562622 348.756134,240.017700 
	C348.087219,242.065628 345.117126,243.361938 342.749939,244.997025 
z"/>
<path fill="#B63F86" opacity="1.000000" stroke="none" 
	d="
M417.146973,229.996887 
	C422.950958,230.126236 424.796417,232.034561 425.024384,237.371094 
	C425.200378,241.491501 424.115814,244.615433 419.425323,244.964050 
	C415.421509,245.261642 411.135437,245.521362 410.065033,240.229202 
	C408.847504,234.209503 410.985504,231.140411 417.146973,229.996887 
z"/>
<path fill="#A04691" opacity="1.000000" stroke="none" 
	d="
M378.208740,283.998016 
	C372.506592,282.832275 370.244995,279.497040 371.010193,273.995148 
	C371.560181,270.040680 375.722565,267.496857 380.809052,268.006592 
	C385.400696,268.466766 387.203735,271.040100 386.998749,276.840576 
	C386.811188,282.147705 384.881927,283.796936 378.208740,283.998016 
z"/>
</svg>
