<svg version="1.1" id="Layer_1" xmlns="http://www.w3.org/2000/svg" xmlns:xlink="http://www.w3.org/1999/xlink" x="0px" y="0px"
	 width="100%" viewBox="0 0 512 512" enable-background="new 0 0 512 512" xml:space="preserve">
<path fill="transparent" opacity="1.000000" stroke="none" 
	d="
M1.000000,180.000000 
	C1.000000,120.000000 1.000000,60.500000 1.000000,1.000000 
	C171.666672,1.000000 342.333344,1.000000 513.000000,1.000000 
	C513.000000,171.666672 513.000000,342.333344 513.000000,513.000000 
	C342.333344,513.000000 171.666672,513.000000 1.000000,513.000000 
	C1.000000,402.166656 1.000000,291.333344 1.000000,180.000000 
M465.718323,251.835251 
	C469.431335,245.457932 473.144348,239.080612 477.318176,232.144089 
	C482.607422,220.002808 486.689606,207.591858 488.138794,194.274353 
	C490.017700,177.007584 489.271088,160.018372 485.779785,143.027283 
	C496.234039,140.193192 498.867401,129.750717 496.232452,118.596474 
	C492.530548,120.555122 488.707825,122.577698 484.006927,125.064911 
	C486.166779,111.887497 486.482330,100.381264 481.751129,88.552254 
	C480.853119,89.081947 480.634705,90.140434 480.001282,90.800911 
	C475.776886,95.205902 471.463867,99.525871 466.784058,103.290184 
	C465.847198,102.476601 464.799957,101.759438 463.991516,100.833702 
	C459.027710,95.149940 454.754395,88.657196 449.040131,83.883362 
	C440.591187,76.824966 431.474945,70.399727 422.012238,64.763649 
	C410.970032,58.186775 398.823395,53.957420 385.599243,51.203838 
	C379.771973,50.465275 373.963074,49.333683 368.114044,49.059742 
	C348.312500,48.132328 329.168030,51.080284 310.774170,58.880131 
	C295.066193,65.541008 281.016083,74.428596 269.113953,87.598450 
	C263.778473,94.235847 258.442993,100.873253 252.513107,107.983925 
	C243.985336,120.672020 238.936859,134.810501 234.503174,149.958954 
	C233.264191,150.305893 231.942184,150.480499 230.800842,151.030182 
	C226.301941,153.196899 224.103424,151.331314 222.446213,147.067413 
	C220.818588,142.879578 218.453079,138.981308 216.458099,134.932953 
	C208.911469,119.618912 201.383835,104.295525 194.141998,88.365982 
	C209.851181,72.622986 225.560379,56.879990 241.653625,40.752102 
	C231.188126,35.575249 221.294220,30.584021 211.280075,25.846991 
	C209.986923,25.235283 207.664978,25.342693 206.509155,26.129694 
	C198.230331,31.766762 190.164978,37.715870 181.964081,43.469296 
	C172.061295,50.416706 162.091660,57.268852 151.369019,64.010422 
	C147.701721,62.363987 144.134583,60.408779 140.333176,59.175827 
	C137.639648,58.302204 134.480804,57.665497 131.787842,58.206974 
	C122.844086,60.005310 114.017052,62.384163 104.274437,64.961227 
	C93.850395,64.918762 83.426346,64.876305 73.020226,64.085915 
	C76.645721,57.425098 77.188484,50.240910 77.057083,42.812202 
	C76.822647,29.557358 66.407600,21.961243 53.726620,25.640882 
	C44.478920,28.324284 37.642815,34.083900 31.447235,41.033394 
	C21.231760,52.491962 15.788713,65.659416 17.037186,81.163994 
	C17.716002,89.594131 24.211906,97.639206 33.463017,97.159309 
	C39.537720,96.844200 44.834667,95.216103 50.124737,92.706573 
	C57.357399,104.780930 64.590057,116.855286 71.034813,128.957901 
	C65.978737,128.306381 60.915367,127.071373 55.868210,127.134399 
	C47.410973,127.239998 40.089813,130.827820 36.060871,138.376343 
	C32.037968,145.913528 33.185097,153.815796 37.685509,161.097534 
	C46.228527,174.920273 65.506393,182.202423 81.205070,177.685989 
	C89.269386,175.365936 96.338600,168.759415 96.181786,158.348175 
	C96.079086,151.530075 93.022903,146.324280 90.141106,140.318802 
	C90.735008,139.818848 91.328918,139.318909 92.576477,139.099442 
	C94.114059,140.039978 95.651634,140.980499 97.026634,142.858871 
	C97.017738,159.669281 97.456314,176.497803 96.776657,193.281036 
	C96.509987,199.866196 98.830086,203.504227 104.016609,206.572510 
	C109.812325,210.001144 115.370232,213.831757 121.362450,217.701050 
	C125.103401,207.700531 128.605515,198.467850 132.009903,189.199280 
	C135.076843,180.849396 138.036743,172.460175 141.787430,164.033768 
	C165.552261,175.894714 189.317886,187.754044 213.080750,199.618927 
	C215.631317,200.892441 217.728500,201.804245 220.514023,199.228348 
	C224.266434,195.758286 228.785431,193.117203 233.082962,190.920929 
	C234.448654,198.020142 235.283844,205.272629 237.282028,212.189117 
	C242.725357,231.030533 252.018860,247.892319 263.952637,262.971588 
	C248.046524,264.657898 232.046646,265.752472 216.269592,268.253082 
	C206.846207,269.746674 197.772125,273.444183 188.051193,275.629089 
	C181.787598,272.490967 178.025818,274.000549 174.345871,281.213043 
	C171.901047,282.122833 169.297791,282.749634 167.048553,284.008789 
	C163.675598,285.897034 159.641174,287.571594 157.515594,290.513062 
	C153.438660,296.155029 156.554642,308.038025 161.908157,312.039337 
	C169.024323,317.358093 177.914200,317.841675 185.968826,309.962006 
	C189.133698,312.791595 193.326584,313.478577 196.412415,311.470215 
	C198.767441,309.937500 199.552307,305.992279 201.963287,303.015656 
	C213.630188,303.396423 225.297104,303.777191 236.684692,304.800507 
	C229.790512,310.441589 231.132095,314.360443 235.967590,321.697968 
	C230.213715,329.557159 222.338043,334.250916 213.009537,336.253571 
	C209.907120,329.656036 203.338364,328.293976 198.272125,333.238464 
	C196.379227,335.085876 194.592026,337.041595 191.941696,338.952911 
	C188.441788,339.321747 184.189880,338.541962 181.570984,340.256500 
	C169.663910,348.051758 162.486206,358.763733 163.997955,373.789215 
	C164.434677,378.129883 168.133835,381.544861 172.532135,382.010620 
	C178.990921,382.694672 183.673126,379.882172 187.890457,375.291504 
	C194.413071,378.699982 198.214325,377.576752 202.997330,371.033203 
	C207.632004,372.040894 212.266678,373.048584 216.718124,374.765167 
	C215.424271,379.589996 217.664825,382.443542 221.962250,384.953247 
	C221.645584,391.263550 220.838120,397.599121 221.161133,403.876495 
	C221.440292,409.301300 224.412888,413.866943 228.815659,417.231812 
	C235.556580,422.383575 242.744186,418.568054 246.797882,408.344971 
	C254.788956,410.127441 257.885132,407.309540 258.869141,398.011902 
	C273.049683,394.588745 286.667053,389.597076 299.237213,382.200562 
	C305.833740,378.319031 311.850525,373.452301 318.822876,369.305634 
	C322.886963,371.558929 326.821320,371.599609 330.255371,368.205963 
	C333.223389,365.272858 333.610748,361.755737 332.121185,357.376678 
	C335.745270,353.529053 339.369385,349.681427 343.677124,346.172943 
	C349.933655,349.534302 352.812836,348.427490 357.928436,340.997986 
	C367.008057,345.665619 376.087646,350.333282 385.004700,355.784607 
	C382.435089,362.744110 385.480499,367.484497 392.978088,368.933960 
	C393.168823,377.198914 396.832703,381.647858 403.391602,382.033295 
	C410.066254,382.425537 414.435089,379.215942 417.115601,373.522278 
	C420.172058,367.030060 420.703918,360.415192 417.240814,353.265991 
	C421.797943,351.328949 421.570038,347.390778 420.950317,343.605438 
	C420.055756,338.141418 415.838043,337.100433 410.858124,336.347382 
	C402.313049,323.164001 391.013519,312.791962 378.868561,304.017853 
	C380.029877,304.010559 381.228149,304.189758 382.346893,303.967834 
	C397.872009,300.887939 412.903107,296.248505 426.375916,287.787872 
	C433.301971,283.438477 439.544769,278.001038 446.549103,272.981201 
	C446.549103,272.981201 446.982178,272.829712 447.854858,272.974457 
	C450.393433,272.700043 453.144043,272.960785 455.432098,272.054169 
	C463.340546,268.920471 465.395355,264.452759 465.007477,252.600418 
	C465.007477,252.600418 465.071564,252.138535 465.718323,251.835251 
M121.005203,396.005859 
	C121.955742,385.905731 119.255913,376.917999 112.100555,369.685455 
	C103.683975,361.178101 92.779335,359.269836 81.759895,361.356293 
	C70.570374,363.474915 62.215496,370.311646 58.536812,381.778931 
	C48.948269,373.158325 38.314758,368.176056 25.351326,369.099609 
	C25.351326,409.243011 25.351326,449.070068 25.351326,488.836975 
	C64.816994,488.836975 103.931190,488.836975 143.962570,488.986206 
	C165.202332,488.986206 186.442108,488.986206 208.408264,488.986206 
	C207.893280,484.553406 207.924088,480.572235 206.914673,476.875092 
	C202.844925,461.968933 193.887207,451.367493 179.626450,444.686066 
	C170.274780,440.304657 160.753479,441.281067 151.005737,440.217163 
	C150.663696,439.160461 150.401398,438.069672 149.967133,437.052338 
	C146.096054,427.983673 141.467148,419.459351 133.389099,413.089844 
	C134.921310,405.614929 134.499039,404.486938 128.198074,400.663483 
	C125.906418,399.272919 123.447777,398.157562 121.005203,396.005859 
M463.524292,393.999542 
	C444.335724,397.147095 427.546387,405.263855 413.733032,418.951202 
	C409.486359,423.159119 405.456085,425.390289 399.165649,425.173431 
	C379.920563,424.509796 364.993011,432.934082 353.789551,448.443481 
	C353.005920,449.528351 350.651398,450.191406 349.195160,449.966125 
	C335.997772,447.924286 323.330231,447.873962 312.169861,456.941223 
	C301.999634,465.204071 296.558136,475.455536 297.019592,488.752869 
	C361.279022,488.752869 424.983307,488.752869 488.768463,488.752869 
	C488.768463,456.784729 488.768463,425.064270 488.768463,392.547028 
	C480.480774,393.040192 472.454620,393.517761 463.524292,393.999542 
z"/>
<path fill="#DFF1FC" opacity="1.000000" stroke="none" 
	d="
M143.045395,488.836975 
	C103.931190,488.836975 64.816994,488.836975 25.351326,488.836975 
	C25.351326,449.070068 25.351326,409.243011 25.351326,369.099609 
	C38.314758,368.176056 48.948269,373.158325 58.536812,381.778931 
	C62.215496,370.311646 70.570374,363.474915 81.759895,361.356293 
	C92.779335,359.269836 103.683975,361.178101 112.100555,369.685455 
	C119.255913,376.917999 121.955742,385.905731 120.642303,396.533997 
	C112.976631,395.714325 105.718834,393.953766 98.356613,393.151642 
	C92.640343,392.528839 89.001457,396.132294 89.025635,401.035400 
	C89.048904,405.754395 92.501572,408.177704 97.923424,409.150208 
	C105.179161,410.451569 112.546303,412.045105 119.317184,414.841248 
	C124.531418,416.994537 128.678055,417.663086 132.970917,413.762726 
	C141.467148,419.459351 146.096054,427.983673 149.967133,437.052338 
	C150.401398,438.069672 150.663696,439.160461 151.024689,441.014771 
	C155.062698,458.624268 152.557861,474.326569 143.045395,488.836975 
z"/>
<path fill="#DFF1FC" opacity="1.000000" stroke="none" 
	d="
M463.976379,393.997437 
	C472.454620,393.517761 480.480774,393.040192 488.768463,392.547028 
	C488.768463,425.064270 488.768463,456.784729 488.768463,488.752869 
	C424.983307,488.752869 361.279022,488.752869 297.019592,488.752869 
	C296.558136,475.455536 301.999634,465.204071 312.169861,456.941223 
	C323.330231,447.873962 335.997772,447.924286 349.195160,449.966125 
	C350.651398,450.191406 353.005920,449.528351 353.789551,448.443481 
	C364.993011,432.934082 379.920563,424.509796 399.165649,425.173431 
	C405.456085,425.390289 409.486359,423.159119 413.733032,418.951202 
	C427.546387,405.263855 444.335724,397.147095 463.976379,393.997437 
z"/>
<path fill="#01A8E7" opacity="1.000000" stroke="none" 
	d="
M386.031189,51.901039 
	C398.823395,53.957420 410.970032,58.186775 422.012238,64.763649 
	C431.474945,70.399727 440.591187,76.824966 449.040131,83.883362 
	C454.754395,88.657196 459.027710,95.149940 463.991516,100.833702 
	C464.799957,101.759438 465.847198,102.476601 466.893982,103.939117 
	C463.623749,107.696251 460.243530,110.804443 456.289886,114.439949 
	C454.241119,108.691544 452.639435,104.197464 450.828613,99.116753 
	C445.942017,110.798500 438.517334,118.435997 426.421387,121.256882 
	C412.506409,118.575607 398.897400,117.249832 384.707581,118.194054 
	C376.566406,119.464417 368.839996,120.829956 360.776123,122.076775 
	C339.364014,108.744446 316.590118,99.400299 293.002319,91.957413 
	C296.068512,88.955261 298.894836,86.176254 301.894073,83.598396 
	C321.967957,66.344711 345.436035,57.044430 371.551544,53.947853 
	C376.390930,53.374035 381.205292,52.588734 386.031189,51.901039 
z"/>
<path fill="#DEF0FC" opacity="1.000000" stroke="none" 
	d="
M193.849091,88.975624 
	C201.383835,104.295525 208.911469,119.618912 216.458099,134.932953 
	C218.453079,138.981308 220.818588,142.879578 222.446213,147.067413 
	C224.103424,151.331314 226.301941,153.196899 230.800842,151.030182 
	C231.942184,150.480499 233.264191,150.305893 234.941818,150.207886 
	C234.507584,157.606979 233.634720,164.757141 232.384796,171.926483 
	C227.899704,173.284836 223.836975,174.801208 219.659714,175.869904 
	C218.137283,176.259415 215.957336,176.147034 214.729324,175.308655 
	C196.458862,162.835419 178.342331,150.136917 160.090485,137.636124 
	C152.164154,132.207321 144.012619,127.107269 135.912933,121.434814 
	C136.503799,112.628448 133.356430,105.703659 127.540565,99.899834 
	C117.978455,90.357544 106.363350,86.533836 92.763611,87.553299 
	C85.312302,80.954590 78.090492,74.580864 70.916458,67.860657 
	C71.643593,66.620735 72.322952,65.727287 73.002304,64.833847 
	C83.426346,64.876305 93.850395,64.918762 104.949837,65.010399 
	C106.782097,65.991646 107.889404,66.994408 109.103165,67.845299 
	C131.044647,83.227234 152.997086,98.593536 174.952667,113.955353 
	C178.066635,116.134132 181.209106,118.272156 185.024246,120.901772 
	C187.753677,109.856834 190.330612,99.429008 193.143097,89.000893 
	C193.378647,89.000603 193.849091,88.975624 193.849091,88.975624 
z"/>
<path fill="#374B5F" opacity="1.000000" stroke="none" 
	d="
M264.840424,262.773468 
	C252.018860,247.892319 242.725357,231.030533 237.282028,212.189117 
	C235.283844,205.272629 234.448654,198.020142 233.038223,190.401611 
	C232.993484,189.882309 233.211227,189.784378 233.587067,189.837250 
	C235.873825,190.399216 237.787125,190.899445 239.695206,191.418884 
	C247.836975,193.635437 255.948486,193.983368 264.380768,191.014679 
	C267.423737,190.049530 270.096191,189.114441 272.807220,188.633667 
	C272.515625,201.655441 274.183594,213.956055 277.988068,225.934387 
	C284.406586,246.143143 294.689941,263.847870 311.777344,277.492249 
	C326.247162,289.776245 342.429810,298.065948 360.473236,302.761536 
	C362.653168,303.328827 364.770966,304.134674 366.465515,304.884521 
	C363.879242,304.997833 361.745026,305.056641 359.180511,305.087677 
	C353.811340,304.723328 348.872437,304.386719 343.538025,303.989044 
	C325.311279,301.245575 308.768005,294.994843 293.010986,285.669312 
	C288.737854,282.585968 284.698730,279.750793 280.428925,276.641144 
	C275.078949,271.835602 269.959686,267.304535 264.840424,262.773468 
z"/>
<path fill="#FAC202" opacity="1.000000" stroke="none" 
	d="
M293.244965,285.917511 
	C308.768005,294.994843 325.311279,301.245575 343.504272,304.399597 
	C342.861023,314.926056 341.584106,324.965088 340.998138,335.044312 
	C340.791992,338.590149 342.279358,342.234467 342.993469,345.833801 
	C339.369385,349.681427 335.745270,353.529053 331.651062,357.595306 
	C328.767273,356.461945 326.451050,354.883209 323.923248,353.796844 
	C312.374207,348.833496 300.500488,344.546173 289.246765,338.995453 
	C275.570831,332.250061 263.470001,323.025635 253.073029,313.249207 
	C262.657745,307.891144 272.399017,302.956696 281.555786,297.107239 
	C286.015106,294.258575 289.383026,289.701324 293.244965,285.917511 
z"/>
<path fill="#FAC202" opacity="1.000000" stroke="none" 
	d="
M213.152618,336.990631 
	C222.338043,334.250916 230.213715,329.557159 236.393677,321.342682 
	C238.512085,322.232605 240.241364,323.430939 241.890442,324.730988 
	C249.690628,330.880249 257.255432,337.352966 265.300049,343.162048 
	C281.399841,354.787781 299.514771,362.456177 318.129120,369.030487 
	C311.850525,373.452301 305.833740,378.319031 299.237213,382.200562 
	C286.667053,389.597076 273.049683,394.588745 258.214386,397.820129 
	C256.168854,395.996857 254.574936,394.494995 253.432434,392.704987 
	C251.466568,389.625031 249.781952,386.365540 247.676361,382.646332 
	C257.394440,379.819489 263.761841,374.337982 269.494659,367.951355 
	C273.731628,363.231171 274.071014,358.658844 270.365997,355.218353 
	C266.658417,351.775452 261.938751,352.288788 257.807312,357.084106 
	C252.353195,363.414642 246.039795,367.846741 237.363297,367.995880 
	C234.198990,368.050262 231.021225,368.281494 227.872757,368.076477 
	C222.865921,367.750458 219.068130,369.325348 216.901352,374.056274 
	C212.266678,373.048584 207.632004,372.040894 202.446747,370.659302 
	C199.659409,361.138000 202.286575,353.432495 208.299698,346.363617 
	C210.520767,343.752594 211.569305,340.144165 213.152618,336.990631 
z"/>
<path fill="#95D3F2" opacity="1.000000" stroke="none" 
	d="
M135.963379,121.857903 
	C144.012619,127.107269 152.164154,132.207321 160.090485,137.636124 
	C178.342331,150.136917 196.458862,162.835419 214.729324,175.308655 
	C215.957336,176.147034 218.137283,176.259415 219.659714,175.869904 
	C223.836975,174.801208 227.899704,173.284836 232.472107,172.393921 
	C233.028030,178.489594 233.119629,184.136978 233.211227,189.784378 
	C233.211227,189.784378 232.993484,189.882309 232.984467,190.001328 
	C228.785431,193.117203 224.266434,195.758286 220.514023,199.228348 
	C217.728500,201.804245 215.631317,200.892441 213.080750,199.618927 
	C189.317886,187.754044 165.552261,175.894714 141.224487,163.768860 
	C126.170776,156.309662 111.679993,149.115356 97.189217,141.921036 
	C95.651634,140.980499 94.114059,140.039978 92.303474,138.621719 
	C92.761276,136.999878 93.492088,135.855743 94.591522,134.782654 
	C96.505264,135.431931 98.030312,136.072327 99.598595,136.578888 
	C116.502136,142.038727 129.519257,136.761230 135.963379,121.857903 
z"/>
<path fill="#FCC200" opacity="1.000000" stroke="none" 
	d="
M73.011261,64.459877 
	C72.322952,65.727287 71.643593,66.620735 70.661224,68.040138 
	C65.527321,78.150444 57.993996,85.374382 49.840588,92.056717 
	C44.834667,95.216103 39.537720,96.844200 33.463017,97.159309 
	C24.211906,97.639206 17.716002,89.594131 17.037186,81.163994 
	C15.788713,65.659416 21.231760,52.491962 31.447235,41.033394 
	C37.642815,34.083900 44.478920,28.324284 53.726620,25.640882 
	C66.407600,21.961243 76.822647,29.557358 77.057083,42.812202 
	C77.188484,50.240910 76.645721,57.425098 73.011261,64.459877 
z"/>
<path fill="#F9C203" opacity="1.000000" stroke="none" 
	d="
M292.842468,92.273598 
	C316.590118,99.400299 339.364014,108.744446 360.551208,122.354614 
	C351.926270,127.024689 342.871643,130.768845 334.557220,135.748764 
	C328.525482,139.361496 323.473846,144.610626 317.730499,148.908081 
	C305.137573,135.892639 291.216766,125.242691 274.876526,117.223358 
	C267.417908,113.828888 260.262695,110.669762 253.107513,107.510651 
	C258.442993,100.873253 263.778473,94.235847 269.682434,87.548828 
	C277.781433,89.090675 285.311951,90.682137 292.842468,92.273598 
z"/>
<path fill="#95D3F2" opacity="1.000000" stroke="none" 
	d="
M193.995544,88.670807 
	C193.849091,88.975624 193.378647,89.000603 192.837463,88.857346 
	C178.914505,80.530136 165.532715,72.346184 152.150940,64.162231 
	C162.091660,57.268852 172.061295,50.416706 181.964081,43.469296 
	C190.164978,37.715870 198.230331,31.766762 206.509155,26.129694 
	C207.664978,25.342693 209.986923,25.235283 211.280075,25.846991 
	C221.294220,30.584021 231.188126,35.575249 241.653625,40.752102 
	C225.560379,56.879990 209.851181,72.622986 193.995544,88.670807 
z"/>
<path fill="#FBC201" opacity="1.000000" stroke="none" 
	d="
M264.396545,262.872528 
	C269.959686,267.304535 275.078949,271.835602 280.203857,276.943237 
	C271.678223,285.896179 261.713776,291.979462 250.421051,295.822052 
	C246.457779,297.170685 242.488007,298.107269 240.761154,302.710815 
	C240.446381,303.549927 238.277161,303.693390 236.964005,304.157959 
	C225.297104,303.777191 213.630188,303.396423 201.205444,302.873962 
	C199.535446,301.198486 198.920578,299.337769 197.657822,298.189606 
	C193.064194,294.012878 191.291565,288.918793 191.185669,282.800507 
	C191.147049,280.569397 189.470367,278.366669 188.541016,276.151001 
	C197.772125,273.444183 206.846207,269.746674 216.269592,268.253082 
	C232.046646,265.752472 248.046524,264.657898 264.396545,262.872528 
z"/>
<path fill="#04A8E4" opacity="1.000000" stroke="none" 
	d="
M236.824341,304.479248 
	C238.277161,303.693390 240.446381,303.549927 240.761154,302.710815 
	C242.488007,298.107269 246.457779,297.170685 250.421051,295.822052 
	C261.713776,291.979462 271.678223,285.896179 280.434570,277.217712 
	C284.698730,279.750793 288.737854,282.585968 293.010986,285.669312 
	C289.383026,289.701324 286.015106,294.258575 281.555786,297.107239 
	C272.399017,302.956696 262.657745,307.891144 253.073029,313.249207 
	C263.470001,323.025635 275.570831,332.250061 289.246765,338.995453 
	C300.500488,344.546173 312.374207,348.833496 323.923248,353.796844 
	C326.451050,354.883209 328.767273,356.461945 331.506836,357.904846 
	C333.610748,361.755737 333.223389,365.272858 330.255371,368.205963 
	C326.821320,371.599609 322.886963,371.558929 318.476013,369.168060 
	C299.514771,362.456177 281.399841,354.787781 265.300049,343.162048 
	C257.255432,337.352966 249.690628,330.880249 241.890442,324.730988 
	C240.241364,323.430939 238.512085,322.232605 236.465332,320.994507 
	C231.132095,314.360443 229.790512,310.441589 236.824341,304.479248 
z"/>
<path fill="#F4C4B2" opacity="1.000000" stroke="none" 
	d="
M366.917572,304.829956 
	C364.770966,304.134674 362.653168,303.328827 360.473236,302.761536 
	C342.429810,298.065948 326.247162,289.776245 312.227173,277.437744 
	C330.328003,279.324738 348.035583,282.068420 366.238068,280.214447 
	C381.497162,278.660278 396.345886,275.963165 410.658234,270.609406 
	C418.242462,267.772400 425.561066,264.225311 433.260864,261.220947 
	C435.526886,267.681641 440.087219,271.152863 446.096313,273.055267 
	C439.544769,278.001038 433.301971,283.438477 426.375916,287.787872 
	C412.903107,296.248505 397.872009,300.887939 382.346893,303.967834 
	C381.228149,304.189758 380.029877,304.010559 378.018738,304.031372 
	C373.751801,304.306610 370.334686,304.568298 366.917572,304.829956 
z"/>
<path fill="#40C6F3" opacity="1.000000" stroke="none" 
	d="
M143.503983,488.911591 
	C152.557861,474.326569 155.062698,458.624268 151.098953,441.398254 
	C160.753479,441.281067 170.274780,440.304657 179.626450,444.686066 
	C193.887207,451.367493 202.844925,461.968933 206.914673,476.875092 
	C207.924088,480.572235 207.893280,484.553406 208.408264,488.986206 
	C186.442108,488.986206 165.202332,488.986206 143.503983,488.911591 
z"/>
<path fill="#02A9E7" opacity="1.000000" stroke="none" 
	d="
M151.759979,64.086319 
	C165.532715,72.346184 178.914505,80.530136 192.601913,88.857635 
	C190.330612,99.429008 187.753677,109.856834 185.024246,120.901772 
	C181.209106,118.272156 178.066635,116.134132 174.952667,113.955353 
	C152.997086,98.593536 131.044647,83.227234 109.103165,67.845299 
	C107.889404,66.994408 106.782097,65.991646 105.385254,64.799988 
	C114.017052,62.384163 122.844086,60.005310 131.787842,58.206974 
	C134.480804,57.665497 137.639648,58.302204 140.333176,59.175827 
	C144.134583,60.408779 147.701721,62.363987 151.759979,64.086319 
z"/>
<path fill="#0495C1" opacity="1.000000" stroke="none" 
	d="
M252.810303,107.747284 
	C260.262695,110.669762 267.417908,113.828888 274.474274,117.389748 
	C273.911682,118.252769 273.311523,118.637596 273.003845,119.186401 
	C262.341797,138.203079 259.509338,158.763580 261.322510,180.143372 
	C261.634857,183.826660 263.085419,187.413422 264.010223,191.044754 
	C255.948486,193.983368 247.836975,193.635437 239.695206,191.418884 
	C237.787125,190.899445 235.873825,190.399216 233.587067,189.837250 
	C233.119629,184.136978 233.028030,178.489594 232.849136,172.374741 
	C233.634720,164.757141 234.507584,157.606979 235.293869,149.977798 
	C238.936859,134.810501 243.985336,120.672020 252.810303,107.747284 
z"/>
<path fill="#52B2D8" opacity="1.000000" stroke="none" 
	d="
M97.107925,142.389954 
	C111.679993,149.115356 126.170776,156.309662 140.852692,163.796143 
	C138.036743,172.460175 135.076843,180.849396 132.009903,189.199280 
	C128.605515,198.467850 125.103401,207.700531 121.362450,217.701050 
	C115.370232,213.831757 109.812325,210.001144 104.016609,206.572510 
	C98.830086,203.504227 96.509987,199.866196 96.776657,193.281036 
	C97.456314,176.497803 97.017738,159.669281 97.107925,142.389954 
z"/>
<path fill="#333434" opacity="1.000000" stroke="none" 
	d="
M89.924492,140.870636 
	C93.022903,146.324280 96.079086,151.530075 96.181786,158.348175 
	C96.338600,168.759415 89.269386,175.365936 81.205070,177.685989 
	C65.506393,182.202423 46.228527,174.920273 37.685509,161.097534 
	C33.185097,153.815796 32.037968,145.913528 36.060871,138.376343 
	C40.089813,130.827820 47.410973,127.239998 55.868210,127.134399 
	C60.915367,127.071373 65.978737,128.306381 71.579453,129.280945 
	C73.074150,129.761307 74.024216,129.918640 75.005295,130.425995 
	C70.736504,135.224289 66.436707,139.672577 61.765114,144.020874 
	C56.132153,142.829514 50.911766,144.389313 50.184891,147.269821 
	C49.447113,150.193558 53.128990,154.988327 57.198242,156.262787 
	C59.851124,160.596329 63.681320,161.408859 68.186829,161.395569 
	C72.206100,163.874359 76.090500,162.802689 78.634789,160.123428 
	C79.757858,158.940781 78.263519,155.270187 77.951187,152.729858 
	C77.911591,152.407822 77.833817,152.090500 77.951042,151.489441 
	C82.060402,147.762146 85.992447,144.316391 89.924492,140.870636 
z"/>
<path fill="#FBC201" opacity="1.000000" stroke="none" 
	d="
M366.465515,304.884521 
	C370.334686,304.568298 373.751801,304.306610 377.588348,304.103119 
	C391.013519,312.791962 402.313049,323.164001 410.875244,336.988586 
	C403.400970,345.024933 394.743225,350.692841 385.167267,355.000916 
	C376.087646,350.333282 367.008057,345.665619 357.397034,340.548096 
	C356.837097,338.961426 356.699127,337.815125 356.796967,336.689331 
	C357.711853,326.162720 358.667175,315.639557 359.610779,305.115417 
	C361.745026,305.056641 363.879242,304.997833 366.465515,304.884521 
z"/>
<path fill="#96D3F1" opacity="1.000000" stroke="none" 
	d="
M485.043365,143.179840 
	C489.271088,160.018372 490.017700,177.007584 488.138794,194.274353 
	C486.689606,207.591858 482.607422,220.002808 476.675049,232.499756 
	C471.722870,233.177475 467.413788,233.499542 463.063354,233.433899 
	C463.412933,231.287476 463.841003,229.536087 464.188354,227.768829 
	C465.803009,219.554214 467.395325,211.335220 469.312561,202.970673 
	C474.131317,201.032318 475.504395,197.196182 475.966339,192.877792 
	C476.695526,186.061020 474.157898,180.518356 469.323669,175.765808 
	C468.807648,170.152878 468.536072,164.691483 467.187195,159.510574 
	C464.788696,150.298248 461.737640,141.255829 459.326019,132.130920 
	C468.142792,135.806274 476.593079,139.493057 485.043365,143.179840 
z"/>
<path fill="#F78902" opacity="1.000000" stroke="none" 
	d="
M485.411560,143.103561 
	C476.593079,139.493057 468.142792,135.806274 458.992065,131.981277 
	C447.799652,128.346695 437.307648,124.850327 426.815643,121.353958 
	C438.517334,118.435997 445.942017,110.798500 450.828613,99.116753 
	C452.639435,104.197464 454.241119,108.691544 456.289886,114.439949 
	C460.243530,110.804443 463.623749,107.696251 467.091797,104.230759 
	C471.463867,99.525871 475.776886,95.205902 480.001282,90.800911 
	C480.634705,90.140434 480.853119,89.081947 481.751129,88.552254 
	C486.482330,100.381264 486.166779,111.887497 484.006927,125.064911 
	C488.707825,122.577698 492.530548,120.555122 496.232452,118.596474 
	C498.867401,129.750717 496.234039,140.193192 485.411560,143.103561 
z"/>
<path fill="#0495C1" opacity="1.000000" stroke="none" 
	d="
M293.002319,91.957413 
	C285.311951,90.682137 277.781433,89.090675 269.872589,87.306419 
	C281.016083,74.428596 295.066193,65.541008 310.774170,58.880131 
	C329.168030,51.080284 348.312500,48.132328 368.114044,49.059742 
	C373.963074,49.333683 379.771973,50.465275 385.815216,51.552437 
	C381.205292,52.588734 376.390930,53.374035 371.551544,53.947853 
	C345.436035,57.044430 321.967957,66.344711 301.894073,83.598396 
	C298.894836,86.176254 296.068512,88.955261 293.002319,91.957413 
z"/>
<path fill="#04A8E4" opacity="1.000000" stroke="none" 
	d="
M216.809738,374.410736 
	C219.068130,369.325348 222.865921,367.750458 227.872757,368.076477 
	C231.021225,368.281494 234.198990,368.050262 237.363297,367.995880 
	C246.039795,367.846741 252.353195,363.414642 257.807312,357.084106 
	C261.938751,352.288788 266.658417,351.775452 270.365997,355.218353 
	C274.071014,358.658844 273.731628,363.231171 269.494659,367.951355 
	C263.761841,374.337982 257.394440,379.819489 247.676361,382.646332 
	C249.781952,386.365540 251.466568,389.625031 253.432434,392.704987 
	C254.574936,394.494995 256.168854,395.996857 257.813110,397.858704 
	C257.885132,407.309540 254.788956,410.127441 246.132690,408.060120 
	C239.182632,401.129791 233.307465,394.250732 232.706421,384.154053 
	C228.835358,384.154053 225.395050,384.154053 221.954727,384.154053 
	C217.664825,382.443542 215.424271,379.589996 216.809738,374.410736 
z"/>
<path fill="#96D3F1" opacity="1.000000" stroke="none" 
	d="
M74.974281,130.075958 
	C74.024216,129.918640 73.074150,129.761307 71.973404,129.266815 
	C64.590057,116.855286 57.357399,104.780930 49.982662,92.381645 
	C57.993996,85.374382 65.527321,78.150444 70.613449,68.386612 
	C78.090492,74.580864 85.312302,80.954590 92.399094,87.669739 
	C80.540688,91.134735 74.233215,97.860275 74.078178,107.533173 
	C73.961639,114.804138 77.494957,120.555298 81.618530,125.956299 
	C79.177452,127.377426 77.075867,128.726700 74.974281,130.075958 
z"/>
<path fill="#364A5E" opacity="1.000000" stroke="none" 
	d="
M187.318665,374.846619 
	C183.673126,379.882172 178.990921,382.694672 172.532135,382.010620 
	C168.133835,381.544861 164.434677,378.129883 163.997955,373.789215 
	C162.486206,358.763733 169.663910,348.051758 181.570984,340.256500 
	C184.189880,338.541962 188.441788,339.321747 192.326828,339.296204 
	C191.787231,341.378479 190.818588,343.095703 189.945084,344.860046 
	C185.167755,354.509552 182.940674,364.391296 187.318665,374.846619 
z"/>
<path fill="#01A8E6" opacity="1.000000" stroke="none" 
	d="
M187.604553,375.069061 
	C182.940674,364.391296 185.167755,354.509552 189.945084,344.860046 
	C190.818588,343.095703 191.787231,341.378479 192.734283,339.293701 
	C194.592026,337.041595 196.379227,335.085876 198.272125,333.238464 
	C203.338364,328.293976 209.907120,329.656036 213.081085,336.622101 
	C211.569305,340.144165 210.520767,343.752594 208.299698,346.363617 
	C202.286575,353.432495 199.659409,361.138000 202.042175,370.676025 
	C198.214325,377.576752 194.413071,378.699982 187.604553,375.069061 
z"/>
<path fill="#40C6F3" opacity="1.000000" stroke="none" 
	d="
M133.180008,413.426270 
	C128.678055,417.663086 124.531418,416.994537 119.317184,414.841248 
	C112.546303,412.045105 105.179161,410.451569 97.923424,409.150208 
	C92.501572,408.177704 89.048904,405.754395 89.025635,401.035400 
	C89.001457,396.132294 92.640343,392.528839 98.356613,393.151642 
	C105.718834,393.953766 112.976631,395.714325 120.672363,396.989380 
	C123.447777,398.157562 125.906418,399.272919 128.198074,400.663483 
	C134.499039,404.486938 134.921310,405.614929 133.180008,413.426270 
z"/>
<path fill="#04A8E4" opacity="1.000000" stroke="none" 
	d="
M359.180511,305.087677 
	C358.667175,315.639557 357.711853,326.162720 356.796967,336.689331 
	C356.699127,337.815125 356.837097,338.961426 357.014404,340.543396 
	C352.812836,348.427490 349.933655,349.534302 343.335297,346.003357 
	C342.279358,342.234467 340.791992,338.590149 340.998138,335.044312 
	C341.584106,324.965088 342.861023,314.926056 343.899750,304.460632 
	C348.872437,304.386719 353.811340,304.723328 359.180511,305.087677 
z"/>
<path fill="#364A5E" opacity="1.000000" stroke="none" 
	d="
M185.266861,309.866760 
	C177.914200,317.841675 169.024323,317.358093 161.908157,312.039337 
	C156.554642,308.038025 153.438660,296.155029 157.515594,290.513062 
	C159.641174,287.571594 163.675598,285.897034 167.048553,284.008789 
	C169.297791,282.749634 171.901047,282.122833 174.777359,281.483521 
	C174.971542,291.174072 177.408630,299.675354 183.711227,306.900238 
	C184.425140,307.718628 184.757538,308.869873 185.266861,309.866760 
z"/>
<path fill="#DEF0FB" opacity="1.000000" stroke="none" 
	d="
M75.005295,130.425980 
	C77.075867,128.726700 79.177452,127.377426 81.921387,126.126312 
	C86.450127,129.053528 90.336517,131.882568 94.222900,134.711624 
	C93.492088,135.855743 92.761276,136.999878 91.976646,138.481476 
	C91.328918,139.318909 90.735008,139.818848 90.032799,140.594727 
	C85.992447,144.316391 82.060402,147.762146 77.646355,151.627502 
	C74.112350,155.060013 71.060333,158.072922 68.008316,161.085846 
	C63.681320,161.408859 59.851124,160.596329 57.291004,155.853424 
	C55.964603,150.251968 59.435390,147.360321 62.136917,144.120880 
	C66.436707,139.672577 70.736504,135.224289 75.005295,130.425980 
z"/>
<path fill="#01A8E6" opacity="1.000000" stroke="none" 
	d="
M385.085999,355.392761 
	C394.743225,350.692841 403.400970,345.024933 411.022186,337.307190 
	C415.838043,337.100433 420.055756,338.141418 420.950317,343.605438 
	C421.570038,347.390778 421.797943,351.328949 416.773407,353.726501 
	C409.660034,360.757660 401.753448,365.210175 392.919830,368.104980 
	C385.480499,367.484497 382.435089,362.744110 385.085999,355.392761 
z"/>
<path fill="#04A8E4" opacity="1.000000" stroke="none" 
	d="
M185.617844,309.914368 
	C184.757538,308.869873 184.425140,307.718628 183.711227,306.900238 
	C177.408630,299.675354 174.971542,291.174072 175.101257,281.311523 
	C178.025818,274.000549 181.787598,272.490967 188.296097,275.890015 
	C189.470367,278.366669 191.147049,280.569397 191.185669,282.800507 
	C191.291565,288.918793 193.064194,294.012878 197.657822,298.189606 
	C198.920578,299.337769 199.535446,301.198486 200.741638,302.926270 
	C199.552307,305.992279 198.767441,309.937500 196.412415,311.470215 
	C193.326584,313.478577 189.133698,312.791595 185.617844,309.914368 
z"/>
<path fill="#364A5E" opacity="1.000000" stroke="none" 
	d="
M221.958496,384.553650 
	C225.395050,384.154053 228.835358,384.154053 232.706421,384.154053 
	C233.307465,394.250732 239.182632,401.129791 245.755997,407.958435 
	C242.744186,418.568054 235.556580,422.383575 228.815659,417.231812 
	C224.412888,413.866943 221.440292,409.301300 221.161133,403.876495 
	C220.838120,397.599121 221.645584,391.263550 221.958496,384.553650 
z"/>
<path fill="#F29577" opacity="1.000000" stroke="none" 
	d="
M446.322693,273.018250 
	C440.087219,271.152863 435.526886,267.681641 433.274139,260.881073 
	C433.064209,259.867432 433.102234,259.415833 433.484375,258.929016 
	C440.960297,253.503708 448.092072,248.113632 455.512390,242.750046 
	C456.185242,242.803192 456.569519,242.829849 457.235870,243.049881 
	C460.035828,246.208359 462.553711,249.173447 465.071564,252.138535 
	C465.071564,252.138535 465.007477,252.600418 464.644623,252.979401 
	C459.649078,258.280060 454.976532,263.165131 450.408997,268.146576 
	C449.109680,269.563629 448.116028,271.260925 446.982178,272.829712 
	C446.982178,272.829712 446.549103,272.981201 446.322693,273.018250 
z"/>
<path fill="#364A5E" opacity="1.000000" stroke="none" 
	d="
M392.948975,368.519470 
	C401.753448,365.210175 409.660034,360.757660 416.615021,354.052429 
	C420.703918,360.415192 420.172058,367.030060 417.115601,373.522278 
	C414.435089,379.215942 410.066254,382.425537 403.391602,382.033295 
	C396.832703,381.647858 393.168823,377.198914 392.948975,368.519470 
z"/>
<path fill="#F4C4B2" opacity="1.000000" stroke="none" 
	d="
M465.394958,251.986893 
	C462.553711,249.173447 460.035828,246.208359 457.293274,242.719666 
	C458.712830,239.454315 460.356995,236.712555 462.279236,233.949646 
	C462.739746,233.892868 462.922241,233.857239 463.104706,233.821594 
	C467.413788,233.499542 471.722870,233.177475 476.444641,232.779358 
	C473.144348,239.080612 469.431335,245.457932 465.394958,251.986893 
z"/>
<path fill="#F78765" opacity="1.000000" stroke="none" 
	d="
M447.418518,272.902100 
	C448.116028,271.260925 449.109680,269.563629 450.408997,268.146576 
	C454.976532,263.165131 459.649078,258.280060 464.565033,253.198563 
	C465.395355,264.452759 463.340546,268.920471 455.432098,272.054169 
	C453.144043,272.960785 450.393433,272.700043 447.418518,272.902100 
z"/>
<path fill="#DEF0FB" opacity="1.000000" stroke="none" 
	d="
M463.063354,233.433884 
	C462.922241,233.857239 462.739746,233.892868 462.048950,233.683502 
	C448.446594,229.237457 440.716827,220.535553 438.884552,206.730698 
	C438.494720,203.793701 437.668823,200.892990 436.818726,198.042679 
	C434.164642,189.144135 426.768860,186.387085 418.978180,191.461975 
	C416.779907,192.893967 414.781250,194.704498 412.919617,196.569565 
	C400.926392,208.585175 386.811615,213.652206 369.790588,209.642761 
	C369.404144,209.114990 369.198120,208.842072 368.935242,208.644882 
	C352.894043,196.610962 345.470856,180.339340 348.357788,160.728592 
	C351.199493,141.424988 362.434235,127.737953 381.142670,120.781982 
	C382.579529,120.247742 383.800873,119.133736 385.122375,118.289223 
	C398.897400,117.249832 412.506409,118.575607 426.421387,121.256882 
	C437.307648,124.850327 447.799652,128.346695 458.625610,131.992706 
	C461.737640,141.255829 464.788696,150.298248 467.187195,159.510574 
	C468.536072,164.691483 468.807648,170.152878 468.972168,175.667938 
	C463.410858,171.962967 457.896606,171.104523 451.926514,172.938843 
	C446.190857,174.701111 443.446320,178.471008 444.532684,183.011642 
	C445.725708,187.998093 449.406342,189.858215 455.878632,188.450943 
	C459.153137,187.738968 460.219543,188.968643 459.867798,192.049088 
	C458.952423,200.065323 461.132202,202.702576 468.995605,203.117783 
	C467.395325,211.335220 465.803009,219.554214 464.188354,227.768829 
	C463.841003,229.536087 463.412933,231.287476 463.063354,233.433884 
M402.021851,160.395645 
	C388.944916,151.815430 372.658203,155.216843 366.200470,167.876755 
	C364.143433,171.909500 365.066620,176.113342 368.534790,178.506027 
	C372.063538,180.940536 376.190491,180.317429 379.255432,176.887375 
	C385.644623,169.737000 388.897675,169.673691 395.273926,176.575638 
	C398.251343,179.798508 402.730774,180.365433 406.085144,177.943878 
	C409.412384,175.541916 410.434052,171.041275 408.058350,167.274170 
	C406.574585,164.921417 404.425659,162.988144 402.021851,160.395645 
z"/>
<path fill="#96D3F1" opacity="1.000000" stroke="none" 
	d="
M384.707581,118.194054 
	C383.800873,119.133736 382.579529,120.247742 381.142670,120.781982 
	C362.434235,127.737953 351.199493,141.424988 348.357788,160.728592 
	C345.470856,180.339340 352.894043,196.610962 368.935242,208.644882 
	C369.198120,208.842072 369.404144,209.114990 369.402832,209.644104 
	C361.755249,206.730194 353.792572,204.394470 347.044098,200.135056 
	C333.716339,191.722992 324.897278,178.864029 316.400330,165.881577 
	C314.558655,163.067719 312.200195,160.592148 310.198456,157.658264 
	C312.873169,154.613846 315.429169,151.871964 317.985168,149.130066 
	C323.473846,144.610626 328.525482,139.361496 334.557220,135.748764 
	C342.871643,130.768845 351.926270,127.024689 360.888672,122.473328 
	C368.839996,120.829956 376.566406,119.464417 384.707581,118.194054 
z"/>
<path fill="#353535" opacity="1.000000" stroke="none" 
	d="
M94.591522,134.782654 
	C90.336517,131.882568 86.450127,129.053528 82.260887,126.054459 
	C77.494957,120.555298 73.961639,114.804138 74.078178,107.533173 
	C74.233215,97.860275 80.540688,91.134735 92.628586,87.894730 
	C106.363350,86.533836 117.978455,90.357544 127.540565,99.899834 
	C133.356430,105.703659 136.503799,112.628448 135.912933,121.434814 
	C129.519257,136.761230 116.502136,142.038727 99.598595,136.578888 
	C98.030312,136.072327 96.505264,135.431931 94.591522,134.782654 
M116.629898,111.947281 
	C111.084068,105.516533 103.973015,102.984016 95.692551,104.043518 
	C93.798241,104.285896 91.322845,105.508362 90.521294,107.023689 
	C89.879280,108.237419 90.904282,110.933205 91.991867,112.359314 
	C97.140533,119.110519 103.943405,122.924927 112.627914,122.017326 
	C114.991821,121.770271 118.089272,120.667747 119.191589,118.914886 
	C119.962112,117.689629 117.911293,114.690147 116.629898,111.947281 
z"/>
<path fill="#FAD6C6" opacity="1.000000" stroke="none" 
	d="
M310.079742,157.960785 
	C312.200195,160.592148 314.558655,163.067719 316.400330,165.881577 
	C324.897278,178.864029 333.716339,191.722992 347.044098,200.135056 
	C353.792572,204.394470 361.755249,206.730194 369.556702,209.934296 
	C386.811615,213.652206 400.926392,208.585175 412.919617,196.569565 
	C414.781250,194.704498 416.779907,192.893967 418.978180,191.461975 
	C426.768860,186.387085 434.164642,189.144135 436.818726,198.042679 
	C437.668823,200.892990 438.494720,203.793701 438.884552,206.730698 
	C440.716827,220.535553 448.446594,229.237457 461.770874,233.704651 
	C460.356995,236.712555 458.712830,239.454315 457.011230,242.526276 
	C456.569519,242.829849 456.185242,242.803192 455.213776,242.509979 
	C443.008698,238.008286 432.672943,246.051666 433.140259,258.964264 
	C433.102234,259.415833 433.064209,259.867432 433.012878,260.658875 
	C425.561066,264.225311 418.242462,267.772400 410.658234,270.609406 
	C396.345886,275.963165 381.497162,278.660278 366.238068,280.214447 
	C348.035583,282.068420 330.328003,279.324738 312.036194,277.149567 
	C294.689941,263.847870 284.406586,246.143143 277.988068,225.934387 
	C274.183594,213.956055 272.515625,201.655441 273.114075,188.427643 
	C287.905853,180.652542 298.943420,169.245880 310.079742,157.960785 
M353.424927,240.997757 
	C361.955139,239.978073 367.785095,234.809662 368.903900,227.275360 
	C369.937744,220.312759 365.799347,212.864578 359.289642,210.289215 
	C353.010071,207.804886 347.169159,208.650467 342.173615,213.325638 
	C337.374939,217.816528 335.751068,223.353607 337.790771,229.666672 
	C340.086975,236.773697 345.185608,240.439148 353.424927,240.997757 
M401.725311,221.609177 
	C399.804413,225.981628 401.368927,229.747391 403.892822,233.253876 
	C408.905762,240.218307 420.306366,245.213226 430.126770,241.180801 
	C436.042664,238.751617 438.557343,235.282806 437.030212,230.432343 
	C435.458282,225.439621 432.206299,223.954575 425.804504,225.609802 
	C421.640625,226.686386 418.505493,226.017853 415.946228,222.134140 
	C411.784576,215.818756 407.784607,215.608139 401.725311,221.609177 
z"/>
<path fill="#01A8E6" opacity="1.000000" stroke="none" 
	d="
M310.198456,157.658264 
	C298.943420,169.245880 287.905853,180.652542 273.075439,187.973328 
	C270.096191,189.114441 267.423737,190.049530 264.380768,191.014679 
	C263.085419,187.413422 261.634857,183.826660 261.322510,180.143372 
	C259.509338,158.763580 262.341797,138.203079 273.003845,119.186401 
	C273.311523,118.637596 273.911682,118.252769 274.777710,117.625092 
	C291.216766,125.242691 305.137573,135.892639 317.730469,148.908081 
	C315.429169,151.871964 312.873169,154.613846 310.198456,157.658264 
z"/>
<path fill="#687878" opacity="1.000000" stroke="none" 
	d="
M61.765114,144.020874 
	C59.435390,147.360321 55.964603,150.251968 57.020576,155.641510 
	C53.128990,154.988327 49.447113,150.193558 50.184891,147.269821 
	C50.911766,144.389313 56.132153,142.829514 61.765114,144.020874 
z"/>
<path fill="#687878" opacity="1.000000" stroke="none" 
	d="
M68.186829,161.395569 
	C71.060333,158.072922 74.112350,155.060013 77.469048,151.909058 
	C77.833817,152.090500 77.911591,152.407822 77.951187,152.729858 
	C78.263519,155.270187 79.757858,158.940781 78.634789,160.123428 
	C76.090500,162.802689 72.206100,163.874359 68.186829,161.395569 
z"/>
<path fill="#394C61" opacity="1.000000" stroke="none" 
	d="
M469.312561,202.970673 
	C461.132202,202.702576 458.952423,200.065323 459.867798,192.049088 
	C460.219543,188.968643 459.153137,187.738968 455.878632,188.450943 
	C449.406342,189.858215 445.725708,187.998093 444.532684,183.011642 
	C443.446320,178.471008 446.190857,174.701111 451.926514,172.938843 
	C457.896606,171.104523 463.410858,171.962967 468.731293,175.945831 
	C474.157898,180.518356 476.695526,186.061020 475.966339,192.877792 
	C475.504395,197.196182 474.131317,201.032318 469.312561,202.970673 
z"/>
<path fill="#F78765" opacity="1.000000" stroke="none" 
	d="
M433.484375,258.929016 
	C432.672943,246.051666 443.008698,238.008286 454.925232,242.483490 
	C448.092072,248.113632 440.960297,253.503708 433.484375,258.929016 
z"/>
<path fill="#394C61" opacity="1.000000" stroke="none" 
	d="
M402.298523,160.631134 
	C404.425659,162.988144 406.574585,164.921417 408.058350,167.274170 
	C410.434052,171.041275 409.412384,175.541916 406.085144,177.943878 
	C402.730774,180.365433 398.251343,179.798508 395.273926,176.575638 
	C388.897675,169.673691 385.644623,169.737000 379.255432,176.887375 
	C376.190491,180.317429 372.063538,180.940536 368.534790,178.506027 
	C365.066620,176.113342 364.143433,171.909500 366.200470,167.876755 
	C372.658203,155.216843 388.944916,151.815430 402.298523,160.631134 
z"/>
<path fill="#687878" opacity="1.000000" stroke="none" 
	d="
M116.875259,112.215195 
	C117.911293,114.690147 119.962112,117.689629 119.191589,118.914886 
	C118.089272,120.667747 114.991821,121.770271 112.627914,122.017326 
	C103.943405,122.924927 97.140533,119.110519 91.991867,112.359314 
	C90.904282,110.933205 89.879280,108.237419 90.521294,107.023689 
	C91.322845,105.508362 93.798241,104.285896 95.692551,104.043518 
	C103.973015,102.984016 111.084068,105.516533 116.875259,112.215195 
z"/>
<path fill="#F78765" opacity="1.000000" stroke="none" 
	d="
M353.003448,240.997772 
	C345.185608,240.439148 340.086975,236.773697 337.790771,229.666672 
	C335.751068,223.353607 337.374939,217.816528 342.173615,213.325638 
	C347.169159,208.650467 353.010071,207.804886 359.289642,210.289215 
	C365.799347,212.864578 369.937744,220.312759 368.903900,227.275360 
	C367.785095,234.809662 361.955139,239.978073 353.003448,240.997772 
z"/>
<path fill="#F99D7A" opacity="1.000000" stroke="none" 
	d="
M401.902283,221.256943 
	C407.784607,215.608139 411.784576,215.818756 415.946228,222.134140 
	C418.505493,226.017853 421.640625,226.686386 425.804504,225.609802 
	C432.206299,223.954575 435.458282,225.439621 437.030212,230.432343 
	C438.557343,235.282806 436.042664,238.751617 430.126770,241.180801 
	C420.306366,245.213226 408.905762,240.218307 403.892822,233.253876 
	C401.368927,229.747391 399.804413,225.981628 401.902283,221.256943 
z"/>
</svg>
