<svg version="1.1" id="Layer_1" xmlns="http://www.w3.org/2000/svg" xmlns:xlink="http://www.w3.org/1999/xlink" x="0px" y="0px"
	 width="100%" viewBox="0 0 512 512" enable-background="new 0 0 512 512" xml:space="preserve">
<path fill="#000000" opacity="1.000000" stroke="none" 
	d="
M234.000000,1.000000 
	C251.687561,1.000000 269.375122,1.000000 287.812683,1.209577 
	C292.134979,3.658399 296.308502,2.779399 300.163544,3.469028 
	C324.487915,7.820414 347.859161,15.069082 370.031525,25.932014 
	C404.413574,42.776894 433.402222,66.366760 457.516174,96.132294 
	C476.024506,118.978493 489.921417,144.275101 499.653870,171.944916 
	C506.731140,192.065994 510.923462,212.804794 513.000000,234.000000 
	C513.000000,249.020889 513.000000,264.041779 512.992310,279.934387 
	C511.557434,293.310486 509.700226,305.733429 506.742004,317.990448 
	C499.008423,350.033325 485.515015,379.411530 466.469604,406.298004 
	C453.334442,424.841003 437.777588,441.186066 420.394012,455.648438 
	C401.683258,471.214935 381.028839,483.868835 358.515411,493.363068 
	C341.184814,500.671539 323.331360,506.108765 304.828552,509.580872 
	C299.542847,510.572754 293.967834,510.472198 289.000000,513.000000 
	C267.979095,513.000000 246.958206,513.000000 225.234604,512.726624 
	C223.780182,512.134705 223.047424,511.598114 222.273895,511.530914 
	C213.339066,510.754761 204.632629,508.722443 195.945114,506.667145 
	C163.712708,499.041565 134.176559,485.403839 107.309769,466.106354 
	C88.346222,452.485443 71.614113,436.446198 56.895287,418.282898 
	C41.852650,399.720001 29.618256,379.510315 20.345768,357.494629 
	C13.110764,340.316528 7.759141,322.606995 4.390106,304.244873 
	C3.456630,299.157196 3.937099,293.665588 1.000000,289.000000 
	C1.000000,270.979095 1.000000,252.958206 1.018364,234.067749 
	C1.595128,228.102081 1.896923,222.962311 2.755110,217.917206 
	C7.121089,192.250504 14.393064,167.474365 25.855021,144.015579 
	C42.153339,110.658379 64.837555,82.240707 93.292343,58.584312 
	C121.932167,34.774075 154.435211,18.107590 190.522232,8.599970 
	C204.799561,4.838416 219.327301,2.503003 234.000000,1.000000 
M81.588181,133.027695 
	C73.937477,144.316422 66.959717,155.919739 61.278576,168.412994 
	C45.274532,203.607071 39.697746,240.318390 43.272915,278.676392 
	C45.740242,305.148376 53.118721,330.188446 65.137169,353.752289 
	C77.467972,377.928467 93.813522,399.065857 114.269043,417.175293 
	C132.132111,432.989563 151.697845,445.873413 173.598557,455.108887 
	C210.244766,470.562469 248.386002,475.205292 287.728760,469.625885 
	C321.901123,464.779663 353.053558,452.269104 381.166565,432.204224 
	C396.818542,421.033051 410.959625,408.148590 423.022705,393.241821 
	C435.164337,378.238037 445.547913,362.055939 453.409729,344.246643 
	C463.511932,321.362244 469.822937,297.502930 471.374786,272.683228 
	C472.459595,255.332947 471.884216,237.907959 468.846100,220.530121 
	C461.321289,177.488495 442.342682,140.365570 412.453979,108.848427 
	C393.307312,88.658600 370.962219,72.760262 345.465088,61.188946 
	C322.515564,50.773796 298.535248,44.364338 273.585114,42.629360 
	C241.438736,40.393982 209.998810,44.608200 179.725235,56.419849 
	C151.913223,67.271072 127.583458,83.334656 106.242264,104.068542 
	C97.286896,112.769089 89.340050,122.348701 81.588181,133.027695 
z"/>
<path fill="#000000" opacity="1.000000" stroke="none" 
	d="
M286.845062,233.870422 
	C301.606018,215.843216 297.471558,190.099014 278.453125,177.342377 
	C254.891953,161.538742 225.112396,175.212814 218.826614,201.993835 
	C217.441727,207.894272 218.283600,214.233551 215.177734,219.863342 
	C210.724350,227.935654 201.318832,232.242447 192.276047,230.100494 
	C182.661865,227.823196 176.900711,220.226685 176.582932,210.311813 
	C175.829590,186.808029 184.234802,166.989166 200.961334,150.880157 
	C213.333496,138.964783 228.198273,131.736832 245.515686,129.459167 
	C264.893951,126.910461 282.766296,130.416199 299.464935,140.543411 
	C319.534302,152.714844 332.060242,170.456543 336.126038,193.287552 
	C341.281311,222.236343 334.232269,248.013107 312.388306,268.763153 
	C303.575745,277.134430 293.201660,283.005157 281.677307,286.724548 
	C278.365173,287.793549 277.265076,289.513245 277.322723,292.858887 
	C277.483429,302.184784 277.399323,311.515411 277.368134,320.843994 
	C277.330566,332.069702 268.770355,340.365051 257.240631,340.399231 
	C245.336868,340.434540 236.660446,332.211975 236.639893,320.783539 
	C236.608444,303.292267 236.994812,285.790466 236.490585,268.313721 
	C236.220230,258.942780 245.183594,248.678665 256.128571,248.528076 
	C268.297333,248.360641 278.684235,243.680328 286.845062,233.870422 
z"/>
<path fill="#000000" opacity="1.000000" stroke="none" 
	d="
M278.114441,364.055115 
	C285.485840,374.976929 283.376648,391.841614 274.058533,399.316895 
	C265.820618,405.925659 256.725311,407.234344 247.000092,403.445679 
	C237.621490,399.792053 232.369156,391.153412 231.500076,381.690460 
	C229.435593,359.211273 252.775635,346.958130 270.539062,357.145844 
	C273.493958,358.840515 275.753357,361.212341 278.114441,364.055115 
z"/>
</svg>