<svg xmlns="http://www.w3.org/2000/svg" xmlns:xlink="http://www.w3.org/1999/xlink" version="1.1" id="Layer_1" x="0px" y="0px" viewBox="0 0 100 100" style="enable-background:new 0 0 100 100;" xml:space="preserve">
<style type="text/css">
	.st0{fill:#A0AFC2;}
	.st1{fill:#717B93;}
	.st2{fill:#FFC400;}
	.st3{fill:#F39900;}
	.st4{fill:#C17000;}
	.st5{fill:#5F6B85;}
	.st6{fill:#3B4B6A;}
	.st7{fill:#547DBD;}
	.st8{fill:#DB8300;}
	.st9{fill:#D75257;}
</style>
<g>
	<g>
		<path class="st0" d="M5.97,70.71c0,0-2.31,1.35-3.58,4.19c-0.64,1.42,0.04,3.09,1.5,3.64l1.68,0.64c1.22,0.47,2.52,0.7,3.82,0.7    h54.17l25.34-4.1l-2.63-5.07l5.61-1.99c2.31-0.82,3.85-3,3.85-5.45v-5.37L64.61,40.88L5.97,70.71z"/>
		<path class="st1" d="M5.74,48.71l-1.47-5.83l10.16-5.36c0,0,3.24-2.08,6.22,0.63c2.98,2.71,1.24,6.28,0.42,6.3    C20.26,44.47,5.74,48.71,5.74,48.71z"/>
		<path class="st2" d="M0.15,56.66l1.3,9.88c0.23,1.76,0.98,3.42,2.18,4.73c1.74,1.9,4.75,4.17,9.37,4.55h62.83l14.83-12.33    l6.43-3.13c2.09-1.02,3.25-3.31,2.82-5.6l-4.38-23.33c-0.54-2.86-3.04-4.94-5.95-4.94l-10.82-2.42c0,0-5.33-13.37-10.74-18.73    c-2.12-2.1-5.13-3.01-8.05-2.43L37.15,8.38c-2.9,0.58-5.41,2.39-6.85,4.98c-2.81,5.05-6.31,17.79-7.45,24.55    c0,0-11.4,3.52-20.56,11.99C0.43,51.61-0.36,54.19,0.15,56.66z"/>
		<path class="st3" d="M91.25,45.52l-53.04,9.72c-12.17-5.5-30.42,1.41-37.63,4.6l0.88,6.7c0.23,1.76,0.98,3.42,2.18,4.73    c1.74,1.9,4.75,4.17,9.37,4.55h62.83l14.83-12.33l6.43-3.13c2.09-1.02,3.25-3.31,2.82-5.6l-1.67-8.91    C94.82,44.51,91.25,45.52,91.25,45.52z"/>
		<path class="st4" d="M13.01,75.82h34.42C46.1,65.57,37.36,57.65,26.75,57.65c-9.85,0-18.08,6.83-20.28,16    C8.15,74.71,10.3,75.6,13.01,75.82z"/>
		<path class="st4" d="M75.84,75.82l14.83-12.33l1.31-0.64c-4.05-4.12-9.69-6.67-15.92-6.67c-11.42,0-20.84,8.58-22.17,19.64H75.84z    "/>
		<g>
			<circle class="st5" cx="76.05" cy="78.52" r="18.75"/>
			<circle class="st6" cx="76.05" cy="78.52" r="12.18"/>
			<circle class="st0" cx="76.05" cy="78.52" r="8.61"/>
		</g>
		<path class="st7" d="M31.26,12.77c-0.3,0.18-0.64,0.38-0.94,0.56c-2.81,5.04-6.32,17.8-7.47,24.57l7.34,0.31    c0.64,0.03,1.2-0.43,1.3-1.07l3.49-22.93c0.12-0.76-0.47-1.45-1.25-1.45L31.26,12.77z"/>
		<path class="st7" d="M34.87,35.29l2.62-21.25c0.09-0.76,0.66-1.38,1.41-1.55l15.11-3.34c0.95-0.21,1.9,0.37,2.15,1.31l5.17,19.65    c0.26,1-0.36,2.02-1.37,2.23l-22.9,4.94C35.83,37.55,34.72,36.53,34.87,35.29z"/>
		<g>
			<path class="st8" d="M72.14,18.63l-10,2.24c-0.5,0.11-0.81,0.62-0.69,1.12l0.08,0.32c0.12,0.49,0.62,0.78,1.1,0.66l9.98-2.43     c0.56-0.14,0.85-0.75,0.61-1.27c-0.02-0.04-0.04-0.09-0.06-0.13C73,18.74,72.56,18.53,72.14,18.63z"/>
			<path class="st8" d="M59.12,12.86l0.05,0.19c0.12,0.49,0.62,0.78,1.11,0.66l7.61-1.9c0.61-0.15,0.89-0.86,0.55-1.38     c0-0.01-0.01-0.01-0.01-0.02c-0.21-0.32-0.6-0.48-0.97-0.4l-7.65,1.72C59.3,11.86,58.99,12.36,59.12,12.86z"/>
			<path class="st8" d="M61.45,18.4l9.09-2.01c0.59-0.13,0.89-0.79,0.61-1.33c-0.14-0.26-0.28-0.52-0.42-0.77     c-0.2-0.35-0.6-0.53-1-0.44l-8.89,1.96c-0.51,0.11-0.82,0.62-0.69,1.12l0.21,0.82C60.49,18.21,60.97,18.51,61.45,18.4z"/>
			<path class="st8" d="M66.09,7.1c-0.06-0.07-0.11-0.14-0.15-0.2c-0.22-0.28-0.58-0.4-0.92-0.32l-6.18,1.43     c-0.5,0.12-0.81,0.62-0.68,1.12l0.06,0.23c0.12,0.48,0.61,0.78,1.09,0.66c2.01-0.47,4.24-0.99,6.27-1.46     C66.23,8.41,66.5,7.63,66.09,7.1z"/>
			<path class="st8" d="M62.73,26.95l0.82,3.21c0.16,0.6,0.86,0.88,1.38,0.54l9.66-6.23c0.36-0.23,0.52-0.69,0.36-1.1     c-0.05-0.12-0.09-0.24-0.14-0.37c-0.18-0.45-0.67-0.68-1.13-0.53l-10.35,3.37C62.87,26,62.61,26.48,62.73,26.95z"/>
		</g>
		<path class="st9" d="M91.02,40.76l6.56,1.58l-2.05-10.92l-5.41,1.13c-1.04,0.22-1.7,1.24-1.48,2.27l0.96,4.48    C89.75,40.03,90.31,40.59,91.02,40.76z"/>
	</g>
	<g>
		<circle class="st5" cx="26.75" cy="78.52" r="18.75"/>
		<circle class="st6" cx="26.75" cy="78.52" r="12.18"/>
		<circle class="st0" cx="26.75" cy="78.52" r="8.61"/>
	</g>
</g>
</svg>
