<svg version="1.1" id="Layer_1" xmlns="http://www.w3.org/2000/svg" xmlns:xlink="http://www.w3.org/1999/xlink" x="0px" y="0px"
	 width="100%" viewBox="0 0 512 512" enable-background="new 0 0 512 512" xml:space="preserve">
<path fill="transparent" opacity="1.000000" stroke="none" 
	d="
M64.000000,1.000000 
	C213.620590,1.000000 363.241180,1.000000 512.930908,1.000000 
	C512.930908,171.568008 512.930908,342.136047 512.930908,513.000000 
	C363.311462,513.000000 213.622711,513.000000 63.621475,512.657349 
	C65.794594,511.533295 68.354446,510.931824 70.753975,509.941742 
	C88.858032,502.471832 99.631920,488.746185 101.780869,469.574066 
	C104.207588,447.923828 92.683990,427.465027 71.157768,418.549500 
	C53.623531,411.287354 32.101692,415.663544 19.104937,428.389984 
	C8.420012,438.852631 3.296527,451.376160 3.919001,466.487549 
	C4.631529,483.785217 12.427504,496.750183 26.784470,505.873138 
	C31.235365,508.701385 36.245754,510.649139 41.000000,513.000000 
	C27.676432,513.000000 14.352864,513.000000 1.047668,513.000000 
	C1.047668,342.333313 1.047668,171.666656 1.047668,1.000000 
	C14.418902,1.000000 27.742468,1.000000 41.351181,1.319953 
	C32.297379,3.958499 23.813602,8.310624 17.420244,15.310997 
	C3.548358,30.499941 -0.062160,48.313759 7.114061,67.685974 
	C14.109241,86.569481 31.056185,98.356262 50.747662,98.848450 
	C70.815903,99.350060 86.221825,90.765785 96.146370,72.752464 
	C109.172165,49.110321 99.781845,19.083799 76.386269,6.781993 
	C72.357872,4.663793 68.133728,2.917883 64.000000,1.000000 
M9.880081,302.597443 
	C9.550423,303.382538 9.220764,304.167633 8.227443,305.289551 
	C3.255645,314.695221 3.187172,324.927643 4.323402,334.981781 
	C4.872748,339.842773 7.998480,344.412567 10.016382,349.829956 
	C15.681804,361.529510 25.228617,368.715942 37.297665,372.619385 
	C62.135624,380.652527 86.728394,369.599030 97.688339,346.372925 
	C99.498398,342.537109 98.597900,337.411682 100.441696,333.604645 
	C103.944954,326.371185 100.494453,319.826660 99.947258,312.252777 
	C99.000832,309.819153 98.054405,307.385559 96.999710,304.239227 
	C93.704498,299.812012 90.409286,295.384766 86.829010,290.351013 
	C85.566437,289.528839 84.303856,288.706665 82.896347,287.435760 
	C82.712257,287.150909 82.451485,286.991516 81.814651,286.336456 
	C80.223396,285.518982 78.632149,284.701538 76.792038,283.319153 
	C76.089027,283.088654 75.386017,282.858154 74.330986,281.971710 
	C60.216187,275.286591 46.090115,274.756989 31.258451,281.997528 
	C29.839319,282.720520 28.420185,283.443481 26.331150,284.245575 
	C19.977158,289.284790 13.606441,294.308807 9.880081,302.597443 
M415.500000,145.000000 
	C331.670441,145.000000 247.840897,144.996918 164.011337,145.003586 
	C152.537201,145.004501 144.017426,153.476303 144.004303,164.886719 
	C143.986862,180.052658 144.376694,195.230927 143.882828,210.380783 
	C143.475296,222.882263 155.027283,231.171036 164.798798,231.149567 
	C272.959900,230.911865 381.121704,231.000000 489.283325,230.999893 
	C490.283264,230.999893 491.289398,231.070801 492.282227,230.986237 
	C502.203705,230.141068 510.141693,220.850983 510.049408,212.354965 
	C509.877441,196.524231 509.569550,180.674362 510.155548,164.863495 
	C510.528748,154.793839 500.519196,144.735718 489.994965,144.887436 
	C465.501190,145.240540 440.998871,145.000000 415.500000,145.000000 
M411.500000,369.000000 
	C437.655731,369.000000 463.814667,368.763580 489.965668,369.115448 
	C500.542816,369.257782 510.522125,359.168243 510.152130,349.220215 
	C509.576630,333.748077 509.591614,318.224121 510.146820,302.750519 
	C510.503540,292.808258 500.632996,282.910767 490.438019,282.922455 
	C381.483582,283.047180 272.528961,282.995483 163.574387,283.006989 
	C152.630157,283.008148 144.018433,291.736420 144.004715,302.781219 
	C143.985870,317.941528 144.328323,333.111359 143.893570,348.259216 
	C143.560593,359.859924 153.219345,369.136444 164.602798,369.108368 
	C246.568115,368.906067 328.534180,369.000000 411.500000,369.000000 
M337.500000,93.000000 
	C388.157196,92.999985 438.814362,93.016388 489.471558,92.988037 
	C501.670074,92.981216 509.993378,84.570381 509.998505,72.408897 
	C510.004883,57.245052 509.333344,42.041168 510.240723,26.931812 
	C510.819489,17.294262 499.522888,6.725128 490.146576,6.757776 
	C381.334839,7.136651 272.521057,7.085376 163.708466,6.853943 
	C153.962921,6.833216 143.675461,16.231291 143.915054,26.791294 
	C144.251343,41.614239 144.596130,56.481655 143.823593,71.271873 
	C143.124207,84.661568 155.096390,93.154907 166.032166,93.109604 
	C222.853958,92.874222 279.677246,93.000000 337.500000,93.000000 
M359.500000,507.000000 
	C403.485168,507.000000 447.470306,507.008636 491.455475,506.993317 
	C501.191254,506.989929 509.977539,498.202454 509.993439,488.475281 
	C510.018219,473.313751 509.530396,458.133301 510.139526,442.996246 
	C510.686981,429.391907 500.721222,420.940643 488.112030,420.950745 
	C380.648346,421.036743 273.184570,420.999969 165.720840,421.000000 
	C164.887787,421.000000 164.053879,420.975677 163.221802,421.004303 
	C152.804016,421.362183 144.015793,430.389435 144.004410,440.782837 
	C143.987427,456.277618 144.247681,471.777710 143.913528,487.265289 
	C143.688126,497.712799 153.920563,507.183472 163.566376,507.142792 
	C228.543304,506.868683 293.521912,507.000000 359.500000,507.000000 
M93.925705,160.689529 
	C92.288300,158.633148 90.797493,156.436859 88.989929,154.542862 
	C76.278816,141.223984 60.800865,136.515717 42.783897,139.941498 
	C21.577242,143.973755 6.907365,160.658463 4.219021,179.883240 
	C1.762843,197.447769 6.684784,213.145416 20.667427,225.180328 
	C35.917080,238.305725 56.754974,240.691467 74.475548,232.093094 
	C88.089905,225.487152 96.798340,214.611816 100.476021,199.969513 
	C103.915413,186.275955 101.910080,173.317261 93.925705,160.689529 
z"/>
<path fill="#FCD462" opacity="1.000000" stroke="none" 
	d="
M63.531422,1.000000 
	C68.133728,2.917883 72.357872,4.663793 76.386269,6.781993 
	C99.781845,19.083799 109.172165,49.110321 96.146370,72.752464 
	C86.221825,90.765785 70.815903,99.350060 50.747662,98.848450 
	C31.056185,98.356262 14.109241,86.569481 7.114061,67.685974 
	C-0.062160,48.313759 3.548358,30.499941 17.420244,15.310997 
	C23.813602,8.310624 32.297379,3.958499 41.818169,1.319953 
	C49.020947,1.000000 56.041897,1.000000 63.531422,1.000000 
z"/>
<path fill="#27A2DB" opacity="1.000000" stroke="none" 
	d="
M41.468575,513.000000 
	C36.245754,510.649139 31.235365,508.701385 26.784470,505.873138 
	C12.427504,496.750183 4.631529,483.785217 3.919001,466.487549 
	C3.296527,451.376160 8.420012,438.852631 19.104937,428.389984 
	C32.101692,415.663544 53.623531,411.287354 71.157768,418.549500 
	C92.683990,427.465027 104.207588,447.923828 101.780869,469.574066 
	C99.631920,488.746185 88.858032,502.471832 70.753975,509.941742 
	C68.354446,510.931824 65.794594,511.533295 63.154491,512.657349 
	C55.979053,513.000000 48.958103,513.000000 41.468575,513.000000 
z"/>
<path fill="#44C4A1" opacity="1.000000" stroke="none" 
	d="
M416.000000,145.000000 
	C440.998871,145.000000 465.501190,145.240540 489.994965,144.887436 
	C500.519196,144.735718 510.528748,154.793839 510.155548,164.863495 
	C509.569550,180.674362 509.877441,196.524231 510.049408,212.354965 
	C510.141693,220.850983 502.203705,230.141068 492.282227,230.986237 
	C491.289398,231.070801 490.283264,230.999893 489.283325,230.999893 
	C381.121704,231.000000 272.959900,230.911865 164.798798,231.149567 
	C155.027283,231.171036 143.475296,222.882263 143.882828,210.380783 
	C144.376694,195.230927 143.986862,180.052658 144.004303,164.886719 
	C144.017426,153.476303 152.537201,145.004501 164.011337,145.003586 
	C247.840897,144.996918 331.670441,145.000000 416.000000,145.000000 
z"/>
<path fill="#E56353" opacity="1.000000" stroke="none" 
	d="
M411.000000,369.000000 
	C328.534180,369.000000 246.568115,368.906067 164.602798,369.108368 
	C153.219345,369.136444 143.560593,359.859924 143.893570,348.259216 
	C144.328323,333.111359 143.985870,317.941528 144.004715,302.781219 
	C144.018433,291.736420 152.630157,283.008148 163.574387,283.006989 
	C272.528961,282.995483 381.483582,283.047180 490.438019,282.922455 
	C500.632996,282.910767 510.503540,292.808258 510.146820,302.750519 
	C509.591614,318.224121 509.576630,333.748077 510.152130,349.220215 
	C510.522125,359.168243 500.542816,369.257782 489.965668,369.115448 
	C463.814667,368.763580 437.655731,369.000000 411.000000,369.000000 
z"/>
<path fill="#FCD462" opacity="1.000000" stroke="none" 
	d="
M337.000000,93.000000 
	C279.677246,93.000000 222.853958,92.874222 166.032166,93.109604 
	C155.096390,93.154907 143.124207,84.661568 143.823593,71.271873 
	C144.596130,56.481655 144.251343,41.614239 143.915054,26.791294 
	C143.675461,16.231291 153.962921,6.833216 163.708466,6.853943 
	C272.521057,7.085376 381.334839,7.136651 490.146576,6.757776 
	C499.522888,6.725128 510.819489,17.294262 510.240723,26.931812 
	C509.333344,42.041168 510.004883,57.245052 509.998505,72.408897 
	C509.993378,84.570381 501.670074,92.981216 489.471558,92.988037 
	C438.814362,93.016388 388.157196,92.999985 337.000000,93.000000 
z"/>
<path fill="#27A2DB" opacity="1.000000" stroke="none" 
	d="
M359.000000,507.000000 
	C293.521912,507.000000 228.543304,506.868683 163.566376,507.142792 
	C153.920563,507.183472 143.688126,497.712799 143.913528,487.265289 
	C144.247681,471.777710 143.987427,456.277618 144.004410,440.782837 
	C144.015793,430.389435 152.804016,421.362183 163.221802,421.004303 
	C164.053879,420.975677 164.887787,421.000000 165.720840,421.000000 
	C273.184570,420.999969 380.648346,421.036743 488.112030,420.950745 
	C500.721222,420.940643 510.686981,429.391907 510.139526,442.996246 
	C509.530396,458.133301 510.018219,473.313751 509.993439,488.475281 
	C509.977539,498.202454 501.191254,506.989929 491.455475,506.993317 
	C447.470306,507.008636 403.485168,507.000000 359.000000,507.000000 
z"/>
<path fill="#44C4A1" opacity="1.000000" stroke="none" 
	d="
M94.012787,161.045273 
	C101.910080,173.317261 103.915413,186.275955 100.476021,199.969513 
	C96.798340,214.611816 88.089905,225.487152 74.475548,232.093094 
	C56.754974,240.691467 35.917080,238.305725 20.667427,225.180328 
	C6.684784,213.145416 1.762843,197.447769 4.219021,179.883240 
	C6.907365,160.658463 21.577242,143.973755 42.783897,139.941498 
	C60.800865,136.515717 76.278816,141.223984 88.989929,154.542862 
	C90.797493,156.436859 92.288300,158.633148 94.012787,161.045273 
z"/>
<path fill="#E56353" opacity="1.000000" stroke="none" 
	d="
M27.001053,284.166473 
	C28.420185,283.443481 29.839319,282.720520 31.870491,282.252625 
	C34.749260,282.471802 37.015884,282.425842 39.282738,282.401794 
	C47.812626,282.311371 56.342548,282.175385 64.872543,282.168945 
	C68.142570,282.166504 71.412834,282.465851 74.682999,282.627686 
	C75.386017,282.858154 76.089027,283.088654 76.953766,283.964050 
	C78.781662,285.391785 80.447845,286.174652 82.114029,286.957520 
	C82.451485,286.991516 82.712257,287.150909 82.992905,288.030823 
	C84.431000,289.403107 85.772537,290.180328 87.114067,290.957550 
	C90.409286,295.384766 93.704498,299.812012 96.785248,304.799438 
	C97.658325,307.905792 98.745872,310.451935 99.833420,312.998077 
	C100.494453,319.826660 103.944954,326.371185 100.441696,333.604645 
	C98.597900,337.411682 99.498398,342.537109 97.688339,346.372925 
	C86.728394,369.599030 62.135624,380.652527 37.297665,372.619385 
	C25.228617,368.715942 15.681804,361.529510 9.999602,349.036865 
	C9.321882,342.222900 8.572438,336.209839 8.039243,330.177704 
	C7.791622,327.376343 7.733552,324.515198 8.007720,321.722168 
	C8.317986,318.561432 8.411425,315.076721 9.850901,312.408112 
	C11.550798,309.256744 11.047881,307.204437 8.891107,304.952728 
	C9.220764,304.167633 9.550423,303.382538 10.418557,302.298706 
	C13.260549,300.818481 16.123253,300.145935 17.755220,298.353119 
	C21.560961,294.172180 28.292265,291.700836 27.001053,284.166473 
z"/>
<path fill="#E56353" opacity="1.000000" stroke="none" 
	d="
M74.506989,282.299683 
	C71.412834,282.465851 68.142570,282.166504 64.872543,282.168945 
	C56.342548,282.175385 47.812626,282.311371 39.282738,282.401794 
	C37.015884,282.425842 34.749260,282.471802 32.216270,282.200897 
	C46.090115,274.756989 60.216187,275.286591 74.506989,282.299683 
z"/>
<path fill="#E56353" opacity="1.000000" stroke="none" 
	d="
M8.559275,305.121155 
	C11.047881,307.204437 11.550798,309.256744 9.850901,312.408112 
	C8.411425,315.076721 8.317986,318.561432 8.007720,321.722168 
	C7.733552,324.515198 7.791622,327.376343 8.039243,330.177704 
	C8.572438,336.209839 9.321882,342.222900 9.970259,348.678986 
	C7.998480,344.412567 4.872748,339.842773 4.323402,334.981781 
	C3.187172,324.927643 3.255645,314.695221 8.559275,305.121155 
z"/>
<path fill="#E56353" opacity="1.000000" stroke="none" 
	d="
M26.666101,284.206024 
	C28.292265,291.700836 21.560961,294.172180 17.755220,298.353119 
	C16.123253,300.145935 13.260549,300.818481 10.561754,302.000488 
	C13.606441,294.308807 19.977158,289.284790 26.666101,284.206024 
z"/>
<path fill="#E56353" opacity="1.000000" stroke="none" 
	d="
M99.890335,312.625427 
	C98.745872,310.451935 97.658325,307.905792 96.839378,305.155792 
	C98.054405,307.385559 99.000832,309.819153 99.890335,312.625427 
z"/>
<path fill="#E56353" opacity="1.000000" stroke="none" 
	d="
M81.964340,286.646973 
	C80.447845,286.174652 78.781662,285.391785 77.078186,284.246490 
	C78.632149,284.701538 80.223396,285.518982 81.964340,286.646973 
z"/>
<path fill="#E56353" opacity="1.000000" stroke="none" 
	d="
M86.971542,290.654297 
	C85.772537,290.180328 84.431000,289.403107 83.065369,288.255188 
	C84.303856,288.706665 85.566437,289.528839 86.971542,290.654297 
z"/>
</svg>
