<svg version="1.1" id="Layer_1" xmlns="http://www.w3.org/2000/svg" xmlns:xlink="http://www.w3.org/1999/xlink" x="0px" y="0px"
	 width="100%" viewBox="0 0 512 512" enable-background="new 0 0 512 512" xml:space="preserve">
<path fill="#D7FDFE" opacity="1.000000" stroke="none" 
	d="
M225.000000,1.000003 
	C246.020889,1.000000 267.041779,1.000000 288.219696,1.362612 
	C290.871948,2.154477 293.374420,2.545884 295.861298,3.019007 
	C314.594177,6.582879 333.094818,10.998865 350.786224,18.412952 
	C343.129028,25.171663 334.817474,30.933640 328.119354,38.185772 
	C314.730377,52.682186 308.342010,70.577782 305.674866,89.949783 
	C301.931061,88.141289 298.675323,86.002815 295.110657,84.728584 
	C288.891663,82.505547 282.589844,80.213676 276.124817,79.058540 
	C268.677094,77.727821 262.319031,81.309608 257.526489,85.545250 
	C253.769150,83.754517 250.710449,82.296745 247.412430,80.485962 
	C242.312714,79.960297 237.097260,78.577080 232.668457,79.875992 
	C224.364075,82.311562 216.514923,86.299355 208.476410,89.217728 
	C205.085114,59.252415 190.912186,36.366577 166.077606,20.042540 
	C165.309357,19.537563 164.738556,18.732174 164.418045,17.926559 
	C164.868362,17.660954 164.951797,17.471359 165.087814,17.419411 
	C183.524841,10.377796 202.454742,5.293790 222.087723,2.928760 
	C223.120926,2.804297 224.032043,1.666208 225.000000,1.000003 
M264.013153,46.431301 
	C265.404785,41.178207 262.868256,36.584030 258.135468,36.063286 
	C254.060257,35.614895 250.941025,37.252743 249.515457,41.182167 
	C248.123642,45.018482 249.631348,48.142391 253.065735,49.940746 
	C257.280182,52.147545 261.049530,51.293449 264.013153,46.431301 
z"/>
<path fill="transparent" opacity="1.000000" stroke="none" 
	d="
M224.531342,1.000003 
	C224.032043,1.666208 223.120926,2.804297 222.087723,2.928760 
	C202.454742,5.293790 183.524841,10.377796 165.087814,17.419411 
	C164.951797,17.471359 164.868362,17.660954 164.095795,17.771740 
	C151.836166,11.081851 139.270721,7.531854 125.566467,6.082948 
	C117.668007,6.401072 110.102798,6.021627 102.829926,7.302329 
	C79.522713,11.406568 60.637768,23.300518 46.457340,42.147011 
	C34.739647,57.720417 28.227406,75.402206 28.020878,95.072441 
	C27.856718,110.707184 27.996471,126.345123 27.650816,142.088867 
	C25.557373,145.976898 23.722010,149.718216 22.086693,153.545044 
	C12.691451,175.531036 5.700767,198.191101 2.922961,222.038635 
	C2.839246,222.757324 1.665525,223.349060 0.999999,224.000000 
	C1.000000,149.739456 1.000000,75.478920 1.000000,1.000000 
	C75.354088,1.000000 149.708389,1.000000 224.531342,1.000003 
z"/>
<path fill="#000000" opacity="1.000000" stroke="none" 
	d="
M350.861633,18.090202 
	C333.094818,10.998865 314.594177,6.582879 295.861298,3.019007 
	C293.374420,2.545884 290.871948,2.154477 288.688354,1.362612 
	C363.593719,1.000000 438.187408,1.000000 513.000000,1.000000 
	C513.000000,75.354088 513.000000,149.708389 512.637451,224.843140 
	C511.813110,222.961670 511.470825,220.272385 510.868958,217.642517 
	C508.287567,206.363312 506.420410,194.839844 502.799072,183.899933 
	C498.300507,170.309952 492.328217,157.207809 487.011169,143.433304 
	C487.018951,128.319901 486.886200,113.666977 487.028503,99.016724 
	C487.197418,81.629807 483.237671,65.351448 474.146271,50.505203 
	C463.126526,32.509956 448.319580,18.901093 427.792847,11.650379 
	C400.998077,2.189345 375.441681,4.573006 350.861633,18.090202 
z"/>
<path fill="transparent" opacity="1.000000" stroke="none" 
	d="
M225.000000,513.000000 
	C150.406296,513.000000 75.812599,513.000000 1.000000,513.000000 
	C1.000000,438.645905 1.000000,364.291626 1.362553,289.156860 
	C2.149898,289.867371 2.671118,291.338562 2.981893,292.852936 
	C4.026679,297.944092 4.996497,303.050659 5.990378,308.356873 
	C5.985750,308.562469 6.128236,308.948486 6.068022,309.419983 
	C6.008742,326.954773 5.983226,344.018158 6.052124,361.081177 
	C6.058905,362.760559 6.644691,364.437622 6.973894,366.499939 
	C8.043164,372.395874 11.280217,376.135162 15.732300,379.543945 
	C21.434778,383.910187 27.757086,382.656036 33.981728,383.458008 
	C40.163109,393.210938 46.215195,402.671356 52.528488,411.954132 
	C55.775337,416.728119 59.487778,421.185425 62.527542,425.880798 
	C47.138336,425.975708 32.211403,425.975708 17.306313,425.975708 
	C17.306313,446.301025 17.306313,466.024353 17.306313,485.850494 
	C33.077831,485.850494 48.543674,485.850494 64.470032,485.923859 
	C70.250725,486.013794 75.570908,486.030334 80.937653,486.510498 
	C80.984215,493.896423 80.984215,500.818787 80.984215,507.959076 
	C122.975685,507.959076 164.368240,507.959076 205.977448,508.326019 
	C211.985794,509.467926 217.785065,510.194244 223.557205,511.094482 
	C224.123428,511.182770 224.523041,512.339294 225.000000,513.000000 
z"/>
<path fill="transparent" opacity="1.000000" stroke="none" 
	d="
M513.000000,289.000000 
	C513.000000,363.593719 513.000000,438.187408 513.000000,513.000000 
	C438.645905,513.000000 364.291626,513.000000 289.156616,512.637573 
	C289.871033,511.850006 291.346619,511.329865 292.864899,511.017120 
	C297.975800,509.964233 303.101868,508.985138 308.674011,508.002991 
	C350.324890,508.028198 391.523834,508.028198 433.112061,508.028198 
	C433.112061,500.298798 433.112061,493.171417 433.572723,486.030609 
	C439.687500,485.960449 445.341583,485.903687 451.460266,485.914642 
	C466.855042,485.982361 481.785217,485.982361 496.689758,485.982361 
	C496.689758,465.695770 496.689758,445.969543 496.689758,425.747253 
	C481.249725,425.747253 466.118347,425.747253 451.003143,425.405334 
	C455.532928,419.356750 460.386047,413.881775 464.476776,407.886597 
	C469.961731,399.848175 474.856873,391.407318 480.463226,383.083282 
	C484.398438,382.967834 487.988556,383.447174 491.331543,382.746857 
	C500.972992,380.727051 508.001068,371.431122 508.015900,361.337677 
	C508.042023,343.587860 508.054291,325.838013 508.436096,307.893372 
	C509.539734,301.937805 510.231140,296.169769 511.096680,290.427979 
	C511.180939,289.869049 512.339905,289.472107 513.000000,289.000000 
z"/>
<path fill="#D7FEFF" opacity="1.000000" stroke="none" 
	d="
M5.995007,308.151306 
	C4.996497,303.050659 4.026679,297.944092 2.981893,292.852936 
	C2.671118,291.338562 2.149898,289.867371 1.362553,288.688171 
	C1.000000,267.645782 1.000000,246.291550 0.999999,224.468658 
	C1.665525,223.349060 2.839246,222.757324 2.922961,222.038635 
	C5.700767,198.191101 12.691451,175.531036 22.086693,153.545044 
	C23.722010,149.718216 25.557373,145.976898 27.691753,142.557190 
	C28.137041,174.320297 28.190914,205.722260 28.100925,237.424606 
	C17.312990,249.362946 9.704723,262.697052 7.566431,278.412384 
	C6.232629,288.215149 6.465310,298.231049 5.995007,308.151306 
z"/>
<path fill="#D7FEFF" opacity="1.000000" stroke="none" 
	d="
M513.000000,288.531342 
	C512.339905,289.472107 511.180939,289.869049 511.096680,290.427979 
	C510.231140,296.169769 509.539734,301.937805 508.345276,307.426819 
	C507.094666,295.792328 507.132690,284.292053 505.288025,273.102112 
	C503.058929,259.580536 495.397125,248.388046 486.696411,237.572311 
	C486.756836,231.952713 486.761414,226.801254 486.775513,221.649811 
	C486.846466,195.731537 486.919891,169.813248 486.992432,143.894974 
	C492.328217,157.207809 498.300507,170.309952 502.799072,183.899933 
	C506.420410,194.839844 508.287567,206.363312 510.868958,217.642517 
	C511.470825,220.272385 511.813110,222.961670 512.637451,225.311798 
	C513.000000,246.020889 513.000000,267.041779 513.000000,288.531342 
z"/>
<path fill="#D8FEFF" opacity="1.000000" stroke="none" 
	d="
M308.222137,507.977814 
	C303.101868,508.985138 297.975800,509.964233 292.864899,511.017120 
	C291.346619,511.329865 289.871033,511.850006 288.687927,512.637573 
	C267.979095,513.000000 246.958206,513.000000 225.468658,513.000000 
	C224.523041,512.339294 224.123428,511.182770 223.557205,511.094482 
	C217.785065,510.194244 211.985794,509.467926 206.461136,508.257660 
	C214.523331,507.804291 222.318588,507.756805 230.113693,507.773468 
	C256.149872,507.829193 282.186005,507.907928 308.222137,507.977814 
z"/>
<path fill="#525252" opacity="1.000000" stroke="none" 
	d="
M487.011169,143.433304 
	C486.919891,169.813248 486.846466,195.731537 486.775513,221.649811 
	C486.761414,226.801254 486.756836,231.952713 486.443481,237.374329 
	C483.089325,235.073807 480.108246,232.415939 476.977234,229.948364 
	C466.254974,221.497910 453.735321,217.325760 440.700867,214.520935 
	C448.931458,205.766724 455.864319,196.178802 457.384521,184.636383 
	C459.283508,170.218277 459.106903,155.522919 459.659943,140.940933 
	C459.693604,140.053848 458.404205,138.502518 457.494080,138.294479 
	C452.032074,137.046127 446.500885,136.100540 440.704529,134.851593 
	C414.850342,123.634254 401.645782,103.948509 399.769470,76.513161 
	C399.305817,76.293846 399.016571,76.038040 398.726288,76.036880 
	C387.243530,75.990761 375.759064,75.835075 364.278259,75.975098 
	C349.674103,76.153229 336.877472,86.323341 333.362549,100.481422 
	C331.599365,107.583511 331.833832,114.027580 336.440277,120.728584 
	C345.742584,134.260498 350.636932,149.661560 351.133606,166.158539 
	C351.579163,180.958069 351.533813,195.774475 351.537781,210.583466 
	C351.538574,213.588364 352.518158,215.285797 355.111511,216.965591 
	C359.109436,219.555206 362.606110,222.918716 366.420532,226.271469 
	C374.648895,238.811432 374.007996,251.165466 366.795410,263.828430 
	C364.682831,265.940735 363.022614,268.045807 360.984833,269.680054 
	C358.796295,271.435272 358.651917,273.028442 359.575867,275.637817 
	C364.915466,290.717896 361.271545,303.369629 348.610779,313.610107 
	C335.570709,302.099823 320.496765,296.063477 303.787964,293.782349 
	C314.530762,282.438507 322.245056,269.498871 322.755829,254.206543 
	C323.705933,225.758820 323.432739,197.258957 323.131378,168.786499 
	C323.017639,158.038483 313.712341,149.201981 302.928497,149.105103 
	C276.618805,148.868729 250.304947,149.093094 223.531677,149.048889 
	C220.239151,148.953125 217.390305,149.139572 214.579193,148.894073 
	C200.458557,147.660919 189.855515,158.913986 190.044266,173.409164 
	C190.354385,197.224335 190.049316,221.046997 190.197220,244.865295 
	C190.226959,249.653564 190.857758,254.481262 191.665176,259.213348 
	C193.975098,272.751160 201.013885,283.877289 209.545425,294.011475 
	C196.890701,295.525940 185.538437,299.588135 174.828674,305.607910 
	C168.948502,295.646423 168.527039,285.587006 171.989960,275.068085 
	C172.457504,273.647888 171.968094,270.933838 170.920563,270.139801 
	C153.792847,257.157196 154.484177,228.657562 176.674622,216.844528 
	C179.415436,215.385452 180.070770,213.896988 180.047821,211.148361 
	C179.944901,198.825638 180.018753,186.501526 179.999390,174.177963 
	C179.970337,155.699295 183.978745,138.258423 193.828217,122.474800 
	C206.607529,101.996170 224.140411,87.516342 247.651749,80.838974 
	C250.710449,82.296745 253.769150,83.754517 257.526489,85.545250 
	C262.319031,81.309608 268.677094,77.727821 276.124817,79.058540 
	C282.589844,80.213676 288.891663,82.505547 295.110657,84.728584 
	C298.675323,86.002815 301.931061,88.141289 305.978516,90.089920 
	C312.912842,95.274338 319.194519,100.259514 325.991608,105.653687 
	C325.383911,89.076889 328.762054,73.840584 336.597565,60.131325 
	C355.373596,27.280090 383.922791,11.040092 421.969971,11.996897 
	C423.984100,12.047549 426.001678,11.960409 428.017670,11.937416 
	C448.319580,18.901093 463.126526,32.509956 474.146271,50.505203 
	C483.237671,65.351448 487.197418,81.629807 487.028503,99.016724 
	C486.886200,113.666977 487.018951,128.319901 487.011169,143.433304 
z"/>
<path fill="#515151" opacity="1.000000" stroke="none" 
	d="
M126.033531,6.145345 
	C139.270721,7.531854 151.836166,11.081851 163.753448,17.912022 
	C164.738556,18.732174 165.309357,19.537563 166.077606,20.042540 
	C190.912186,36.366577 205.085114,59.252415 208.149811,89.409134 
	C197.704697,97.319016 187.787521,104.813171 180.844803,115.496841 
	C180.317490,116.308296 178.883453,116.530510 177.600418,116.812805 
	C166.776062,92.396584 148.608307,78.550827 122.136597,75.915230 
	C119.001915,75.603134 117.170456,76.365921 115.499550,79.449280 
	C106.164169,96.676186 91.889160,107.932755 72.649872,113.345398 
	C66.400856,114.312546 60.541691,115.287910 54.516312,116.290939 
	C54.411854,117.512451 54.230728,118.651459 54.229633,119.790649 
	C54.213989,136.096878 54.133469,152.403946 54.287560,168.708771 
	C54.326530,172.832489 54.937252,176.981812 55.622421,181.062759 
	C57.843525,194.291916 64.723022,205.112045 73.079269,214.992157 
	C64.430214,217.668396 56.198772,220.260223 47.976395,222.392746 
	C47.991119,181.301773 47.968945,140.670059 48.043427,100.038521 
	C48.051289,95.747902 48.477718,91.441269 48.964565,87.171089 
	C51.656506,63.559982 61.912350,43.983841 79.994225,28.416014 
	C92.647079,17.522379 106.951866,10.456341 123.487900,7.919222 
	C124.405571,7.778423 125.188103,6.756920 126.033531,6.145345 
z"/>
<path fill="#414040" opacity="1.000000" stroke="none" 
	d="
M177.870880,117.026619 
	C178.883453,116.530510 180.317490,116.308296 180.844803,115.496841 
	C187.787521,104.813171 197.704697,97.319016 208.149857,89.832947 
	C216.514923,86.299355 224.364075,82.311562 232.668457,79.875992 
	C237.097260,78.577080 242.312714,79.960297 247.412430,80.485970 
	C224.140411,87.516342 206.607529,101.996170 193.828217,122.474800 
	C183.978745,138.258423 179.970337,155.699295 179.999390,174.177963 
	C180.018753,186.501526 179.944901,198.825638 180.047821,211.148361 
	C180.070770,213.896988 179.415436,215.385452 176.674622,216.844528 
	C154.484177,228.657562 153.792847,257.157196 170.920563,270.139801 
	C171.968094,270.933838 172.457504,273.647888 171.989960,275.068085 
	C168.527039,285.587006 168.948502,295.646423 174.604279,305.856079 
	C171.209183,308.748535 167.891296,311.077515 164.256256,313.174438 
	C154.282410,304.894836 149.395142,294.144684 152.703293,282.352020 
	C155.002716,274.155182 153.630768,269.226471 147.668655,264.439056 
	C147.410309,264.231628 147.172028,263.999146 146.821014,263.455750 
	C138.982986,250.675217 139.851105,238.346207 147.548035,225.940781 
	C151.360733,222.813766 154.615128,219.384277 158.527954,217.066193 
	C161.442764,215.339355 162.277847,213.566803 162.239838,210.418488 
	C162.089539,197.971359 162.094223,185.520630 162.199783,173.072571 
	C162.354523,154.824814 166.785492,137.733017 176.250580,122.015617 
	C177.129257,120.556511 177.346512,118.699089 177.870880,117.026619 
z"/>
<path fill="#404040" opacity="1.000000" stroke="none" 
	d="
M427.792847,11.650378 
	C426.001678,11.960409 423.984100,12.047549 421.969971,11.996897 
	C383.922791,11.040092 355.373596,27.280090 336.597565,60.131325 
	C328.762054,73.840584 325.383911,89.076889 325.991608,105.653687 
	C319.194519,100.259514 312.912842,95.274338 306.327454,90.149033 
	C308.342010,70.577782 314.730377,52.682186 328.119354,38.185772 
	C334.817474,30.933640 343.129028,25.171663 350.786224,18.412952 
	C375.441681,4.573006 400.998077,2.189345 427.792847,11.650378 
z"/>
<path fill="#FEFFFF" opacity="1.000000" stroke="none" 
	d="
M263.906311,46.798210 
	C261.049530,51.293449 257.280182,52.147545 253.065735,49.940746 
	C249.631348,48.142391 248.123642,45.018482 249.515457,41.182167 
	C250.941025,37.252743 254.060257,35.614895 258.135468,36.063286 
	C262.868256,36.584030 265.404785,41.178207 263.906311,46.798210 
z"/>
<path fill="#404040" opacity="1.000000" stroke="none" 
	d="
M125.566467,6.082950 
	C125.188103,6.756920 124.405571,7.778423 123.487900,7.919222 
	C106.951866,10.456341 92.647079,17.522379 79.994225,28.416014 
	C61.912350,43.983841 51.656506,63.559982 48.964565,87.171089 
	C48.477718,91.441269 48.051289,95.747902 48.043427,100.038521 
	C47.968945,140.670059 47.991119,181.301773 47.694351,222.595093 
	C41.017090,227.879242 34.630936,232.501740 28.244781,237.124237 
	C28.190914,205.722260 28.137041,174.320297 28.042233,142.449982 
	C27.996471,126.345123 27.856718,110.707184 28.020878,95.072441 
	C28.227406,75.402206 34.739647,57.720417 46.457340,42.147011 
	C60.637768,23.300518 79.522713,11.406568 102.829926,7.302329 
	C110.102798,6.021627 117.668007,6.401072 125.566467,6.082950 
z"/>
<path fill="#FC83A6" opacity="1.000000" stroke="none" 
	d="
M308.674011,508.002991 
	C282.186005,507.907928 256.149872,507.829193 230.113693,507.773468 
	C222.318588,507.756805 214.523331,507.804291 206.244476,507.890717 
	C164.368240,507.959076 122.975685,507.959076 80.984215,507.959076 
	C80.984215,500.818787 80.984215,493.896423 81.247421,486.221161 
	C81.674599,474.517426 81.792358,463.565521 82.046738,452.616821 
	C82.090637,450.727203 82.714500,448.851044 83.446518,447.150818 
	C84.932793,447.559326 86.042900,447.982086 87.153267,447.982788 
	C104.754196,447.993530 122.355148,447.950134 140.426361,447.949066 
	C147.274216,447.958344 153.651840,447.937683 160.492584,447.952301 
	C165.954468,447.958466 170.953201,447.929413 176.413635,447.936157 
	C180.258453,447.954010 183.641571,447.936035 187.490814,447.950439 
	C208.969528,447.966827 229.982132,447.950867 251.453094,447.962280 
	C255.300583,447.950043 258.689728,447.910400 262.540833,447.913300 
	C284.326996,447.943329 305.651276,447.930847 327.435303,447.949524 
	C331.279327,447.953979 334.663513,447.927277 338.512085,447.937195 
	C350.651031,447.947632 362.325592,447.921478 374.466553,447.943970 
	C391.854309,448.003021 408.775757,448.044220 425.696777,447.977448 
	C427.442841,447.970551 429.186371,447.319763 431.238953,447.257446 
	C431.697113,458.502350 431.798737,469.458740 432.044220,480.411865 
	C432.086456,482.296295 432.740570,484.166992 433.112061,486.044037 
	C433.112061,493.171417 433.112061,500.298798 433.112061,508.028198 
	C391.523834,508.028198 350.324890,508.028198 308.674011,508.002991 
z"/>
<path fill="#D7FEFF" opacity="1.000000" stroke="none" 
	d="
M139.956100,447.919128 
	C122.355148,447.950134 104.754196,447.993530 87.153267,447.982788 
	C86.042900,447.982086 84.932793,447.559326 83.264389,446.769867 
	C82.333115,439.592041 81.959999,432.977325 81.577400,426.194427 
	C75.546356,426.194427 69.813133,426.194427 63.806915,426.093536 
	C63.352554,425.923706 63.171181,425.854797 62.989811,425.785858 
	C59.487778,421.185425 55.775337,416.728119 52.528488,411.954132 
	C46.215195,402.671356 40.163109,393.210938 34.426086,383.405579 
	C37.522251,382.946564 40.195129,382.906036 43.291122,382.923584 
	C44.845955,382.928467 45.977665,382.875305 47.554993,382.872101 
	C51.288055,382.872192 54.575504,382.822296 58.336971,382.828430 
	C85.820694,382.894714 112.830391,382.905029 139.898224,383.386047 
	C139.956284,405.210876 139.956192,426.565002 139.956100,447.919128 
M106.745049,422.594238 
	C108.194168,421.517395 110.372063,420.723236 110.924644,419.298615 
	C111.792747,417.060608 112.313293,414.136017 111.565117,411.997467 
	C110.966209,410.285614 108.418365,408.569275 106.460663,408.155670 
	C101.733727,407.156921 97.404564,410.468353 97.078079,414.640808 
	C96.693726,419.552643 100.117218,422.697540 106.745049,422.594238 
z"/>
<path fill="#35C7D7" opacity="1.000000" stroke="none" 
	d="
M42.868008,382.865540 
	C40.195129,382.906036 37.522251,382.946564 34.405014,383.039490 
	C27.757086,382.656036 21.434778,383.910187 15.732300,379.543945 
	C11.280217,376.135162 8.043164,372.395874 6.984665,366.023804 
	C6.984919,348.179993 7.011655,331.196381 6.950554,314.213074 
	C6.944237,312.457245 6.414894,310.703308 6.128236,308.948486 
	C6.128236,308.948486 5.985750,308.562469 5.990379,308.356873 
	C6.465310,298.231049 6.232629,288.215149 7.566431,278.412384 
	C9.704723,262.697052 17.312990,249.362946 28.100924,237.424606 
	C34.630936,232.501740 41.017090,227.879242 47.685287,223.054413 
	C56.198772,220.260223 64.430214,217.668396 73.352325,215.102783 
	C75.367935,216.409729 76.692863,217.690430 77.651337,219.016327 
	C76.212303,219.509521 75.141296,219.961334 74.066933,220.405014 
	C44.690441,232.537277 26.067917,260.295288 26.031954,292.068390 
	C26.006529,314.532288 26.005644,336.996338 26.060938,359.460114 
	C26.066177,361.587952 26.391867,363.749054 26.841969,365.835815 
	C28.755011,374.705170 35.320446,379.262085 42.868008,382.865540 
z"/>
<path fill="#FC83A6" opacity="1.000000" stroke="none" 
	d="
M62.527542,425.880798 
	C63.171181,425.854797 63.352554,425.923706 63.791542,426.547668 
	C64.035942,446.685303 64.022728,466.267883 64.009514,485.850494 
	C48.543674,485.850494 33.077831,485.850494 17.306313,485.850494 
	C17.306313,466.024353 17.306313,446.301025 17.306313,425.975708 
	C32.211403,425.975708 47.138336,425.975708 62.527542,425.880798 
z"/>
<path fill="#F46181" opacity="1.000000" stroke="none" 
	d="
M64.470032,485.923859 
	C64.022728,466.267883 64.035942,446.685303 64.064529,426.648560 
	C69.813133,426.194427 75.546356,426.194427 81.577400,426.194427 
	C81.959999,432.977325 82.333115,439.592041 82.888351,446.587738 
	C82.714500,448.851044 82.090637,450.727203 82.046738,452.616821 
	C81.792358,463.565521 81.674599,474.517426 81.200851,485.757568 
	C75.570908,486.030334 70.250725,486.013794 64.470032,485.923859 
z"/>
<path fill="#58CDDE" opacity="1.000000" stroke="none" 
	d="
M6.068022,309.419983 
	C6.414894,310.703308 6.944237,312.457245 6.950554,314.213074 
	C7.011655,331.196381 6.984919,348.179993 6.972502,365.639648 
	C6.644691,364.437622 6.058905,362.760559 6.052124,361.081177 
	C5.983226,344.018158 6.008742,326.954773 6.068022,309.419983 
z"/>
<path fill="#D7FEFF" opacity="1.000000" stroke="none" 
	d="
M430.931091,446.967773 
	C429.186371,447.319763 427.442841,447.970551 425.696777,447.977448 
	C408.775757,448.044220 391.854309,448.003021 374.456726,447.485046 
	C374.021423,425.606842 374.062317,404.236267 374.565277,382.872040 
	C406.367126,382.851349 437.706879,382.824310 469.496460,382.871094 
	C473.299286,383.009705 476.652252,383.074493 480.005249,383.139252 
	C474.856873,391.407318 469.961731,399.848175 464.476776,407.886597 
	C460.386047,413.881775 455.532928,419.356750 450.970428,425.455200 
	C450.921539,425.847046 450.946869,425.963684 450.482300,425.987457 
	C444.099121,426.011230 438.180542,426.011230 431.998230,426.011230 
	C431.998230,428.958588 432.107605,431.114319 431.975647,433.255188 
	C431.693665,437.830139 431.286804,442.397400 430.931091,446.967773 
M420.475739,413.045441 
	C423.738739,409.969971 424.220367,406.506042 421.415619,402.994720 
	C418.690948,399.583618 414.577332,399.096497 411.264801,401.437500 
	C407.913239,403.806122 407.082825,408.012146 409.280121,411.489716 
	C411.747681,415.395020 415.035278,416.047668 420.475739,413.045441 
z"/>
<path fill="#01B575" opacity="1.000000" stroke="none" 
	d="
M480.463226,383.083282 
	C476.652252,383.074493 473.299286,383.009705 469.727966,382.636200 
	C482.046692,377.544434 486.234314,367.896423 486.063782,355.158936 
	C485.789551,334.678925 486.260864,314.187134 485.848694,293.711761 
	C485.696869,286.167999 484.661652,278.468048 482.768951,271.166046 
	C477.160614,249.529022 463.394714,234.109787 444.262421,223.171875 
	C441.556854,221.625092 438.718079,220.311295 436.088379,218.608154 
	C437.667633,217.160461 439.099518,215.994278 440.531433,214.828094 
	C453.735321,217.325760 466.254974,221.497910 476.977234,229.948364 
	C480.108246,232.415939 483.089325,235.073807 486.392029,237.842468 
	C495.397125,248.388046 503.058929,259.580536 505.288025,273.102112 
	C507.132690,284.292053 507.094666,295.792328 507.981598,307.621643 
	C508.054291,325.838013 508.042023,343.587860 508.015900,361.337677 
	C508.001068,371.431122 500.972992,380.727051 491.331543,382.746857 
	C487.988556,383.447174 484.398438,382.967834 480.463226,383.083282 
z"/>
<path fill="#FC83A6" opacity="1.000000" stroke="none" 
	d="
M450.954254,425.797150 
	C466.118347,425.747253 481.249725,425.747253 496.689758,425.747253 
	C496.689758,445.969543 496.689758,465.695770 496.689758,485.982361 
	C481.785217,485.982361 466.855042,485.982361 451.454285,485.455994 
	C450.971436,465.274323 450.959137,445.619019 450.946838,425.963684 
	C450.946869,425.963684 450.921539,425.847046 450.954254,425.797150 
z"/>
<path fill="#F46181" opacity="1.000000" stroke="none" 
	d="
M450.482269,425.987457 
	C450.959137,445.619019 450.971436,465.274323 450.989716,485.388306 
	C445.341583,485.903687 439.687500,485.960449 433.572723,486.030609 
	C432.740570,484.166992 432.086456,482.296295 432.044220,480.411865 
	C431.798737,469.458740 431.697113,458.502350 431.238953,447.257446 
	C431.286804,442.397400 431.693665,437.830139 431.975647,433.255188 
	C432.107605,431.114319 431.998230,428.958588 431.998230,426.011230 
	C438.180542,426.011230 444.099121,426.011230 450.482269,425.987457 
z"/>
<path fill="#FED6C1" opacity="1.000000" stroke="none" 
	d="
M223.992783,149.131927 
	C250.304947,149.093094 276.618805,148.868729 302.928497,149.105103 
	C313.712341,149.201981 323.017639,158.038483 323.131378,168.786499 
	C323.432739,197.258957 323.705933,225.758820 322.755829,254.206543 
	C322.245056,269.498871 314.530762,282.438507 303.524109,293.945190 
	C299.380737,297.620422 295.638306,300.803986 291.527832,303.998230 
	C289.022278,304.883240 286.860870,305.703918 284.751282,306.641174 
	C275.166962,310.899384 265.438171,313.856689 254.991898,309.819427 
	C251.743668,308.563995 248.503250,307.243683 245.389954,305.691010 
	C221.731064,293.892120 209.127594,274.416412 208.198532,248.332840 
	C207.286911,222.738235 207.915787,197.085175 208.101105,171.459442 
	C208.125397,168.097855 209.366837,164.698914 210.328156,161.399887 
	C212.327621,154.538086 218.678726,152.382172 223.992783,149.131927 
M266.827820,277.489136 
	C270.236908,274.706085 272.752258,271.451721 272.985901,266.472260 
	C262.146423,266.472260 251.795792,266.472260 241.115128,266.472260 
	C240.724945,272.179901 244.091553,275.508209 247.924759,278.003693 
	C253.846390,281.858734 260.130096,281.630005 266.827820,277.489136 
M219.210464,218.956848 
	C219.460663,220.902802 219.328323,223.004105 220.042145,224.761765 
	C221.449875,228.228058 224.140900,230.320190 227.918427,228.426926 
	C231.664230,226.549606 232.962219,222.675858 231.709000,219.071838 
	C230.818451,216.510742 228.315628,213.451309 225.901093,212.731293 
	C222.418655,211.692841 220.472397,214.992081 219.210464,218.956848 
M292.391113,214.206970 
	C289.712463,211.839844 286.885803,211.707352 284.441772,214.296402 
	C281.534149,217.376526 280.911041,221.295242 283.000702,224.877228 
	C284.077484,226.722916 286.611725,228.641953 288.590240,228.756790 
	C290.289093,228.855392 293.411346,226.634583 293.651306,225.089539 
	C294.167236,221.767517 293.231934,218.220123 292.391113,214.206970 
z"/>
<path fill="#01CB8C" opacity="1.000000" stroke="none" 
	d="
M435.940979,218.889648 
	C438.718079,220.311295 441.556854,221.625092 444.262421,223.171875 
	C463.394714,234.109787 477.160614,249.529022 482.768951,271.166046 
	C484.661652,278.468048 485.696869,286.167999 485.848694,293.711761 
	C486.260864,314.187134 485.789551,334.678925 486.063782,355.158936 
	C486.234314,367.896423 482.046692,377.544434 469.278137,382.562378 
	C437.706879,382.824310 406.367126,382.851349 374.513306,382.414246 
	C373.497437,373.341736 373.689606,364.623474 372.346985,356.148346 
	C369.681244,339.320648 360.945007,325.534393 348.900574,313.728241 
	C361.271545,303.369629 364.915466,290.717896 359.575867,275.637817 
	C358.651917,273.028442 358.796295,271.435272 360.984833,269.680054 
	C363.022614,268.045807 364.682831,265.940735 367.077332,264.046448 
	C372.575531,271.546661 379.084564,276.859619 388.424500,278.950623 
	C405.360748,283.494904 424.442444,272.487549 427.656158,255.237549 
	C429.544189,245.103256 428.549194,234.431839 429.020508,223.706604 
	C431.440338,221.904007 433.690674,220.396835 435.940979,218.889648 
z"/>
<path fill="#F9ED99" opacity="1.000000" stroke="none" 
	d="
M348.610779,313.610107 
	C360.945007,325.534393 369.681244,339.320648 372.346985,356.148346 
	C373.689606,364.623474 373.497437,373.341736 374.051239,382.407837 
	C374.062317,404.236267 374.021423,425.606842 373.990326,447.436401 
	C362.325592,447.921478 350.651031,447.947632 338.497131,447.478577 
	C338.012085,435.331116 338.240723,423.669586 337.781158,412.035248 
	C337.699921,409.979065 335.111755,407.019684 333.036102,406.274445 
	C329.749756,405.094574 328.054749,408.117828 327.251556,410.995117 
	C326.860443,412.396149 327.023163,413.965485 327.019470,415.458832 
	C326.992767,426.278625 326.987549,437.098480 326.975525,447.918335 
	C305.651276,447.930847 284.326996,447.943329 262.522491,447.457764 
	C262.030457,422.298401 262.018677,397.637146 262.158203,372.684326 
	C264.550751,369.936005 266.792053,367.479248 269.328339,364.870087 
	C276.133331,358.586273 282.770508,352.580963 289.062683,346.233612 
	C290.610046,344.672668 291.799774,342.011932 291.844086,339.830170 
	C292.086670,327.887207 291.921173,315.935944 291.895874,303.987549 
	C295.638306,300.803986 299.380737,297.620422 303.387024,294.274017 
	C320.496765,296.063477 335.570709,302.099823 348.610779,313.610107 
z"/>
<path fill="#FDD5C1" opacity="1.000000" stroke="none" 
	d="
M366.315430,225.953949 
	C362.606110,222.918716 359.109436,219.555206 355.111511,216.965591 
	C352.518158,215.285797 351.538574,213.588364 351.537781,210.583466 
	C351.533813,195.774475 351.579163,180.958069 351.133606,166.158539 
	C350.636932,149.661560 345.742584,134.260498 336.440277,120.728584 
	C331.833832,114.027580 331.599365,107.583511 333.362549,100.481422 
	C336.877472,86.323341 349.674103,76.153229 364.278259,75.975098 
	C375.759064,75.835075 387.243530,75.990761 398.726288,76.036880 
	C399.016571,76.038040 399.305817,76.293846 399.769470,76.513161 
	C401.645782,103.948509 414.850342,123.634254 440.706909,135.316437 
	C440.686371,149.588837 441.274567,163.288132 439.869934,176.779938 
	C437.240692,202.034348 422.772186,218.908356 399.664246,228.555252 
	C391.513489,231.957947 383.099060,232.910904 374.650024,229.074005 
	C371.955261,227.850235 369.098236,226.983841 366.315430,225.953949 
M405.257874,188.104889 
	C397.236633,188.104889 389.215424,188.104889 381.140015,188.104889 
	C381.928802,196.523193 387.561829,201.125061 395.972290,201.089355 
	C403.959625,201.055450 409.812012,196.059082 410.525208,188.352249 
	C409.069946,188.269516 407.624664,188.187347 405.257874,188.104889 
M421.123322,154.081253 
	C423.091461,154.997360 425.096497,156.733154 427.019470,156.646500 
	C430.287048,156.499252 432.641815,151.685791 431.902832,147.529480 
	C431.280304,144.028183 429.653870,141.143265 425.589142,141.067307 
	C422.282837,141.005539 419.723541,144.641937 419.860443,149.051346 
	C419.905273,150.495163 420.443115,151.923676 421.123322,154.081253 
M364.780182,141.104996 
	C359.834808,144.018478 358.156281,149.744492 361.121216,154.055084 
	C363.043854,156.850372 365.586395,158.051376 368.755188,155.927856 
	C372.263000,153.577148 373.255096,147.492630 370.405029,143.910828 
	C369.307434,142.531372 367.196594,141.958191 364.780182,141.104996 
z"/>
<path fill="#F8C3AE" opacity="1.000000" stroke="none" 
	d="
M291.527832,303.998230 
	C291.921173,315.935944 292.086670,327.887207 291.844086,339.830170 
	C291.799774,342.011932 290.610046,344.672668 289.062683,346.233612 
	C282.770508,352.580963 276.133331,358.586273 269.027222,364.719055 
	C260.979309,357.670746 253.727051,350.392212 246.001144,343.656891 
	C241.341934,339.595123 239.235245,335.171692 239.898071,328.972565 
	C240.406433,324.218079 240.173187,319.355469 239.895203,314.562653 
	C239.806915,313.040314 238.884354,310.786865 237.707504,310.242157 
	C232.626328,307.890259 227.309250,306.048065 221.917450,303.719299 
	C219.168442,301.580536 216.579971,299.742859 213.840179,297.627869 
	C212.442047,296.223877 211.195267,295.097168 209.948486,293.970459 
	C201.013885,283.877289 193.975098,272.751160 191.665176,259.213348 
	C190.857758,254.481262 190.226959,249.653564 190.197220,244.865295 
	C190.049316,221.046997 190.354385,197.224335 190.044266,173.409164 
	C189.855515,158.913986 200.458557,147.660919 214.579193,148.894073 
	C217.390305,149.139572 220.239151,148.953125 223.531677,149.048889 
	C218.678726,152.382172 212.327621,154.538086 210.328156,161.399887 
	C209.366837,164.698914 208.125397,168.097855 208.101105,171.459442 
	C207.915787,197.085175 207.286911,222.738235 208.198532,248.332840 
	C209.127594,274.416412 221.731064,293.892120 245.389954,305.691010 
	C248.503250,307.243683 251.743668,308.563995 254.991898,309.819427 
	C265.438171,313.856689 275.166962,310.899384 284.751282,306.641174 
	C286.860870,305.703918 289.022278,304.883240 291.527832,303.998230 
z"/>
<path fill="#F7C2AE" opacity="1.000000" stroke="none" 
	d="
M366.420532,226.271454 
	C369.098236,226.983841 371.955261,227.850235 374.650024,229.074005 
	C383.099060,232.910904 391.513489,231.957947 399.664246,228.555252 
	C422.772186,218.908356 437.240692,202.034348 439.869934,176.779938 
	C441.274567,163.288132 440.686371,149.588837 440.995239,135.518341 
	C446.500885,136.100540 452.032074,137.046127 457.494080,138.294479 
	C458.404205,138.502518 459.693604,140.053848 459.659943,140.940933 
	C459.106903,155.522919 459.283508,170.218277 457.384521,184.636383 
	C455.864319,196.178802 448.931458,205.766724 440.700836,214.520920 
	C439.099518,215.994278 437.667633,217.160461 436.088379,218.608154 
	C433.690674,220.396835 431.440338,221.904007 428.676697,223.755554 
	C423.820374,226.062881 419.606903,228.441956 415.090393,229.847321 
	C411.905518,230.838333 410.890381,232.268143 410.946442,235.416702 
	C411.052490,241.367661 411.630707,247.472595 410.570435,253.248810 
	C408.225311,266.024689 399.757477,273.984680 388.036774,278.793457 
	C379.084564,276.859619 372.575531,271.546661 367.363525,263.831909 
	C374.007996,251.165466 374.648895,238.811432 366.420532,226.271454 
z"/>
<path fill="#FEC480" opacity="1.000000" stroke="none" 
	d="
M209.545425,294.011475 
	C211.195267,295.097168 212.442047,296.223877 213.454590,297.663818 
	C203.111725,300.396667 194.708694,305.867493 186.851654,312.444305 
	C170.285416,326.311188 160.935852,344.193146 160.225616,365.520721 
	C159.311951,392.957916 160.019974,420.449127 160.029449,447.917053 
	C153.651840,447.937683 147.274216,447.958344 140.426361,447.949066 
	C139.956192,426.565002 139.956284,405.210876 139.956146,382.928558 
	C139.971329,378.502380 140.039261,375.003662 139.993271,371.506500 
	C139.766708,354.273926 144.893661,338.757874 155.087006,324.934448 
	C158.036285,320.934845 161.399811,317.240723 164.573425,313.406525 
	C167.891296,311.077515 171.209183,308.748535 174.751465,306.171326 
	C185.538437,299.588135 196.890701,295.525940 209.545425,294.011475 
z"/>
<path fill="#FED6C1" opacity="1.000000" stroke="none" 
	d="
M177.600418,116.812805 
	C177.346512,118.699089 177.129257,120.556511 176.250580,122.015617 
	C166.785492,137.733017 162.354523,154.824814 162.199783,173.072571 
	C162.094223,185.520630 162.089539,197.971359 162.239838,210.418488 
	C162.277847,213.566803 161.442764,215.339355 158.527954,217.066193 
	C154.615128,219.384277 151.360733,222.813766 147.165222,225.941010 
	C144.980896,226.754333 143.509430,227.662918 141.919464,227.983002 
	C136.038849,229.166962 129.909241,231.691788 124.255135,230.918839 
	C109.815208,228.944870 98.205894,221.227051 88.561577,210.211197 
	C78.468506,198.682770 73.558197,185.184204 73.134735,170.251282 
	C72.597313,151.299728 73.027039,132.320755 73.039726,113.353600 
	C91.889160,107.932755 106.164169,96.676186 115.499550,79.449280 
	C117.170456,76.365921 119.001915,75.603134 122.136597,75.915230 
	C148.608307,78.550827 166.776062,92.396584 177.600418,116.812805 
M108.631783,196.978043 
	C114.153160,200.953278 119.990631,201.363235 125.841019,197.998383 
	C129.316986,195.999146 131.923096,193.122757 131.885712,188.436279 
	C122.457214,188.436279 113.453270,188.436279 103.090591,188.436279 
	C105.090927,191.659119 106.584679,194.065765 108.631783,196.978043 
M87.668976,141.039749 
	C86.524307,141.648438 85.160011,142.034103 84.274597,142.906052 
	C81.151436,145.981735 81.198151,152.053574 84.263634,155.128220 
	C86.641975,157.513687 89.209618,157.635834 91.746681,155.394394 
	C94.674873,152.807419 95.177124,146.663376 92.511848,143.545059 
	C91.524300,142.389633 89.824677,141.842804 87.668976,141.039749 
M153.270416,144.637970 
	C151.292114,143.457642 149.354462,141.391388 147.326248,141.298294 
	C144.031845,141.147049 141.417755,145.898743 142.080032,150.097504 
	C142.657486,153.758560 144.230148,157.193893 148.566269,156.819809 
	C152.725845,156.460938 154.093399,153.071960 154.170197,149.259552 
	C154.196365,147.959717 153.843155,146.652222 153.270416,144.637970 
z"/>
<path fill="#F8C2AE" opacity="1.000000" stroke="none" 
	d="
M72.649872,113.345398 
	C73.027039,132.320755 72.597313,151.299728 73.134735,170.251282 
	C73.558197,185.184204 78.468506,198.682770 88.561577,210.211197 
	C98.205894,221.227051 109.815208,228.944870 124.255135,230.918839 
	C129.909241,231.691788 136.038849,229.166962 141.919464,227.983002 
	C143.509430,227.662918 144.980896,226.754333 146.889587,226.115631 
	C139.851105,238.346207 138.982986,250.675217 146.546265,263.661255 
	C141.260406,271.437042 134.953903,277.025238 125.734917,278.612671 
	C114.884460,273.224365 106.689629,265.740234 104.560066,253.678314 
	C103.509171,247.726013 104.291054,241.467697 103.890556,235.371063 
	C103.785919,233.778320 102.743256,231.478943 101.473373,230.864853 
	C96.168549,228.299530 90.613152,226.252380 84.961151,223.733582 
	C82.521057,221.958298 80.269432,220.464722 78.017807,218.971146 
	C76.692863,217.690430 75.367935,216.409729 73.769936,215.018372 
	C64.723022,205.112045 57.843525,194.291916 55.622421,181.062759 
	C54.937252,176.981812 54.326530,172.832489 54.287560,168.708771 
	C54.133469,152.403946 54.213989,136.096878 54.229633,119.790649 
	C54.230728,118.651459 54.411854,117.512451 54.516312,116.290939 
	C60.541691,115.287910 66.400856,114.312546 72.649872,113.345398 
z"/>
<path fill="#82D0E4" opacity="1.000000" stroke="none" 
	d="
M125.951248,278.859955 
	C134.953903,277.025238 141.260406,271.437042 146.649628,263.983887 
	C147.172028,263.999146 147.410309,264.231628 147.668655,264.439056 
	C153.630768,269.226471 155.002716,274.155182 152.703293,282.352020 
	C149.395142,294.144684 154.282410,304.894836 164.256271,313.174438 
	C161.399811,317.240723 158.036285,320.934845 155.087006,324.934448 
	C144.893661,338.757874 139.766708,354.273926 139.993271,371.506500 
	C140.039261,375.003662 139.971329,378.502380 139.898010,382.457825 
	C112.830391,382.905029 85.820694,382.894714 58.370934,382.379303 
	C57.948116,367.740051 57.971729,353.605927 57.978470,339.471802 
	C57.980335,335.555054 56.219482,333.077423 52.103119,332.992859 
	C47.733688,332.903107 47.016041,336.023682 47.014759,339.424347 
	C47.009300,353.890259 47.071735,368.356201 47.109379,382.822113 
	C45.977665,382.875305 44.845955,382.928467 43.291122,382.923584 
	C35.320446,379.262085 28.755011,374.705170 26.841969,365.835815 
	C26.391867,363.749054 26.066177,361.587952 26.060938,359.460114 
	C26.005644,336.996338 26.006529,314.532288 26.031954,292.068390 
	C26.067917,260.295288 44.690441,232.537277 74.066933,220.405014 
	C75.141296,219.961334 76.212303,219.509521 77.651337,219.016327 
	C80.269432,220.464722 82.521057,221.958298 84.906166,224.198120 
	C85.030975,232.907562 84.855972,240.874741 85.046272,248.833176 
	C85.528305,268.991394 107.014740,284.701050 125.951248,278.859955 
z"/>
<path fill="#F9ED99" opacity="1.000000" stroke="none" 
	d="
M160.492584,447.952301 
	C160.019974,420.449127 159.311951,392.957916 160.225616,365.520721 
	C160.935852,344.193146 170.285416,326.311188 186.851654,312.444305 
	C194.708694,305.867493 203.111725,300.396667 213.605927,297.941101 
	C216.579971,299.742859 219.168442,301.580536 221.896820,304.185272 
	C222.031631,316.236603 221.802567,327.528412 222.180984,338.799805 
	C222.273956,341.569336 223.701141,344.894836 225.625443,346.897949 
	C233.878693,355.489380 242.546494,363.682587 251.053406,372.488098 
	C251.027313,397.948517 251.011032,422.941711 250.994751,447.934906 
	C229.982132,447.950867 208.969528,447.966827 187.478058,447.490051 
	C186.995010,435.844818 187.034119,424.692017 186.962280,413.539917 
	C186.938232,409.808167 186.015533,406.105011 181.459229,406.140350 
	C177.078842,406.174255 175.925095,409.430603 175.957443,413.444824 
	C176.049973,424.929230 175.966324,436.415070 175.951950,447.900330 
	C170.953201,447.929413 165.954468,447.958466 160.492584,447.952301 
z"/>
<path fill="#FFC681" opacity="1.000000" stroke="none" 
	d="
M251.453094,447.962280 
	C251.011032,422.941711 251.027313,397.948517 251.342804,372.636932 
	C253.437210,373.904083 255.232391,375.489624 256.998047,377.049103 
	C258.958740,375.454681 260.482849,374.215302 262.006958,372.975891 
	C262.018677,397.637146 262.030457,422.298401 262.060547,447.415222 
	C258.689728,447.910400 255.300583,447.950043 251.453094,447.962280 
z"/>
<path fill="#FFC581" opacity="1.000000" stroke="none" 
	d="
M327.435303,447.949524 
	C326.987549,437.098480 326.992767,426.278625 327.019470,415.458832 
	C327.023163,413.965485 326.860443,412.396149 327.251556,410.995117 
	C328.054749,408.117828 329.749756,405.094574 333.036102,406.274445 
	C335.111755,407.019684 337.699921,409.979065 337.781158,412.035248 
	C338.240723,423.669586 338.012085,435.331116 338.032776,447.441956 
	C334.663513,447.927277 331.279327,447.953979 327.435303,447.949524 
z"/>
<path fill="#FFC581" opacity="1.000000" stroke="none" 
	d="
M176.413635,447.936157 
	C175.966324,436.415070 176.049973,424.929230 175.957443,413.444824 
	C175.925095,409.430603 177.078842,406.174255 181.459229,406.140350 
	C186.015533,406.105011 186.938232,409.808167 186.962280,413.539917 
	C187.034119,424.692017 186.995010,435.844818 187.011963,447.457703 
	C183.641571,447.936035 180.258453,447.954010 176.413635,447.936157 
z"/>
<path fill="#35C7D7" opacity="1.000000" stroke="none" 
	d="
M47.554993,382.872101 
	C47.071735,368.356201 47.009300,353.890259 47.014759,339.424347 
	C47.016041,336.023682 47.733688,332.903107 52.103119,332.992859 
	C56.219482,333.077423 57.980335,335.555054 57.978470,339.471802 
	C57.971729,353.605927 57.948116,367.740051 57.896912,382.323303 
	C54.575504,382.822296 51.288055,382.872192 47.554993,382.872101 
z"/>
<path fill="#FEFFFF" opacity="1.000000" stroke="none" 
	d="
M106.378433,422.720886 
	C100.117218,422.697540 96.693726,419.552643 97.078079,414.640808 
	C97.404564,410.468353 101.733727,407.156921 106.460663,408.155670 
	C108.418365,408.569275 110.966209,410.285614 111.565117,411.997467 
	C112.313293,414.136017 111.792747,417.060608 110.924644,419.298615 
	C110.372063,420.723236 108.194168,421.517395 106.378433,422.720886 
z"/>
<path fill="#FEFFFF" opacity="1.000000" stroke="none" 
	d="
M420.187866,413.321716 
	C415.035278,416.047668 411.747681,415.395020 409.280121,411.489716 
	C407.082825,408.012146 407.913239,403.806122 411.264801,401.437500 
	C414.577332,399.096497 418.690948,399.583618 421.415619,402.994720 
	C424.220367,406.506042 423.738739,409.969971 420.187866,413.321716 
z"/>
<path fill="#F56684" opacity="1.000000" stroke="none" 
	d="
M266.514526,277.689941 
	C260.130096,281.630005 253.846390,281.858734 247.924759,278.003693 
	C244.091553,275.508209 240.724945,272.179901 241.115128,266.472260 
	C251.795792,266.472260 262.146423,266.472260 272.985901,266.472260 
	C272.752258,271.451721 270.236908,274.706085 266.514526,277.689941 
z"/>
<path fill="#585655" opacity="1.000000" stroke="none" 
	d="
M219.304810,218.574997 
	C220.472397,214.992081 222.418655,211.692841 225.901093,212.731293 
	C228.315628,213.451309 230.818451,216.510742 231.709000,219.071838 
	C232.962219,222.675858 231.664230,226.549606 227.918427,228.426926 
	C224.140900,230.320190 221.449875,228.228058 220.042145,224.761765 
	C219.328323,223.004105 219.460663,220.902802 219.304810,218.574997 
z"/>
<path fill="#575655" opacity="1.000000" stroke="none" 
	d="
M292.640869,214.485962 
	C293.231934,218.220123 294.167236,221.767517 293.651306,225.089539 
	C293.411346,226.634583 290.289093,228.855392 288.590240,228.756790 
	C286.611725,228.641953 284.077484,226.722916 283.000702,224.877228 
	C280.911041,221.295242 281.534149,217.376526 284.441772,214.296402 
	C286.885803,211.707352 289.712463,211.839844 292.640869,214.485962 
z"/>
<path fill="#F5B6A1" opacity="1.000000" stroke="none" 
	d="
M388.424500,278.950623 
	C399.757477,273.984680 408.225311,266.024689 410.570435,253.248810 
	C411.630707,247.472595 411.052490,241.367661 410.946442,235.416702 
	C410.890381,232.268143 411.905518,230.838333 415.090393,229.847321 
	C419.606903,228.441956 423.820374,226.062881 428.507141,224.050964 
	C428.549194,234.431839 429.544189,245.103256 427.656158,255.237549 
	C424.442444,272.487549 405.360748,283.494904 388.424500,278.950623 
z"/>
<path fill="#F7B5A1" opacity="1.000000" stroke="none" 
	d="
M262.158203,372.684326 
	C260.482849,374.215302 258.958740,375.454681 256.998047,377.049103 
	C255.232391,375.489624 253.437210,373.904083 251.352615,372.169739 
	C242.546494,363.682587 233.878693,355.489380 225.625443,346.897949 
	C223.701141,344.894836 222.273956,341.569336 222.180984,338.799805 
	C221.802567,327.528412 222.031631,316.236603 222.057373,304.486389 
	C227.309250,306.048065 232.626328,307.890259 237.707504,310.242157 
	C238.884354,310.786865 239.806915,313.040314 239.895203,314.562653 
	C240.173187,319.355469 240.406433,324.218079 239.898071,328.972565 
	C239.235245,335.171692 241.341934,339.595123 246.001144,343.656891 
	C253.727051,350.392212 260.979309,357.670746 268.732239,364.871460 
	C266.792053,367.479248 264.550751,369.936005 262.158203,372.684326 
z"/>
<path fill="#F56583" opacity="1.000000" stroke="none" 
	d="
M405.718628,188.105042 
	C407.624664,188.187347 409.069946,188.269516 410.525208,188.352249 
	C409.812012,196.059082 403.959625,201.055450 395.972290,201.089355 
	C387.561829,201.125061 381.928802,196.523193 381.140015,188.104889 
	C389.215424,188.104889 397.236633,188.104889 405.718628,188.105042 
z"/>
<path fill="#565554" opacity="1.000000" stroke="none" 
	d="
M420.939392,153.720215 
	C420.443115,151.923676 419.905273,150.495163 419.860443,149.051346 
	C419.723541,144.641937 422.282837,141.005539 425.589142,141.067307 
	C429.653870,141.143265 431.280304,144.028183 431.902832,147.529480 
	C432.641815,151.685791 430.287048,156.499252 427.019470,156.646500 
	C425.096497,156.733154 423.091461,154.997360 420.939392,153.720215 
z"/>
<path fill="#565554" opacity="1.000000" stroke="none" 
	d="
M365.163788,141.061325 
	C367.196594,141.958191 369.307434,142.531372 370.405029,143.910828 
	C373.255096,147.492630 372.263000,153.577148 368.755188,155.927856 
	C365.586395,158.051376 363.043854,156.850372 361.121216,154.055084 
	C358.156281,149.744492 359.834808,144.018478 365.163788,141.061325 
z"/>
<path fill="#F56683" opacity="1.000000" stroke="none" 
	d="
M108.355103,196.725220 
	C106.584679,194.065765 105.090927,191.659119 103.090591,188.436279 
	C113.453270,188.436279 122.457214,188.436279 131.885712,188.436279 
	C131.923096,193.122757 129.316986,195.999146 125.841019,197.998383 
	C119.990631,201.363235 114.153160,200.953278 108.355103,196.725220 
z"/>
<path fill="#565554" opacity="1.000000" stroke="none" 
	d="
M88.059387,141.029083 
	C89.824677,141.842804 91.524300,142.389633 92.511848,143.545059 
	C95.177124,146.663376 94.674873,152.807419 91.746681,155.394394 
	C89.209618,157.635834 86.641975,157.513687 84.263634,155.128220 
	C81.198151,152.053574 81.151436,145.981735 84.274597,142.906052 
	C85.160011,142.034103 86.524307,141.648438 88.059387,141.029083 
z"/>
<path fill="#565554" opacity="1.000000" stroke="none" 
	d="
M153.466858,144.993103 
	C153.843155,146.652222 154.196365,147.959717 154.170197,149.259552 
	C154.093399,153.071960 152.725845,156.460938 148.566269,156.819809 
	C144.230148,157.193893 142.657486,153.758560 142.080032,150.097504 
	C141.417755,145.898743 144.031845,141.147049 147.326248,141.298294 
	C149.354462,141.391388 151.292114,143.457642 153.466858,144.993103 
z"/>
<path fill="#F6B5A2" opacity="1.000000" stroke="none" 
	d="
M125.734917,278.612671 
	C107.014740,284.701050 85.528305,268.991394 85.046272,248.833176 
	C84.855972,240.874741 85.030975,232.907562 85.094627,224.479828 
	C90.613152,226.252380 96.168549,228.299530 101.473373,230.864853 
	C102.743256,231.478943 103.785919,233.778320 103.890556,235.371063 
	C104.291054,241.467697 103.509171,247.726013 104.560066,253.678314 
	C106.689629,265.740234 114.884460,273.224365 125.734917,278.612671 
z"/>
</svg>
