<svg xmlns="http://www.w3.org/2000/svg" enable-background="new 0 0 100 100" viewBox="0 0 100 100"><path d="m85.9 15.1c-7.9-8-18.5-13.5-30.6-14.8-25.9-2.8-49.9 15.2-54.5 40.8-5.1 28.4 14.7 54.9 43 58.5 11.6 1.5 22.8-1.2 32.1-6.8 2.6-1.6 3.3-5 1.4-7.4l-25.1-32.6c-1.2-1.5-.9-3.8.6-5l32.5-25.2c2.4-1.8 2.6-5.3.6-7.5z" fill="#fdca3e"/><path d="m72 78.6c-7.3 2.4-15.3 3.2-23.4 2.2-24.2-3-42.6-21.5-46.7-44.3-.4 1.5-.8 3-1.1 4.6-5.1 28.4 14.7 54.9 43 58.5 11.6 1.5 22.8-1.2 32.1-6.8 2.6-1.6 3.3-5 1.4-7.4z" fill="#f08200" opacity=".54"/><path d="m57.7 24.7-1.4-8.5c-.5-2.8-3-5.1-5.8-4.9-3.3.2-5.5 3.2-5 6.4l1.4 8.5c.5 2.8 3 5.1 5.8 4.9 3.3-.3 5.6-3.2 5-6.4z" fill="#131a26"/><circle cx="87.3" cy="55.5" fill="#42c6a0" r="12.7"/></svg>