<svg xmlns="http://www.w3.org/2000/svg" xmlns:xlink="http://www.w3.org/1999/xlink" version="1.1" id="Layer_1" x="0px" y="0px" viewBox="0 0 100 100" style="enable-background:new 0 0 100 100;" xml:space="preserve">
<style type="text/css">
	.st0{fill:#E79331;}
	.st1{fill:#FFB048;}
	.st2{fill:#699A00;}
	.st3{fill:#FF6B5C;}
	.st4{fill:#A76A62;}
	.st5{fill:#89493E;}
	.st6{fill:#FFDE46;}
	.st7{fill:#FFE4AD;}
</style>
<g>
	<g>
		<path class="st0" d="M50,99c47.49,0,43.98-29.1,43.98-29.1c0-3.58-19.69-6.48-43.98-6.48S6.02,66.33,6.02,69.9    C6.02,69.9,2.51,99,50,99z"/>
		<path class="st1" d="M50,63.42c-24.29,0-43.98,2.9-43.98,6.48c0,0-0.56,4.69,1.83,10.3C14.9,86.05,27.5,90.99,50,90.99    c22.5,0,35.11-4.94,42.15-10.78c2.4-5.61,1.83-10.3,1.83-10.3C93.98,66.33,74.29,63.42,50,63.42z"/>
	</g>
	<path class="st2" d="M90.67,65.29c-19.14-4.66-81.68-0.76-81.68-0.76s-9.31,2.95-7.83,6.66c1.48,3.71,12.44,3.62,12.44,3.62   s-1.13,3.71,6.61,1.71c0,0,5.22,8.35,17.78,0.82c2.85,4,10.82,12.46,21.6,1.12c2.61,1.55,6.49,2.73,12.29,2.63   c15.92-0.29,7.31-4.19,7.31-4.19s11.92,3.33,10.79-1.9C89.98,75,109.81,69.95,90.67,65.29z"/>
	<path class="st3" d="M90.12,59.34c-2.92-4.4-19.56-7.8-39.89-7.97c0,0,0,0,0-0.01c-0.08,0-0.15,0-0.23,0c-0.08,0-0.16,0-0.23,0   c0,0,0,0,0,0.01c-20.33,0.17-36.97,3.57-39.89,7.97v7.31c0.12,0.19,0.26,0.37,0.43,0.55c0.01,0.01,0.01,0.02,0.01,0.02h0.01   c3.9,4.14,20.01,7.27,39.52,7.42c0,0,0,0,0,0c0.05,0,0.11,0,0.16,0c0.05,0,0.11,0,0.16,0c0,0,0,0,0,0   c19.51-0.16,35.62-3.28,39.52-7.42h0.01c0,0,0.01-0.01,0.01-0.02c0.17-0.18,0.31-0.37,0.43-0.55V59.34z"/>
	<path class="st4" d="M90.72,41.02c-2.97-4.47-19.85-7.92-40.49-8.09c0,0,0,0,0-0.01c-0.08,0-0.16,0-0.24,0c-0.08,0-0.16,0-0.24,0   c0,0,0,0,0,0.01c-20.64,0.17-37.52,3.62-40.49,8.09c-5.72,7.02-2.07,15.09-0.33,18.11c0.14,0.41,0.39,0.82,0.76,1.21   c0,0.01,0.01,0.02,0.01,0.02l0.01,0c3.96,4.2,20.31,7.37,40.1,7.53c0,0,0,0,0,0c0.05,0,0.11,0,0.16,0c0.05,0,0.11,0,0.16,0   c0,0,0,0,0,0c19.8-0.16,36.15-3.33,40.1-7.53l0.01,0c0,0,0.01-0.01,0.01-0.02c0.37-0.4,0.62-0.8,0.76-1.21   C92.79,56.11,96.44,48.04,90.72,41.02z"/>
	<path class="st5" d="M50.18,58.75C50.18,58.75,50.18,58.75,50.18,58.75c-0.06,0-0.12,0-0.18,0c-0.06,0-0.12,0-0.18,0c0,0,0,0,0,0   c-20.59-0.17-37.83-3.36-43.55-7.71c0.33,3.5,1.76,6.5,2.68,8.09c0.14,0.41,0.39,0.82,0.76,1.21c0,0.01,0.01,0.02,0.01,0.02h0.01   c3.96,4.2,20.31,7.37,40.1,7.53c0,0,0,0,0,0c0.05,0,0.11,0,0.16,0c0.05,0,0.11,0,0.16,0c0,0,0,0,0,0   c19.8-0.16,36.15-3.33,40.1-7.53h0.01c0,0,0.01-0.01,0.01-0.02c0.37-0.4,0.62-0.8,0.76-1.21c0.92-1.59,2.35-4.59,2.68-8.09   C88.01,55.39,70.77,58.58,50.18,58.75z"/>
	<g>
		<path class="st6" d="M7.81,39.6c0,0-5.83,8.53-1.46,17.92c0.5,1.06,1.91,1,2.37-0.08c1.85-4.37,7-12.62,19.41-12.62L7.81,39.6z"/>
		<path class="st6" d="M92.19,39.6c0,0,5.83,8.53,1.46,17.92c-0.5,1.06-1.91,1-2.37-0.08c-1.85-4.37-7-12.62-19.41-12.62L92.19,39.6    z"/>
	</g>
	<path class="st6" d="M50,41.01l-25.42,2.1c0,0,11.45,6.74,22.99,25c1.17,1.85,3.68,1.85,4.85,0c11.54-18.26,22.99-25,22.99-25   L50,41.01z"/>
	<g>
		<path class="st0" d="M50,1C0.03,1,3.72,38.96,3.72,38.96c0,4.19,20.72,7.59,46.28,7.59s46.28-3.4,46.28-7.59    C96.28,38.96,99.97,1,50,1z"/>
		<path class="st1" d="M50,1C30.07,1,18.68,7.04,12.18,14.3c0,0,0,0,0,0c0,7.86,16.93,14.24,37.82,14.24s37.82-6.38,37.82-14.24    c0,0,0,0,0,0C81.32,7.04,69.93,1,50,1z"/>
		<g>
			
				<ellipse transform="matrix(0.4986 -0.8668 0.8668 0.4986 -8.3713 28.9597)" class="st7" cx="20.85" cy="21.72" rx="4.45" ry="3.47"/>
			
				<ellipse transform="matrix(0.8258 -0.564 0.564 0.8258 -13.7831 26.2857)" class="st7" cx="35.65" cy="35.45" rx="3.48" ry="4.43"/>
			<ellipse transform="matrix(0.8258 -0.564 0.564 0.8258 2.1666 26.2016)" class="st7" cx="43.49" cy="9.59" rx="3.48" ry="4.43"/>
			
				<ellipse transform="matrix(0.8258 -0.564 0.564 0.8258 -5.881 33.7973)" class="st7" cx="51.76" cy="26.42" rx="3.48" ry="4.43"/>
			
				<ellipse transform="matrix(0.3354 -0.9421 0.9421 0.3354 18.4919 94.3622)" class="st7" cx="76.13" cy="34.07" rx="4.48" ry="3.44"/>
			
				<ellipse transform="matrix(0.3354 -0.9421 0.9421 0.3354 32.7937 72.0497)" class="st7" cx="67.46" cy="12.78" rx="4.48" ry="3.44"/>
		</g>
	</g>
</g>
</svg>