<svg xmlns="http://www.w3.org/2000/svg" xmlns:xlink="http://www.w3.org/1999/xlink" version="1.1" id="Layer_1" x="0px" y="0px" viewBox="0 0 100 100" style="enable-background:new 0 0 100 100;" xml:space="preserve">
<style type="text/css">
	.st0{fill:#FFFFFF;}
	.st1{opacity:0.35;fill:#A6C8DB;}
	.st2{fill:#A6C8DB;}
	.st3{fill:#6D95A8;}
	.st4{fill:#86B918;}
</style>
<g>
	<g>
		<path class="st0" d="M7.16,27.88l3.08,8.09l-7.9,7.93l0,0C0.68,58.05,5.3,72.79,16.19,83.61c3.56,3.53,7.54,6.39,11.77,8.58    l7.94-1.63l8.38,6.63l0,0c14.17,1.69,28.95-2.92,39.78-13.84c3.55-3.58,6.42-7.58,8.61-11.84l-1.02-7.3l6.02-9.29    c1.57-14.07-3.05-28.7-13.88-39.44c-3.68-3.65-7.81-6.57-12.2-8.79L59.96,7.53l-4.7-5.7l0,0C41.01,0.42,26.03,5.31,15.93,15.72    C12.33,19.43,9.37,23.5,7.16,27.88L7.16,27.88z"/>
		<path class="st1" d="M91.66,64.19l6.02-9.29c1.06-9.46-0.7-19.17-5.25-27.78L8.16,73.04c2.13,3.79,4.8,7.35,8.04,10.57    c3.56,3.53,7.54,6.39,11.77,8.58l7.94-1.63l8.38,6.63c14.17,1.69,28.95-2.92,39.78-13.84c3.55-3.58,6.42-7.58,8.61-11.84    L91.66,64.19z"/>
		<path class="st2" d="M64.71,77.3c12.75-6.91,24.8-9.29,27.97-5.8c2.7-5.24,4.36-10.87,5-16.6c-4.49,1.52-13.35-7.25-20.37-20.19    c-6.97-12.85-9.33-24.98-5.71-28.04c-5.17-2.61-10.72-4.22-16.35-4.84c1.01,4.59-7.67,13.2-20.31,20.05    c-12.51,6.78-24.35,9.21-27.79,6c-2.57,5.07-4.17,10.5-4.82,16.03c4.65-0.63,13.06,7.94,19.78,20.34    c6.89,12.7,9.28,24.71,5.84,27.94c5.16,2.67,10.69,4.32,16.33,4.99C43.13,93.04,51.96,84.16,64.71,77.3z M60.24,68.65    c-10.64,5.6-23.65,1.76-29.36-8.77s-1.76-23.65,8.77-29.36c10.53-5.71,23.65-1.76,29.36,8.77C74.71,49.82,70.77,62.94,60.24,68.65    z"/>
		<g>
			<path class="st3" d="M9.47,38.53c1.89,0.99,3.9,2.54,6.24,4.64c1.9,1.88,3.9,4.09,5.8,6.64c-0.13-5.89,1.62-11.67,4.93-16.57     c-3,1.01-5.77,1.8-8.43,2.25c-3,0.57-5.55,0.69-7.77,0.47c0,0-2.99-0.87-5.37-2.78c-0.56,1.56-1.05,3.14-1.44,4.74     C6.34,37.58,9.28,38.53,9.47,38.53z"/>
			<path class="st3" d="M90.64,60.2c-1.89-0.99-4.12-2.54-6.35-4.75c-1.9-1.88-3.79-3.98-5.58-6.42c0.02,5.78-1.73,11.56-4.93,16.35     c3-1.01,5.66-1.69,8.21-2.25c3.22-0.57,5.77-0.69,7.99-0.48c0,0,2.95,0.86,5.33,2.74c0.54-1.54,0.99-3.09,1.37-4.67     C93.54,61.15,90.64,60.2,90.64,60.2z"/>
			<path class="st3" d="M60.78,8.89c-0.99,1.89-2.54,4.12-4.75,6.35c-1.88,1.9-3.98,3.79-6.42,5.58c5.78-0.02,11.45,1.62,16.35,4.93     c-1.01-2.77-1.69-5.66-2.25-8.21c-0.57-3.22-0.69-5.77-0.48-7.99c0,0,0.85-2.93,2.71-5.3c-1.52-0.53-3.06-0.99-4.62-1.37     C61.71,5.87,60.78,8.89,60.78,8.89z"/>
			<path class="st3" d="M39.22,89.95c0.99-1.89,2.54-3.9,4.64-6.24c1.88-1.9,4.09-3.9,6.53-5.69c-5.89,0.13-11.78-1.73-16.68-5.04     c1.01,2.99,1.8,5.77,2.25,8.43c0.57,3,0.69,5.55,0.47,7.77c-0.1,0.1-0.92,3.07-2.85,5.46c1.61,0.58,3.23,1.08,4.88,1.49     C38.21,93.2,39.02,90.35,39.22,89.95z"/>
		</g>
	</g>
	<path class="st4" d="M82.15,89.81L84.5,75.3c0,0-8.75,8.38-8.75,15.74c0,0-0.02-8.96-3.17-13.15c0,0-3.35,6.79-3.22,13.29   c0,0-0.52-6.86-4.24-10.98c0,0-1.66,2.92-2.43,6.9c-0.76-3.98-2.43-6.9-2.43-6.9c-3.72,4.12-4.24,10.98-4.24,10.98   c0.09-4.29-1.34-8.69-2.32-11.2c-2.23,2.55-3.25,6.52-3.71,9.27c-0.46-2.75-1.48-6.72-3.71-9.27c-0.98,2.51-2.41,6.91-2.32,11.2   c0,0-0.52-6.86-4.24-10.98c0,0-1.66,2.92-2.43,6.9c-0.76-3.98-2.43-6.9-2.43-6.9c-3.72,4.12-4.24,10.98-4.24,10.98   c0.13-6.5-3.22-13.29-3.22-13.29c-3.15,4.19-3.17,13.15-3.17,13.15c0-7.37-8.75-15.74-8.75-15.74l2.35,14.51l-8.48-8.59   c0,7.5,3.17,12.25,5.63,14.81c1.5,1.56,3.39,2.37,5.32,2.37h16.61h0.76h11.95h0.73h11.95h0.76h16.61c1.93,0,3.81-0.81,5.32-2.37   c2.46-2.56,5.63-7.31,5.63-14.81L82.15,89.81z"/>
</g>
</svg>
