<svg version="1.1" id="Layer_1" xmlns="http://www.w3.org/2000/svg" xmlns:xlink="http://www.w3.org/1999/xlink" x="0px" y="0px"
	 width="100%" viewBox="0 0 512 512" enable-background="new 0 0 512 512" xml:space="preserve">
<path fill="transparent" opacity="1.000000" stroke="none" 
	d="
M1.000000,195.000000 
	C1.000000,130.000000 1.000000,65.500000 1.000000,1.000000 
	C171.666672,1.000000 342.333344,1.000000 513.000000,1.000000 
	C513.000000,171.666672 513.000000,342.333344 513.000000,513.000000 
	C342.333344,513.000000 171.666672,513.000000 1.000000,513.000000 
	C1.000000,407.166656 1.000000,301.333344 1.000000,195.000000 
M496.844177,187.500076 
	C496.843872,159.505234 496.855957,131.510376 496.838623,103.515556 
	C496.827820,86.030762 491.559540,70.452866 479.696167,57.397923 
	C465.608856,41.895714 447.828094,35.411400 427.094269,35.430950 
	C314.447906,35.537163 201.801346,35.476933 89.154846,35.498093 
	C84.993065,35.498875 80.823662,35.631638 76.670799,35.902306 
	C45.122402,37.958538 17.625900,66.167969 17.081211,97.757866 
	C16.598658,125.744041 16.831408,153.743393 16.835381,181.736923 
	C16.841789,226.894241 16.568785,272.055664 17.094088,317.207428 
	C17.429079,346.001373 37.823429,370.787201 65.915443,378.063721 
	C71.174194,379.425842 76.634338,380.010406 82.475479,381.037109 
	C82.475479,412.634430 82.475479,444.370544 82.475479,476.899231 
	C84.630211,475.508514 86.132149,474.601868 87.569420,473.602295 
	C130.581284,443.689301 173.611252,413.802155 216.547073,383.780396 
	C220.015213,381.355347 223.425018,380.385223 227.605942,380.391296 
	C293.927277,380.487488 360.249176,380.566315 426.569702,380.319336 
	C434.618103,380.289368 443.006927,379.468536 450.642059,377.096252 
	C479.186676,368.227386 496.754913,343.243256 496.821198,312.477814 
	C496.910217,271.152100 496.843872,229.826019 496.844177,187.500076 
z"/>
<path fill="#040404" opacity="1.000000" stroke="none" 
	d="
M496.844177,188.000092 
	C496.843872,229.826019 496.910217,271.152100 496.821198,312.477814 
	C496.754913,343.243256 479.186676,368.227386 450.642059,377.096252 
	C443.006927,379.468536 434.618103,380.289368 426.569702,380.319336 
	C360.249176,380.566315 293.927277,380.487488 227.605942,380.391296 
	C223.425018,380.385223 220.015213,381.355347 216.547073,383.780396 
	C173.611252,413.802155 130.581284,443.689301 87.569420,473.602295 
	C86.132149,474.601868 84.630211,475.508514 82.475479,476.899231 
	C82.475479,444.370544 82.475479,412.634430 82.475479,381.037109 
	C76.634338,380.010406 71.174194,379.425842 65.915443,378.063721 
	C37.823429,370.787201 17.429079,346.001373 17.094088,317.207428 
	C16.568785,272.055664 16.841789,226.894241 16.835381,181.736923 
	C16.831408,153.743393 16.598658,125.744041 17.081211,97.757866 
	C17.625900,66.167969 45.122402,37.958538 76.670799,35.902306 
	C80.823662,35.631638 84.993065,35.498875 89.154846,35.498093 
	C201.801346,35.476933 314.447906,35.537163 427.094269,35.430950 
	C447.828094,35.411400 465.608856,41.895714 479.696167,57.397923 
	C491.559540,70.452866 496.827820,86.030762 496.838623,103.515556 
	C496.855957,131.510376 496.843872,159.505234 496.844177,188.000092 
M381.500183,63.713646 
	C283.678284,63.713646 185.856400,63.711441 88.034515,63.724659 
	C85.204597,63.725044 82.369675,63.809753 79.545631,63.989494 
	C64.835594,64.925766 51.200558,75.423370 47.110546,89.516510 
	C45.740646,94.236832 45.036728,99.320526 45.027424,104.240005 
	C44.896599,173.398224 44.964268,242.556793 44.908417,311.715210 
	C44.900795,321.145569 46.892372,329.840240 52.805805,337.386658 
	C60.873558,347.682343 71.574158,352.338989 84.524277,352.258606 
	C93.125816,352.205200 101.727951,352.248474 110.979309,352.248474 
	C110.979309,376.031006 110.979309,399.172638 110.979309,422.957825 
	C113.101768,421.523895 114.473228,420.621490 115.820198,419.683868 
	C146.810989,398.111359 177.764847,376.485291 208.855103,355.057098 
	C211.244995,353.409943 214.591034,352.369751 217.495422,352.363647 
	C287.653473,352.216614 357.811890,352.276276 427.970215,352.234100 
	C452.305573,352.219452 468.535767,336.768921 468.608459,312.722321 
	C468.819489,242.897888 468.817841,173.072021 468.608856,103.247589 
	C468.537445,79.391724 452.424255,63.880035 428.494629,63.731575 
	C413.163727,63.636459 397.831726,63.713676 381.500183,63.713646 
z"/>
<path fill="#FFFFFF" opacity="1.000000" stroke="none" 
	d="
M382.000183,63.713642 
	C397.831726,63.713676 413.163727,63.636459 428.494629,63.731575 
	C452.424255,63.880035 468.537445,79.391724 468.608856,103.247589 
	C468.817841,173.072021 468.819489,242.897888 468.608459,312.722321 
	C468.535767,336.768921 452.305573,352.219452 427.970215,352.234100 
	C357.811890,352.276276 287.653473,352.216614 217.495422,352.363647 
	C214.591034,352.369751 211.244995,353.409943 208.855103,355.057098 
	C177.764847,376.485291 146.810989,398.111359 115.820198,419.683868 
	C114.473228,420.621490 113.101768,421.523895 110.979309,422.957825 
	C110.979309,399.172638 110.979309,376.031006 110.979309,352.248474 
	C101.727951,352.248474 93.125816,352.205200 84.524277,352.258606 
	C71.574158,352.338989 60.873558,347.682343 52.805805,337.386658 
	C46.892372,329.840240 44.900795,321.145569 44.908417,311.715210 
	C44.964268,242.556793 44.896599,173.398224 45.027424,104.240005 
	C45.036728,99.320526 45.740646,94.236832 47.110546,89.516510 
	C51.200558,75.423370 64.835594,64.925766 79.545631,63.989494 
	C82.369675,63.809753 85.204597,63.725044 88.034515,63.724659 
	C185.856400,63.711441 283.678284,63.713646 382.000183,63.713642 
M255.754333,251.937668 
	C257.856323,252.432617 259.937592,253.053802 262.063568,253.402359 
	C277.731964,255.971039 290.037659,247.645355 293.309143,232.118454 
	C300.850159,196.328171 308.301239,160.518967 315.793427,124.718391 
	C318.689545,110.879738 314.782288,99.059097 305.053284,89.063858 
	C285.497955,68.973381 247.775375,68.903534 228.097015,88.916664 
	C218.171082,99.011459 214.291306,110.963593 217.242065,124.997505 
	C224.767899,160.790680 232.383163,196.566238 239.632477,232.415604 
	C241.523804,241.768677 246.290421,248.133972 255.754333,251.937668 
M304.881531,300.877716 
	C303.997955,294.223694 301.135651,288.520935 296.556702,283.658875 
	C281.226288,267.380615 251.505020,267.464783 236.277695,283.821381 
	C224.189484,296.806091 225.371857,316.134491 239.538666,326.958679 
	C253.945938,337.966583 269.995911,338.873016 286.198730,331.552094 
	C298.680847,325.912292 305.093536,315.718384 304.881531,300.877716 
z"/>
<path fill="#010101" opacity="1.000000" stroke="none" 
	d="
M255.381256,251.818512 
	C246.290421,248.133972 241.523804,241.768677 239.632477,232.415604 
	C232.383163,196.566238 224.767899,160.790680 217.242065,124.997505 
	C214.291306,110.963593 218.171082,99.011459 228.097015,88.916664 
	C247.775375,68.903534 285.497955,68.973381 305.053284,89.063858 
	C314.782288,99.059097 318.689545,110.879738 315.793427,124.718391 
	C308.301239,160.518967 300.850159,196.328171 293.309143,232.118454 
	C290.037659,247.645355 277.731964,255.971039 262.063568,253.402359 
	C259.937592,253.053802 257.856323,252.432617 255.381256,251.818512 
z"/>
<path fill="#020202" opacity="1.000000" stroke="none" 
	d="
M304.900452,301.316437 
	C305.093536,315.718384 298.680847,325.912292 286.198730,331.552094 
	C269.995911,338.873016 253.945938,337.966583 239.538666,326.958679 
	C225.371857,316.134491 224.189484,296.806091 236.277695,283.821381 
	C251.505020,267.464783 281.226288,267.380615 296.556702,283.658875 
	C301.135651,288.520935 303.997955,294.223694 304.900452,301.316437 
z"/>
</svg>
