<svg xmlns="http://www.w3.org/2000/svg" enable-background="new 0 0 100 100" viewBox="0 0 100 100"><path d="m97.8 90.6-5.7-3v-7c0-1.9-1-3.7-2.8-4.9l-10.1-6v-29.9l12.7-8.8c1.7-1.5 2.8-3.6 3-5.8l-.3-22.8c0-1.3-1.2-2.4-2.7-2.4h-6.3c-1.4 0-2.5.9-2.7 2.1l-1.4 10.2h-2.5-6.7-2.5l-1.3-10.2c-.2-1.2-1.3-2.1-2.7-2.1h-5.7c-1.4 0-2.5.9-2.7 2.1l-1.4 10.2h-1.5-8.1-2.5l-1.3-10.2c-.2-1.2-1.3-2.1-2.7-2.1h-5.7c-1.4 0-2.5.9-2.7 2.1l-1.4 10.2h-2.5-6.6-2.5l-1.4-10.2c-.2-1.2-1.3-2.1-2.7-2.1h-6.3c-1.5 0-2.6 1.1-2.7 2.4l-.2 22.8c.2 2.2 1.2 4.2 3 5.8l12.3 8.9v29.9l-9.8 6.1c-1.8 1.1-2.8 3-2.8 4.9v6.9l-5.7 3c-1.4.5-2.2 1.8-2.2 3.1v3.5c0 1.5 1.4 2.7 3.1 2.7h38.8 16.2 38.8c1.7 0 3.1-1.2 3.1-2.7v-3.5c0-1.3-.8-2.6-2.2-3.2z" fill="#ddc2a9"/><path d="m8.1 31 12.3 8.8h58.8l12.7-8.8c1.7-1.5 2.8-3.6 3-5.8h-89.7c.2 2.2 1.2 4.2 2.9 5.8z" fill="#ab8c73"/><path d="m92.1 80c-.2-1.7-1.2-3.3-2.7-4.3l-10.1-6h-58.8l-9.8 6.1c-1.6 1-2.5 2.5-2.8 4.2z" fill="#f7ddba"/><path d="m99.9 93.2c-.2-1.1-1-2-2.1-2.5l-5.7-3h-84.3l-5.7 3c-1.1.5-1.9 1.5-2.1 2.5z" fill="#f7ddba"/><path d="m61.6 69.7.4-13.5c.2-6.7-5.3-12.2-12-12.2-6.8 0-12.3 5.6-12 12.3l.8 13.4z" fill="#ab8c73"/><path d="m57.3 69.7.3-11.4c.1-4.5-3.3-8.3-7.5-8.3-4.3 0-7.7 3.8-7.5 8.4l.4 11.3z" fill="#8a583b"/></svg>
