<?xml version="1.0" encoding="UTF-8"?>
<svg version="1.1" viewBox="0 0 2048 601" width="175" height="57" xmlns="http://www.w3.org/2000/svg">
<path transform="translate(71,12)" d="m0 0h1910l16 4 10 5 11 10 9 13 5 11 3 14v441l-1 22-3 16-5 12-9 11-8 6-12 6-14 4-8 1h-1906l-17-4-12-6-10-9-8-9-6-12-4-17v-465l6-18 7-11 8-9 11-8 12-5 7-2z"/>
<path transform="translate(170,105)" d="m0 0 6 1 12 5 23 13 36 20 23 13 24 14 11 6 23 13 17 9 23 13 27 15 12 7 1 4-15 15-6 5-7 8-28 28-7 8-7 9-4 2v2l-5 5h-2l-1 3-8 7-61 61h-2l-1 3h-2l-2 4h-2l-1 3-5 4-28 28h-2v2l-52 52h-4l-5-11-1-8v-340l3-8 7-9z" fill="#01CBFE"/>
<path transform="translate(408,236)" d="m0 0 5 1 27 15 19 11 23 13 11 8 6 8 2 4v10l-7 9-13 9-23 13-25 14-21 12-14 7-24 14-25 14-23 13-22 12-50 28-23 13-28 15-21 11-11 3-7-1-3-2v-5l45-45 4-5h2v-2l8-7 23-23 8-7 4-5 8-7 51-51h2l2-4 3-3h2l1-3 5-4 3-4h2v-2l6-5 4-6 16-17 25-25 6-7 8-7 6-5z" fill="#F32B46"/>
<path transform="translate(1165,326)" d="m0 0h13l11 3 11 7 5 2 3-8 24 1 2 3-1 120-3 16-5 12-6 9-9 9-12 7-13 4-7 1h-12l-14-3-15-8-10-9-8-9-3-5 1-5 16-8 5-2 12 14 8 6 5 2h19l12-6 7-8 4-12 1-6v-12l-11 7-7 4-10 2h-15l-12-3-14-8-11-9-9-13-5-11-2-9v-19l4-16 6-11 9-11 12-9 15-7z" fill="#FEFEFE"/>
<path transform="translate(1485,263)" d="m0 0h67l12 2 9 4 11 7 10 10 7 11 4 11 1 6v15l-3 12-7 12-10 11-10 7-11 5-8 2h-52v71l-1 1h-27l-1-2v-184z" fill="#FEFEFE"/>
<path transform="translate(717,256)" d="m0 0h16l15 2 12 4 14 7 14 10 3 5-17 17-5-2-8-6-11-5-10-3-9-1h-17l-15 3-16 8-9 8h-2l-2 4-8 11-6 15-2 7-1 8v13l3 16 7 16 7 9 5 6 12 9 14 6 13 3h23l16-5 11-6 9-7 8-10 6-14 3-10-66-1-1-1 1-26h92l1 1v29l-3 15-6 15-7 12-10 11-13 10-15 8-15 5-13 2h-21l-17-3-12-4-16-8-12-9-7-6-9-11-8-13-5-11-4-13-2-9v-22l4-18 5-13 7-13 8-10 8-9 13-10 17-9 17-5z" fill="#FEFEFE"/>
<path transform="translate(170,105)" d="m0 0 6 1 12 5 23 13 36 20 23 13 24 14 11 6 23 13 17 9 23 13 27 15 12 7 1 4-15 15-6 5-7 8-28 28-3 4h-3v-2l-5-2-5-5-13-12-113-113-7-8-16-17-9-10-18-18z" fill="#00E57F"/>
<path transform="translate(885,326)" d="m0 0h14l14 3 14 7 9 7 8 8 8 14 4 12 1 5v12l-3 16-4 10-8 11-9 9-11 7-12 5-9 2h-18l-14-3-15-8-10-9-7-9-7-14-4-17v-7l4-17 4-10 10-14 10-9 14-7 10-3z" fill="#FEFEFE"/>
<path transform="translate(1026,326)" d="m0 0h14l14 3 16 8 12 11 7 9 6 12 3 15v14l-3 14-5 10-10 13-13 10-12 6-13 3h-17l-14-3-17-9-11-10-7-10-6-14-2-11v-11l2-12 5-13 6-10 8-9 10-7 10-5 10-3z" fill="#FEFEFE"/>
<path transform="translate(408,236)" d="m0 0 5 1 27 15 19 11 23 13 11 8 6 8 2 4v10l-7 9-13 9-23 13-25 14-21 12h-5l-3-6-29-29-8-7-17-17-4-1-4 2 6-7 11-12 26-26 6-7 8-7 6-5z" fill="#FDC60A"/>
<path transform="translate(1709,326)" d="m0 0h21l13 3 13 7 9 8 7 11 4 11 1 8v74l-1 1h-25l-2-8v-3l-9 7-9 6-7 2h-23l-10-3-11-7-7-7-6-12-1-4v-15l4-11 7-9 11-8 12-5 17-2 16 1 18 5-2-8-4-5v-2l-4-2-6-4-11-3h-10l-9 3-10 7-3 3-6-2-5-3-10-5-1-2 4-7 9-9 10-6 11-4z" fill="#FEFEFE"/>
<path transform="translate(1348,326)" d="m0 0h16l9 2 12 6 11 9 8 10 6 11 2 5v5l-16 8-42 17-24 10-1 3 7 8 9 6 7 2h13l10-3 9-6 3-1 2-4 2-3 5 2 8 7 7 5-1 5-9 9-11 7-13 6-9 2h-19l-12-3-14-7-11-9-8-11-5-10-4-16v-15l4-17 7-14 7-9 12-9 11-5z" fill="#FEFEFE"/>
<path transform="translate(1780,330)" d="m0 0h27l6 8 19 46 6 14 5 12 2 1 2-5 6-17 12-31 10-24 4-4 29 1-9 20-13 30-14 32-13 30-13 29-12 26-5 9h-17l-10-1 1-5 13-28 11-25 1-7-7-15-17-39-12-27-11-25z" fill="#FEFEFE"/>
<path transform="translate(625,104)" d="m0 0h38l10 2 10 5 8 8 6 10 4 12v19l-3 10-7 11-9 8-8 4-12 3h-37l-1-4v-68z" fill="#FEFEFE"/>
<path transform="translate(1138,103)" d="m0 0h18l11 2 9 6 5 6 3 8-1 13-5 8 1 5 6 9 2 8-1 10-6 10-9 6-5 2-12 1h-23l-8-1-1-1v-90l1-1z" fill="#FEFEFE"/>
<path transform="translate(1254,263)" d="m0 0h24l4 1v185l-4 1h-25l-1-167 1-19z" fill="#FEFEFE"/>
<path transform="translate(1623,263)" d="m0 0 27 1v186h-27l-1-1v-185z" fill="#FEFEFE"/>
<path transform="translate(885,351)" d="m0 0h11l10 3 10 6 8 10 4 10v18l-4 13-9 10-8 5-5 2-6 1h-8l-12-3-8-6-7-8-5-12-1-12 3-14 7-11 9-8z" fill="#010000"/>
<path transform="translate(1027,351)" d="m0 0h10l8 2 8 4 8 7 8 16 1 12-2 11-7 14-10 8-7 3-5 1h-11l-13-4-10-9-5-8-3-10v-16l4-11 6-9 7-6 9-4z" fill="#010000"/>
<path transform="translate(1167,351)" d="m0 0h12l9 3 9 6 8 11 3 8 1 6v11l-3 12-8 11-7 6-11 4h-13l-11-4-9-8-6-10-3-12v-10l3-11 6-10 8-8 8-4z" fill="#010000"/>
<path transform="translate(1505,289)" d="m0 0h48l10 4 9 9 4 9 1 6v8l-2 9-6 9-9 7-6 2-9 1h-40z"/>
<path transform="translate(1e3 103)" d="m0 0 10 2 7 8 13 20 12 19 8 13 2 1v-29l1-33h14l1 1v58l-1 31-1 2-3 1h-7l-9-10-11-17-13-21-9-15-4-5-1 61-1 6-3 1h-10l-1-1v-92z" fill="#FEFEFE"/>
<path transform="translate(1440,104)" d="m0 0h12l6 4 9 12 12 20 15 24 3 4 1-64h14l1 1v49l-1 41-3 2-9-1-9-10-7-11-12-19-9-15-7-12-1-1-1 67-1 1h-13l-1-4v-60z" fill="#FEFEFE"/>
<path transform="translate(928,115)" d="m0 0h18l10 5 8 8 5 10 1 4v14l-3 11-6 8-6 5-10 4h-17l-12-6-7-7-4-8-2-10 1-12 4-10 6-8 9-6z" fill="#010000"/>
<path transform="translate(929,102)" d="m0 0h18l10 3 9 6 8 7 7 11 3 8 1 6v13l-2 11-7 12-11 11-12 6-8 2h-19l-11-4-10-7-9-10-5-10-3-11v-10l4-17 7-11 8-7 9-5zm-1 13-10 5-7 6-5 9-2 6-1 12 2 10 4 8 8 8 11 5h17l12-5 7-7 4-8 2-8v-14l-3-9-6-8-8-7-7-3z" fill="#FEFEFE"/>
<path transform="translate(820,104)" d="m0 0h38l9 3 8 6 6 9 1 4v11l-3 8-6 8-6 4-9 2-22 1-2 36h-14z" fill="#FEFEFE"/>
<path transform="translate(1368,104)" d="m0 0h57l-1 12h-41l-1 27h33l5 1v12l-37 1v25h40l1 1v12l-1 1h-55l-1-1z" fill="#FEFEFE"/>
<path transform="translate(1266,104)" d="m0 0h56l-1 12-40 1v15l-1 11h37l1 5-1 8-36 1v24l40 1 1 1v12l-1 1h-55z" fill="#FEFEFE"/>
<path transform="translate(766,102)" d="m0 0h16l9 4 8 7 3 5v6l-7 2-7-4-5-4-4-2h-11l-6 4-3 5 1 5 7 6 21 9 11 7 6 8 2 7v8l-4 9-6 7-8 5-8 2h-12l-10-3-8-6-7-8-3-5 1-5 4-2h7l11 12 7 3h7l10-5 3-5v-6l-4-6-10-6-20-8-8-6-4-7-1-10 3-10 6-7 9-5z" fill="#FEFEFE"/>
<path transform="translate(640,117)" d="m0 0h20l11 3 8 6 6 11 1 4v18l-3 9-7 8-9 5-13 2h-13l-1-1z" fill="#010000"/>
<path transform="translate(1200,104)" d="m0 0h15l1 78h39l1 3-1 10-1 1h-54l-1-1v-87z" fill="#FEFEFE"/>
<path transform="translate(1714,393)" d="m0 0h19l11 3 6 5-1 7-9 11-7 6-11 4h-12l-9-4-5-5-2-3v-11l6-7 10-5z" fill="#020000"/>
<path transform="translate(716,103)" d="m0 0 12 1 1 1v89l-1 2-12 1-1-1v-92z" fill="transparent"/>
<path transform="translate(1091,104)" d="m0 0h11l2 1v86l-1 5-9 1-4-1v-88z" fill="transparent"/>
<path transform="translate(1349,351)" d="m0 0h13l13 5 5 4 1 4-8 4-36 15-9 4h-5l-1-1 1-9 8-14 8-7z" fill="#040001"/>
<path transform="translate(0,549)" d="m0 0 4 4 5 10 9 13 8 8 14 10 10 4 2 3h-52z" fill="transparent"/>
<path transform="translate(2047,548)" d="m0 0h1v53h-52l4-3 15-8 12-11 9-11 6-10 4-9z" fill="transparent"/>
<path transform="translate(2e3)" d="m0 0h52v52l-3-4-8-14-8-10-9-9-11-7-12-5z" fill="transparent"/>
<path transform="translate(0)" d="m0 0h51l-3 3-12 7-11 8-12 12-6 10-6 11h-1z" fill="transparent"/>
<path transform="translate(843,116)" d="m0 0h11l7 3 5 5 2 5-1 8-7 8-5 2h-18l-2-3v-22l3-5z" fill="#020000"/>
<path transform="translate(1145,155)" d="m0 0h16l6 3 5 6 1 6-3 7-5 4-8 2h-12l-6-2-2-3-1-16 2-5z" fill="#030001"/>
<path transform="translate(1142,116)" d="m0 0h17l6 3 4 5v9l-4 6-2 2-4 1h-21l-1-1v-18l2-6z" fill="#030000"/>
</svg>
