<svg version="1.1" id="Layer_1" xmlns="http://www.w3.org/2000/svg" xmlns:xlink="http://www.w3.org/1999/xlink" x="0px" y="0px"
	 width="100%" viewBox="0 0 512 512" enable-background="new 0 0 512 512" xml:space="preserve">
<path fill="transparent" opacity="1.000000" stroke="none" 
	d="
M283.000000,513.000000 
	C188.689560,513.000000 94.879120,513.000000 1.034338,513.000000 
	C1.034338,342.397858 1.034338,171.795731 1.034338,1.096792 
	C171.560455,1.096792 342.121002,1.096792 512.840759,1.096792 
	C512.840759,171.666550 512.840759,342.333252 512.840759,513.000000 
	C436.462372,513.000000 359.981171,513.000000 283.000000,513.000000 
M411.637146,112.195816 
	C413.999054,114.537933 416.558838,116.714012 418.687622,119.251678 
	C426.735199,128.845047 442.852173,127.939232 451.037048,119.563507 
	C465.686066,104.572960 480.633179,89.873825 495.437347,75.034584 
	C496.334808,74.135033 497.071625,73.075226 497.883179,72.089981 
	C490.543854,76.071320 483.258148,79.650909 475.690033,74.985023 
	C470.186584,71.592064 465.782623,66.415810 461.228821,61.443787 
	C463.081757,59.544052 465.789001,57.935093 466.560883,55.667381 
	C467.430176,53.113510 466.555573,49.966026 466.439514,47.076748 
	C463.683838,47.191322 460.626282,46.601093 458.256317,47.616192 
	C455.825348,48.657440 454.066833,51.268658 451.418610,52.845688 
	C448.232880,49.681229 444.856567,46.683479 441.907501,43.312008 
	C437.802307,38.618828 435.708771,33.103256 437.629669,26.868376 
	C438.746246,23.244093 440.547241,19.830683 442.135712,16.098148 
	C441.564636,16.420055 440.956451,16.611200 440.555878,17.010616 
	C424.773438,32.748371 408.890411,48.388180 393.302551,64.316772 
	C387.068787,70.686790 385.581390,81.739197 390.230499,89.116341 
	C393.448212,94.222092 398.139313,98.399246 401.828064,103.579620 
	C391.875275,113.439850 381.922485,123.300087 371.360474,132.844208 
	C366.255676,128.438721 361.373688,123.735062 355.985321,119.709152 
	C350.258698,115.430466 344.052002,111.794289 337.752594,107.253853 
	C320.712921,96.510414 302.485077,88.144402 283.022980,83.279488 
	C268.837006,79.733452 254.183807,77.164696 239.608963,76.265022 
	C214.746719,74.730324 190.210190,77.404419 166.097275,84.735451 
	C144.844254,91.196999 125.028442,100.335503 106.871803,112.844711 
	C90.603874,124.052673 76.164764,137.394257 63.547581,152.787338 
	C47.450768,172.425583 35.168140,194.096542 27.000408,218.039566 
	C18.664324,242.476105 14.260769,267.604431 16.045528,293.534576 
	C16.754288,303.831879 17.605335,314.145874 19.039152,324.361389 
	C22.214724,346.986450 30.049526,368.071472 41.230228,388.680847 
	C53.524048,410.429901 68.593040,429.833466 87.592888,446.301941 
	C102.934769,459.599884 119.691856,470.419220 137.992233,478.993195 
	C167.806854,492.961731 199.159180,499.537262 232.076111,497.929352 
	C243.054016,497.393097 254.058594,496.481720 264.930603,494.909424 
	C282.281952,492.400055 298.878723,486.969177 314.750488,479.585388 
	C330.043274,472.470917 344.340332,463.749481 357.669006,453.242615 
	C372.519135,441.536377 385.687561,428.267517 396.824158,413.149445 
	C407.586243,398.539795 416.430237,382.763184 423.193481,365.754547 
	C431.552551,344.732666 436.426636,322.980621 437.824280,300.570862 
	C438.863098,283.914459 438.046600,267.207642 435.087036,250.635818 
	C432.118469,234.013596 427.445740,217.906570 420.686035,202.530731 
	C410.861694,180.183990 397.520416,159.994324 381.217529,141.462677 
	C391.159058,131.601196 401.100586,121.739723 411.637146,112.195816 
z"/>
<path fill="#D94743" opacity="1.000000" stroke="none" 
	d="
M380.881714,142.053467 
	C397.520416,159.994324 410.861694,180.183990 420.686035,202.530731 
	C427.445740,217.906570 432.118469,234.013596 435.087036,250.635818 
	C438.046600,267.207642 438.863098,283.914459 437.824280,300.570862 
	C436.426636,322.980621 431.552551,344.732666 423.193481,365.754547 
	C416.430237,382.763184 407.586243,398.539795 396.824158,413.149445 
	C385.687561,428.267517 372.519135,441.536377 357.669006,453.242615 
	C344.340332,463.749481 330.043274,472.470917 314.750488,479.585388 
	C298.878723,486.969177 282.281952,492.400055 264.930603,494.909424 
	C254.058594,496.481720 243.054016,497.393097 232.076111,497.929352 
	C199.159180,499.537262 167.806854,492.961731 137.992233,478.993195 
	C119.691856,470.419220 102.934769,459.599884 87.592888,446.301941 
	C68.593040,429.833466 53.524048,410.429901 41.559219,388.366211 
	C43.442451,388.621613 45.022251,389.130737 46.547131,389.770691 
	C72.319450,400.586517 99.268776,405.854340 127.341873,406.925110 
	C127.567123,406.947876 128.016068,406.999023 128.188019,407.284790 
	C171.842941,441.573608 220.416428,451.668152 273.110504,435.538239 
	C348.055511,412.597198 392.933777,338.420746 380.084595,261.014771 
	C376.098816,237.003632 367.102051,215.033539 352.173126,195.377747 
	C351.983551,194.839951 351.910095,194.525192 351.925720,193.714935 
	C351.943573,185.420105 351.937653,177.605515 352.081177,169.499664 
	C360.537354,160.860306 368.817444,152.485260 377.186707,144.200302 
	C378.166565,143.230316 379.638092,142.757004 380.881714,142.053467 
z"/>
<path fill="#F14F4A" opacity="1.000000" stroke="none" 
	d="
M127.116623,406.902313 
	C99.268776,405.854340 72.319450,400.586517 46.547131,389.770691 
	C45.022251,389.130737 43.442451,388.621613 41.521851,388.015991 
	C30.049526,368.071472 22.214724,346.986450 19.039152,324.361389 
	C17.605335,314.145874 16.754288,303.831879 16.045528,293.534576 
	C14.260769,267.604431 18.664324,242.476105 27.000408,218.039566 
	C35.168140,194.096542 47.450768,172.425583 63.547581,152.787338 
	C76.164764,137.394257 90.603874,124.052673 106.871803,112.844711 
	C125.028442,100.335503 144.844254,91.196999 166.097275,84.735451 
	C190.210190,77.404419 214.746719,74.730324 239.608963,76.265022 
	C254.183807,77.164696 268.837006,79.733452 283.022980,83.279488 
	C302.485077,88.144402 320.712921,96.510414 337.965698,107.935776 
	C342.162384,124.493843 346.145966,140.369980 349.966583,156.530701 
	C344.219543,162.319183 338.635406,167.823090 332.752258,173.140961 
	C294.688629,139.239105 250.674744,125.772339 200.759018,133.970200 
	C94.642624,151.398148 38.210217,270.791656 91.572983,364.066772 
	C100.943184,380.445374 113.116196,394.410217 127.116623,406.902313 
z"/>
<path fill="#4B4A49" opacity="1.000000" stroke="none" 
	d="
M333.051300,173.326996 
	C338.635406,167.823090 344.219543,162.319183 350.254822,156.353180 
	C357.074219,149.558594 363.476624,143.259750 369.774780,136.858353 
	C370.750885,135.866241 371.249969,134.404739 371.969666,133.160309 
	C381.922485,123.300087 391.875275,113.439850 402.333496,103.237778 
	C403.665985,102.372017 404.623901,101.979408 405.300873,101.304855 
	C420.249481,86.409798 435.179321,71.495796 450.059387,56.532368 
	C450.939941,55.646893 451.372833,54.316254 452.014038,53.192757 
	C454.066833,51.268658 455.825348,48.657440 458.256317,47.616192 
	C460.626282,46.601093 463.683838,47.191322 466.439514,47.076748 
	C466.555573,49.966026 467.430176,53.113510 466.560883,55.667381 
	C465.789001,57.935093 463.081757,59.544052 460.719910,61.773636 
	C459.259369,62.736176 458.170410,63.230999 457.376404,64.021950 
	C442.641510,78.700897 427.926605,93.400085 413.268341,108.155434 
	C412.279327,109.151031 411.772980,110.626152 411.042114,111.878250 
	C401.100586,121.739723 391.159058,131.601196 381.049622,141.758072 
	C379.638092,142.757004 378.166565,143.230316 377.186707,144.200302 
	C368.817444,152.485260 360.537354,160.860306 351.784515,169.664612 
	C347.782196,173.736465 344.226013,177.352112 340.394165,181.129929 
	C326.022156,195.476639 311.925812,209.661179 297.536682,224.004135 
	C282.756866,238.738815 268.269806,253.315063 253.488327,268.034393 
	C246.129944,275.214294 239.036652,282.222015 232.017456,289.303192 
	C229.437668,291.905762 226.612564,293.803345 223.438995,290.764618 
	C219.987640,287.459930 222.106110,284.590576 224.822891,281.871643 
	C231.979706,274.709137 239.035370,267.445526 246.426636,260.059021 
	C261.204773,245.324890 275.687592,230.753891 290.470337,216.035034 
	C304.863922,201.700455 318.957611,187.513733 333.051300,173.326996 
z"/>
<path fill="#0E9C4A" opacity="1.000000" stroke="none" 
	d="
M411.339630,112.037033 
	C411.772980,110.626152 412.279327,109.151031 413.268341,108.155434 
	C427.926605,93.400085 442.641510,78.700897 457.376404,64.021950 
	C458.170410,63.230999 459.259369,62.736176 460.549744,62.069069 
	C465.782623,66.415810 470.186584,71.592064 475.690033,74.985023 
	C483.258148,79.650909 490.543854,76.071320 497.883179,72.089981 
	C497.071625,73.075226 496.334808,74.135033 495.437347,75.034584 
	C480.633179,89.873825 465.686066,104.572960 451.037048,119.563507 
	C442.852173,127.939232 426.735199,128.845047 418.687622,119.251678 
	C416.558838,116.714012 413.999054,114.537933 411.339630,112.037033 
z"/>
<path fill="#0E9C4A" opacity="1.000000" stroke="none" 
	d="
M451.716309,53.019226 
	C451.372833,54.316254 450.939941,55.646893 450.059387,56.532368 
	C435.179321,71.495796 420.249481,86.409798 405.300873,101.304855 
	C404.623901,101.979408 403.665985,102.372017 402.505493,102.943634 
	C398.139313,98.399246 393.448212,94.222092 390.230499,89.116341 
	C385.581390,81.739197 387.068787,70.686790 393.302551,64.316772 
	C408.890411,48.388180 424.773438,32.748371 440.555878,17.010616 
	C440.956451,16.611200 441.564636,16.420055 442.135712,16.098148 
	C440.547241,19.830683 438.746246,23.244093 437.629669,26.868376 
	C435.708771,33.103256 437.802307,38.618828 441.907501,43.312008 
	C444.856567,46.683479 448.232880,49.681229 451.716309,53.019226 
z"/>
<path fill="#D94743" opacity="1.000000" stroke="none" 
	d="
M371.665070,133.002258 
	C371.249969,134.404739 370.750885,135.866241 369.774780,136.858353 
	C363.476624,143.259750 357.074219,149.558594 350.417786,156.068588 
	C346.145966,140.369980 342.162384,124.493843 338.116882,108.247635 
	C344.052002,111.794289 350.258698,115.430466 355.985321,119.709152 
	C361.373688,123.735062 366.255676,128.438721 371.665070,133.002258 
z"/>
<path fill="#E8F0F7" opacity="1.000000" stroke="none" 
	d="
M332.752258,173.140961 
	C318.957611,187.513733 304.863922,201.700455 290.204285,215.807983 
	C268.106995,197.381882 243.277222,189.120667 215.177109,192.942230 
	C178.274567,197.960922 151.915939,218.055023 138.436661,252.607376 
	C124.887611,287.338562 130.600220,320.222290 154.654541,348.896362 
	C174.110474,372.088867 199.814911,382.644043 229.876450,382.608276 
	C228.079819,383.972076 226.531937,385.259369 224.768372,386.087158 
	C194.125504,400.470093 161.764267,406.955719 128.016068,406.999023 
	C128.016068,406.999023 127.567123,406.947876 127.341873,406.925110 
	C113.116196,394.410217 100.943184,380.445374 91.572983,364.066772 
	C38.210217,270.791656 94.642624,151.398148 200.759018,133.970200 
	C250.674744,125.772339 294.688629,139.239105 332.752258,173.140961 
z"/>
<path fill="#D1D8DF" opacity="1.000000" stroke="none" 
	d="
M128.188019,407.284790 
	C161.764267,406.955719 194.125504,400.470093 224.768372,386.087158 
	C226.531937,385.259369 228.079819,383.972076 230.270050,382.509644 
	C231.894363,382.024933 232.976715,381.929230 234.482071,381.883118 
	C247.474869,380.935913 259.475067,377.704468 270.513855,371.663177 
	C298.977356,356.085785 316.256927,332.492676 320.948303,299.749115 
	C321.264160,298.618683 321.487427,297.799988 321.975098,296.752441 
	C325.234589,291.154968 328.569580,285.945343 331.167114,280.390839 
	C343.729004,253.529068 350.396484,225.164093 352.223907,195.616058 
	C367.102051,215.033539 376.098816,237.003632 380.084595,261.014771 
	C392.933777,338.420746 348.055511,412.597198 273.110504,435.538239 
	C220.416428,451.668152 171.842941,441.573608 128.188019,407.284790 
z"/>
<path fill="#E8F0F7" opacity="1.000000" stroke="none" 
	d="
M352.173126,195.377747 
	C350.396484,225.164093 343.729004,253.529068 331.167114,280.390839 
	C328.569580,285.945343 325.234589,291.154968 321.940735,296.283997 
	C323.636475,268.702454 315.870422,244.579651 297.829468,223.845703 
	C311.925812,209.661179 326.022156,195.476639 340.578857,181.429108 
	C344.660126,185.775787 348.281067,189.985474 351.901978,194.195175 
	C351.910095,194.525192 351.983551,194.839951 352.173126,195.377747 
z"/>
<path fill="#F0514C" opacity="1.000000" stroke="none" 
	d="
M351.925720,193.714935 
	C348.281067,189.985474 344.660126,185.775787 340.854492,181.266937 
	C344.226013,177.352112 347.782196,173.736465 351.635071,169.955872 
	C351.937653,177.605515 351.943573,185.420105 351.925720,193.714935 
z"/>
<path fill="#F1504B" opacity="1.000000" stroke="none" 
	d="
M297.536682,224.004120 
	C315.870422,244.579651 323.636475,268.702454 321.676331,296.512878 
	C321.487427,297.799988 321.264160,298.618683 320.732208,299.991211 
	C319.386902,302.049164 318.296051,303.519073 317.321777,305.062561 
	C304.172119,325.895111 287.936066,344.041168 268.399933,358.952942 
	C257.488586,367.281494 245.540161,374.251373 234.059067,381.833527 
	C232.976715,381.929230 231.894363,382.024933 230.418427,382.219299 
	C199.814911,382.644043 174.110474,372.088867 154.654541,348.896362 
	C130.600220,320.222290 124.887611,287.338562 138.436661,252.607376 
	C151.915939,218.055023 178.274567,197.960922 215.177109,192.942230 
	C243.277222,189.120667 268.106995,197.381882 289.904358,215.955841 
	C275.687592,230.753891 261.204773,245.324890 246.108154,259.881012 
	C244.502228,259.256073 243.538849,258.592316 242.513687,258.044098 
	C229.643387,251.161469 214.054001,253.368073 203.714737,263.518494 
	C193.355713,273.688324 190.764771,289.363373 197.320709,302.201996 
	C203.865494,315.018768 218.156555,322.331207 232.392227,319.801208 
	C256.159241,315.577271 268.038361,288.500641 253.782776,267.891327 
	C268.269806,253.315063 282.756866,238.738815 297.536682,224.004120 
z"/>
<path fill="#E8F0F7" opacity="1.000000" stroke="none" 
	d="
M253.488327,268.034393 
	C268.038361,288.500641 256.159241,315.577271 232.392227,319.801208 
	C218.156555,322.331207 203.865494,315.018768 197.320709,302.201996 
	C190.764771,289.363373 193.355713,273.688324 203.714737,263.518494 
	C214.054001,253.368073 229.643387,251.161469 242.513687,258.044098 
	C243.538849,258.592316 244.502228,259.256073 245.812820,260.044128 
	C239.035370,267.445526 231.979706,274.709137 224.822891,281.871643 
	C222.106110,284.590576 219.987640,287.459930 223.438995,290.764618 
	C226.612564,293.803345 229.437668,291.905762 232.017456,289.303192 
	C239.036652,282.222015 246.129944,275.214294 253.488327,268.034393 
z"/>
<path fill="#D94945" opacity="1.000000" stroke="none" 
	d="
M234.482071,381.883118 
	C245.540161,374.251373 257.488586,367.281494 268.399933,358.952942 
	C287.936066,344.041168 304.172119,325.895111 317.321777,305.062561 
	C318.296051,303.519073 319.386902,302.049164 320.639648,300.302979 
	C316.256927,332.492676 298.977356,356.085785 270.513855,371.663177 
	C259.475067,377.704468 247.474869,380.935913 234.482071,381.883118 
z"/>
</svg>
