<svg version="1.1" id="Layer_1" xmlns="http://www.w3.org/2000/svg" xmlns:xlink="http://www.w3.org/1999/xlink" x="0px" y="0px"
	 width="100%" viewBox="0 0 512 512" enable-background="new 0 0 512 512" xml:space="preserve">
<path fill="transparent" opacity="1.000000" stroke="none" 
	d="
M125.000000,513.000000 
	C83.686722,513.000000 42.373447,513.000000 1.030085,513.000000 
	C1.030085,342.436218 1.030085,171.872406 1.030085,1.000000 
	C89.353989,1.000000 177.708328,1.000000 266.612122,1.408695 
	C266.494995,2.202155 265.872131,2.780999 265.155304,2.942310 
	C255.785843,5.050795 246.403061,7.100199 236.641876,9.104011 
	C218.654678,14.560897 202.091995,22.357176 186.526566,32.212948 
	C172.588654,41.038197 159.762314,51.245743 148.544556,63.909222 
	C142.183441,63.548038 137.320602,65.485168 133.370026,70.071205 
	C122.186432,83.053703 113.342934,97.525993 106.112053,112.980507 
	C103.801109,117.919685 104.789772,123.103554 107.061691,128.338501 
	C104.989754,134.463455 102.331711,140.080078 101.134590,145.992508 
	C98.366539,159.663559 95.423347,173.400864 94.214111,187.256409 
	C93.069366,200.373016 92.672951,213.861664 94.442566,226.846649 
	C96.558266,242.371063 101.323677,257.534363 104.516647,272.915100 
	C102.932037,272.945953 101.697899,273.165833 100.623924,272.846710 
	C90.752235,269.913574 80.908302,266.887085 70.892990,263.573547 
	C65.265114,259.789337 59.625980,256.561859 54.381519,252.786133 
	C48.258644,248.378006 36.029243,247.912018 31.810841,257.684235 
	C26.627239,269.692444 21.198095,281.627655 16.763662,293.915131 
	C13.554720,302.806885 17.491522,312.126068 25.669035,316.039856 
	C40.176041,322.982910 55.799438,326.168976 71.785919,326.867249 
	C80.160698,327.233063 88.595375,326.227600 97.385406,325.914307 
	C99.809807,325.978180 101.851791,325.969147 103.588959,326.082397 
	C101.821747,327.446442 100.359360,328.688171 98.582565,330.074585 
	C84.991058,340.205353 70.028755,346.227448 53.575645,347.850342 
	C45.008873,348.695374 36.545582,358.086182 41.238987,368.713379 
	C44.834049,376.853638 47.698898,385.315369 51.257912,393.472931 
	C53.515465,398.647461 55.447140,404.555237 59.300888,408.312775 
	C66.216003,415.055267 74.953781,414.849060 83.586006,410.775513 
	C96.799255,404.540131 108.929985,396.591156 119.605850,386.685211 
	C124.967758,381.710022 129.301392,375.626617 134.416534,369.912964 
	C139.875412,361.532501 145.017822,353.283478 150.448730,345.183746 
	C163.527725,355.580719 176.318207,365.828339 188.959152,376.388733 
	C181.534912,383.396820 174.260208,390.092194 166.656219,396.927429 
	C165.741028,398.021881 165.205704,399.012146 164.561264,399.925446 
	C158.974106,407.843719 152.720215,415.373566 147.884995,423.725433 
	C131.935913,451.274109 124.947098,481.271667 125.000000,513.000000 
z"/>
<path fill="transparent" opacity="1.000000" stroke="none" 
	d="
M324.000000,0.999999 
	C386.963165,1.000000 449.926300,1.000000 512.944702,1.000000 
	C512.944702,171.666656 512.944702,342.333344 512.944702,513.000000 
	C497.585999,513.000000 482.261658,513.000000 466.468933,512.533203 
	C466.236572,494.159637 463.819458,476.539032 458.587677,459.492615 
	C455.495270,449.416840 450.905548,439.764191 446.539856,430.124725 
	C440.957703,417.799255 432.897278,407.054413 423.929077,396.577240 
	C416.495575,389.527039 409.183014,382.787720 402.041443,375.741638 
	C418.926086,364.752563 434.171417,352.461609 447.304993,337.398926 
	C463.268463,319.090637 475.632690,298.808167 484.405884,276.219025 
	C495.865936,246.711899 500.090240,216.293701 497.109863,184.731277 
	C495.262268,165.165131 491.036987,146.274155 484.015320,127.654984 
	C487.247437,121.433914 486.753265,115.513168 483.504486,110.109146 
	C476.432129,98.345078 469.011047,86.789780 461.677032,75.184189 
	C457.134521,67.995926 451.235748,63.052696 442.020081,63.533325 
	C434.783539,56.471481 428.001678,49.208675 420.269440,43.160931 
	C406.820160,32.641666 392.191956,23.835123 376.404236,17.197910 
	C362.045074,11.161260 347.279236,6.381828 331.823395,3.895377 
	C329.130035,3.462085 326.603546,1.991494 324.000000,0.999999 
z"/>
<path fill="#516A80" opacity="1.000000" stroke="none" 
	d="
M323.531342,0.999999 
	C326.603546,1.991494 329.130035,3.462085 331.823395,3.895377 
	C347.279236,6.381828 362.045074,11.161260 376.404236,17.197910 
	C392.191956,23.835123 406.820160,32.641666 420.269440,43.160931 
	C428.001678,49.208675 434.783539,56.471481 441.553833,63.600906 
	C419.711365,64.048584 398.308289,64.082657 376.631409,63.928299 
	C375.509583,62.723431 374.669128,61.700577 373.812347,60.691578 
	C367.381561,53.118229 359.342621,48.149017 349.320679,48.085831 
	C314.219055,47.864506 279.115051,48.019844 243.569595,48.011448 
	C238.939835,48.769085 234.083420,48.469372 230.711533,50.561855 
	C224.664322,54.314560 219.509705,59.505608 213.516586,64.084335 
	C208.699997,64.007645 204.348846,63.942150 200.156219,63.572952 
	C208.331573,50.508408 216.156906,37.621262 224.452454,25.044270 
	C228.155731,19.429707 232.804169,14.438552 237.023636,9.164458 
	C246.403061,7.100199 255.785843,5.050795 265.155304,2.942310 
	C265.872131,2.780999 266.494995,2.202155 267.080750,1.408695 
	C285.687561,1.000000 304.375122,1.000000 323.531342,0.999999 
z"/>
<path fill="#FDD2A4" opacity="1.000000" stroke="none" 
	d="
M424.049988,396.888123 
	C432.897278,407.054413 440.957703,417.799255 446.539856,430.124725 
	C450.905548,439.764191 455.495270,449.416840 458.587677,459.492615 
	C463.819458,476.539032 466.236572,494.159637 466.000244,512.533203 
	C444.645782,513.000000 423.291534,513.000000 401.379791,512.825562 
	C400.688629,512.420654 400.507355,512.237244 400.212463,511.630219 
	C400.130676,507.338959 400.108063,503.518341 400.100220,499.697693 
	C400.040253,470.463074 399.983185,441.228485 400.043365,411.749023 
	C400.243195,411.342316 400.324799,411.180511 400.734863,410.945435 
	C408.725525,406.210846 416.387756,401.549500 424.049988,396.888123 
z"/>
<path fill="#FED2A4" opacity="1.000000" stroke="none" 
	d="
M125.468658,513.000000 
	C124.947098,481.271667 131.935913,451.274109 147.884995,423.725433 
	C152.720215,415.373566 158.974106,407.843719 164.561264,399.925446 
	C165.205704,399.012146 165.741028,398.021881 166.817596,397.239594 
	C175.126785,401.946381 182.945312,406.480896 190.858948,411.257874 
	C191.015717,411.662689 191.077423,411.824982 191.073029,412.452637 
	C191.004608,446.278656 191.002304,479.639343 191.000000,513.000000 
	C169.312439,513.000000 147.624878,513.000000 125.468658,513.000000 
z"/>
<path fill="#516A80" opacity="1.000000" stroke="none" 
	d="
M399.925171,411.993866 
	C399.983185,441.228485 400.040253,470.463074 400.100220,499.697693 
	C400.108063,503.518341 400.130676,507.338959 400.123962,511.848663 
	C400.101501,512.537720 400.000000,513.000000 400.000000,513.000000 
	C369.645782,513.000000 339.291534,513.000000 308.615997,512.695679 
	C312.460449,506.198578 316.636383,500.012573 320.790161,493.811707 
	C335.924500,471.218933 351.051453,448.621185 366.430359,425.873016 
	C367.213379,425.144714 367.747253,424.568695 368.652496,423.974548 
	C379.324341,419.968872 389.624756,415.981354 399.925171,411.993866 
z"/>
<path fill="#516A80" opacity="1.000000" stroke="none" 
	d="
M191.468658,513.000000 
	C191.002304,479.639343 191.004608,446.278656 191.422760,412.515106 
	C198.042007,414.809387 204.159470,417.734650 210.481613,420.116638 
	C214.167099,421.505219 218.180176,422.024353 222.296356,423.108643 
	C223.343567,424.184662 224.140289,425.086609 225.043793,426.317810 
	C240.491180,449.421631 255.831787,472.196228 271.085785,495.316345 
	C267.332794,501.441223 263.666382,507.220612 260.000000,513.000000 
	C237.312439,513.000000 214.624878,513.000000 191.468658,513.000000 
z"/>
<path fill="#FE748F" opacity="1.000000" stroke="none" 
	d="
M260.468658,513.000000 
	C263.666382,507.220612 267.332794,501.441223 271.356262,495.133972 
	C274.961426,489.820374 278.283722,485.082947 281.439880,480.237366 
	C286.024597,473.198486 290.489502,466.081604 295.319580,458.870300 
	C300.806915,451.169525 305.980133,443.596436 311.364929,435.844055 
	C312.038940,435.098511 312.501404,434.532288 313.276611,434.231903 
	C321.438660,433.816467 329.369751,433.624542 337.116760,432.330566 
	C346.883453,430.699219 356.499878,428.168182 366.181152,426.025299 
	C351.051453,448.621185 335.924500,471.218933 320.790161,493.811707 
	C316.636383,500.012573 312.460449,506.198578 308.147339,512.695679 
	C292.312439,513.000000 276.624878,513.000000 260.468658,513.000000 
z"/>
<path fill="#FBBB87" opacity="1.000000" stroke="none" 
	d="
M400.250000,513.000000 
	C400.000000,513.000000 400.101501,512.537720 400.190002,512.319275 
	C400.507355,512.237244 400.688629,512.420654 400.911133,512.825562 
	C401.000000,513.000000 400.500000,513.000000 400.250000,513.000000 
z"/>
<path fill="#485C70" opacity="1.000000" stroke="none" 
	d="
M222.045868,422.934631 
	C218.180176,422.024353 214.167099,421.505219 210.481613,420.116638 
	C204.159470,417.734650 198.042007,414.809387 191.488861,412.049744 
	C191.077423,411.824982 191.015717,411.662689 190.925842,410.792572 
	C190.912308,399.972015 190.989578,389.858490 190.860519,379.747559 
	C190.844788,378.516449 189.719650,377.299500 189.108688,376.075989 
	C176.318207,365.828339 163.527725,355.580719 150.373993,344.836975 
	C142.952805,335.555878 135.894852,326.770905 128.738556,317.667908 
	C122.269279,305.767334 115.856827,294.207336 109.554802,282.587402 
	C107.845604,279.435944 106.470085,276.103485 104.941406,272.854095 
	C101.323677,257.534363 96.558266,242.371063 94.442566,226.846649 
	C92.672951,213.861664 93.069366,200.373016 94.214111,187.256409 
	C95.423347,173.400864 98.366539,159.663559 101.134590,145.992508 
	C102.331711,140.080078 104.989754,134.463455 107.349518,128.500824 
	C112.000267,134.909012 118.153809,137.509567 125.938049,137.370102 
	C137.242767,137.167603 148.554382,137.350037 159.805527,137.686401 
	C148.192871,160.534164 142.039017,184.486084 142.275467,209.776993 
	C142.444427,227.849197 149.852432,242.495483 166.156036,252.088654 
	C166.551422,252.516296 166.770187,252.766495 166.988708,253.461716 
	C167.194138,256.380493 167.212402,258.886688 167.634476,261.322937 
	C171.959229,286.284393 180.340073,309.785339 192.888351,331.824310 
	C205.521896,354.013062 221.728622,373.173859 241.086166,389.756012 
	C245.185562,393.267609 249.038452,397.066986 252.621765,400.720734 
	C241.029709,397.178497 229.641190,394.123779 218.668701,389.970123 
	C209.877258,386.642120 201.590988,381.979706 192.998688,377.713440 
	C192.692535,377.556519 192.468231,377.595703 192.243927,377.634888 
	C192.400452,377.853699 192.556992,378.072540 192.790497,378.629639 
	C202.593613,393.623535 212.319748,408.279083 222.045868,422.934631 
z"/>
<path fill="#FD5F7E" opacity="1.000000" stroke="none" 
	d="
M159.863068,137.368301 
	C148.554382,137.350037 137.242767,137.167603 125.938049,137.370102 
	C118.153809,137.509567 112.000267,134.909012 107.427040,128.126877 
	C104.789772,123.103554 103.801109,117.919685 106.112053,112.980507 
	C113.342934,97.525993 122.186432,83.053703 133.370026,70.071205 
	C137.320602,65.485168 142.183441,63.548038 149.010071,63.968903 
	C166.277420,64.040741 182.650192,64.121437 199.001953,64.564285 
	C198.688446,65.869408 198.521729,66.875443 198.085098,67.746132 
	C187.028519,89.794701 179.560669,113.085075 174.062897,137.114014 
	C174.085434,137.175537 174.110687,137.304108 173.638397,137.244720 
	C168.731766,137.246323 164.297424,137.307312 159.863068,137.368301 
z"/>
<path fill="#FD5F7E" opacity="1.000000" stroke="none" 
	d="
M134.100052,370.044373 
	C129.301392,375.626617 124.967758,381.710022 119.605850,386.685211 
	C108.929985,396.591156 96.799255,404.540131 83.586006,410.775513 
	C74.953781,414.849060 66.216003,415.055267 59.300888,408.312775 
	C55.447140,404.555237 53.515465,398.647461 51.257912,393.472931 
	C47.698898,385.315369 44.834049,376.853638 41.238987,368.713379 
	C36.545582,358.086182 45.008873,348.695374 53.575645,347.850342 
	C70.028755,346.227448 84.991058,340.205353 98.885902,330.239532 
	C105.684860,338.199738 111.593628,346.373322 118.136795,354.002808 
	C123.034218,359.713318 128.749146,364.722778 134.100052,370.044373 
z"/>
<path fill="#FF748F" opacity="1.000000" stroke="none" 
	d="
M97.003006,325.841431 
	C88.595375,326.227600 80.160698,327.233063 71.785919,326.867249 
	C55.799438,326.168976 40.176041,322.982910 25.669035,316.039856 
	C17.491522,312.126068 13.554720,302.806885 16.763662,293.915131 
	C21.198095,281.627655 26.627239,269.692444 31.810841,257.684235 
	C36.029243,247.912018 48.258644,248.378006 54.381519,252.786133 
	C59.625980,256.561859 65.265114,259.789337 70.892456,263.975800 
	C73.371010,272.128754 75.016304,279.861938 78.147537,286.937531 
	C83.975845,300.107697 90.669540,312.894836 97.003006,325.841431 
z"/>
<path fill="#475C70" opacity="1.000000" stroke="none" 
	d="
M199.022964,64.202133 
	C182.650192,64.121437 166.277420,64.040741 149.439133,63.900368 
	C159.762314,51.245743 172.588654,41.038197 186.526566,32.212948 
	C202.091995,22.357176 218.654678,14.560897 236.641876,9.104012 
	C232.804169,14.438552 228.155731,19.429707 224.452454,25.044270 
	C216.156906,37.621262 208.331573,50.508408 199.913422,63.657120 
	C199.349060,64.097366 199.186005,64.149750 199.022964,64.202133 
z"/>
<path fill="#FD5F7E" opacity="1.000000" stroke="none" 
	d="
M97.385406,325.914307 
	C90.669540,312.894836 83.975845,300.107697 78.147537,286.937531 
	C75.016304,279.861938 73.371010,272.128754 71.055748,264.290039 
	C80.908302,266.887085 90.752235,269.913574 100.623924,272.846710 
	C101.697899,273.165833 102.932037,272.945953 104.516647,272.915100 
	C106.470085,276.103485 107.845604,279.435944 109.554802,282.587402 
	C115.856827,294.207336 122.269279,305.767334 128.361298,317.687012 
	C120.019524,320.669495 111.956657,323.314789 103.893784,325.960114 
	C101.851791,325.969147 99.809807,325.978180 97.385406,325.914307 
z"/>
<path fill="#F9496E" opacity="1.000000" stroke="none" 
	d="
M103.588959,326.082397 
	C111.956657,323.314789 120.019524,320.669495 128.459656,318.005035 
	C135.894852,326.770905 142.952805,335.555878 150.085480,344.687653 
	C145.017822,353.283478 139.875412,361.532501 134.416534,369.912964 
	C128.749146,364.722778 123.034218,359.713318 118.136795,354.002808 
	C111.593628,346.373322 105.684860,338.199738 99.200302,330.094849 
	C100.359360,328.688171 101.821747,327.446442 103.588959,326.082397 
z"/>
<path fill="#FDBD87" opacity="1.000000" stroke="none" 
	d="
M188.959152,376.388733 
	C189.719650,377.299500 190.844788,378.516449 190.860519,379.747559 
	C190.989578,389.858490 190.912308,399.972015 190.830750,410.550079 
	C182.945312,406.480896 175.126785,401.946381 167.146881,397.099731 
	C174.260208,390.092194 181.534912,383.396820 188.959152,376.388733 
z"/>
<path fill="#516A80" opacity="1.000000" stroke="none" 
	d="
M253.004929,400.733765 
	C249.038452,397.066986 245.185562,393.267609 241.086166,389.756012 
	C221.728622,373.173859 205.521896,354.013062 192.888351,331.824310 
	C180.340073,309.785339 171.959229,286.284393 167.634476,261.322937 
	C167.212402,258.886688 167.194138,256.380493 167.345871,253.518616 
	C184.214737,261.652740 200.399902,260.896423 216.940918,252.578445 
	C251.043549,235.429260 287.157379,230.845596 324.745819,236.648102 
	C343.679718,239.570923 361.297394,246.174026 378.500793,254.480377 
	C406.692352,268.092194 439.996460,251.941727 447.196533,221.571991 
	C450.182770,208.975967 448.280334,196.392075 446.424225,183.884506 
	C443.983185,167.435059 438.001984,152.118423 431.292358,137.205124 
	C441.893005,137.168839 452.034729,136.753571 462.129028,137.268539 
	C471.108673,137.726624 478.419769,135.373154 483.841705,128.018005 
	C491.036987,146.274155 495.262268,165.165131 497.109863,184.731277 
	C500.090240,216.293701 495.865936,246.711899 484.405884,276.219025 
	C475.632690,298.808167 463.268463,319.090637 447.304993,337.398926 
	C434.171417,352.461609 418.926086,364.752563 401.721680,375.754822 
	C400.553070,376.529633 399.875275,376.984528 398.927551,377.361877 
	C398.426910,377.536224 398.196167,377.788116 397.971344,378.009827 
	C397.977264,377.979614 398.038635,377.975281 397.672089,377.967468 
	C377.450043,389.171417 356.296448,396.935791 333.603699,401.791382 
	C320.630981,402.902466 308.097168,404.876373 295.565674,404.861420 
	C282.698486,404.846069 269.833618,402.887421 256.674866,401.600067 
	C255.256302,401.191864 254.130615,400.962830 253.004929,400.733765 
z"/>
<path fill="#FE748F" opacity="1.000000" stroke="none" 
	d="
M484.015320,127.654984 
	C478.419769,135.373154 471.108673,137.726624 462.129028,137.268539 
	C452.034729,136.753571 441.893005,137.168839 430.846924,137.161758 
	C412.788391,137.091339 395.654785,137.038589 378.623535,136.590546 
	C379.551941,130.998169 380.888397,125.821159 381.093842,120.599655 
	C381.478027,110.834389 381.044403,101.039864 381.253815,91.263992 
	C381.454010,81.917435 381.195892,72.712776 376.905212,64.116737 
	C398.308289,64.082657 419.711365,64.048584 441.580688,63.946930 
	C451.235748,63.052696 457.134521,67.995926 461.677032,75.184189 
	C469.011047,86.789780 476.432129,98.345078 483.504486,110.109146 
	C486.753265,115.513168 487.247437,121.433914 484.015320,127.654984 
z"/>
<path fill="#FBBB87" opacity="1.000000" stroke="none" 
	d="
M399.197510,377.439453 
	C399.875275,376.984528 400.553070,376.529633 401.550659,376.061584 
	C409.183014,382.787720 416.495575,389.527039 423.929077,396.577271 
	C416.387756,401.549500 408.725525,406.210846 400.657837,410.481567 
	C400.231873,400.925385 400.262115,391.759094 400.146210,382.594696 
	C400.124268,380.858490 399.522278,379.129608 399.167267,377.415344 
	C399.146606,377.433319 399.197510,377.439453 399.197510,377.439453 
z"/>
<path fill="#879CAF" opacity="1.000000" stroke="none" 
	d="
M376.631409,63.928299 
	C381.195892,72.712776 381.454010,81.917435 381.253815,91.263992 
	C381.044403,101.039864 381.478027,110.834389 381.093842,120.599655 
	C380.888397,125.821159 379.551941,130.998169 378.419800,136.814011 
	C371.618011,149.226212 361.819122,156.557175 348.253204,156.800888 
	C323.835571,157.239609 299.403351,156.864853 274.800629,156.555389 
	C269.987823,151.589554 264.944611,147.230804 260.789795,142.146149 
	C246.940002,125.196869 239.565475,105.799026 238.885971,83.734406 
	C238.507309,71.439079 240.832489,59.719906 244.011948,48.032139 
	C279.115051,48.019844 314.219055,47.864506 349.320679,48.085831 
	C359.342621,48.149017 367.381561,53.118229 373.812347,60.691578 
	C374.669128,61.700577 375.509583,62.723431 376.631409,63.928299 
M336.797943,106.071526 
	C338.392029,102.718750 338.555176,98.997383 335.300110,97.152390 
	C332.794067,95.731979 328.699585,94.949593 326.225952,96.012283 
	C315.689850,100.538712 306.123657,99.171898 296.077454,94.204239 
	C283.167023,87.820290 269.979431,88.593529 257.426178,95.801147 
	C253.069763,98.302429 252.263397,101.845139 254.442841,105.921204 
	C256.523041,109.811676 260.293304,111.261116 264.597809,109.109337 
	C273.613068,104.602699 282.346619,105.196472 291.516724,108.863594 
	C297.752106,111.357117 304.376678,113.664734 310.986145,114.244949 
	C320.130493,115.047707 329.151917,113.251488 336.797943,106.071526 
z"/>
<path fill="#7B8FA4" opacity="1.000000" stroke="none" 
	d="
M243.569595,48.011448 
	C240.832489,59.719906 238.507309,71.439079 238.885971,83.734406 
	C239.565475,105.799026 246.940002,125.196869 260.789795,142.146149 
	C264.944611,147.230804 269.987823,151.589554 274.336761,156.613800 
	C265.717407,156.964005 257.367950,156.642563 249.057007,157.070175 
	C232.575836,157.918152 220.364975,151.412918 212.306152,136.561829 
	C211.209824,126.672157 209.526779,117.180313 209.376511,107.664268 
	C209.145218,93.017311 207.347534,78.067444 213.982040,64.095535 
	C219.509705,59.505608 224.664322,54.314560 230.711533,50.561855 
	C234.083420,48.469372 238.939835,48.769085 243.569595,48.011448 
z"/>
<path fill="#FF748F" opacity="1.000000" stroke="none" 
	d="
M213.516586,64.084335 
	C207.347534,78.067444 209.145218,93.017311 209.376511,107.664268 
	C209.526779,117.180313 211.209824,126.672157 211.799622,136.598938 
	C198.942184,137.032837 186.491272,137.042664 174.040359,137.052490 
	C179.560669,113.085075 187.028519,89.794701 198.085098,67.746132 
	C198.521729,66.875443 198.688446,65.869408 199.001953,64.564285 
	C199.186005,64.149750 199.349060,64.097366 199.754913,63.960823 
	C204.348846,63.942150 208.699997,64.007645 213.516586,64.084335 
z"/>
<path fill="#495C70" opacity="1.000000" stroke="none" 
	d="
M399.187927,377.397369 
	C399.522278,379.129608 400.124268,380.858490 400.146210,382.594696 
	C400.262115,391.759094 400.231873,400.925385 400.329407,410.554840 
	C400.324799,411.180511 400.243195,411.342316 400.043396,411.749023 
	C389.624756,415.981354 379.324341,419.968872 368.760284,423.666565 
	C377.608917,409.841827 386.742310,396.321014 395.802399,382.751282 
	C396.767426,381.305908 397.303558,379.574188 398.038635,377.975281 
	C398.038635,377.975281 397.977264,377.979614 398.336914,377.963196 
	C398.860352,377.763611 399.024109,377.580475 399.187927,377.397369 
z"/>
<path fill="#FC5F7E" opacity="1.000000" stroke="none" 
	d="
M397.672089,377.967468 
	C397.303558,379.574188 396.767426,381.305908 395.802399,382.751282 
	C386.742310,396.321014 377.608917,409.841827 368.388885,423.684692 
	C367.747253,424.568695 367.213379,425.144714 366.430328,425.873016 
	C356.499878,428.168182 346.883453,430.699219 337.116760,432.330566 
	C329.369751,433.624542 321.438660,433.816467 313.418976,433.921478 
	C320.180298,422.823792 327.111938,412.302368 334.043610,401.780914 
	C356.296448,396.935791 377.450043,389.171417 397.672089,377.967468 
z"/>
<path fill="#FC5F7E" opacity="1.000000" stroke="none" 
	d="
M295.005493,458.997986 
	C290.489502,466.081604 286.024597,473.198486 281.439880,480.237366 
	C278.283722,485.082947 274.961426,489.820374 271.442871,494.788483 
	C255.831787,472.196228 240.491180,449.421631 225.457886,426.322693 
	C237.548874,428.511841 249.277252,431.344940 261.140747,433.397003 
	C266.646881,434.349396 272.415863,433.782501 278.291321,434.077271 
	C278.984253,434.836609 279.451569,435.423004 280.044617,436.331543 
	C285.115417,444.101776 290.060455,451.549866 295.005493,458.997986 
z"/>
<path fill="#F84A6E" opacity="1.000000" stroke="none" 
	d="
M278.065674,433.904327 
	C272.415863,433.782501 266.646881,434.349396 261.140747,433.397003 
	C249.277252,431.344940 237.548874,428.511841 225.351105,425.993469 
	C224.140289,425.086609 223.343567,424.184662 222.296356,423.108673 
	C212.319748,408.279083 202.593613,393.623535 192.882446,378.534363 
	C192.897400,378.100769 193.080536,377.909485 193.080536,377.909485 
	C201.590988,381.979706 209.877258,386.642120 218.668701,389.970123 
	C229.641190,394.123779 241.029709,397.178497 252.621765,400.720764 
	C254.130615,400.962830 255.256302,401.191864 256.804352,401.931458 
	C264.173035,412.929443 271.119354,423.416870 278.065674,433.904327 
z"/>
<path fill="#FEBC86" opacity="1.000000" stroke="none" 
	d="
M278.291321,434.077271 
	C271.119354,423.416870 264.173035,412.929443 257.097229,402.110596 
	C269.833618,402.887421 282.698486,404.846069 295.565674,404.861420 
	C308.097168,404.876373 320.630981,402.902466 333.603699,401.791382 
	C327.111938,412.302368 320.180298,422.823792 313.106262,433.655670 
	C312.501404,434.532288 312.038940,435.098511 310.881073,435.831299 
	C300.096710,436.001678 290.007812,436.005524 279.918884,436.009399 
	C279.451569,435.423004 278.984253,434.836609 278.291321,434.077271 
z"/>
<path fill="#FED0A4" opacity="1.000000" stroke="none" 
	d="
M280.044617,436.331543 
	C290.007812,436.005524 300.096710,436.001678 310.669495,436.010620 
	C305.980133,443.596436 300.806915,451.169525 295.319580,458.870300 
	C290.060455,451.549866 285.115417,444.101776 280.044617,436.331543 
z"/>
<path fill="#FDD2A4" opacity="1.000000" stroke="none" 
	d="
M174.062897,137.114014 
	C186.491272,137.042664 198.942184,137.032837 211.899643,136.985916 
	C220.364975,151.412918 232.575836,157.918152 249.057007,157.070175 
	C257.367950,156.642563 265.717407,156.964005 274.513336,156.888336 
	C299.403351,156.864853 323.835571,157.239609 348.253204,156.800888 
	C361.819122,156.557175 371.618011,149.226212 378.317444,137.209305 
	C395.654785,137.038589 412.788391,137.091339 430.367371,137.187454 
	C438.001984,152.118423 443.983185,167.435059 446.424225,183.884506 
	C448.280334,196.392075 450.182770,208.975967 447.196533,221.571991 
	C439.996460,251.941727 406.692352,268.092194 378.500793,254.480377 
	C361.297394,246.174026 343.679718,239.570923 324.745819,236.648102 
	C287.157379,230.845596 251.043549,235.429260 216.940918,252.578445 
	C200.399902,260.896423 184.214737,261.652740 167.346130,253.073578 
	C166.770187,252.766495 166.551422,252.516296 166.162659,251.656555 
	C165.338608,241.152786 164.181458,231.258972 164.173157,221.364197 
	C164.165009,211.634598 164.835083,201.841431 166.073639,192.187286 
	C168.426086,173.850998 171.396790,155.594025 174.110687,137.304108 
	C174.110687,137.304108 174.085434,137.175537 174.062897,137.114014 
M380.591949,184.130234 
	C372.750061,186.260574 364.866089,188.249939 357.082458,190.575333 
	C352.573395,191.922470 350.492584,195.775986 351.545624,199.776245 
	C352.639374,203.931229 356.265472,206.205276 360.673279,205.464676 
	C362.368744,205.179794 364.051514,204.819427 366.036682,204.436218 
	C366.036682,208.623718 365.985321,212.269943 366.048523,215.914200 
	C366.146851,221.584732 369.049500,224.963364 373.752838,225.000916 
	C378.424316,225.038208 381.433777,221.693359 381.570648,216.002213 
	C381.696747,210.759674 381.597473,205.511719 381.597473,200.060028 
	C384.531281,199.221329 387.750214,198.428406 390.881989,197.376068 
	C395.590698,195.793839 397.797577,191.921234 396.540497,187.800278 
	C395.252411,183.577637 391.411102,181.524277 386.694946,182.590179 
	C384.916168,182.992203 383.163025,183.507706 380.591949,184.130234 
M212.748444,184.840714 
	C210.026031,184.105911 207.320145,183.301254 204.577591,182.651474 
	C199.580917,181.467667 195.685211,183.630066 194.503326,188.143890 
	C193.420975,192.277512 195.737793,195.961777 200.563705,197.503006 
	C203.686417,198.500305 206.878082,199.281677 209.617798,200.042831 
	C209.617798,205.985641 209.477554,211.439148 209.659058,216.881897 
	C209.824936,221.856033 212.932861,224.989822 217.262680,225.005341 
	C221.808548,225.021652 224.862610,221.728622 224.989761,216.487167 
	C225.085724,212.532059 225.008743,208.572784 225.008743,204.353577 
	C226.398026,204.617401 227.361145,204.783813 228.317093,204.984497 
	C234.586090,206.300674 238.606720,204.352173 239.682373,199.468124 
	C240.667938,194.993057 237.867050,191.576340 231.802963,189.920929 
	C225.723068,188.261246 219.633408,186.637344 212.748444,184.840714 
z"/>
<path fill="#FEBC87" opacity="1.000000" stroke="none" 
	d="
M173.638397,137.244720 
	C171.396790,155.594025 168.426086,173.850998 166.073639,192.187286 
	C164.835083,201.841431 164.165009,211.634598 164.173157,221.364197 
	C164.181458,231.258972 165.338608,241.152786 165.986053,251.479095 
	C149.852432,242.495483 142.444427,227.849197 142.275467,209.776993 
	C142.039017,184.486084 148.192871,160.534164 159.805527,137.686401 
	C164.297424,137.307312 168.731766,137.246323 173.638397,137.244720 
z"/>
<path fill="#F84A6E" opacity="1.000000" stroke="none" 
	d="
M192.805450,378.196045 
	C192.556992,378.072540 192.400452,377.853699 192.243927,377.634888 
	C192.468231,377.595703 192.692535,377.556519 192.998688,377.713440 
	C193.080536,377.909485 192.897400,378.100769 192.805450,378.196045 
z"/>
<path fill="#FC5F7E" opacity="1.000000" stroke="none" 
	d="
M399.167236,377.415344 
	C399.024109,377.580475 398.860352,377.763611 398.330994,377.993408 
	C398.196167,377.788116 398.426910,377.536224 398.927582,377.361877 
	C399.197510,377.439453 399.146606,377.433319 399.167236,377.415344 
z"/>
<path fill="#A5B6C4" opacity="1.000000" stroke="none" 
	d="
M336.627380,106.408173 
	C329.151917,113.251488 320.130493,115.047707 310.986145,114.244949 
	C304.376678,113.664734 297.752106,111.357117 291.516724,108.863594 
	C282.346619,105.196472 273.613068,104.602699 264.597809,109.109337 
	C260.293304,111.261116 256.523041,109.811676 254.442841,105.921204 
	C252.263397,101.845139 253.069763,98.302429 257.426178,95.801147 
	C269.979431,88.593529 283.167023,87.820290 296.077454,94.204239 
	C306.123657,99.171898 315.689850,100.538712 326.225952,96.012283 
	C328.699585,94.949593 332.794067,95.731979 335.300110,97.152390 
	C338.555176,98.997383 338.392029,102.718750 336.627380,106.408173 
z"/>
<path fill="#384453" opacity="1.000000" stroke="none" 
	d="
M380.995056,184.050842 
	C383.163025,183.507706 384.916168,182.992203 386.694946,182.590179 
	C391.411102,181.524277 395.252411,183.577637 396.540497,187.800278 
	C397.797577,191.921234 395.590698,195.793839 390.881989,197.376068 
	C387.750214,198.428406 384.531281,199.221329 381.597473,200.060028 
	C381.597473,205.511719 381.696747,210.759674 381.570648,216.002213 
	C381.433777,221.693359 378.424316,225.038208 373.752838,225.000916 
	C369.049500,224.963364 366.146851,221.584732 366.048523,215.914200 
	C365.985321,212.269943 366.036682,208.623718 366.036682,204.436218 
	C364.051514,204.819427 362.368744,205.179794 360.673279,205.464676 
	C356.265472,206.205276 352.639374,203.931229 351.545624,199.776245 
	C350.492584,195.775986 352.573395,191.922470 357.082458,190.575333 
	C364.866089,188.249939 372.750061,186.260574 380.995056,184.050842 
z"/>
<path fill="#364352" opacity="1.000000" stroke="none" 
	d="
M213.148239,184.919235 
	C219.633408,186.637344 225.723068,188.261246 231.802963,189.920929 
	C237.867050,191.576340 240.667938,194.993057 239.682373,199.468124 
	C238.606720,204.352173 234.586090,206.300674 228.317093,204.984497 
	C227.361145,204.783813 226.398026,204.617401 225.008743,204.353577 
	C225.008743,208.572784 225.085724,212.532059 224.989761,216.487167 
	C224.862610,221.728622 221.808548,225.021652 217.262680,225.005341 
	C212.932861,224.989822 209.824936,221.856033 209.659058,216.881897 
	C209.477554,211.439148 209.617798,205.985641 209.617798,200.042831 
	C206.878082,199.281677 203.686417,198.500305 200.563705,197.503006 
	C195.737793,195.961777 193.420975,192.277512 194.503326,188.143890 
	C195.685211,183.630066 199.580917,181.467667 204.577591,182.651474 
	C207.320145,183.301254 210.026031,184.105911 213.148239,184.919235 
z"/>
</svg>
