<svg version="1.1" id="Layer_1" xmlns="http://www.w3.org/2000/svg" xmlns:xlink="http://www.w3.org/1999/xlink" x="0px" y="0px"
	 width="100%" viewBox="0 0 2000 2000" enable-background="new 0 0 2000 2000" xml:space="preserve">
<path  opacity="1.000000" stroke="none" 
	d="
M1310.000000,0.999999 
	C1540.319580,1.000000 1770.639160,1.000000 2000.979370,1.000000 
	C2000.979370,667.613098 2000.979370,1334.226196 2000.979370,2000.919678 
	C1334.426758,2000.919678 667.853455,2000.919678 1.140083,2000.919678 
	C1.140083,1334.333374 1.140083,667.666687 1.140083,1.000000 
	C8.766301,1.000000 16.432245,1.000000 24.640385,1.331375 
	C77.542763,81.025490 129.890945,160.396164 182.272110,239.745041 
	C194.458359,258.205231 206.756927,276.591248 219.064240,295.350281 
	C226.714691,307.235596 234.179382,318.866913 241.927002,330.306580 
	C251.295517,344.139557 261.925476,356.915802 274.847168,368.069153 
	C291.160675,382.701385 308.770447,394.816681 329.096863,403.350586 
	C345.244568,410.575500 361.632965,415.943146 379.226929,418.590759 
	C387.026642,419.534485 394.488129,420.290741 402.278198,421.221741 
	C404.365173,421.370148 406.123596,421.343842 408.340149,421.447540 
	C428.725159,421.592560 448.652039,421.642670 468.578796,421.605530 
	C476.701355,421.590393 484.823608,421.386078 493.394165,421.425232 
	C515.261963,421.519287 536.681641,421.455872 558.462280,421.543335 
	C559.844360,421.592407 560.865356,421.490570 562.315063,421.484650 
	C564.200195,421.517151 565.656677,421.453766 567.548523,421.544556 
	C576.611450,421.589874 585.239075,421.480957 594.297607,421.469971 
	C596.193237,421.500275 597.657898,421.432678 599.535645,421.523132 
	C602.586304,421.573730 605.223938,421.466309 608.310669,421.459412 
	C611.204163,421.489136 613.648560,421.418365 616.382568,421.497162 
	C617.082275,421.546478 617.492371,421.446228 618.364746,421.450806 
	C629.208618,421.454498 639.590210,421.353394 650.412109,421.419556 
	C661.630859,421.514801 672.409302,421.442810 683.619263,421.516602 
	C697.959473,421.553802 711.868164,421.445190 726.166138,421.451813 
	C727.353027,421.483887 728.150574,421.400726 729.397339,421.473602 
	C737.814331,421.530396 745.782166,421.431152 754.216309,421.455872 
	C759.786865,421.484894 764.890991,421.389984 770.437378,421.451324 
	C771.710754,421.640930 772.541931,421.703278 773.373047,421.703369 
	C852.114563,421.714355 930.856079,421.722992 1009.597595,421.708893 
	C1011.074524,421.708649 1012.551392,421.436218 1014.479370,421.419067 
	C1074.991577,421.589874 1135.052612,421.634247 1195.113647,421.657898 
	C1196.092529,421.658295 1197.071533,421.404694 1198.494019,421.409088 
	C1253.981689,421.587036 1309.025879,421.627594 1364.069946,421.647430 
	C1365.048340,421.647797 1366.026733,421.399750 1367.454712,421.405396 
	C1412.288452,421.574463 1456.672485,421.608215 1501.056641,421.621033 
	C1502.035645,421.621338 1503.014771,421.383331 1504.442139,421.400818 
	C1558.113770,421.545135 1611.337036,421.545135 1665.285278,421.545135 
	C1663.988892,419.476135 1663.184204,418.078583 1662.273315,416.754059 
	C1615.347412,348.521606 1568.412354,280.295410 1521.478394,212.068466 
	C1516.649902,205.049591 1511.823242,198.029572 1506.930908,190.670654 
	C1478.307983,149.378220 1449.934814,108.294502 1421.111328,67.529213 
	C1407.375366,48.102306 1388.856689,33.896206 1367.953613,22.168678 
	C1352.880981,13.718611 1337.222168,7.649788 1320.693970,3.814271 
	C1317.104858,2.981399 1313.563354,1.943480 1310.000000,0.999999 
z"/>
<path fill="#E52D2F" opacity="1.000000" stroke="none" 
	d="
M1367.005127,421.267609 
	C1366.026733,421.399750 1365.048340,421.647797 1364.069946,421.647430 
	C1309.025879,421.627594 1253.981689,421.587036 1198.478027,421.049255 
	C1197.361206,416.323792 1196.229614,412.105713 1196.157715,407.869629 
	C1196.049805,401.508789 1196.755249,395.137787 1196.978149,388.766296 
	C1197.115845,384.831970 1197.018921,380.888641 1196.992798,376.949554 
	C1196.953125,370.956268 1196.776733,364.961761 1196.859741,358.970520 
	C1196.928833,353.983551 1196.440430,348.780701 1197.666992,344.054535 
	C1202.604370,325.032349 1208.379150,306.227448 1213.310791,287.203918 
	C1216.415649,275.227295 1218.403809,262.965485 1221.220581,250.908157 
	C1222.839722,243.977036 1225.229004,237.229813 1227.068604,230.345535 
	C1232.662964,209.411438 1238.126099,188.442307 1243.706909,167.504562 
	C1246.303955,157.761047 1249.273071,148.111984 1251.669067,138.321075 
	C1253.703857,130.006348 1248.641235,120.919952 1241.428345,118.430725 
	C1242.620850,114.456177 1243.727051,110.871513 1244.980591,106.809303 
	C1230.115356,106.809303 1215.717163,106.783447 1201.319092,106.823883 
	C1196.530518,106.837334 1190.579590,105.335907 1187.286377,107.608368 
	C1184.099487,109.807518 1183.653076,115.972717 1181.981934,120.387947 
	C1181.873291,120.675346 1181.584473,120.894554 1181.041748,120.911888 
	C1179.120361,114.140030 1177.180786,107.684303 1179.754150,100.857460 
	C1180.473022,98.950203 1180.049072,96.566872 1179.962036,94.409515 
	C1179.691406,87.700569 1179.105835,80.996712 1179.062378,74.288155 
	C1179.009521,66.129234 1179.457397,57.968338 1179.546387,49.806747 
	C1179.602173,44.695118 1179.381226,39.580830 1179.311157,34.467369 
	C1179.234741,28.880306 1179.182983,23.292873 1179.131592,17.705496 
	C1179.080444,12.137065 1179.043335,6.568504 1179.000000,1.000000 
	C1222.354248,1.000000 1265.708496,1.000000 1309.531372,0.999999 
	C1313.563354,1.943480 1317.104858,2.981399 1320.693970,3.814271 
	C1337.222168,7.649788 1352.880981,13.718611 1367.800781,22.597675 
	C1367.594116,25.028151 1367.058594,26.806919 1367.040283,28.590992 
	C1366.950195,37.343239 1367.049194,46.097439 1366.957275,54.849644 
	C1366.936646,56.807430 1365.921021,58.839016 1366.217651,60.700497 
	C1367.205444,66.899582 1367.713257,72.884872 1366.265259,79.231567 
	C1365.361572,83.192299 1366.816528,87.691147 1367.213013,91.948509 
	C1367.314209,93.563774 1366.484863,95.466850 1366.952881,96.964447 
	C1369.317383,104.530411 1363.491211,112.347336 1367.769409,119.813278 
	C1367.953247,120.134293 1367.058960,120.941330 1367.003418,121.552505 
	C1366.607788,125.907227 1364.714111,131.005005 1366.318481,134.465759 
	C1369.041138,140.339066 1366.429077,145.609879 1366.560913,151.045975 
	C1366.841187,162.598663 1365.682739,174.185501 1365.160522,185.760406 
	C1365.132446,186.383530 1365.615723,187.012634 1365.720459,187.661621 
	C1366.369385,191.681412 1368.430054,196.211411 1367.250732,199.610641 
	C1365.590942,204.395096 1365.525269,207.996887 1368.444824,210.954208 
	C1367.599121,213.333344 1366.629150,215.002747 1366.445435,216.754608 
	C1365.399048,226.734924 1370.480957,236.887497 1365.618408,246.787018 
	C1365.408569,247.214264 1365.199341,247.825592 1365.346680,248.217087 
	C1367.778931,254.685257 1367.140625,261.368256 1367.081543,268.071899 
	C1367.013184,275.832855 1367.814331,283.600189 1367.786499,291.363159 
	C1367.748413,301.980103 1367.179199,312.594116 1367.033447,323.212067 
	C1366.892944,333.464447 1367.036377,343.720459 1366.971191,353.974365 
	C1366.957642,356.112885 1366.311890,358.262421 1366.418823,360.383636 
	C1366.655396,365.075073 1367.221802,369.749054 1367.573486,374.436127 
	C1367.681641,375.876892 1367.628662,377.347656 1367.475464,378.786163 
	C1367.192993,381.437347 1366.521484,384.071320 1366.485962,386.718842 
	C1366.434204,390.567017 1367.511230,394.562897 1366.776611,398.229187 
	C1366.140381,401.403778 1365.625610,404.003174 1367.703247,406.689117 
	C1368.041870,407.126831 1367.936401,407.977936 1367.894043,408.628723 
	C1367.619751,412.843109 1367.306030,417.054932 1367.005127,421.267609 
z"/>
<path fill="#FD4F53" opacity="1.000000" stroke="none" 
	d="
M1014.028320,421.290802 
	C1012.551392,421.436218 1011.074524,421.708649 1009.597595,421.708893 
	C930.856079,421.722992 852.114563,421.714355 773.373047,421.703369 
	C772.541931,421.703278 771.710754,421.640930 770.448975,421.119141 
	C770.097656,414.869446 770.194458,409.108368 770.249817,403.346863 
	C770.284180,399.767609 770.208008,396.186981 770.266724,392.608368 
	C770.360535,386.892761 770.781433,381.169373 770.581421,375.466187 
	C770.412659,370.655609 769.417053,365.878326 769.102600,361.065704 
	C769.020874,359.815216 769.758118,358.023041 770.730957,357.267944 
	C779.668823,350.330353 789.480469,345.116333 800.723938,342.991791 
	C811.104309,341.030334 821.461060,338.908722 831.892151,337.263184 
	C838.898560,336.157898 846.003662,335.414917 853.088379,335.152649 
	C858.853577,334.939209 864.671936,336.095245 870.432617,335.848389 
	C874.101257,335.691162 877.930237,334.568756 881.300049,333.030731 
	C891.099609,328.558075 892.857361,313.927490 891.670227,305.451508 
	C890.391724,296.324402 886.307373,289.524078 876.658813,286.669678 
	C876.488403,282.690063 876.488403,279.077850 876.488403,275.000641 
	C873.879456,275.000641 871.914795,275.003937 869.950134,275.000214 
	C841.961487,274.946808 813.972839,274.892456 785.988281,274.425781 
	C786.104675,269.817474 784.885559,264.932617 786.622131,261.577728 
	C789.696289,255.638779 795.856018,252.900757 802.604187,251.985626 
	C811.277222,250.809433 819.928284,249.469986 828.602539,248.303589 
	C837.282288,247.136459 845.962769,245.935043 854.674072,245.058060 
	C860.201172,244.501633 866.147156,240.102631 868.209167,234.933121 
	C870.677429,228.744797 870.472229,222.619781 868.644531,216.405991 
	C867.326843,211.926285 864.636597,208.842957 859.654663,207.581284 
	C859.487976,201.560730 859.487976,195.978500 859.487976,189.846497 
	C832.814148,189.846497 806.899536,189.846497 780.991821,189.402908 
	C781.026123,175.024689 783.716187,171.140488 797.015320,167.220078 
	C801.398254,165.928040 806.053345,165.394363 810.626343,164.941010 
	C828.169250,163.201797 845.733032,161.673828 863.278076,159.955292 
	C865.353882,159.751968 867.538879,159.194580 869.371277,158.228561 
	C877.467163,153.960541 881.142578,141.567612 876.628967,133.643311 
	C875.940063,132.433884 874.103760,131.878052 872.634705,130.579895 
	C872.471252,122.542320 872.471252,114.944756 872.471252,106.847214 
	C869.822571,106.847214 867.864319,106.853882 865.906128,106.846176 
	C845.598694,106.766273 825.291199,106.684074 804.974121,106.256760 
	C801.613037,103.226364 798.231323,100.578331 794.925659,97.838501 
	C793.653564,96.784096 791.595093,95.570061 791.531982,94.344414 
	C791.107178,86.095215 790.940491,77.820160 791.085266,69.560402 
	C791.142639,66.289192 792.208923,63.035679 792.815857,59.774105 
	C792.018066,56.403519 791.460449,52.841190 791.449280,49.277145 
	C791.429749,43.054218 791.941345,36.828003 791.870117,30.607290 
	C791.790955,23.691002 791.174438,16.781437 791.065735,9.864641 
	C791.019348,6.915385 791.667480,3.955211 792.000000,1.000000 
	C851.354248,1.000000 910.708435,1.000000 970.530151,1.468603 
	C970.665466,10.201531 969.336609,18.585150 970.307129,26.693573 
	C971.127930,33.551590 966.451355,40.368458 970.672852,47.000889 
	C970.796875,47.195854 970.489746,47.624889 970.491394,47.944233 
	C970.512451,52.046547 970.794678,56.165890 970.505371,60.245083 
	C970.306335,63.052803 969.906982,66.140251 968.552124,68.503555 
	C966.494995,72.091721 965.112366,75.064560 968.810242,78.356621 
	C972.216187,81.388771 971.119751,85.588287 969.473999,88.385429 
	C968.080627,90.753502 968.867493,91.473839 969.603699,93.364227 
	C970.554382,95.805603 970.486694,98.695946 970.440735,101.385849 
	C970.436462,101.634491 967.414673,101.767159 965.818970,102.080696 
	C965.040405,102.233688 963.819824,102.511505 963.649292,103.018593 
	C961.878723,108.285202 957.407043,106.725128 953.262085,107.046722 
	C932.232910,106.982132 911.648193,106.982132 890.433655,106.982132 
	C893.733032,117.583099 896.742249,127.535843 899.928467,137.431595 
	C907.241882,160.145889 914.636963,182.833908 922.007568,205.529755 
	C930.024658,230.216003 938.034058,254.904770 946.081909,279.580963 
	C949.635437,290.476868 953.536255,301.267090 956.796509,312.248627 
	C959.561768,321.562592 959.254456,321.653839 967.906006,322.790466 
	C970.471191,332.394257 978.055176,336.774475 985.631042,340.545868 
	C992.347839,343.889587 999.747498,345.861969 1006.846741,348.436859 
	C1011.308716,350.055206 1013.945374,353.058472 1013.994629,357.965332 
	C1014.032288,361.718292 1013.915833,365.474152 1014.013916,369.224884 
	C1014.272888,379.124268 1014.809937,389.020721 1014.852905,398.919983 
	C1014.885315,406.375580 1014.324890,413.833771 1014.028320,421.290802 
z"/>
<path fill="#FC2323" opacity="1.000000" stroke="none" 
	d="
M492.945984,421.267822 
	C484.823608,421.386078 476.701355,421.590393 468.578796,421.605530 
	C448.652039,421.642670 428.725159,421.592560 408.016296,421.276398 
	C405.472748,420.999176 403.711182,421.023102 401.949646,421.046997 
	C394.488129,420.290741 387.026642,419.534485 379.291504,418.151215 
	C379.346069,408.997467 379.823669,400.473206 379.963654,391.943390 
	C380.128967,381.870483 380.109406,371.791138 379.957794,361.717804 
	C379.880646,356.593170 379.015747,351.472046 379.071014,346.355438 
	C379.200195,334.404938 379.794830,322.459595 379.939575,310.509033 
	C379.995483,305.892548 379.074005,301.267944 379.066406,296.646240 
	C379.045166,283.679413 379.291931,270.712372 379.376923,257.745026 
	C379.397034,254.677368 379.130524,251.608658 379.111938,248.539734 
	C379.073181,242.133530 379.006531,235.724503 379.149567,229.321060 
	C379.280670,223.451904 379.927277,217.586792 379.886292,211.723114 
	C379.832458,204.023804 379.031097,196.325684 379.082733,188.630600 
	C379.170135,175.598389 379.738586,162.570053 379.957214,149.537613 
	C380.012299,146.253006 379.266968,142.956207 379.305176,139.669846 
	C379.429504,128.964691 379.746948,118.261795 379.985077,107.557922 
	C379.992432,107.226547 379.937866,106.894234 379.922852,106.561874 
	C379.620178,99.860611 379.044067,93.157593 379.085266,86.458382 
	C379.140472,77.491989 379.930847,68.528519 379.929840,59.563847 
	C379.928864,50.698967 379.091919,41.834591 379.076019,32.969181 
	C379.061829,25.076963 379.699066,17.184713 379.986267,9.290203 
	C380.086670,6.530289 380.000793,3.763597 380.000000,1.000000 
	C412.354218,1.000000 444.708466,1.000000 477.532532,1.437304 
	C477.678070,5.155517 477.036530,8.441656 477.090485,11.716329 
	C477.236481,20.568867 477.729523,29.415073 477.980927,38.266743 
	C478.105835,42.664619 477.828217,47.077690 478.047424,51.468166 
	C478.312439,56.775578 479.882690,62.209347 479.129181,67.329582 
	C478.091705,74.379395 476.941711,81.020912 478.586884,88.291115 
	C479.651794,92.997040 480.500824,99.238518 473.178375,101.668694 
	C471.127075,102.349464 469.700012,104.911102 467.529358,106.697067 
	C463.173370,106.784164 459.274628,106.784164 455.390686,106.784164 
	C455.390686,179.017990 455.390686,250.364471 455.390686,321.921692 
	C457.738983,322.089691 459.862549,322.241608 461.986328,322.778015 
	C462.358643,330.073517 465.724213,335.352570 471.033722,339.506073 
	C477.004852,344.177155 482.523926,349.818787 489.195099,353.089172 
	C495.549408,356.204315 493.790009,360.622253 493.771729,365.139038 
	C493.750549,370.363892 493.319763,375.596008 493.498444,380.810150 
	C493.657104,385.440399 494.924347,390.066193 494.784180,394.665985 
	C494.513611,403.543671 493.595581,412.401672 492.945984,421.267822 
z"/>
<path fill="#FE4043" opacity="1.000000" stroke="none" 
	d="
M683.187744,421.370789 
	C672.409302,421.442810 661.630859,421.514801 650.416260,421.031921 
	C650.317932,413.523712 650.611938,406.567902 651.012451,399.618225 
	C651.205444,396.269501 651.682190,392.937073 651.870789,389.588257 
	C651.982239,387.608276 651.740845,385.610931 651.730103,383.621002 
	C651.707947,379.527039 651.770203,375.432404 651.731323,371.338684 
	C651.683350,366.289368 652.604675,360.915253 651.154541,356.294220 
	C649.984863,352.566803 650.275635,350.196198 652.686584,347.895355 
	C655.115295,345.577484 658.817810,344.195160 660.429565,341.489807 
	C667.243591,330.052612 672.171082,317.981018 672.053284,304.196564 
	C671.575195,248.253174 671.472473,192.306107 670.811890,136.365341 
	C670.726624,129.145630 667.108582,122.551926 660.684204,117.662788 
	C660.509155,114.016777 660.509155,110.734650 660.509155,106.613014 
	C643.665405,106.613014 627.322144,106.613014 610.981201,106.168610 
	C610.990601,99.740532 610.892761,93.754425 611.030457,87.773750 
	C611.218811,79.591812 611.753479,71.415588 611.830566,63.233990 
	C611.909851,54.817501 611.634094,46.397209 611.482422,37.979149 
	C611.377625,32.161716 611.042969,26.342527 611.132446,20.529068 
	C611.232544,14.016469 611.695129,7.509448 612.000000,1.000000 
	C653.354248,1.000000 694.708435,1.000000 736.583374,1.411247 
	C737.402771,3.776259 737.933167,5.727077 737.958008,7.684326 
	C738.044861,14.511446 737.974182,21.340908 737.927490,28.169235 
	C737.906433,31.246784 737.818848,34.324276 737.729736,37.400875 
	C737.559509,43.279633 737.169983,49.159504 737.223083,55.035736 
	C737.341919,68.181541 738.092773,81.339096 737.660767,94.461403 
	C737.536865,98.226868 738.342773,99.013535 741.286377,100.426605 
	C743.906677,101.684517 745.789856,104.477753 747.537842,106.685791 
	C732.521729,106.778236 717.966187,106.778236 703.472778,106.778236 
	C703.472778,179.052032 703.472778,250.406540 703.472778,322.224365 
	C761.209961,322.224365 818.627869,322.224365 876.020874,322.591125 
	C875.122253,327.549133 871.311340,327.701447 867.919006,327.945343 
	C852.412842,329.060333 836.814331,329.326508 821.398926,331.158813 
	C802.438904,333.412415 783.640076,337.000671 764.747620,339.853149 
	C751.349792,341.875977 739.046326,346.400787 727.896545,355.435425 
	C727.896545,360.183197 727.882019,365.535004 727.901978,370.886658 
	C727.914001,374.117401 727.964600,377.348175 728.026367,380.578430 
	C728.066162,382.657104 728.172485,384.734406 728.223511,386.812958 
	C728.502380,398.172852 728.773376,409.532959 729.010437,420.996338 
	C728.973755,421.099701 728.948181,421.317596 728.948181,421.317566 
	C728.150574,421.400726 727.353027,421.483887 725.809692,421.305634 
	C711.105286,421.153076 697.146484,421.261932 683.187744,421.370789 
z"/>
<path fill="#CC1818" opacity="1.000000" stroke="none" 
	d="
M219.003830,295.011383 
	C206.756927,276.591248 194.458359,258.205231 182.272110,239.745041 
	C129.890945,160.396164 77.542763,81.025490 25.091290,1.331375 
	C89.687561,1.000000 154.375122,1.000000 219.531342,1.432200 
	C220.001007,7.106394 219.912109,12.350247 220.020554,17.590017 
	C220.300522,31.117393 220.751724,44.641602 220.971039,58.169727 
	C221.122055,67.484657 221.019760,76.804070 220.994308,86.121376 
	C220.970139,94.971344 220.979263,103.822556 220.828156,112.670746 
	C220.625534,124.537735 220.173126,136.401276 220.058548,148.268524 
	C220.017197,152.551086 220.840942,156.836472 220.919098,161.126953 
	C221.053085,168.481781 220.964523,175.842300 220.874283,183.199249 
	C220.662155,200.494614 220.361374,217.788940 220.165298,235.084457 
	C220.092758,241.481277 220.132889,247.882019 220.271164,254.277725 
	C220.378433,259.240265 220.814285,264.195587 220.928452,269.158173 
	C221.052811,274.564270 220.717712,279.992188 221.075882,285.377777 
	C221.310303,288.902710 221.890594,292.260284 219.003830,295.011383 
z"/>
<path fill="#E31C1C" opacity="1.000000" stroke="none" 
	d="
M328.863586,403.082031 
	C308.770447,394.816681 291.160675,382.701385 274.933685,367.569214 
	C275.233948,360.849030 275.792480,354.901978 275.922729,348.945526 
	C276.103088,340.697021 275.959412,332.441498 275.958466,324.188965 
	C275.957977,319.753845 276.125000,315.310242 275.889221,310.887909 
	C275.798615,309.188019 274.223236,307.502289 274.320526,305.869446 
	C274.625061,300.758453 275.862793,295.678772 275.895996,290.581451 
	C275.950531,282.213654 275.153656,273.843079 275.083588,265.470612 
	C275.039856,260.242889 275.972046,255.007141 275.930237,249.779282 
	C275.865356,241.659119 275.143951,233.544006 275.085449,225.423996 
	C275.046173,219.973495 275.988281,214.515076 275.934479,209.065704 
	C275.820648,197.528046 275.149658,185.995117 275.083130,174.458069 
	C275.040619,167.088486 275.856476,159.717575 275.957489,152.342743 
	C276.117218,140.682327 275.968231,129.017960 276.023254,117.355621 
	C276.036346,114.580658 276.590546,111.795219 276.460175,109.035179 
	C276.136658,102.187668 275.331604,95.358376 275.143158,88.510117 
	C274.882233,79.029449 275.014740,69.538078 274.965790,60.051361 
	C274.954254,57.813271 274.736603,55.564873 274.889130,53.340103 
	C275.090515,50.404037 275.820770,47.490955 275.870331,44.560326 
	C276.005463,36.572266 276.013916,28.578009 275.858917,20.590355 
	C275.732147,14.057141 275.297913,7.529893 275.000000,1.000000 
	C293.354218,1.000000 311.708466,1.000000 330.531342,1.455780 
	C331.000061,9.490897 330.942078,17.070923 331.032074,24.649193 
	C331.063110,27.265676 332.109650,30.016840 331.583008,32.468166 
	C329.116180,43.951084 330.329163,55.497612 330.573975,67.015182 
	C330.831299,79.121094 332.748566,91.352982 331.511017,103.277710 
	C330.543457,112.601555 331.136566,121.717232 331.010956,130.923538 
	C330.948120,135.529449 330.923828,140.138535 331.021210,144.743240 
	C331.120361,149.430954 331.671997,154.123596 331.530365,158.799072 
	C331.171600,170.642471 330.265259,182.473648 330.099182,194.317032 
	C329.975983,203.098953 330.743988,211.890335 330.983215,220.681091 
	C331.374207,235.047028 331.905182,249.415695 331.915833,263.783569 
	C331.926056,277.573578 331.260468,291.362671 331.060516,305.154663 
	C330.905640,315.836395 331.006287,326.521942 331.001770,337.205780 
	C330.996552,349.536682 330.985626,361.867584 331.012207,374.198425 
	C331.018127,376.945160 331.209381,379.691101 331.241974,382.438263 
	C331.268097,384.639801 330.692261,386.975098 331.243835,389.018921 
	C332.635071,394.174042 331.983337,398.786713 328.863586,403.082031 
z"/>
<path fill="#ED1F1F" opacity="1.000000" stroke="none" 
	d="
M329.096863,403.350586 
	C331.983337,398.786713 332.635071,394.174042 331.243835,389.018921 
	C330.692261,386.975098 331.268097,384.639801 331.241974,382.438263 
	C331.209381,379.691101 331.018127,376.945160 331.012207,374.198425 
	C330.985626,361.867584 330.996552,349.536682 331.001770,337.205780 
	C331.006287,326.521942 330.905640,315.836395 331.060516,305.154663 
	C331.260468,291.362671 331.926056,277.573578 331.915833,263.783569 
	C331.905182,249.415695 331.374207,235.047028 330.983215,220.681091 
	C330.743988,211.890335 329.975983,203.098953 330.099182,194.317032 
	C330.265259,182.473648 331.171600,170.642471 331.530365,158.799072 
	C331.671997,154.123596 331.120361,149.430954 331.021210,144.743240 
	C330.923828,140.138535 330.948120,135.529449 331.010956,130.923538 
	C331.136566,121.717232 330.543457,112.601555 331.511017,103.277710 
	C332.748566,91.352982 330.831299,79.121094 330.573975,67.015182 
	C330.329163,55.497612 329.116180,43.951084 331.583008,32.468166 
	C332.109650,30.016840 331.063110,27.265676 331.032074,24.649193 
	C330.942078,17.070923 331.000061,9.490897 331.000000,1.455780 
	C347.020905,1.000000 363.041779,1.000000 379.531342,1.000000 
	C380.000793,3.763597 380.086670,6.530289 379.986267,9.290203 
	C379.699066,17.184713 379.061829,25.076963 379.076019,32.969181 
	C379.091919,41.834591 379.928864,50.698967 379.929840,59.563847 
	C379.930847,68.528519 379.140472,77.491989 379.085266,86.458382 
	C379.044067,93.157593 379.620178,99.860611 379.922852,106.561874 
	C379.937866,106.894234 379.992432,107.226547 379.985077,107.557922 
	C379.746948,118.261795 379.429504,128.964691 379.305176,139.669846 
	C379.266968,142.956207 380.012299,146.253006 379.957214,149.537613 
	C379.738586,162.570053 379.170135,175.598389 379.082733,188.630600 
	C379.031097,196.325684 379.832458,204.023804 379.886292,211.723114 
	C379.927277,217.586792 379.280670,223.451904 379.149567,229.321060 
	C379.006531,235.724503 379.073181,242.133530 379.111938,248.539734 
	C379.130524,251.608658 379.397034,254.677368 379.376923,257.745026 
	C379.291931,270.712372 379.045166,283.679413 379.066406,296.646240 
	C379.074005,301.267944 379.995483,305.892548 379.939575,310.509033 
	C379.794830,322.459595 379.200195,334.404938 379.071014,346.355438 
	C379.015747,351.472046 379.880646,356.593170 379.957794,361.717804 
	C380.109406,371.791138 380.128967,381.870483 379.963654,391.943390 
	C379.823669,400.473206 379.346069,408.997467 378.953308,417.963745 
	C361.632965,415.943146 345.244568,410.575500 329.096863,403.350586 
z"/>
<path fill="#FD2F30" opacity="1.000000" stroke="none" 
	d="
M611.531372,1.000000 
	C611.695129,7.509448 611.232544,14.016469 611.132446,20.529068 
	C611.042969,26.342527 611.377625,32.161716 611.482422,37.979149 
	C611.634094,46.397209 611.909851,54.817501 611.830566,63.233990 
	C611.753479,71.415588 611.218811,79.591812 611.030457,87.773750 
	C610.892761,93.754425 610.990601,99.740532 610.528809,106.250519 
	C606.981262,106.776833 603.888367,106.776833 600.409546,106.776833 
	C600.409546,109.273666 600.409485,111.077980 600.409546,112.882294 
	C600.410828,146.279160 600.417603,179.676010 600.399841,213.072876 
	C600.398804,215.054413 600.201416,217.035858 599.833008,218.999985 
	C599.395447,218.982498 599.220154,218.982361 598.765747,218.799774 
	C568.947815,182.972733 539.358398,147.369781 509.948914,111.618881 
	C507.018799,108.056938 504.082855,106.593407 499.449097,106.727119 
	C488.971436,107.029442 478.475250,106.688980 467.986603,106.609970 
	C469.700012,104.911102 471.127075,102.349464 473.178375,101.668694 
	C480.500824,99.238518 479.651794,92.997040 478.586884,88.291115 
	C476.941711,81.020912 478.091705,74.379395 479.129181,67.329582 
	C479.882690,62.209347 478.312439,56.775578 478.047424,51.468166 
	C477.828217,47.077690 478.105835,42.664619 477.980927,38.266743 
	C477.729523,29.415073 477.236481,20.568867 477.090485,11.716329 
	C477.036530,8.441656 477.678070,5.155517 478.001190,1.437304 
	C522.354248,1.000000 566.708435,1.000000 611.531372,1.000000 
z"/>
<path fill="#F64449" opacity="1.000000" stroke="none" 
	d="
M953.706543,107.111313 
	C957.407043,106.725128 961.878723,108.285202 963.649292,103.018593 
	C963.819824,102.511505 965.040405,102.233688 965.818970,102.080696 
	C967.414673,101.767159 970.436462,101.634491 970.440735,101.385849 
	C970.486694,98.695946 970.554382,95.805603 969.603699,93.364227 
	C968.867493,91.473839 968.080627,90.753502 969.473999,88.385429 
	C971.119751,85.588287 972.216187,81.388771 968.810242,78.356621 
	C965.112366,75.064560 966.494995,72.091721 968.552124,68.503555 
	C969.906982,66.140251 970.306335,63.052803 970.505371,60.245083 
	C970.794678,56.165890 970.512451,52.046547 970.491394,47.944233 
	C970.489746,47.624889 970.796875,47.195854 970.672852,47.000889 
	C966.451355,40.368458 971.127930,33.551590 970.307129,26.693573 
	C969.336609,18.585150 970.665466,10.201531 970.998779,1.468603 
	C1011.687561,1.000000 1052.375122,1.000000 1093.531006,1.407026 
	C1093.997803,10.572480 1094.124146,19.333323 1093.958618,28.088646 
	C1093.798828,36.538960 1093.056030,44.984406 1093.080933,53.430485 
	C1093.111938,63.955353 1093.712158,74.477547 1093.975586,85.003166 
	C1094.094971,89.769203 1093.943604,94.541489 1094.014404,99.309464 
	C1094.055176,102.043388 1093.378540,103.660004 1090.118286,103.688759 
	C1089.075806,103.697952 1088.049927,105.584320 1086.556519,106.713234 
	C1072.766113,106.827042 1059.434326,106.947937 1046.106323,106.773697 
	C1042.868774,106.731369 1041.515991,107.794296 1040.523315,110.852371 
	C1032.778687,134.711075 1024.834106,158.504852 1016.965515,182.323395 
	C1010.912964,200.644882 1004.888672,218.975693 998.828491,237.294632 
	C998.224060,239.121674 997.457092,240.894958 996.470459,243.460617 
	C988.110229,216.938156 979.991882,191.268661 971.930725,165.581192 
	C965.818237,146.103088 959.778564,126.602119 953.706543,107.111313 
z"/>
<path fill="#D81A1A" opacity="1.000000" stroke="none" 
	d="
M274.531342,1.000000 
	C275.297913,7.529893 275.732147,14.057141 275.858917,20.590355 
	C276.013916,28.578009 276.005463,36.572266 275.870331,44.560326 
	C275.820770,47.490955 275.090515,50.404037 274.889130,53.340103 
	C274.736603,55.564873 274.954254,57.813271 274.965790,60.051361 
	C275.014740,69.538078 274.882233,79.029449 275.143158,88.510117 
	C275.331604,95.358376 276.136658,102.187668 276.460175,109.035179 
	C276.590546,111.795219 276.036346,114.580658 276.023254,117.355621 
	C275.968231,129.017960 276.117218,140.682327 275.957489,152.342743 
	C275.856476,159.717575 275.040619,167.088486 275.083130,174.458069 
	C275.149658,185.995117 275.820648,197.528046 275.934479,209.065704 
	C275.988281,214.515076 275.046173,219.973495 275.085449,225.423996 
	C275.143951,233.544006 275.865356,241.659119 275.930237,249.779282 
	C275.972046,255.007141 275.039856,260.242889 275.083588,265.470612 
	C275.153656,273.843079 275.950531,282.213654 275.895996,290.581451 
	C275.862793,295.678772 274.625061,300.758453 274.320526,305.869446 
	C274.223236,307.502289 275.798615,309.188019 275.889221,310.887909 
	C276.125000,315.310242 275.957977,319.753845 275.958466,324.188965 
	C275.959412,332.441498 276.103088,340.697021 275.922729,348.945526 
	C275.792480,354.901978 275.233948,360.849030 274.779907,367.300232 
	C261.925476,356.915802 251.295517,344.139557 241.927002,330.306580 
	C234.179382,318.866913 226.714691,307.235596 219.064240,295.350281 
	C221.890594,292.260284 221.310303,288.902710 221.075882,285.377777 
	C220.717712,279.992188 221.052811,274.564270 220.928452,269.158173 
	C220.814285,264.195587 220.378433,259.240265 220.271164,254.277725 
	C220.132889,247.882019 220.092758,241.481277 220.165298,235.084457 
	C220.361374,217.788940 220.662155,200.494614 220.874283,183.199249 
	C220.964523,175.842300 221.053085,168.481781 220.919098,161.126953 
	C220.840942,156.836472 220.017197,152.551086 220.058548,148.268524 
	C220.173126,136.401276 220.625534,124.537735 220.828156,112.670746 
	C220.979263,103.822556 220.970139,94.971344 220.994308,86.121376 
	C221.019760,76.804070 221.122055,67.484657 220.971039,58.169727 
	C220.751724,44.641602 220.300522,31.117393 220.020554,17.590017 
	C219.912109,12.350247 220.001007,7.106394 220.000000,1.432200 
	C238.020889,1.000000 256.041779,1.000000 274.531342,1.000000 
z"/>
<path fill="#ED393C" opacity="1.000000" stroke="none" 
	d="
M1087.016479,106.611794 
	C1088.049927,105.584320 1089.075806,103.697952 1090.118286,103.688759 
	C1093.378540,103.660004 1094.055176,102.043388 1094.014404,99.309464 
	C1093.943604,94.541489 1094.094971,89.769203 1093.975586,85.003166 
	C1093.712158,74.477547 1093.111938,63.955353 1093.080933,53.430485 
	C1093.056030,44.984406 1093.798828,36.538960 1093.958618,28.088646 
	C1094.124146,19.333323 1093.997803,10.572480 1093.999634,1.407026 
	C1122.020874,1.000000 1150.041870,1.000000 1178.531250,1.000000 
	C1179.043335,6.568504 1179.080444,12.137065 1179.131592,17.705496 
	C1179.182983,23.292873 1179.234741,28.880306 1179.311157,34.467369 
	C1179.381226,39.580830 1179.602173,44.695118 1179.546387,49.806747 
	C1179.457397,57.968338 1179.009521,66.129234 1179.062378,74.288155 
	C1179.105835,80.996712 1179.691406,87.700569 1179.962036,94.409515 
	C1180.049072,96.566872 1180.473022,98.950203 1179.754150,100.857460 
	C1177.180786,107.684303 1179.120361,114.140030 1181.024658,121.307457 
	C1168.239746,162.596237 1155.134399,203.255859 1141.654541,245.077530 
	C1140.772461,242.371521 1140.298584,240.966614 1139.855835,239.551941 
	C1127.250610,199.293091 1114.648315,159.033325 1102.046631,118.773376 
	C1100.905396,115.126869 1100.819092,110.155029 1098.344604,108.195229 
	C1095.767334,106.153931 1090.888794,107.018013 1087.016479,106.611794 
z"/>
<path fill="#F64449" opacity="1.000000" stroke="none" 
	d="
M747.998352,106.593361 
	C745.789856,104.477753 743.906677,101.684517 741.286377,100.426605 
	C738.342773,99.013535 737.536865,98.226868 737.660767,94.461403 
	C738.092773,81.339096 737.341919,68.181541 737.223083,55.035736 
	C737.169983,49.159504 737.559509,43.279633 737.729736,37.400875 
	C737.818848,34.324276 737.906433,31.246784 737.927490,28.169235 
	C737.974182,21.340908 738.044861,14.511446 737.958008,7.684326 
	C737.933167,5.727077 737.402771,3.776259 737.052063,1.411247 
	C755.020874,1.000000 773.041809,1.000000 791.531372,1.000000 
	C791.667480,3.955211 791.019348,6.915385 791.065735,9.864641 
	C791.174438,16.781437 791.790955,23.691002 791.870117,30.607290 
	C791.941345,36.828003 791.429749,43.054218 791.449280,49.277145 
	C791.460449,52.841190 792.018066,56.403519 792.815857,59.774105 
	C792.208923,63.035679 791.142639,66.289192 791.085266,69.560402 
	C790.940491,77.820160 791.107178,86.095215 791.531982,94.344414 
	C791.595093,95.570061 793.653564,96.784096 794.925659,97.838501 
	C798.231323,100.578331 801.613037,103.226364 804.513916,106.343567 
	C785.375061,106.715210 766.686707,106.654289 747.998352,106.593361 
z"/>
<path fill="#DC2121" opacity="1.000000" stroke="none" 
	d="
M1367.454712,421.405396 
	C1367.306030,417.054932 1367.619751,412.843109 1367.894043,408.628723 
	C1367.936401,407.977936 1368.041870,407.126831 1367.703247,406.689117 
	C1365.625610,404.003174 1366.140381,401.403778 1366.776611,398.229187 
	C1367.511230,394.562897 1366.434204,390.567017 1366.485962,386.718842 
	C1366.521484,384.071320 1367.192993,381.437347 1367.475464,378.786163 
	C1367.628662,377.347656 1367.681641,375.876892 1367.573486,374.436127 
	C1367.221802,369.749054 1366.655396,365.075073 1366.418823,360.383636 
	C1366.311890,358.262421 1366.957642,356.112885 1366.971191,353.974365 
	C1367.036377,343.720459 1366.892944,333.464447 1367.033447,323.212067 
	C1367.179199,312.594116 1367.748413,301.980103 1367.786499,291.363159 
	C1367.814331,283.600189 1367.013184,275.832855 1367.081543,268.071899 
	C1367.140625,261.368256 1367.778931,254.685257 1365.346680,248.217087 
	C1365.199341,247.825592 1365.408569,247.214264 1365.618408,246.787018 
	C1370.480957,236.887497 1365.399048,226.734924 1366.445435,216.754608 
	C1366.629150,215.002747 1367.599121,213.333344 1368.444824,210.954208 
	C1365.525269,207.996887 1365.590942,204.395096 1367.250732,199.610641 
	C1368.430054,196.211411 1366.369385,191.681412 1365.720459,187.661621 
	C1365.615723,187.012634 1365.132446,186.383530 1365.160522,185.760406 
	C1365.682739,174.185501 1366.841187,162.598663 1366.560913,151.045975 
	C1366.429077,145.609879 1369.041138,140.339066 1366.318481,134.465759 
	C1364.714111,131.005005 1366.607788,125.907227 1367.003418,121.552505 
	C1367.058960,120.941330 1367.953247,120.134293 1367.769409,119.813278 
	C1363.491211,112.347336 1369.317383,104.530411 1366.952881,96.964447 
	C1366.484863,95.466850 1367.314209,93.563774 1367.213013,91.948509 
	C1366.816528,87.691147 1365.361572,83.192299 1366.265259,79.231567 
	C1367.713257,72.884872 1367.205444,66.899582 1366.217651,60.700497 
	C1365.921021,58.839016 1366.936646,56.807430 1366.957275,54.849644 
	C1367.049194,46.097439 1366.950195,37.343239 1367.040283,28.590992 
	C1367.058594,26.806919 1367.594116,25.028151 1368.043945,22.817936 
	C1388.856689,33.896206 1407.375366,48.102306 1421.111328,67.529213 
	C1449.934814,108.294502 1478.307983,149.378220 1506.775391,190.988434 
	C1504.569580,194.429428 1503.277954,197.262024 1505.252930,200.783920 
	C1505.713623,201.605423 1505.051392,202.986801 1505.164429,204.083954 
	C1506.282959,214.949982 1501.561523,225.562180 1503.912842,236.533188 
	C1504.681641,240.119858 1504.188354,243.961884 1504.472290,247.671814 
	C1504.769897,251.561417 1505.462524,255.424728 1505.661499,259.315948 
	C1505.736572,260.781860 1504.443115,262.338806 1504.581055,263.776764 
	C1505.086060,269.038605 1506.593384,274.283051 1506.473267,279.505280 
	C1506.337036,285.432739 1505.106201,291.381775 1503.868408,297.219025 
	C1503.168213,300.520447 1500.923828,303.699097 1505.331177,306.029755 
	C1505.547485,306.144165 1505.682251,306.619476 1505.673950,306.921783 
	C1505.462280,314.640594 1505.166748,322.357727 1505.033325,330.077698 
	C1504.996094,332.224609 1505.462646,334.376740 1505.627686,336.531891 
	C1505.727417,337.833405 1505.702881,339.145203 1505.713623,340.452576 
	C1505.736206,343.212402 1506.053345,346.012390 1505.700317,348.724396 
	C1504.770874,355.864319 1508.435913,363.519989 1504.128540,369.138428 
	C1504.868286,373.173370 1505.908447,376.260254 1505.903320,379.345398 
	C1505.891602,386.219757 1504.731567,393.136932 1505.207642,399.955109 
	C1505.712158,407.183807 1505.870117,414.234894 1503.993774,421.256500 
	C1503.014771,421.383331 1502.035645,421.621338 1501.056641,421.621033 
	C1456.672485,421.608215 1412.288452,421.574463 1367.454712,421.405396 
z"/>
<path fill="#ED393C" opacity="1.000000" stroke="none" 
	d="
M1014.479431,421.419067 
	C1014.324890,413.833771 1014.885315,406.375580 1014.852905,398.919983 
	C1014.809937,389.020721 1014.272888,379.124268 1014.013916,369.224884 
	C1013.915833,365.474152 1014.032288,361.718292 1013.994629,357.965332 
	C1013.945374,353.058472 1011.308716,350.055206 1006.846741,348.436859 
	C999.747498,345.861969 992.347839,343.889587 985.631042,340.545868 
	C978.055176,336.774475 970.471191,332.394257 968.334229,322.736755 
	C986.209534,322.239960 1003.699036,322.097290 1021.185913,322.253448 
	C1024.593994,322.283905 1026.013794,321.280182 1027.064453,318.022675 
	C1034.917725,293.675385 1042.994263,269.400085 1050.998169,245.101349 
	C1056.748535,227.643784 1062.494995,210.184921 1068.504272,191.933868 
	C1069.218506,193.971497 1069.684814,195.191086 1070.076050,196.434311 
	C1082.796753,236.852371 1095.517700,277.270325 1108.206909,317.698242 
	C1109.027710,320.313293 1109.631836,322.314850 1113.342529,322.270111 
	C1132.827393,322.035187 1152.316772,322.113098 1171.804077,322.195099 
	C1174.393311,322.205963 1175.486206,321.395874 1176.312134,318.826782 
	C1188.109863,282.131042 1200.041138,245.478195 1211.972046,208.825394 
	C1221.740112,178.816666 1231.550537,148.821701 1241.342041,118.820625 
	C1248.641235,120.919952 1253.703857,130.006348 1251.669067,138.321075 
	C1249.273071,148.111984 1246.303955,157.761047 1243.706909,167.504562 
	C1238.126099,188.442307 1232.662964,209.411438 1227.068604,230.345535 
	C1225.229004,237.229813 1222.839722,243.977036 1221.220581,250.908157 
	C1218.403809,262.965485 1216.415649,275.227295 1213.310791,287.203918 
	C1208.379150,306.227448 1202.604370,325.032349 1197.666992,344.054535 
	C1196.440430,348.780701 1196.928833,353.983551 1196.859741,358.970520 
	C1196.776733,364.961761 1196.953125,370.956268 1196.992798,376.949554 
	C1197.018921,380.888641 1197.115845,384.831970 1196.978149,388.766296 
	C1196.755249,395.137787 1196.049805,401.508789 1196.157715,407.869629 
	C1196.229614,412.105713 1197.361206,416.323792 1198.034424,420.909790 
	C1197.071533,421.404694 1196.092529,421.658295 1195.113647,421.657898 
	C1135.052612,421.634247 1074.991577,421.589874 1014.479431,421.419067 
z"/>
<path fill="#FD2F30" opacity="1.000000" stroke="none" 
	d="
M660.859253,118.026680 
	C667.108582,122.551926 670.726624,129.145630 670.811890,136.365341 
	C671.472473,192.306107 671.575195,248.253174 672.053284,304.196564 
	C672.171082,317.981018 667.243591,330.052612 660.429565,341.489807 
	C658.817810,344.195160 655.115295,345.577484 652.686584,347.895355 
	C650.275635,350.196198 649.984863,352.566803 651.154541,356.294220 
	C652.604675,360.915253 651.683350,366.289368 651.731323,371.338684 
	C651.770203,375.432404 651.707947,379.527039 651.730103,383.621002 
	C651.740845,385.610931 651.982239,387.608276 651.870789,389.588257 
	C651.682190,392.937073 651.205444,396.269501 651.012451,399.618225 
	C650.611938,406.567902 650.317932,413.523712 649.975891,420.864655 
	C639.590210,421.353394 629.208618,421.454498 618.209656,421.319489 
	C617.092468,421.171448 616.592651,421.259521 616.092896,421.347626 
	C613.648560,421.418365 611.204163,421.489136 607.983765,421.295380 
	C604.512634,421.142273 601.817627,421.253693 599.122559,421.365112 
	C597.657898,421.432678 596.193237,421.500275 593.941589,421.297852 
	C584.474121,421.148712 575.793640,421.269562 567.113159,421.390381 
	C565.656677,421.453766 564.200195,421.517151 562.076660,421.329041 
	C560.306824,421.182526 559.204041,421.287506 558.101257,421.392456 
	C536.681641,421.455872 515.261963,421.519287 493.394165,421.425232 
	C493.595581,412.401672 494.513611,403.543671 494.784180,394.665985 
	C494.924347,390.066193 493.657104,385.440399 493.498444,380.810150 
	C493.319763,375.596008 493.750549,370.363892 493.771729,365.139038 
	C493.790009,360.622253 495.549408,356.204315 489.195099,353.089172 
	C482.523926,349.818787 477.004852,344.177155 471.033722,339.506073 
	C465.724213,335.352570 462.358643,330.073517 462.445740,322.675537 
	C480.174866,322.188538 497.444794,322.188538 515.195923,322.188538 
	C515.195923,284.130737 515.195923,246.625946 515.195923,208.090881 
	C517.188110,210.376770 518.494141,211.812073 519.731445,213.304443 
	C548.952881,248.551575 578.148560,283.820099 607.446960,319.003082 
	C608.665771,320.466766 610.819336,322.019897 612.559509,322.045715 
	C627.880676,322.273438 643.206848,322.170715 658.531494,322.128571 
	C659.125122,322.126923 659.717712,321.748718 660.286011,321.554443 
	C660.360657,320.698486 660.468262,320.037415 660.468689,319.376251 
	C660.498779,275.570007 660.489197,231.763733 660.554810,187.957550 
	C660.589722,164.647156 660.753601,141.336960 660.859253,118.026680 
z"/>
<path fill="#D81A1A" opacity="1.000000" stroke="none" 
	d="
M1504.442139,421.400818 
	C1505.870117,414.234894 1505.712158,407.183807 1505.207642,399.955109 
	C1504.731567,393.136932 1505.891602,386.219757 1505.903320,379.345398 
	C1505.908447,376.260254 1504.868286,373.173370 1504.128540,369.138428 
	C1508.435913,363.519989 1504.770874,355.864319 1505.700317,348.724396 
	C1506.053345,346.012390 1505.736206,343.212402 1505.713623,340.452576 
	C1505.702881,339.145203 1505.727417,337.833405 1505.627686,336.531891 
	C1505.462646,334.376740 1504.996094,332.224609 1505.033325,330.077698 
	C1505.166748,322.357727 1505.462280,314.640594 1505.673950,306.921783 
	C1505.682251,306.619476 1505.547485,306.144165 1505.331177,306.029755 
	C1500.923828,303.699097 1503.168213,300.520447 1503.868408,297.219025 
	C1505.106201,291.381775 1506.337036,285.432739 1506.473267,279.505280 
	C1506.593384,274.283051 1505.086060,269.038605 1504.581055,263.776764 
	C1504.443115,262.338806 1505.736572,260.781860 1505.661499,259.315948 
	C1505.462524,255.424728 1504.769897,251.561417 1504.472290,247.671814 
	C1504.188354,243.961884 1504.681641,240.119858 1503.912842,236.533188 
	C1501.561523,225.562180 1506.282959,214.949982 1505.164429,204.083954 
	C1505.051392,202.986801 1505.713623,201.605423 1505.252930,200.783920 
	C1503.277954,197.262024 1504.569580,194.429428 1506.840332,191.327866 
	C1511.823242,198.029572 1516.649902,205.049591 1521.478394,212.068466 
	C1568.412354,280.295410 1615.347412,348.521606 1662.273315,416.754059 
	C1663.184204,418.078583 1663.988892,419.476135 1665.285278,421.545135 
	C1611.337036,421.545135 1558.113770,421.545135 1504.442139,421.400818 
z"/>
<path fill="#F64449" opacity="1.000000" stroke="none" 
	d="
M729.047119,420.892975 
	C728.773376,409.532959 728.502380,398.172852 728.223511,386.812958 
	C728.172485,384.734406 728.066162,382.657104 728.026367,380.578430 
	C727.964600,377.348175 727.914001,374.117401 727.901978,370.886658 
	C727.882019,365.535004 727.896545,360.183197 727.896545,355.435425 
	C739.046326,346.400787 751.349792,341.875977 764.747620,339.853149 
	C783.640076,337.000671 802.438904,333.412415 821.398926,331.158813 
	C836.814331,329.326508 852.412842,329.060333 867.919006,327.945343 
	C871.311340,327.701447 875.122253,327.549133 876.164062,322.124329 
	C876.497864,309.872894 876.663513,298.454987 876.829224,287.037109 
	C886.307373,289.524078 890.391724,296.324402 891.670227,305.451508 
	C892.857361,313.927490 891.099609,328.558075 881.300049,333.030731 
	C877.930237,334.568756 874.101257,335.691162 870.432617,335.848389 
	C864.671936,336.095245 858.853577,334.939209 853.088379,335.152649 
	C846.003662,335.414917 838.898560,336.157898 831.892151,337.263184 
	C821.461060,338.908722 811.104309,341.030334 800.723938,342.991791 
	C789.480469,345.116333 779.668823,350.330353 770.730957,357.267944 
	C769.758118,358.023041 769.020874,359.815216 769.102600,361.065704 
	C769.417053,365.878326 770.412659,370.655609 770.581421,375.466187 
	C770.781433,381.169373 770.360535,386.892761 770.266724,392.608368 
	C770.208008,396.186981 770.284180,399.767609 770.249817,403.346863 
	C770.194458,409.108368 770.097656,414.869446 770.006775,420.962891 
	C764.890991,421.389984 759.786865,421.484894 753.860474,421.316650 
	C745.041199,420.999969 737.044128,420.946472 729.047119,420.892975 
z"/>
<path fill="#FD4F53" opacity="1.000000" stroke="none" 
	d="
M683.619263,421.516602 
	C697.146484,421.261932 711.105286,421.153076 725.420410,421.190399 
	C711.868164,421.445190 697.959473,421.553802 683.619263,421.516602 
z"/>
<path fill="#FD4F53" opacity="1.000000" stroke="none" 
	d="
M567.548523,421.544586 
	C575.793640,421.269562 584.474121,421.148712 593.510620,421.199951 
	C585.239075,421.480957 576.611450,421.589874 567.548523,421.544586 
z"/>
<path fill="#FD4F53" opacity="1.000000" stroke="none" 
	d="
M729.010437,420.996338 
	C737.044128,420.946472 745.041199,420.999969 753.394104,421.192688 
	C745.782166,421.431152 737.814331,421.530396 729.397339,421.473633 
	C728.948181,421.317596 728.973755,421.099701 729.010437,420.996338 
z"/>
<path fill="#FD4F53" opacity="1.000000" stroke="none" 
	d="
M599.535645,421.523132 
	C601.817627,421.253693 604.512634,421.142273 607.534668,421.194885 
	C605.223938,421.466309 602.586304,421.573730 599.535645,421.523132 
z"/>
<path fill="#FD4F53" opacity="1.000000" stroke="none" 
	d="
M402.278198,421.221741 
	C403.711182,421.023102 405.472748,420.999176 407.558167,421.146393 
	C406.123596,421.343842 404.365173,421.370148 402.278198,421.221741 
z"/>
<path fill="#FD4F53" opacity="1.000000" stroke="none" 
	d="
M558.462280,421.543335 
	C559.204041,421.287506 560.306824,421.182526 561.648010,421.233154 
	C560.865356,421.490570 559.844360,421.592407 558.462280,421.543335 
z"/>
<path fill="#FD4F53" opacity="1.000000" stroke="none" 
	d="
M616.382568,421.497162 
	C616.592651,421.259521 617.092468,421.171448 617.747314,421.214661 
	C617.492371,421.446228 617.082275,421.546478 616.382568,421.497162 
z"/>
<path fill="#FFFFFF" opacity="1.000000" stroke="none" 
	d="
M1241.428345,118.430740 
	C1231.550537,148.821701 1221.740112,178.816666 1211.972046,208.825394 
	C1200.041138,245.478195 1188.109863,282.131042 1176.312134,318.826782 
	C1175.486206,321.395874 1174.393311,322.205963 1171.804077,322.195099 
	C1152.316772,322.113098 1132.827393,322.035187 1113.342529,322.270111 
	C1109.631836,322.314850 1109.027710,320.313293 1108.206909,317.698242 
	C1095.517700,277.270325 1082.796753,236.852371 1070.076050,196.434311 
	C1069.684814,195.191086 1069.218506,193.971497 1068.504272,191.933868 
	C1062.494995,210.184921 1056.748535,227.643784 1050.998169,245.101349 
	C1042.994263,269.400085 1034.917725,293.675385 1027.064453,318.022675 
	C1026.013794,321.280182 1024.593994,322.283905 1021.185913,322.253448 
	C1003.699036,322.097290 986.209534,322.239960 968.292664,322.331909 
	C959.254456,321.653839 959.561768,321.562592 956.796509,312.248627 
	C953.536255,301.267090 949.635437,290.476868 946.081909,279.580963 
	C938.034058,254.904770 930.024658,230.216003 922.007568,205.529755 
	C914.636963,182.833908 907.241882,160.145889 899.928467,137.431595 
	C896.742249,127.535843 893.733032,117.583099 890.433655,106.982132 
	C911.648193,106.982132 932.232910,106.982132 953.262085,107.046722 
	C959.778564,126.602119 965.818237,146.103088 971.930725,165.581192 
	C979.991882,191.268661 988.110229,216.938156 996.470459,243.460617 
	C997.457092,240.894958 998.224060,239.121674 998.828491,237.294632 
	C1004.888672,218.975693 1010.912964,200.644882 1016.965515,182.323395 
	C1024.834106,158.504852 1032.778687,134.711075 1040.523315,110.852371 
	C1041.515991,107.794296 1042.868774,106.731369 1046.106323,106.773697 
	C1059.434326,106.947937 1072.766113,106.827042 1086.556519,106.713234 
	C1090.888794,107.018013 1095.767334,106.153931 1098.344604,108.195229 
	C1100.819092,110.155029 1100.905396,115.126869 1102.046631,118.773376 
	C1114.648315,159.033325 1127.250610,199.293091 1139.855835,239.551941 
	C1140.298584,240.966614 1140.772461,242.371521 1141.654541,245.077530 
	C1155.134399,203.255859 1168.239746,162.596237 1181.362305,121.541031 
	C1181.584473,120.894554 1181.873291,120.675346 1181.981934,120.387947 
	C1183.653076,115.972717 1184.099487,109.807518 1187.286377,107.608368 
	C1190.579590,105.335907 1196.530518,106.837334 1201.319092,106.823883 
	C1215.717163,106.783447 1230.115356,106.809303 1244.980591,106.809303 
	C1243.727051,110.871513 1242.620850,114.456177 1241.428345,118.430740 
z"/>
<path fill="#FFFFFF" opacity="1.000000" stroke="none" 
	d="
M876.658813,286.669678 
	C876.663513,298.454987 876.497864,309.872894 876.188965,321.757568 
	C818.627869,322.224365 761.209961,322.224365 703.472778,322.224365 
	C703.472778,250.406540 703.472778,179.052032 703.472778,106.778236 
	C717.966187,106.778236 732.521729,106.778236 747.537842,106.685806 
	C766.686707,106.654289 785.375061,106.715210 804.523560,106.689316 
	C825.291199,106.684074 845.598694,106.766273 865.906128,106.846176 
	C867.864319,106.853882 869.822571,106.847214 872.471252,106.847214 
	C872.471252,114.944756 872.471252,122.542320 872.500000,131.012024 
	C872.528809,139.135315 872.528809,146.386444 872.528809,154.119293 
	C835.901245,154.119293 800.020386,154.119293 764.195190,154.119293 
	C764.195190,166.326706 764.195190,178.037598 764.195190,189.846497 
	C770.038208,189.846497 775.511597,189.846497 780.984985,189.846497 
	C806.899536,189.846497 832.814148,189.846497 859.487976,189.846497 
	C859.487976,195.978500 859.487976,201.560730 859.515137,208.029312 
	C859.542358,217.694855 859.542358,226.474030 859.542358,235.941879 
	C827.286743,235.941879 795.654419,235.941879 764.206543,235.941879 
	C764.206543,249.350479 764.206543,262.059204 764.206543,274.838348 
	C771.720093,274.838348 778.852112,274.838348 785.984192,274.838379 
	C813.972839,274.892456 841.961487,274.946808 869.950134,275.000214 
	C871.914795,275.003937 873.879456,275.000641 876.488403,275.000641 
	C876.488403,279.077850 876.488403,282.690063 876.658813,286.669678 
z"/>
<path fill="#FE4043" opacity="1.000000" stroke="none" 
	d="
M785.988281,274.425781 
	C778.852112,274.838348 771.720093,274.838348 764.206543,274.838348 
	C764.206543,262.059204 764.206543,249.350479 764.206543,235.941879 
	C795.654419,235.941879 827.286743,235.941879 859.542358,235.941879 
	C859.542358,226.474030 859.542358,217.694855 859.681824,208.467636 
	C864.636597,208.842957 867.326843,211.926285 868.644531,216.405991 
	C870.472229,222.619781 870.677429,228.744797 868.209167,234.933121 
	C866.147156,240.102631 860.201172,244.501633 854.674072,245.058060 
	C845.962769,245.935043 837.282288,247.136459 828.602539,248.303589 
	C819.928284,249.469986 811.277222,250.809433 802.604187,251.985626 
	C795.856018,252.900757 789.696289,255.638779 786.622131,261.577728 
	C784.885559,264.932617 786.104675,269.817474 785.988281,274.425781 
z"/>
<path fill="#FE4043" opacity="1.000000" stroke="none" 
	d="
M780.991821,189.402908 
	C775.511597,189.846497 770.038208,189.846497 764.195190,189.846497 
	C764.195190,178.037598 764.195190,166.326706 764.195190,154.119293 
	C800.020386,154.119293 835.901245,154.119293 872.528809,154.119293 
	C872.528809,146.386444 872.528809,139.135315 872.663452,131.452042 
	C874.103760,131.878052 875.940063,132.433884 876.628967,133.643311 
	C881.142578,141.567612 877.467163,153.960541 869.371277,158.228561 
	C867.538879,159.194580 865.353882,159.751968 863.278076,159.955292 
	C845.733032,161.673828 828.169250,163.201797 810.626343,164.941010 
	C806.053345,165.394363 801.398254,165.928040 797.015320,167.220078 
	C783.716187,171.140488 781.026123,175.024689 780.991821,189.402908 
z"/>
<path fill="#FFFFFF" opacity="1.000000" stroke="none" 
	d="
M660.684204,117.662788 
	C660.753601,141.336960 660.589722,164.647156 660.554810,187.957550 
	C660.489197,231.763733 660.498779,275.570007 660.468689,319.376251 
	C660.468262,320.037415 660.360657,320.698486 660.286011,321.554443 
	C659.717712,321.748718 659.125122,322.126923 658.531494,322.128571 
	C643.206848,322.170715 627.880676,322.273438 612.559509,322.045715 
	C610.819336,322.019897 608.665771,320.466766 607.446960,319.003082 
	C578.148560,283.820099 548.952881,248.551575 519.731445,213.304443 
	C518.494141,211.812073 517.188110,210.376770 515.195923,208.090881 
	C515.195923,246.625946 515.195923,284.130737 515.195923,322.188538 
	C497.444794,322.188538 480.174866,322.188538 462.445557,322.291016 
	C459.862549,322.241608 457.738983,322.089691 455.390686,321.921692 
	C455.390686,250.364471 455.390686,179.017990 455.390686,106.784164 
	C459.274628,106.784164 463.173370,106.784164 467.529358,106.697067 
	C478.475250,106.688980 488.971436,107.029442 499.449097,106.727119 
	C504.082855,106.593407 507.018799,108.056938 509.948914,111.618881 
	C539.358398,147.369781 568.947815,182.972733 598.821533,219.062927 
	C599.469482,219.344772 599.782471,219.181061 600.095398,219.017349 
	C600.201416,217.035858 600.398804,215.054413 600.399841,213.072876 
	C600.417603,179.676010 600.410828,146.279160 600.409546,112.882294 
	C600.409485,111.077980 600.409546,109.273666 600.409546,106.776833 
	C603.888367,106.776833 606.981262,106.776833 610.526489,106.694923 
	C627.322144,106.613014 643.665405,106.613014 660.509155,106.613014 
	C660.509155,110.734650 660.509155,114.016777 660.684204,117.662788 
z"/>
<path fill="#FE4043" opacity="1.000000" stroke="none" 
	d="
M599.833008,218.999985 
	C599.782471,219.181061 599.469482,219.344772 599.100708,219.245361 
	C599.220154,218.982361 599.395447,218.982498 599.833008,218.999985 
z"/>
</svg>
