<svg version="1.1" id="Layer_1" xmlns="http://www.w3.org/2000/svg" xmlns:xlink="http://www.w3.org/1999/xlink" x="0px" y="0px"
	 width="113" height="115" viewBox="0 0 1080 1162" enable-background="new 0 0 1080 1162" xml:space="preserve">
<path fill="#FFFFFF" opacity="1.000000" stroke="none" 
	d="
M639.000000,1163.000000 
	C426.023621,1163.000000 213.547272,1163.000000 1.035452,1163.000000 
	C1.035452,775.733398 1.035452,388.466766 1.035452,1.100072 
	C360.893219,1.100072 720.786438,1.100072 1080.839844,1.100072 
	C1080.839844,388.333282 1080.839844,775.666626 1080.839844,1163.000000 
	C933.799744,1163.000000 786.649841,1163.000000 639.000000,1163.000000 
M536.937927,850.992188 
	C615.834656,850.992188 694.731384,850.992188 774.000000,850.992188 
	C774.000000,849.127380 774.000000,847.670044 774.000000,846.212708 
	C774.000000,728.125854 774.000488,610.038940 773.994019,491.952087 
	C773.993896,490.622894 773.903076,489.293701 774.013000,487.043610 
	C773.958557,476.959900 773.904053,466.876160 773.989685,455.896301 
	C773.989685,363.328918 773.989685,270.761566 773.989685,178.000000 
	C772.255188,178.000000 771.107605,178.000000 769.960022,178.000000 
	C646.493408,178.000000 523.026855,177.999588 399.560242,178.006149 
	C398.397369,178.006210 397.234497,178.099274 395.149963,177.993729 
	C391.409454,178.045471 387.668976,178.097198 383.010651,178.010422 
	C334.118591,178.010422 285.226532,178.010422 236.000000,178.010422 
	C236.000000,179.748428 236.000000,181.043213 236.000000,182.338013 
	C236.000000,271.075012 235.999451,359.812042 236.006058,448.549042 
	C236.006149,449.711212 236.096939,450.873383 235.987061,452.956482 
	C236.039841,465.625824 236.092621,478.295197 236.010498,491.901886 
	C236.010498,611.567627 236.010498,731.233337 236.010498,851.000000 
	C238.517075,851.000000 240.343094,851.000000 242.169098,851.000000 
	C335.606293,851.000000 429.043518,851.000610 522.480713,850.994812 
	C524.310425,850.994690 526.140198,850.917603 528.853333,851.022888 
	C531.237732,850.978088 533.622131,850.933228 536.937927,850.992188 
z"/>
<path fill="#0B129A" opacity="1.000000" stroke="none" 
	d="
M383.928467,178.148926 
	C387.668976,178.097198 391.409454,178.045471 395.634857,178.435791 
	C398.086945,180.285690 400.881744,181.273346 401.853210,183.186752 
	C404.037598,187.489273 406.433289,192.177277 406.741028,196.840500 
	C407.452271,207.618393 406.947906,218.474930 406.984344,229.299393 
	C407.021088,240.212830 417.194061,250.053574 428.218323,249.985550 
	C437.377258,249.929047 446.537018,250.010941 455.696014,249.960739 
	C466.701233,249.900436 477.205322,251.651749 487.599152,255.775803 
	C501.237000,261.187042 510.504425,270.759918 516.910645,283.346100 
	C520.493652,290.385681 522.038513,298.178528 522.010925,306.193054 
	C521.967957,318.682831 521.990845,331.172882 522.011047,343.662781 
	C522.013672,345.278503 522.166626,346.893951 522.275513,349.004120 
	C524.542847,349.004120 526.502319,349.004120 528.461731,349.004120 
	C561.768188,349.004120 595.075745,348.844849 628.380676,349.070282 
	C645.428101,349.185669 662.670654,347.147247 679.336121,352.938690 
	C685.024841,354.915619 691.319397,355.534882 696.598999,358.223755 
	C707.651001,363.852478 719.145325,369.275787 728.739258,376.936066 
	C740.704712,386.489899 750.458557,398.621094 757.932068,412.238861 
	C760.197266,416.366272 762.369629,420.617615 763.928467,425.043304 
	C766.562500,432.521057 768.667664,440.184875 771.007629,447.766602 
	C771.937866,450.780487 772.901245,453.784149 773.849548,456.792450 
	C773.904053,466.876160 773.958557,476.959900 773.537598,487.566162 
	C772.745728,488.430969 772.162354,488.764893 772.151367,489.116669 
	C771.792480,500.592682 767.347229,510.849030 763.241089,521.341003 
	C757.857422,535.097107 749.597351,546.721863 739.702759,557.429443 
	C731.740479,566.045959 722.557068,573.097717 712.454773,578.952454 
	C708.447083,581.275085 704.213257,583.244446 699.963440,585.102417 
	C695.815735,586.915649 691.588989,588.622864 687.261475,589.927368 
	C683.458069,591.073914 679.451355,591.528931 675.563232,592.415649 
	C670.695190,593.525757 665.856506,594.764893 660.821594,595.653992 
	C659.355164,592.515381 657.779114,589.764221 656.842407,586.810242 
	C653.500061,576.269958 650.247864,565.696594 647.244141,555.056030 
	C646.332458,551.826172 646.334045,548.338501 646.275391,545.017090 
	C652.306213,552.051819 660.396973,552.168213 667.775208,550.633545 
	C672.992004,549.548340 678.273376,546.687134 681.389282,540.879150 
	C684.443359,535.186401 685.515808,529.625305 683.938904,523.646240 
	C682.931702,519.827393 681.648132,515.758179 679.327332,512.675354 
	C674.204895,505.870941 662.470703,502.430573 652.526733,506.955292 
	C644.300903,510.698181 640.137695,516.467529 638.629028,525.011230 
	C634.301636,519.027466 630.406250,512.987610 626.332520,507.070557 
	C623.274048,502.628296 619.986450,498.343842 617.014771,493.697510 
	C619.212219,491.861969 621.287842,490.421692 623.162964,488.755737 
	C630.581055,482.165192 631.317444,473.708679 628.867798,464.932037 
	C626.599548,456.805389 619.918396,452.195984 612.425476,450.244476 
	C599.612244,446.907318 586.568176,455.714386 582.581909,468.969116 
	C575.032410,466.450714 567.998413,463.343536 560.644348,461.544830 
	C536.757812,455.702393 513.380127,458.253479 492.084290,470.267731 
	C457.509460,489.773468 438.730499,520.422302 432.924042,559.446228 
	C432.143158,564.694397 433.451874,571.016418 427.348053,574.498230 
	C424.143311,576.326233 421.212677,578.650024 417.957367,580.369690 
	C414.816620,582.028870 411.170105,584.787231 408.173157,584.320251 
	C391.718597,581.755920 374.752655,580.804749 359.882446,571.957947 
	C359.598938,571.789368 359.274109,571.689392 358.966614,571.562073 
	C355.872192,570.281311 353.331116,571.201904 352.901581,574.437622 
	C352.343048,578.644897 352.468750,582.978699 352.676178,587.239807 
	C352.824554,590.286865 353.591339,593.303772 353.628784,596.205322 
	C349.366882,595.957397 345.424408,596.423462 341.779602,595.589111 
	C335.490448,594.149658 329.370117,591.952515 323.209442,589.978027 
	C317.894379,588.274536 312.423523,586.869629 307.381561,584.550110 
	C301.343231,581.772278 295.399567,578.579163 289.942902,574.802979 
	C283.959778,570.662354 278.448029,565.799072 272.990906,560.957703 
	C270.325348,558.592834 268.133972,555.652832 265.931458,552.815186 
	C261.188507,546.704834 256.075867,540.797852 252.069382,534.225586 
	C248.817078,528.890320 246.582932,522.832275 244.574081,516.866882 
	C242.024918,509.296936 240.196686,501.485901 237.956436,493.808380 
	C237.654160,492.772461 236.763580,491.908264 236.145386,490.964539 
	C236.092621,478.295197 236.039841,465.625824 236.446228,452.442932 
	C238.926788,445.451935 240.922455,438.966278 242.980927,432.500610 
	C243.945480,429.470947 244.589752,426.226440 246.144516,423.518738 
	C250.830139,415.358429 256.305511,407.631409 260.675537,399.316376 
	C264.199188,392.611694 270.214111,388.477631 275.128876,383.242737 
	C278.888153,379.238525 283.213531,375.568787 287.841461,372.620392 
	C296.041901,367.395996 304.398468,362.259521 313.200165,358.190338 
	C319.257782,355.389771 326.137726,354.287079 332.722198,352.730408 
	C338.822662,351.288208 345.011597,349.241730 351.174042,349.197296 
	C394.831024,348.882477 438.491272,349.014496 482.150452,349.004150 
	C483.932343,349.003723 485.714233,349.004120 487.767731,349.004120 
	C487.864410,346.813049 487.995880,345.188995 487.998260,343.564789 
	C488.015930,331.566833 488.002991,319.568878 488.009155,307.570923 
	C488.016174,293.878662 477.964264,283.998627 464.012177,283.997711 
	C451.347656,283.996887 438.682312,284.089478 426.018890,283.972656 
	C413.258148,283.854950 402.122894,278.972504 392.954865,270.509308 
	C386.009888,264.098236 379.306274,257.107330 377.087372,247.217957 
	C375.921539,242.021866 373.436005,236.953033 373.197998,231.751160 
	C372.619781,219.113052 372.958313,206.430313 373.065765,193.766724 
	C373.079926,192.100586 373.451843,190.083984 374.434418,188.845734 
	C377.393372,185.116867 380.735657,181.692230 383.928467,178.148926 
M375.810272,500.943359 
	C377.167023,503.181488 378.294952,505.608887 379.945618,507.603851 
	C381.556610,509.550873 384.000366,512.663330 385.541840,512.376831 
	C387.827454,511.951965 390.749725,509.242828 391.278259,507.004791 
	C391.654572,505.411316 388.733276,501.473022 386.941162,501.242340 
	C382.486450,500.668945 381.102631,497.634033 378.984985,494.813416 
	C384.201904,493.105103 389.100281,491.501099 394.931915,489.981232 
	C402.876862,489.828308 411.104614,491.751587 417.362885,483.980408 
	C420.555969,480.015350 423.707642,471.594482 421.784760,466.876160 
	C419.595551,461.504120 412.640442,456.899017 406.434204,456.951233 
	C405.883301,456.612366 405.332397,456.273499 404.354095,455.245422 
	C399.907257,455.187683 395.460419,455.129944 390.401459,454.668671 
	C390.126373,448.342590 390.126373,448.342590 386.980743,447.850952 
	C385.225433,450.377197 383.594269,452.724762 381.077881,455.015259 
	C379.181366,455.015259 377.284821,455.015259 374.933990,455.015259 
	C374.933990,451.890381 374.933990,449.463959 375.258148,446.345581 
	C376.711487,445.749542 378.299347,445.355286 379.580688,444.501221 
	C380.886566,443.630798 381.891022,442.308136 383.027496,441.183502 
	C381.674103,440.449036 380.355438,439.638763 378.958679,438.998901 
	C377.135956,438.163879 374.747009,437.887451 373.605194,436.527893 
	C373.030151,435.843201 374.375458,433.100372 375.363617,431.632324 
	C378.240601,427.358093 377.472412,423.080170 372.992737,419.130096 
	C371.277832,414.626801 368.275665,411.385925 363.601807,409.978699 
	C349.837585,405.834473 340.527527,414.005920 339.892609,430.714203 
	C338.697876,434.759033 337.503143,438.803894 336.308411,442.848755 
	C335.719818,442.933228 335.131226,443.017731 334.542633,443.102203 
	C333.718781,440.688019 333.282593,438.030731 331.963470,435.927155 
	C330.610443,433.769531 328.415924,430.718903 326.549316,430.690216 
	C324.549072,430.659607 321.525116,433.321747 320.697632,435.479614 
	C319.364044,438.957336 322.040192,441.103607 325.250000,442.577454 
	C327.355408,443.544250 329.142578,445.204041 331.551697,446.888702 
	C325.719910,449.773041 318.134552,446.730988 316.086639,455.012390 
	C312.842590,455.674622 309.615295,456.438843 306.350677,456.976166 
	C300.900635,457.873199 296.661896,460.645477 295.122650,465.915436 
	C293.368927,471.919769 292.474640,478.052795 297.187714,483.633606 
	C302.584839,490.024261 309.489746,490.773712 317.646790,490.305420 
	C319.972260,495.488495 321.774017,495.397980 327.104614,489.934875 
	C330.365723,489.958588 333.640686,489.819427 336.880280,490.095551 
	C337.993561,490.190430 339.018402,491.322754 339.923370,492.722107 
	C338.709381,493.868927 337.675629,495.429535 336.235352,496.056946 
	C334.465271,496.828003 332.203766,496.475250 330.439270,497.253479 
	C328.918121,497.924377 327.795929,499.499786 326.497345,500.675293 
	C328.100159,501.313293 329.705475,502.476166 331.305176,502.468414 
	C333.814545,502.456238 336.320129,501.654022 340.376923,500.897369 
	C338.931976,504.186676 338.182281,506.190552 337.193542,508.068634 
	C335.967621,510.397156 333.497559,512.596863 333.443665,514.896301 
	C333.356873,518.598572 336.862335,519.754333 340.181183,521.117615 
	C343.903320,530.408875 347.189209,537.738708 359.636322,536.136597 
	C368.748108,534.963806 374.989563,528.690247 375.005859,519.350281 
	C375.016632,513.187683 375.063049,507.025055 375.810272,500.943359 
M737.910645,483.183075 
	C738.608154,478.600464 739.695068,474.036255 739.912720,469.430939 
	C740.246399,462.369049 730.875000,450.637665 723.948364,450.168549 
	C713.868286,449.485870 703.855164,449.149292 697.780518,460.425842 
	C693.653870,468.086365 691.879272,474.971405 696.303223,482.974304 
	C699.773071,489.251312 704.911804,492.407043 711.345093,495.502136 
	C717.808960,498.611969 722.636719,495.357697 727.533752,494.082733 
	C731.705811,492.996582 735.565613,488.669678 737.910645,483.183075 
M653.669983,395.943420 
	C643.334839,400.463654 638.398621,408.104248 638.901062,419.628235 
	C639.363953,430.244385 649.788574,440.599396 660.473511,441.152252 
	C666.595276,441.468994 671.244812,438.759949 675.968750,435.935120 
	C682.873596,431.806122 685.656555,424.300873 685.516602,417.421021 
	C685.331787,408.334869 680.499084,400.382141 671.435852,396.415741 
	C665.960083,394.019318 660.267456,391.862946 653.669983,395.943420 
z"/>
<path fill="transparent" opacity="1.000000" stroke="none" 
	d="
M773.919617,456.344360 
	C772.901245,453.784149 771.937866,450.780487 771.007629,447.766602 
	C768.667664,440.184875 766.562500,432.521057 763.928467,425.043304 
	C762.369629,420.617615 760.197266,416.366272 757.932068,412.238861 
	C750.458557,398.621094 740.704712,386.489899 728.739258,376.936066 
	C719.145325,369.275787 707.651001,363.852478 696.598999,358.223755 
	C691.319397,355.534882 685.024841,354.915619 679.336121,352.938690 
	C662.670654,347.147247 645.428101,349.185669 628.380676,349.070282 
	C595.075745,348.844849 561.768188,349.004120 528.461731,349.004120 
	C526.502319,349.004120 524.542847,349.004120 522.275513,349.004120 
	C522.166626,346.893951 522.013672,345.278503 522.011047,343.662781 
	C521.990845,331.172882 521.967957,318.682831 522.010925,306.193054 
	C522.038513,298.178528 520.493652,290.385681 516.910645,283.346100 
	C510.504425,270.759918 501.237000,261.187042 487.599152,255.775803 
	C477.205322,251.651749 466.701233,249.900436 455.696014,249.960739 
	C446.537018,250.010941 437.377258,249.929047 428.218323,249.985550 
	C417.194061,250.053574 407.021088,240.212830 406.984344,229.299393 
	C406.947906,218.474930 407.452271,207.618393 406.741028,196.840500 
	C406.433289,192.177277 404.037598,187.489273 401.853210,183.186752 
	C400.881744,181.273346 398.086945,180.285690 396.095703,178.513382 
	C397.234497,178.099274 398.397369,178.006210 399.560242,178.006149 
	C523.026855,177.999588 646.493408,178.000000 769.960022,178.000000 
	C771.107605,178.000000 772.255188,178.000000 773.989685,178.000000 
	C773.989685,270.761566 773.989685,363.328918 773.919617,456.344360 
z"/>
<path fill="transparent" opacity="1.000000" stroke="none" 
	d="
M236.077942,491.433228 
	C236.763580,491.908264 237.654160,492.772461 237.956436,493.808380 
	C240.196686,501.485901 242.024918,509.296936 244.574081,516.866882 
	C246.582932,522.832275 248.817078,528.890320 252.069382,534.225586 
	C256.075867,540.797852 261.188507,546.704834 265.931458,552.815186 
	C268.133972,555.652832 270.325348,558.592834 272.990906,560.957703 
	C278.448029,565.799072 283.959778,570.662354 289.942902,574.802979 
	C295.399567,578.579163 301.343231,581.772278 307.381561,584.550110 
	C312.423523,586.869629 317.894379,588.274536 323.209442,589.978027 
	C329.370117,591.952515 335.490448,594.149658 341.779602,595.589111 
	C345.424408,596.423462 349.366882,595.957397 353.797607,596.471069 
	C360.978485,605.669250 367.215118,614.741089 374.231415,623.163391 
	C377.751984,627.389404 382.552460,630.619995 387.028534,633.959717 
	C391.647827,637.406372 396.184509,641.612427 401.462250,643.373474 
	C409.081848,645.915894 417.337067,646.553467 424.447632,647.845154 
	C423.677887,661.164062 422.808990,675.667664 422.019470,690.175537 
	C421.776093,694.648132 421.184143,699.204956 421.746857,703.595642 
	C422.760895,711.507812 424.191620,719.404846 426.074707,727.156067 
	C427.818512,734.334106 429.645996,741.660950 432.778900,748.287659 
	C436.318298,755.774292 440.882965,762.908508 445.875427,769.538086 
	C450.701874,775.947205 455.849487,782.633484 462.277924,787.193604 
	C471.505341,793.739136 482.022430,798.466614 491.981995,804.368591 
	C491.327698,805.749573 490.326752,806.654419 490.090851,807.727478 
	C488.629333,814.374573 486.598663,820.822327 486.779388,827.886963 
	C486.950043,834.556946 489.037628,839.335083 494.388794,843.251953 
	C497.656097,845.643555 500.014313,846.281128 502.796295,842.841431 
	C503.876953,841.505371 505.610046,840.697021 507.276855,839.479614 
	C508.510986,843.014587 509.514099,845.887878 510.367493,848.332275 
	C517.326904,851.442505 520.565308,844.849121 525.338867,842.747131 
	C526.358459,845.897339 527.164185,848.386841 527.969910,850.876343 
	C526.140198,850.917603 524.310425,850.994690 522.480713,850.994812 
	C429.043518,851.000610 335.606293,851.000000 242.169098,851.000000 
	C240.343094,851.000000 238.517075,851.000000 236.010498,851.000000 
	C236.010498,731.233337 236.010498,611.567627 236.077942,491.433228 
z"/>
<path fill="transparent" opacity="1.000000" stroke="none" 
	d="
M383.469543,178.079681 
	C380.735657,181.692230 377.393372,185.116867 374.434418,188.845734 
	C373.451843,190.083984 373.079926,192.100586 373.065765,193.766724 
	C372.958313,206.430313 372.619781,219.113052 373.197998,231.751160 
	C373.436005,236.953033 375.921539,242.021866 377.087372,247.217957 
	C379.306274,257.107330 386.009888,264.098236 392.954865,270.509308 
	C402.122894,278.972504 413.258148,283.854950 426.018890,283.972656 
	C438.682312,284.089478 451.347656,283.996887 464.012177,283.997711 
	C477.964264,283.998627 488.016174,293.878662 488.009155,307.570923 
	C488.002991,319.568878 488.015930,331.566833 487.998260,343.564789 
	C487.995880,345.188995 487.864410,346.813049 487.767731,349.004120 
	C485.714233,349.004120 483.932343,349.003723 482.150452,349.004150 
	C438.491272,349.014496 394.831024,348.882477 351.174042,349.197296 
	C345.011597,349.241730 338.822662,351.288208 332.722198,352.730408 
	C326.137726,354.287079 319.257782,355.389771 313.200165,358.190338 
	C304.398468,362.259521 296.041901,367.395996 287.841461,372.620392 
	C283.213531,375.568787 278.888153,379.238525 275.128876,383.242737 
	C270.214111,388.477631 264.199188,392.611694 260.675537,399.316376 
	C256.305511,407.631409 250.830139,415.358429 246.144516,423.518738 
	C244.589752,426.226440 243.945480,429.470947 242.980927,432.500610 
	C240.922455,438.966278 238.926788,445.451935 236.525391,451.982483 
	C236.096939,450.873383 236.006149,449.711212 236.006058,448.549042 
	C235.999451,359.812042 236.000000,271.075012 236.000000,182.338013 
	C236.000000,181.043213 236.000000,179.748428 236.000000,178.010422 
	C285.226532,178.010422 334.118591,178.010422 383.469543,178.079681 
z"/>
<path fill="transparent" opacity="1.000000" stroke="none" 
	d="
M661.005188,595.948364 
	C665.856506,594.764893 670.695190,593.525757 675.563232,592.415649 
	C679.451355,591.528931 683.458069,591.073914 687.261475,589.927368 
	C691.588989,588.622864 695.815735,586.915649 699.963440,585.102417 
	C704.213257,583.244446 708.447083,581.275085 712.454773,578.952454 
	C722.557068,573.097717 731.740479,566.045959 739.702759,557.429443 
	C749.597351,546.721863 757.857422,535.097107 763.241089,521.341003 
	C767.347229,510.849030 771.792480,500.592682 772.151367,489.116669 
	C772.162354,488.764893 772.745728,488.430969 773.458435,488.026611 
	C773.903076,489.293701 773.993896,490.622894 773.994019,491.952087 
	C774.000488,610.038940 774.000000,728.125854 774.000000,846.212708 
	C774.000000,847.670044 774.000000,849.127380 774.000000,850.992188 
	C694.731384,850.992188 615.834656,850.992188 536.468628,850.557495 
	C538.999634,848.071899 543.111389,846.683350 544.799866,843.850403 
	C550.763245,833.845093 552.297180,822.743408 550.955017,811.154663 
	C560.456238,810.040894 569.516785,809.240662 578.488647,807.862854 
	C587.108582,806.539001 595.849243,805.310913 604.147278,802.769104 
	C613.046753,800.042969 621.657898,796.181274 630.081055,792.158203 
	C636.394165,789.142944 642.216736,785.097839 648.245239,781.490417 
	C651.816833,779.353149 655.364075,777.175293 659.145508,775.304199 
	C663.012207,781.225037 666.137268,787.338135 672.302673,790.768921 
	C674.678589,792.091064 677.815735,792.415161 679.707825,794.165100 
	C684.746277,798.825073 688.753357,793.560974 693.214111,793.223511 
	C693.877686,793.173340 694.983337,791.290100 694.885437,790.359924 
	C694.639648,788.024109 693.821655,785.748535 693.131531,783.051758 
	C696.917175,783.383240 700.454407,783.869812 704.001648,783.959778 
	C708.666077,784.078186 709.854187,782.450989 708.946045,777.867798 
	C708.516663,775.700378 708.180908,773.514343 707.789673,771.261719 
	C708.974182,771.126953 709.464294,770.994995 709.939636,771.035706 
	C710.585449,771.091003 711.276794,771.157776 711.850708,771.427734 
	C717.779541,774.216675 720.947266,772.616760 721.993286,766.434265 
	C723.669250,756.528931 719.740234,748.293152 713.322937,741.558044 
	C706.688599,734.595154 698.623169,729.254944 689.002319,726.453735 
	C690.027161,719.216187 690.799194,712.342041 692.128784,705.577515 
	C695.294556,689.471497 691.049438,673.900269 688.322510,658.377319 
	C686.763000,649.499512 682.358582,641.089233 678.962769,632.577087 
	C676.536865,626.496094 673.830933,620.510620 670.934998,614.637817 
	C667.816467,608.313599 664.330750,602.170471 661.005188,595.948364 
z"/>
<path fill="#F8A11A" opacity="1.000000" stroke="none" 
	d="
M550.475586,811.215698 
	C552.297180,822.743408 550.763245,833.845093 544.799866,843.850403 
	C543.111389,846.683350 538.999634,848.071899 536.002930,850.505615 
	C533.622131,850.933228 531.237732,850.978088 528.411621,850.949585 
	C527.164185,848.386841 526.358459,845.897339 525.338867,842.747131 
	C520.565308,844.849121 517.326904,851.442505 510.367493,848.332275 
	C509.514099,845.887878 508.510986,843.014587 507.276855,839.479614 
	C505.610046,840.697021 503.876953,841.505371 502.796295,842.841431 
	C500.014313,846.281128 497.656097,845.643555 494.388794,843.251953 
	C489.037628,839.335083 486.950043,834.556946 486.779388,827.886963 
	C486.598663,820.822327 488.629333,814.374573 490.090851,807.727478 
	C490.326752,806.654419 491.327698,805.749573 492.404480,804.231445 
	C494.944611,803.971863 497.064331,804.191895 499.164368,804.533264 
	C509.889099,806.276306 520.581482,808.247498 531.340576,809.739197 
	C537.665527,810.616150 544.093811,810.748535 550.475586,811.215698 
z"/>
<path fill="#080A0C" opacity="1.000000" stroke="none" 
	d="
M550.955017,811.154663 
	C544.093811,810.748535 537.665527,810.616150 531.340576,809.739197 
	C520.581482,808.247498 509.889099,806.276306 499.164368,804.533264 
	C497.064331,804.191895 494.944611,803.971863 492.411438,803.833069 
	C482.022430,798.466614 471.505341,793.739136 462.277924,787.193604 
	C455.849487,782.633484 450.701874,775.947205 445.875427,769.538086 
	C440.882965,762.908508 436.318298,755.774292 432.778900,748.287659 
	C429.645996,741.660950 427.818512,734.334106 426.074707,727.156067 
	C424.191620,719.404846 422.760895,711.507812 421.746857,703.595642 
	C421.184143,699.204956 421.776093,694.648132 422.019470,690.175537 
	C422.808990,675.667664 423.677887,661.164062 424.447632,647.845154 
	C417.337067,646.553467 409.081848,645.915894 401.462250,643.373474 
	C396.184509,641.612427 391.647827,637.406372 387.028534,633.959717 
	C382.552460,630.619995 377.751984,627.389404 374.231415,623.163391 
	C367.215118,614.741089 360.978485,605.669250 354.251007,596.599976 
	C353.591339,593.303772 352.824554,590.286865 352.676178,587.239807 
	C352.468750,582.978699 352.343048,578.644897 352.901581,574.437622 
	C353.331116,571.201904 355.872192,570.281311 358.966614,571.562073 
	C359.274109,571.689392 359.598938,571.789368 359.882446,571.957947 
	C374.752655,580.804749 391.718597,581.755920 408.173157,584.320251 
	C411.170105,584.787231 414.816620,582.028870 417.957367,580.369690 
	C421.212677,578.650024 424.143311,576.326233 427.348053,574.498230 
	C433.451874,571.016418 432.143158,564.694397 432.924042,559.446228 
	C438.730499,520.422302 457.509460,489.773468 492.084290,470.267731 
	C513.380127,458.253479 536.757812,455.702393 560.644348,461.544830 
	C567.998413,463.343536 575.032410,466.450714 582.915405,469.113647 
	C588.810547,472.239532 594.258606,474.850586 599.115234,478.295441 
	C602.998596,481.050018 606.106567,484.880402 609.666199,488.115082 
	C611.943298,490.184357 614.415894,492.038544 616.800842,493.989136 
	C619.986450,498.343842 623.274048,502.628296 626.332520,507.070557 
	C630.406250,512.987610 634.301636,519.027466 638.683228,525.394531 
	C641.367676,532.172607 643.642578,538.570740 645.917480,544.968872 
	C646.334045,548.338501 646.332458,551.826172 647.244141,555.056030 
	C650.247864,565.696594 653.500061,576.269958 656.842407,586.810242 
	C657.779114,589.764221 659.355164,592.515381 660.821594,595.653992 
	C664.330750,602.170471 667.816467,608.313599 670.934998,614.637817 
	C673.830933,620.510620 676.536865,626.496094 678.962769,632.577087 
	C682.358582,641.089233 686.763000,649.499512 688.322510,658.377319 
	C691.049438,673.900269 695.294556,689.471497 692.128784,705.577515 
	C690.799194,712.342041 690.027161,719.216187 688.666870,726.602051 
	C687.974609,727.489868 687.429443,727.749451 687.286682,728.151733 
	C681.499512,744.465759 672.805420,758.909790 660.193115,770.919250 
	C659.288940,771.780090 659.323975,773.627136 658.922302,775.015686 
	C655.364075,777.175293 651.816833,779.353149 648.245239,781.490417 
	C642.216736,785.097839 636.394165,789.142944 630.081055,792.158203 
	C621.657898,796.181274 613.046753,800.042969 604.147278,802.769104 
	C595.849243,805.310913 587.108582,806.539001 578.488647,807.862854 
	C569.516785,809.240662 560.456238,810.040894 550.955017,811.154663 
M556.015991,577.654541 
	C556.401428,577.130371 556.786865,576.606201 557.645935,575.654907 
	C554.839722,570.205322 548.798889,570.919678 544.329468,568.636169 
	C540.647766,566.755127 537.334045,567.596680 534.046570,569.559753 
	C530.643677,571.591797 527.177429,573.522278 523.842712,575.659180 
	C523.290161,576.013245 523.269104,577.196594 523.221985,578.632629 
	C540.373230,594.690979 543.059082,594.170288 555.439697,578.520691 
	C555.613464,578.301086 555.567932,577.907959 555.505493,577.370239 
	C555.505493,577.370239 555.342834,577.566956 556.015991,577.654541 
M470.059723,771.470947 
	C485.850403,785.240601 504.688141,791.581238 525.143250,793.543396 
	C545.669739,795.512512 566.012268,793.818481 586.178040,789.528320 
	C608.437012,784.792847 629.237061,776.844177 646.510986,761.573486 
	C663.395325,746.646973 673.760864,728.366272 674.376404,705.200134 
	C674.827332,688.230957 670.761475,672.258301 664.707336,656.656799 
	C662.411377,650.740173 659.732971,644.971985 656.856567,638.268494 
	C654.381470,641.452576 652.874268,643.862671 650.914917,645.820129 
	C645.877991,650.852295 641.315063,656.814880 635.350098,660.372192 
	C620.549561,669.198975 604.078796,669.769409 587.502991,666.799255 
	C579.917786,665.440063 578.718384,662.754822 582.406128,656.163940 
	C588.325867,645.583740 593.780762,634.580444 601.013733,624.942932 
	C608.638000,614.783997 617.741394,605.628052 626.911072,596.771606 
	C633.639343,590.273254 636.758179,583.054932 635.228516,574.028198 
	C630.961487,548.848633 620.266296,526.996277 601.125427,509.673553 
	C595.718506,504.780182 589.511963,501.462311 582.233582,500.172241 
	C570.017578,498.006989 550.674988,502.387238 547.152405,521.651245 
	C546.229980,526.695557 545.603577,531.807678 545.114258,536.914795 
	C543.764648,551.001770 549.914734,560.512634 562.930603,565.859802 
	C565.829590,567.050781 568.575073,568.682312 571.245728,570.344727 
	C574.336731,572.268860 575.262085,574.839722 573.590942,578.432922 
	C567.454529,591.627563 556.427856,597.796204 542.670959,598.615845 
	C528.323914,599.470703 518.513000,591.016724 510.290527,580.239685 
	C507.345673,576.379944 508.196747,573.497192 511.744934,570.967224 
	C515.129333,568.554077 518.783630,566.507263 522.082336,563.989075 
	C526.842651,560.355164 530.956848,556.176941 529.613647,549.370056 
	C527.680847,539.576111 523.714050,530.678772 517.303406,522.989929 
	C503.050995,505.895630 480.759094,506.053497 467.403198,523.941162 
	C462.313538,530.757690 458.434875,538.678650 455.090851,546.557434 
	C447.662018,564.060486 447.592010,582.836304 446.552155,601.454651 
	C445.727448,616.220825 444.983154,631.093933 442.555054,645.644592 
	C438.666779,668.945679 436.251801,692.135132 440.478271,715.571594 
	C444.351654,737.050171 452.882690,756.175659 470.059723,771.470947 
z"/>
<path fill="#499DC9" opacity="1.000000" stroke="none" 
	d="
M326.209137,489.875305 
	C321.774017,495.397980 319.972260,495.488495 317.518982,489.785583 
	C318.726288,486.609894 320.061371,483.954102 321.396454,481.298309 
	C318.979919,481.178711 317.121979,482.054810 315.247711,482.894409 
	C311.905579,484.391449 308.487396,487.633820 304.951599,483.859100 
	C303.012054,481.788544 299.662659,479.746094 302.445068,475.736115 
	C306.416443,470.012695 308.705933,469.452667 315.120178,472.948669 
	C316.077545,473.470490 317.655090,472.854370 318.837646,472.772217 
	C316.502563,469.533966 314.180969,467.105804 312.924957,464.214722 
	C312.358063,462.909882 313.527557,460.349976 314.675415,459.021484 
	C315.213440,458.398773 317.976288,458.846344 319.004578,459.691986 
	C320.693481,461.080872 321.673645,463.294434 323.172974,464.962219 
	C324.499725,466.438171 326.044373,468.657379 327.636169,468.786926 
	C333.347137,469.251587 339.118866,468.969208 344.752930,468.969208 
	C345.677795,463.481232 342.030853,461.974030 338.948761,460.059845 
	C336.605011,458.604218 334.305176,457.067657 331.888824,455.744171 
	C330.881195,455.192291 329.560577,454.704926 328.488586,454.871674 
	C325.156769,455.389832 321.888458,456.312439 318.559448,456.857941 
	C318.135529,456.927399 317.497467,455.690125 316.958618,455.058228 
	C318.134552,446.730988 325.719910,449.773041 331.551697,446.888702 
	C329.142578,445.204041 327.355408,443.544250 325.250000,442.577454 
	C322.040192,441.103607 319.364044,438.957336 320.697632,435.479614 
	C321.525116,433.321747 324.549072,430.659607 326.549316,430.690216 
	C328.415924,430.718903 330.610443,433.769531 331.963470,435.927155 
	C333.282593,438.030731 333.718781,440.688019 334.542633,443.102203 
	C335.131226,443.017731 335.719818,442.933228 336.308411,442.848755 
	C337.503143,438.803894 338.697876,434.759033 340.398132,430.352051 
	C345.978485,430.253540 347.000610,431.346863 345.806427,435.929321 
	C345.193115,438.282867 342.938873,440.623230 343.235596,442.712646 
	C343.837921,446.954102 345.310181,451.186798 347.115173,455.104584 
	C348.440186,457.980591 350.359528,461.259491 354.921600,459.524292 
	C354.658478,455.068329 360.884308,451.309235 356.067139,446.391388 
	C355.850433,446.170166 356.202118,445.443024 356.198364,444.952240 
	C356.189056,443.733429 356.580872,442.203644 355.999268,441.356384 
	C354.419434,439.055084 352.605774,436.835693 350.538483,434.966919 
	C347.734222,432.431946 348.826843,429.927979 350.828033,428.229614 
	C352.414368,426.883362 355.181000,425.162384 356.506287,429.314056 
	C356.954193,430.717224 358.333405,431.987762 359.586731,432.912781 
	C360.457672,433.555542 362.566254,434.047272 362.856049,433.659790 
	C363.663177,432.580505 364.016663,431.029999 364.167847,429.624573 
	C364.370453,427.740784 363.952789,425.774689 364.262573,423.920990 
	C365.169098,418.496185 369.684906,420.436554 372.963745,419.875153 
	C377.472412,423.080170 378.240601,427.358093 375.363617,431.632324 
	C374.375458,433.100372 373.030151,435.843201 373.605194,436.527893 
	C374.747009,437.887451 377.135956,438.163879 378.958679,438.998901 
	C380.355438,439.638763 381.674103,440.449036 383.027496,441.183502 
	C381.891022,442.308136 380.886566,443.630798 379.580688,444.501221 
	C378.299347,445.355286 376.711487,445.749542 374.692444,446.677673 
	C373.084564,447.646515 371.856445,448.105591 371.041077,448.959015 
	C369.591522,450.476318 368.680328,452.638702 367.031433,453.809265 
	C362.826294,456.794464 361.570587,460.645905 363.838104,465.817963 
	C369.545227,463.756409 375.275299,461.686554 380.712158,459.722626 
	C381.213348,457.859467 381.588257,456.465912 381.963135,455.072327 
	C383.594269,452.724762 385.225433,450.377197 386.980743,447.850952 
	C390.126373,448.342590 390.126373,448.342590 390.683472,455.252563 
	C390.232239,456.961700 389.499054,458.086945 388.765839,459.212158 
	C389.070587,459.608948 389.375336,460.005737 389.680084,460.402527 
	C391.111542,459.822266 392.591858,459.337494 393.961365,458.636292 
	C395.480774,457.858368 396.803040,456.454926 398.385193,456.100067 
	C400.427002,455.642212 402.641418,455.954224 404.781494,455.934692 
	C405.332397,456.273499 405.883301,456.612366 406.756470,457.437378 
	C407.275696,458.689484 407.446686,459.463257 407.674072,460.220123 
	C408.860657,464.169800 406.561157,466.819031 403.823822,468.746765 
	C402.326569,469.801147 399.834015,470.060364 397.928894,469.769775 
	C395.203064,469.353973 392.604095,468.106598 389.950989,467.214325 
	C391.969940,470.829315 394.253784,473.287262 396.123260,476.027863 
	C396.895050,477.159241 396.777313,478.897400 397.064148,480.359558 
	C394.996277,480.726929 394.039612,485.286835 390.898804,481.794220 
	C386.960266,477.414398 383.244904,472.508392 376.304962,472.961487 
	C375.869293,472.989929 375.432190,472.084473 374.915863,471.968140 
	C373.613800,471.674713 372.178772,471.211304 370.956543,471.497375 
	C369.005951,471.953979 367.184601,472.962891 364.053864,474.256897 
	C365.736969,476.496674 367.429962,478.543579 368.893616,480.743042 
	C371.430267,484.554962 378.008209,487.178223 382.390503,486.382721 
	C386.750946,485.591187 391.379547,484.626343 393.998657,489.897095 
	C389.100281,491.501099 384.201904,493.105103 378.984985,494.813416 
	C381.102631,497.634033 382.486450,500.668945 386.941162,501.242340 
	C388.733276,501.473022 391.654572,505.411316 391.278259,507.004791 
	C390.749725,509.242828 387.827454,511.951965 385.541840,512.376831 
	C384.000366,512.663330 381.556610,509.550873 379.945618,507.603851 
	C378.294952,505.608887 377.167023,503.181488 375.194092,500.675659 
	C373.648163,503.107544 372.622803,505.778809 371.812531,508.513824 
	C370.770050,512.032654 367.999512,512.847717 365.290283,511.720825 
	C364.037781,511.199860 362.633728,507.600494 363.248718,506.619690 
	C366.141510,502.006073 366.475494,497.139435 364.844971,492.423248 
	C363.493195,488.513153 360.918915,484.997314 358.611176,481.487671 
	C358.365845,481.114594 355.708466,481.529572 355.127228,482.300598 
	C350.082764,488.991455 351.125916,499.288086 357.111328,505.075195 
	C358.242859,506.169189 359.865631,507.708801 359.762238,508.914124 
	C359.584534,510.984802 358.226135,512.954102 357.363342,514.966003 
	C355.826019,514.090088 354.050446,513.465088 352.804382,512.282288 
	C350.668640,510.255005 348.863922,507.878998 346.002808,504.597015 
	C346.002808,508.347168 345.911011,510.674255 346.022736,512.991516 
	C346.227509,517.239197 345.382904,520.550964 340.119232,520.390625 
	C336.862335,519.754333 333.356873,518.598572 333.443665,514.896301 
	C333.497559,512.596863 335.967621,510.397156 337.193542,508.068634 
	C338.182281,506.190552 338.931976,504.186676 340.376923,500.897369 
	C336.320129,501.654022 333.814545,502.456238 331.305176,502.468414 
	C329.705475,502.476166 328.100159,501.313293 326.497345,500.675293 
	C327.795929,499.499786 328.918121,497.924377 330.439270,497.253479 
	C332.203766,496.475250 334.465271,496.828003 336.235352,496.056946 
	C337.675629,495.429535 338.709381,493.868927 340.356079,492.315369 
	C344.647614,489.913361 344.708984,485.768494 346.311829,482.446960 
	C348.024811,478.897186 347.337585,477.731537 343.596619,476.900909 
	C337.325653,475.508667 328.012451,483.680878 326.209137,489.875305 
z"/>
<path fill="transparent" opacity="1.000000" stroke="none" 
	d="
M737.735352,483.545380 
	C735.565613,488.669678 731.705811,492.996582 727.533752,494.082733 
	C722.636719,495.357697 717.808960,498.611969 711.345093,495.502136 
	C704.911804,492.407043 699.773071,489.251312 696.303223,482.974304 
	C691.879272,474.971405 693.653870,468.086365 697.780518,460.425842 
	C703.855164,449.149292 713.868286,449.485870 723.948364,450.168549 
	C730.875000,450.637665 740.246399,462.369049 739.912720,469.430939 
	C739.695068,474.036255 738.608154,478.600464 737.735352,483.545380 
z"/>
<path fill="transparent" opacity="1.000000" stroke="none" 
	d="
M654.052856,395.823517 
	C660.267456,391.862946 665.960083,394.019318 671.435852,396.415741 
	C680.499084,400.382141 685.331787,408.334869 685.516602,417.421021 
	C685.656555,424.300873 682.873596,431.806122 675.968750,435.935120 
	C671.244812,438.759949 666.595276,441.468994 660.473511,441.152252 
	C649.788574,440.599396 639.363953,430.244385 638.901062,419.628235 
	C638.398621,408.104248 643.334839,400.463654 654.052856,395.823517 
z"/>
<path fill="transparent" opacity="1.000000" stroke="none" 
	d="
M646.275391,545.017090 
	C643.642578,538.570740 641.367676,532.172607 639.038574,525.391235 
	C640.137695,516.467529 644.300903,510.698181 652.526733,506.955292 
	C662.470703,502.430573 674.204895,505.870941 679.327332,512.675354 
	C681.648132,515.758179 682.931702,519.827393 683.938904,523.646240 
	C685.515808,529.625305 684.443359,535.186401 681.389282,540.879150 
	C678.273376,546.687134 672.992004,549.548340 667.775208,550.633545 
	C660.396973,552.168213 652.306213,552.051819 646.275391,545.017090 
z"/>
<path fill="transparent" opacity="1.000000" stroke="none" 
	d="
M617.014771,493.697510 
	C614.415894,492.038544 611.943298,490.184357 609.666199,488.115082 
	C606.106567,484.880402 602.998596,481.050018 599.115234,478.295441 
	C594.258606,474.850586 588.810547,472.239532 583.284302,469.123962 
	C586.568176,455.714386 599.612244,446.907318 612.425476,450.244476 
	C619.918396,452.195984 626.599548,456.805389 628.867798,464.932037 
	C631.317444,473.708679 630.581055,482.165192 623.162964,488.755737 
	C621.287842,490.421692 619.212219,491.861969 617.014771,493.697510 
z"/>
<path fill="transparent" opacity="1.000000" stroke="none" 
	d="
M340.150208,520.754150 
	C345.382904,520.550964 346.227509,517.239197 346.022736,512.991516 
	C345.911011,510.674255 346.002808,508.347168 346.002808,504.597015 
	C348.863922,507.878998 350.668640,510.255005 352.804382,512.282288 
	C354.050446,513.465088 355.826019,514.090088 357.363342,514.966003 
	C358.226135,512.954102 359.584534,510.984802 359.762238,508.914124 
	C359.865631,507.708801 358.242859,506.169189 357.111328,505.075195 
	C351.125916,499.288086 350.082764,488.991455 355.127228,482.300598 
	C355.708466,481.529572 358.365845,481.114594 358.611176,481.487671 
	C360.918915,484.997314 363.493195,488.513153 364.844971,492.423248 
	C366.475494,497.139435 366.141510,502.006073 363.248718,506.619690 
	C362.633728,507.600494 364.037781,511.199860 365.290283,511.720825 
	C367.999512,512.847717 370.770050,512.032654 371.812531,508.513824 
	C372.622803,505.778809 373.648163,503.107544 374.835724,500.635193 
	C375.063049,507.025055 375.016632,513.187683 375.005859,519.350281 
	C374.989563,528.690247 368.748108,534.963806 359.636322,536.136597 
	C347.189209,537.738708 343.903320,530.408875 340.150208,520.754150 
z"/>
<path fill="transparent" opacity="1.000000" stroke="none" 
	d="
M394.465271,489.939148 
	C391.379547,484.626343 386.750946,485.591187 382.390503,486.382721 
	C378.008209,487.178223 371.430267,484.554962 368.893616,480.743042 
	C367.429962,478.543579 365.736969,476.496674 364.053864,474.256897 
	C367.184601,472.962891 369.005951,471.953979 370.956543,471.497375 
	C372.178772,471.211304 373.613800,471.674713 374.915863,471.968140 
	C375.432190,472.084473 375.869293,472.989929 376.304962,472.961487 
	C383.244904,472.508392 386.960266,477.414398 390.898804,481.794220 
	C394.039612,485.286835 394.996277,480.726929 397.064148,480.359558 
	C396.777313,478.897400 396.895050,477.159241 396.123260,476.027863 
	C394.253784,473.287262 391.969940,470.829315 389.950989,467.214325 
	C392.604095,468.106598 395.203064,469.353973 397.928894,469.769775 
	C399.834015,470.060364 402.326569,469.801147 403.823822,468.746765 
	C406.561157,466.819031 408.860657,464.169800 407.674072,460.220123 
	C407.446686,459.463257 407.275696,458.689484 407.082764,457.533936 
	C412.640442,456.899017 419.595551,461.504120 421.784760,466.876160 
	C423.707642,471.594482 420.555969,480.015350 417.362885,483.980408 
	C411.104614,491.751587 402.876862,489.828308 394.465271,489.939148 
z"/>
<path fill="transparent" opacity="1.000000" stroke="none" 
	d="
M372.978241,419.502625 
	C369.684906,420.436554 365.169098,418.496185 364.262573,423.920990 
	C363.952789,425.774689 364.370453,427.740784 364.167847,429.624573 
	C364.016663,431.029999 363.663177,432.580505 362.856049,433.659790 
	C362.566254,434.047272 360.457672,433.555542 359.586731,432.912781 
	C358.333405,431.987762 356.954193,430.717224 356.506287,429.314056 
	C355.181000,425.162384 352.414368,426.883362 350.828033,428.229614 
	C348.826843,429.927979 347.734222,432.431946 350.538483,434.966919 
	C352.605774,436.835693 354.419434,439.055084 355.999268,441.356384 
	C356.580872,442.203644 356.189056,443.733429 356.198364,444.952240 
	C356.202118,445.443024 355.850433,446.170166 356.067139,446.391388 
	C360.884308,451.309235 354.658478,455.068329 354.921600,459.524292 
	C350.359528,461.259491 348.440186,457.980591 347.115173,455.104584 
	C345.310181,451.186798 343.837921,446.954102 343.235596,442.712646 
	C342.938873,440.623230 345.193115,438.282867 345.806427,435.929321 
	C347.000610,431.346863 345.978485,430.253540 340.486023,429.977783 
	C340.527527,414.005920 349.837585,405.834473 363.601807,409.978699 
	C368.275665,411.385925 371.277832,414.626801 372.978241,419.502625 
z"/>
<path fill="transparent" opacity="1.000000" stroke="none" 
	d="
M316.522644,455.035309 
	C317.497467,455.690125 318.135529,456.927399 318.559448,456.857941 
	C321.888458,456.312439 325.156769,455.389832 328.488586,454.871674 
	C329.560577,454.704926 330.881195,455.192291 331.888824,455.744171 
	C334.305176,457.067657 336.605011,458.604218 338.948761,460.059845 
	C342.030853,461.974030 345.677795,463.481232 344.752930,468.969208 
	C339.118866,468.969208 333.347137,469.251587 327.636169,468.786926 
	C326.044373,468.657379 324.499725,466.438171 323.172974,464.962219 
	C321.673645,463.294434 320.693481,461.080872 319.004578,459.691986 
	C317.976288,458.846344 315.213440,458.398773 314.675415,459.021484 
	C313.527557,460.349976 312.358063,462.909882 312.924957,464.214722 
	C314.180969,467.105804 316.502563,469.533966 318.837646,472.772217 
	C317.655090,472.854370 316.077545,473.470490 315.120178,472.948669 
	C308.705933,469.452667 306.416443,470.012695 302.445068,475.736115 
	C299.662659,479.746094 303.012054,481.788544 304.951599,483.859100 
	C308.487396,487.633820 311.905579,484.391449 315.247711,482.894409 
	C317.121979,482.054810 318.979919,481.178711 321.396454,481.298309 
	C320.061371,483.954102 318.726288,486.609894 317.214813,489.581299 
	C309.489746,490.773712 302.584839,490.024261 297.187714,483.633606 
	C292.474640,478.052795 293.368927,471.919769 295.122650,465.915436 
	C296.661896,460.645477 300.900635,457.873199 306.350677,456.976166 
	C309.615295,456.438843 312.842590,455.674622 316.522644,455.035309 
z"/>
<path fill="transparent" opacity="1.000000" stroke="none" 
	d="
M326.656860,489.905090 
	C328.012451,483.680878 337.325653,475.508667 343.596619,476.900909 
	C347.337585,477.731537 348.024811,478.897186 346.311829,482.446960 
	C344.708984,485.768494 344.647614,489.913361 340.436218,491.944885 
	C339.018402,491.322754 337.993561,490.190430 336.880280,490.095551 
	C333.640686,489.819427 330.365723,489.958588 326.656860,489.905090 
z"/>
<path fill="transparent" opacity="1.000000" stroke="none" 
	d="
M381.520508,455.043793 
	C381.588257,456.465912 381.213348,457.859467 380.712158,459.722626 
	C375.275299,461.686554 369.545227,463.756409 363.838104,465.817963 
	C361.570587,460.645905 362.826294,456.794464 367.031433,453.809265 
	C368.680328,452.638702 369.591522,450.476318 371.041077,448.959015 
	C371.856445,448.105591 373.084564,447.646515 374.530334,447.023651 
	C374.933990,449.463959 374.933990,451.890381 374.933990,455.015259 
	C377.284821,455.015259 379.181366,455.015259 381.520508,455.043793 
z"/>
<path fill="transparent" opacity="1.000000" stroke="none" 
	d="
M404.567810,455.590057 
	C402.641418,455.954224 400.427002,455.642212 398.385193,456.100067 
	C396.803040,456.454926 395.480774,457.858368 393.961365,458.636292 
	C392.591858,459.337494 391.111542,459.822266 389.680084,460.402527 
	C389.375336,460.005737 389.070587,459.608948 388.765839,459.212158 
	C389.499054,458.086945 390.232239,456.961700 390.989502,455.454346 
	C395.460419,455.129944 399.907257,455.187683 404.567810,455.590057 
z"/>
<path fill="#F8A11A" opacity="1.000000" stroke="none" 
	d="
M659.145508,775.304199 
	C659.323975,773.627136 659.288940,771.780090 660.193115,770.919250 
	C672.805420,758.909790 681.499512,744.465759 687.286682,728.151733 
	C687.429443,727.749451 687.974609,727.489868 688.667542,727.015320 
	C698.623169,729.254944 706.688599,734.595154 713.322937,741.558044 
	C719.740234,748.293152 723.669250,756.528931 721.993286,766.434265 
	C720.947266,772.616760 717.779541,774.216675 711.850708,771.427734 
	C711.276794,771.157776 710.585449,771.091003 709.939636,771.035706 
	C709.464294,770.994995 708.974182,771.126953 707.789673,771.261719 
	C708.180908,773.514343 708.516663,775.700378 708.946045,777.867798 
	C709.854187,782.450989 708.666077,784.078186 704.001648,783.959778 
	C700.454407,783.869812 696.917175,783.383240 693.131531,783.051758 
	C693.821655,785.748535 694.639648,788.024109 694.885437,790.359924 
	C694.983337,791.290100 693.877686,793.173340 693.214111,793.223511 
	C688.753357,793.560974 684.746277,798.825073 679.707825,794.165100 
	C677.815735,792.415161 674.678589,792.091064 672.302673,790.768921 
	C666.137268,787.338135 663.012207,781.225037 659.145508,775.304199 
z"/>
<path fill="#FDFDFD" opacity="1.000000" stroke="none" 
	d="
M469.781311,771.247314 
	C452.882690,756.175659 444.351654,737.050171 440.478271,715.571594 
	C436.251801,692.135132 438.666779,668.945679 442.555054,645.644592 
	C444.983154,631.093933 445.727448,616.220825 446.552155,601.454651 
	C447.592010,582.836304 447.662018,564.060486 455.090851,546.557434 
	C458.434875,538.678650 462.313538,530.757690 467.403198,523.941162 
	C480.759094,506.053497 503.050995,505.895630 517.303406,522.989929 
	C523.714050,530.678772 527.680847,539.576111 529.613647,549.370056 
	C530.956848,556.176941 526.842651,560.355164 522.082336,563.989075 
	C518.783630,566.507263 515.129333,568.554077 511.744934,570.967224 
	C508.196747,573.497192 507.345673,576.379944 510.290527,580.239685 
	C518.513000,591.016724 528.323914,599.470703 542.670959,598.615845 
	C556.427856,597.796204 567.454529,591.627563 573.590942,578.432922 
	C575.262085,574.839722 574.336731,572.268860 571.245728,570.344727 
	C568.575073,568.682312 565.829590,567.050781 562.930603,565.859802 
	C549.914734,560.512634 543.764648,551.001770 545.114258,536.914795 
	C545.603577,531.807678 546.229980,526.695557 547.152405,521.651245 
	C550.674988,502.387238 570.017578,498.006989 582.233582,500.172241 
	C589.511963,501.462311 595.718506,504.780182 601.125427,509.673553 
	C620.266296,526.996277 630.961487,548.848633 635.228516,574.028198 
	C636.758179,583.054932 633.639343,590.273254 626.911072,596.771606 
	C617.741394,605.628052 608.638000,614.783997 601.013733,624.942932 
	C593.780762,634.580444 588.325867,645.583740 582.406128,656.163940 
	C578.718384,662.754822 579.917786,665.440063 587.502991,666.799255 
	C604.078796,669.769409 620.549561,669.198975 635.350098,660.372192 
	C641.315063,656.814880 645.877991,650.852295 650.914917,645.820129 
	C652.874268,643.862671 654.381470,641.452576 656.856567,638.268494 
	C659.732971,644.971985 662.411377,650.740173 664.707336,656.656799 
	C670.761475,672.258301 674.827332,688.230957 674.376404,705.200134 
	C673.760864,728.366272 663.395325,746.646973 646.510986,761.573486 
	C629.237061,776.844177 608.437012,784.792847 586.178040,789.528320 
	C566.012268,793.818481 545.669739,795.512512 525.143250,793.543396 
	C504.688141,791.581238 485.850403,785.240601 469.781311,771.247314 
M468.201752,565.080017 
	C467.265472,570.380859 468.910736,575.128662 473.602844,577.306152 
	C476.670258,578.729675 481.112518,578.811768 484.395569,577.774597 
	C489.494537,576.163879 491.933594,570.006165 490.803955,564.681641 
	C489.882202,560.336914 485.170044,556.403992 480.437347,556.029419 
	C474.772156,555.580994 470.839508,558.301819 468.201752,565.080017 
M604.581482,568.180420 
	C605.467285,567.205078 606.546021,566.344543 607.206421,565.235046 
	C610.649841,559.450256 608.529114,551.947510 602.696899,548.948730 
	C597.112549,546.077393 589.808838,548.528015 586.950562,554.232117 
	C584.946655,558.231201 585.826843,564.114380 588.893250,567.217163 
	C592.747559,571.117371 598.235962,571.621521 604.581482,568.180420 
M560.002380,532.271118 
	C555.481628,534.822449 554.439941,539.118042 555.933167,543.398499 
	C556.828979,545.966248 559.455627,548.602356 561.971375,549.766785 
	C565.304749,551.309753 568.883179,550.077332 571.145386,546.792480 
	C573.789978,542.952332 573.622681,538.947998 571.089172,535.160278 
	C568.557373,531.375305 565.009583,530.244141 560.002380,532.271118 
M494.029388,543.506958 
	C494.256561,547.861145 496.058929,551.686951 500.395752,552.440857 
	C503.050201,552.902283 506.669434,551.781311 508.855377,550.083496 
	C512.564575,547.202576 512.288696,542.704834 510.576599,538.699951 
	C508.956451,534.910278 505.623322,533.510437 501.585602,534.109253 
	C496.696472,534.834106 494.842499,538.333862 494.029388,543.506958 
z"/>
<path fill="#EE9F1B" opacity="1.000000" stroke="none" 
	d="
M523.002441,577.996765 
	C523.269104,577.196594 523.290161,576.013245 523.842712,575.659180 
	C527.177429,573.522278 530.643677,571.591797 534.046570,569.559753 
	C537.334045,567.596680 540.647766,566.755127 544.329468,568.636169 
	C548.798889,570.919678 554.839722,570.205322 557.057617,575.879272 
	C556.093811,576.591431 555.718323,577.079224 555.342834,577.566956 
	C555.342834,577.566956 555.505493,577.370239 555.146362,577.296997 
	C549.727234,578.162964 544.679932,579.764648 539.603638,579.862671 
	C534.083984,579.969177 528.537354,578.678345 523.002441,577.996765 
z"/>
<path fill="#ECDD25" opacity="1.000000" stroke="none" 
	d="
M523.112183,578.314697 
	C528.537354,578.678345 534.083984,579.969177 539.603638,579.862671 
	C544.679932,579.764648 549.727234,578.162964 555.206055,577.409790 
	C555.567932,577.907959 555.613464,578.301086 555.439697,578.520691 
	C543.059082,594.170288 540.373230,594.690979 523.112183,578.314697 
z"/>
<path fill="#ECDD25" opacity="1.000000" stroke="none" 
	d="
M555.679443,577.610718 
	C555.718323,577.079224 556.093811,576.591431 556.820801,576.092896 
	C556.786865,576.606201 556.401428,577.130371 555.679443,577.610718 
z"/>
<path fill="#F48875" opacity="1.000000" stroke="none" 
	d="
M468.330444,564.698242 
	C470.839508,558.301819 474.772156,555.580994 480.437347,556.029419 
	C485.170044,556.403992 489.882202,560.336914 490.803955,564.681641 
	C491.933594,570.006165 489.494537,576.163879 484.395569,577.774597 
	C481.112518,578.811768 476.670258,578.729675 473.602844,577.306152 
	C468.910736,575.128662 467.265472,570.380859 468.330444,564.698242 
z"/>
<path fill="#F48875" opacity="1.000000" stroke="none" 
	d="
M604.266479,568.390381 
	C598.235962,571.621521 592.747559,571.117371 588.893250,567.217163 
	C585.826843,564.114380 584.946655,558.231201 586.950562,554.232117 
	C589.808838,548.528015 597.112549,546.077393 602.696899,548.948730 
	C608.529114,551.947510 610.649841,559.450256 607.206421,565.235046 
	C606.546021,566.344543 605.467285,567.205078 604.266479,568.390381 
z"/>
<path fill="#1F2323" opacity="1.000000" stroke="none" 
	d="
M560.341797,532.087524 
	C565.009583,530.244141 568.557373,531.375305 571.089172,535.160278 
	C573.622681,538.947998 573.789978,542.952332 571.145386,546.792480 
	C568.883179,550.077332 565.304749,551.309753 561.971375,549.766785 
	C559.455627,548.602356 556.828979,545.966248 555.933167,543.398499 
	C554.439941,539.118042 555.481628,534.822449 560.341797,532.087524 
M563.469055,538.985474 
	C561.875427,539.506714 560.281738,540.027893 558.688110,540.549072 
	C558.653259,541.028687 558.618469,541.508240 558.583618,541.987854 
	C560.536316,542.138184 563.278137,543.138977 564.252502,542.234924 
	C565.633118,540.953979 565.710510,538.268616 566.344910,536.183472 
	C565.841736,536.028442 565.338562,535.873474 564.835388,535.718445 
	C564.535156,536.612427 564.234924,537.506470 563.469055,538.985474 
z"/>
<path fill="#1F2323" opacity="1.000000" stroke="none" 
	d="
M494.033295,543.104797 
	C494.842499,538.333862 496.696472,534.834106 501.585602,534.109253 
	C505.623322,533.510437 508.956451,534.910278 510.576599,538.699951 
	C512.288696,542.704834 512.564575,547.202576 508.855377,550.083496 
	C506.669434,551.781311 503.050201,552.902283 500.395752,552.440857 
	C496.058929,551.686951 494.256561,547.861145 494.033295,543.104797 
M499.234924,541.810669 
	C498.667603,541.401733 498.100250,540.992737 497.532928,540.583801 
	C497.237000,540.912354 496.941040,541.240906 496.645111,541.569397 
	C497.894012,542.739624 498.978363,544.483154 500.442505,544.903442 
	C501.673096,545.256592 504.081390,544.480835 504.649933,543.466125 
	C505.493866,541.959900 505.173828,539.801575 505.313293,538.306335 
	C503.221313,539.776489 501.556396,540.946472 499.234924,541.810669 
z"/>
<path fill="#499DC9" opacity="1.000000" stroke="none" 
	d="
M563.701904,538.692993 
	C564.234924,537.506470 564.535156,536.612427 564.835388,535.718445 
	C565.338562,535.873474 565.841736,536.028442 566.344910,536.183472 
	C565.710510,538.268616 565.633118,540.953979 564.252502,542.234924 
	C563.278137,543.138977 560.536316,542.138184 558.583618,541.987854 
	C558.618469,541.508240 558.653259,541.028687 558.688110,540.549072 
	C560.281738,540.027893 561.875427,539.506714 563.701904,538.692993 
z"/>
<path fill="#499DC9" opacity="1.000000" stroke="none" 
	d="
M499.563232,541.963562 
	C501.556396,540.946472 503.221313,539.776489 505.313293,538.306335 
	C505.173828,539.801575 505.493866,541.959900 504.649933,543.466125 
	C504.081390,544.480835 501.673096,545.256592 500.442505,544.903442 
	C498.978363,544.483154 497.894012,542.739624 496.645111,541.569397 
	C496.941040,541.240906 497.237000,540.912354 497.532928,540.583801 
	C498.100250,540.992737 498.667603,541.401733 499.563232,541.963562 
z"/>
</svg>
