<svg version="1.1" id="Layer_1" xmlns="http://www.w3.org/2000/svg" xmlns:xlink="http://www.w3.org/1999/xlink" x="0px" y="0px"
	 width="100%" viewBox="0 0 2000 2000" enable-background="new 0 0 2000 2000" xml:space="preserve">
<path  fill="transparent" opacity="1.000000" stroke="none" 
	d="
M1310.000000,0.999999 
	C1540.319580,1.000000 1770.639160,1.000000 2000.979370,1.000000 
	C2000.979370,667.613098 2000.979370,1334.226196 2000.979370,2000.919678 
	C1334.426758,2000.919678 667.853455,2000.919678 1.140083,2000.919678 
	C1.140083,1334.333374 1.140083,667.666687 1.140083,1.000000 
	C8.766301,1.000000 16.432245,1.000000 24.640385,1.331375 
	C77.542763,81.025490 129.890945,160.396164 182.272110,239.745041 
	C194.458359,258.205231 206.756927,276.591248 219.064240,295.350281 
	C226.714691,307.235596 234.179382,318.866913 241.927002,330.306580 
	C251.295517,344.139557 261.925476,356.915802 274.847168,368.069153 
	C291.160675,382.701385 308.770447,394.816681 329.096863,403.350586 
	C345.244568,410.575500 361.632965,415.943146 379.226929,418.590759 
	C387.026642,419.534485 394.488129,420.290741 402.278198,421.221741 
	C404.365173,421.370148 406.123596,421.343842 408.340149,421.447540 
	C428.725159,421.592560 448.652039,421.642670 468.578796,421.605530 
	C476.701355,421.590393 484.823608,421.386078 493.394165,421.425232 
	C515.261963,421.519287 536.681641,421.455872 558.462280,421.543335 
	C559.844360,421.592407 560.865356,421.490570 562.315063,421.484650 
	C564.200195,421.517151 565.656677,421.453766 567.548523,421.544556 
	C576.611450,421.589874 585.239075,421.480957 594.297607,421.469971 
	C596.193237,421.500275 597.657898,421.432678 599.535645,421.523132 
	C602.586304,421.573730 605.223938,421.466309 608.310669,421.459412 
	C611.204163,421.489136 613.648560,421.418365 616.382568,421.497162 
	C617.082275,421.546478 617.492371,421.446228 618.364746,421.450806 
	C629.208618,421.454498 639.590210,421.353394 650.412109,421.419556 
	C661.630859,421.514801 672.409302,421.442810 683.619263,421.516602 
	C697.959473,421.553802 711.868164,421.445190 726.166138,421.451813 
	C727.353027,421.483887 728.150574,421.400726 729.397339,421.473602 
	C737.814331,421.530396 745.782166,421.431152 754.216309,421.455872 
	C759.786865,421.484894 764.890991,421.389984 770.437378,421.451324 
	C771.710754,421.640930 772.541931,421.703278 773.373047,421.703369 
	C852.114563,421.714355 930.856079,421.722992 1009.597595,421.708893 
	C1011.074524,421.708649 1012.551392,421.436218 1014.479370,421.419067 
	C1074.991577,421.589874 1135.052612,421.634247 1195.113647,421.657898 
	C1196.092529,421.658295 1197.071533,421.404694 1198.494019,421.409088 
	C1253.981689,421.587036 1309.025879,421.627594 1364.069946,421.647430 
	C1365.048340,421.647797 1366.026733,421.399750 1367.454712,421.405396 
	C1412.288452,421.574463 1456.672485,421.608215 1501.056641,421.621033 
	C1502.035645,421.621338 1503.014771,421.383331 1504.442139,421.400818 
	C1558.113770,421.545135 1611.337036,421.545135 1665.285278,421.545135 
	C1663.988892,419.476135 1663.184204,418.078583 1662.273315,416.754059 
	C1615.347412,348.521606 1568.412354,280.295410 1521.478394,212.068466 
	C1516.649902,205.049591 1511.823242,198.029572 1506.930908,190.670654 
	C1478.307983,149.378220 1449.934814,108.294502 1421.111328,67.529213 
	C1407.375366,48.102306 1388.856689,33.896206 1367.953613,22.168678 
	C1352.880981,13.718611 1337.222168,7.649788 1320.693970,3.814271 
	C1317.104858,2.981399 1313.563354,1.943480 1310.000000,0.999999 

z"/>
<path fill="#FE4043" opacity="1.000000" stroke="none" 
	d="
M785.988281,274.425781 
	C778.852112,274.838348 771.720093,274.838348 764.206543,274.838348 
	C764.206543,262.059204 764.206543,249.350479 764.206543,235.941879 
	C795.654419,235.941879 827.286743,235.941879 859.542358,235.941879 
	C859.542358,226.474030 859.542358,217.694855 859.681824,208.467636 
	C864.636597,208.842957 867.326843,211.926285 868.644531,216.405991 
	C870.472229,222.619781 870.677429,228.744797 868.209167,234.933121 
	C866.147156,240.102631 860.201172,244.501633 854.674072,245.058060 
	C845.962769,245.935043 837.282288,247.136459 828.602539,248.303589 
	C819.928284,249.469986 811.277222,250.809433 802.604187,251.985626 
	C795.856018,252.900757 789.696289,255.638779 786.622131,261.577728 
	C784.885559,264.932617 786.104675,269.817474 785.988281,274.425781 
z"/>
<path fill="#FE4043" opacity="1.000000" stroke="none" 
	d="
M780.991821,189.402908 
	C775.511597,189.846497 770.038208,189.846497 764.195190,189.846497 
	C764.195190,178.037598 764.195190,166.326706 764.195190,154.119293 
	C800.020386,154.119293 835.901245,154.119293 872.528809,154.119293 
	C872.528809,146.386444 872.528809,139.135315 872.663452,131.452042 
	C874.103760,131.878052 875.940063,132.433884 876.628967,133.643311 
	C881.142578,141.567612 877.467163,153.960541 869.371277,158.228561 
	C867.538879,159.194580 865.353882,159.751968 863.278076,159.955292 
	C845.733032,161.673828 828.169250,163.201797 810.626343,164.941010 
	C806.053345,165.394363 801.398254,165.928040 797.015320,167.220078 
	C783.716187,171.140488 781.026123,175.024689 780.991821,189.402908 
z"/>
<path fill="#FFFFFF" opacity="1.000000" stroke="none" 
	d="
M660.684204,117.662788 
	C660.753601,141.336960 660.589722,164.647156 660.554810,187.957550 
	C660.489197,231.763733 660.498779,275.570007 660.468689,319.376251 
	C660.468262,320.037415 660.360657,320.698486 660.286011,321.554443 
	C659.717712,321.748718 659.125122,322.126923 658.531494,322.128571 
	C643.206848,322.170715 627.880676,322.273438 612.559509,322.045715 
	C610.819336,322.019897 608.665771,320.466766 607.446960,319.003082 
	C578.148560,283.820099 548.952881,248.551575 519.731445,213.304443 
	C518.494141,211.812073 517.188110,210.376770 515.195923,208.090881 
	C515.195923,246.625946 515.195923,284.130737 515.195923,322.188538 
	C497.444794,322.188538 480.174866,322.188538 462.445557,322.291016 
	C459.862549,322.241608 457.738983,322.089691 455.390686,321.921692 
	C455.390686,250.364471 455.390686,179.017990 455.390686,106.784164 
	C459.274628,106.784164 463.173370,106.784164 467.529358,106.697067 
	C478.475250,106.688980 488.971436,107.029442 499.449097,106.727119 
	C504.082855,106.593407 507.018799,108.056938 509.948914,111.618881 
	C539.358398,147.369781 568.947815,182.972733 598.821533,219.062927 
	C599.469482,219.344772 599.782471,219.181061 600.095398,219.017349 
	C600.201416,217.035858 600.398804,215.054413 600.399841,213.072876 
	C600.417603,179.676010 600.410828,146.279160 600.409546,112.882294 
	C600.409485,111.077980 600.409546,109.273666 600.409546,106.776833 
	C603.888367,106.776833 606.981262,106.776833 610.526489,106.694923 
	C627.322144,106.613014 643.665405,106.613014 660.509155,106.613014 
	C660.509155,110.734650 660.509155,114.016777 660.684204,117.662788 
z"/>
<path fill="#FE4043" opacity="1.000000" stroke="none" 
	d="
M599.833008,218.999985 
	C599.782471,219.181061 599.469482,219.344772 599.100708,219.245361 
	C599.220154,218.982361 599.395447,218.982498 599.833008,218.999985 
z"/>
</svg>
