<svg xmlns="http://www.w3.org/2000/svg" xmlns:xlink="http://www.w3.org/1999/xlink" version="1.1" id="Layer_1" x="0px" y="0px" viewBox="0 0 100 100" style="enable-background:new 0 0 100 100;" xml:space="preserve">
<style type="text/css">
	.st0{fill:#FF3038;}
	.st1{fill:#FF6D73;}
	.st2{fill:#00BDC2;}
	.st3{fill:#00F7F0;}
	.st4{fill:#FB9F1C;}
	.st5{fill:#FFDE46;}
	.st6{fill:#FFFFFF;}
	.st7{fill:#303238;}
</style>
<g>
	<g>
		<g>
			<g>
				<path class="st0" d="M79,40.31l-0.48,0.47c-3.08,3.05-3.77,7.63-2.1,11.63c0.9,2.17,1.4,4.55,1.4,7.04      c0,10.09-8.15,18.27-18.2,18.27s-18.2-8.18-18.2-18.27c0-10.09,8.15-18.27,18.2-18.27c0.11,0,0.21,0,0.32,0      c4.42,0.08,8.48-2.38,10.22-6.44l0,0c2.94-6.91-2-14.62-9.5-14.81c-0.34-0.01-0.69-0.01-1.04-0.01      c-21.75,0-39.38,17.7-39.38,39.54C20.24,81.3,37.87,99,59.62,99S99,81.3,99,59.46c0-5.72-1.21-11.15-3.39-16.06      C92.7,36.85,84.1,35.28,79,40.31z"/>
				<path class="st1" d="M59.62,93.6c-19.51,0-35.38-15.94-35.38-35.54s15.87-35.54,35.38-35.54c0.31,0,0.62,0,0.93,0.01      c2.23,0.06,4.19,1.17,5.4,3.05c1.21,1.88,1.4,4.14,0.52,6.2c-1.04,2.44-3.53,4.01-6.33,4.01l-0.52,0      c-12.24,0-22.2,9.99-22.2,22.27s9.96,22.28,22.2,22.28c12.24,0,22.2-9.99,22.2-22.28c0-2.97-0.58-5.86-1.71-8.58      c-1.08-2.6-0.6-5.44,1.22-7.25l0.48-0.48c1.19-1.17,2.75-1.82,4.41-1.82c1.98,0,4.52,0.97,5.73,3.69      C93.97,48.18,95,53.03,95,58.06C95,77.66,79.13,93.6,59.62,93.6z"/>
			</g>
			<path class="st2" d="M15.33,99H15.3C8.45,99,2.89,93.44,2.89,86.59V45.69c0-6.85,5.56-12.41,12.41-12.41h0.03     c6.85,0,12.41,5.56,12.41,12.41v40.91C27.73,93.44,22.18,99,15.33,99z"/>
			<path class="st3" d="M14.24,93.6L14.24,93.6c-4.94,0-8.94-4-8.94-8.94V45.19c0-4.93,4-8.94,8.94-8.94h0c4.93,0,8.94,4,8.94,8.94     v39.47C23.18,89.6,19.18,93.6,14.24,93.6z"/>
		</g>
		<path class="st4" d="M15.33,29.74H15.3c-7.9,0-14.3-6.4-14.3-14.3V15.3C1,7.4,7.4,1,15.3,1h0.03c7.9,0,14.3,6.4,14.3,14.3v0.14    C29.63,23.34,23.23,29.74,15.33,29.74z"/>
		<path class="st5" d="M13.7,23.33h-0.02c-5.59,0-10.12-4.53-10.12-10.12v-0.1c0-5.59,4.53-10.12,10.12-10.12h0.02    c5.59,0,10.12,4.53,10.12,10.12v0.1C23.82,18.8,19.29,23.33,13.7,23.33z"/>
		<ellipse class="st5" cx="46.08" cy="21.05" rx="10.14" ry="10.18"/>
		<ellipse class="st5" cx="67.03" cy="8.44" rx="7.41" ry="7.44"/>
	</g>
	<g>
		<circle class="st6" cx="80.17" cy="43.85" r="5.04"/>
		<circle class="st7" cx="79.55" cy="42.64" r="3.07"/>
	</g>
	<g>
		<circle class="st6" cx="90.24" cy="38.82" r="5.04"/>
		<circle class="st7" cx="89.63" cy="37.61" r="3.07"/>
	</g>
	<g>
		<circle class="st6" cx="9.9" cy="34.94" r="5.04"/>
		<circle class="st7" cx="9.29" cy="33.73" r="3.07"/>
	</g>
	<g>
		<circle class="st6" cx="21.57" cy="34.94" r="5.04"/>
		<circle class="st7" cx="22.18" cy="33.73" r="3.07"/>
	</g>
</g>
</svg>
