<?xml version="1.0" standalone="no"?>
<!DOCTYPE svg PUBLIC "-//W3C//DTD SVG 20010904//EN"
 "http://www.w3.org/TR/2001/REC-SVG-20010904/DTD/svg10.dtd">
<svg version="1.0" xmlns="http://www.w3.org/2000/svg"
 width="512pt" height="512pt" viewBox="0 0 512 512"
 preserveAspectRatio="xMidYMid meet">
<metadata>
Created by potrace 1.16, written by Peter Selinger 2001-2019
</metadata>
<!-- Añadir fondo blanco detrás del texto -->
<rect x="0" y="0" width="100%" height="100%" fill="white"/>
<g transform="translate(0.000000,512.000000) scale(0.100000,-0.100000)"
fill="#FE4043" stroke="none">
<path d="M0 4980 l0 -141 173 -322 c96 -177 216 -401 267 -497 112 -210 159
-280 242 -355 73 -66 195 -129 281 -144 40 -7 702 -11 2048 -11 1094 0 1989 2
1989 4 0 9 -746 1338 -777 1384 -50 73 -134 146 -217 188 l-69 34 -1968 0
-1969 0 0 -140z m1501 -465 l144 -215 3 216 2 215 98 -3 97 -3 0 -415 0 -415
-82 -3 -82 -3 -146 218 -145 218 0 -218 0 -217 -100 0 -100 0 0 420 0 420 83
0 83 0 145 -215z m1009 120 l0 -95 -170 0 -170 0 0 -65 0 -65 150 0 150 0 0
-95 0 -95 -150 0 -150 0 0 -70 0 -70 180 0 181 0 -3 -92 -3 -93 -277 -3 -278
-2 0 420 0 420 270 0 270 0 0 -95z m321 -155 c35 -137 66 -250 69 -250 3 0 30
91 59 203 30 111 61 224 68 250 l14 48 91 -3 91 -3 66 -257 c36 -141 66 -256
68 -255 1 1 32 115 68 252 37 137 69 253 71 257 8 13 184 10 184 -4 0 -14
-210 -810 -217 -820 -2 -5 -50 -8 -107 -8 l-103 0 -64 248 c-35 136 -65 240
-67 232 -2 -8 -31 -118 -65 -245 l-62 -230 -108 -3 c-59 -1 -107 -1 -107 1 0
4 -207 789 -216 820 -5 15 4 17 99 17 l104 0 64 -250z"/>
</g>
</svg>
