<?xml version="1.0" encoding="UTF-8"?>
<svg version="1.1" xmlns="http://www.w3.org/2000/svg" width="2000" height="2000">
<path d="M0 0 C39.27506441 -0.02749231 78.55012956 -0.05385176 117.82519531 -0.0793457 C118.59376741 -0.07984469 119.3623395 -0.08034368 120.15420166 -0.08085779 C202.51911797 -0.13430165 284.88403451 -0.1804152 367.2489624 -0.2117157 C369.07883218 -0.21241295 370.90870195 -0.21311021 372.73857172 -0.21380747 C411.14933525 -0.22842139 449.56009908 -0.24200491 487.97086338 -0.25439839 C507.2663093 -0.26062529 526.56175515 -0.26705015 545.85720093 -0.27366221 C548.76781781 -0.27465845 551.67843468 -0.27564904 554.58905156 -0.2766394 C599.40017274 -0.29193649 644.21128714 -0.31147521 689.0223999 -0.34332275 C689.98563267 -0.34400725 690.94886544 -0.34469174 691.94128709 -0.34539698 C707.47111872 -0.35645862 723.00095009 -0.36787675 738.53078143 -0.3793422 C783.27000405 -0.4123671 828.00922145 -0.44274916 872.74845505 -0.45569897 C874.12895891 -0.45610048 874.12895891 -0.45610048 875.53735174 -0.4565101 C895.74262547 -0.46233939 915.94789927 -0.46681344 936.15317358 -0.47000491 C944.28351986 -0.47131299 952.41386611 -0.4728161 960.54421234 -0.47438622 C961.43403445 -0.47455335 962.32385656 -0.47472049 963.24064297 -0.47489269 C991.89452341 -0.48037173 1020.548365 -0.50171626 1049.20222977 -0.53141104 C1078.07463747 -0.5612595 1106.9470075 -0.57548944 1135.81943102 -0.56811994 C1139.81268352 -0.56710459 1143.80593605 -0.56626766 1147.79918861 -0.56553841 C1148.58195433 -0.565389 1149.36472005 -0.5652396 1150.17120594 -0.56508567 C1162.54733996 -0.56318516 1174.92339405 -0.57808065 1187.29950631 -0.60004931 C1199.48041036 -0.62132413 1211.66121122 -0.6246626 1223.84212511 -0.60915907 C1230.35365412 -0.60135944 1236.86497083 -0.60192644 1243.37647668 -0.62441591 C1249.30840848 -0.64474764 1255.23986811 -0.64175521 1261.17179321 -0.62069988 C1263.29665157 -0.61714897 1265.42154531 -0.62185719 1267.54635838 -0.63617622 C1312.53475986 -0.91995989 1353.0971241 21.67789723 1385 52 C1385.63164063 52.57878906 1386.26328125 53.15757813 1386.9140625 53.75390625 C1404.04663847 69.95271623 1416.56673103 92.14232691 1429.4206543 111.66748047 C1433.13058234 117.28421709 1436.9817222 122.76071008 1440.96435547 128.18701172 C1444.52677197 133.10979451 1447.91188095 138.15223855 1451.3125 143.1875 C1452.81300419 145.40288481 1454.31478923 147.61740064 1455.81640625 149.83203125 C1456.53586426 150.89373535 1457.25532227 151.95543945 1457.99658203 153.04931641 C1460.56662842 156.83454437 1463.15369784 160.60774945 1465.75 164.375 C1469.67779184 170.07576894 1473.59276117 175.78512148 1477.5 181.5 C1481.49232941 187.33863542 1485.49041276 193.17320216 1489.5 199 C1494.06666905 205.63635824 1498.6170039 212.2837874 1503.1640625 218.93359375 C1506.6023128 223.960609 1510.04749607 228.98276475 1513.5 234 C1517.50958738 239.82679803 1521.50760903 245.66140652 1525.5 251.5 C1531.31924338 260.00972322 1537.15574869 268.50743862 1543 277 C1549.40119079 286.3018768 1555.79003837 295.61200944 1562.16357422 304.93286133 C1565.60197218 309.96013108 1569.04732974 314.98252305 1572.5 320 C1577.06666905 326.63635824 1581.6170039 333.2837874 1586.1640625 339.93359375 C1589.6023128 344.960609 1593.04749607 349.98276475 1596.5 355 C1600.50958738 360.82679803 1604.50760903 366.66140652 1608.5 372.5 C1612.53494645 378.40047111 1616.57476729 384.29751044 1620.625 390.1875 C1621.06593994 390.82937256 1621.50687988 391.47124512 1621.96118164 392.13256836 C1624.2954668 395.52894257 1626.63719698 398.9199172 1628.98828125 402.3046875 C1629.72860596 403.37360229 1629.72860596 403.37360229 1630.48388672 404.46411133 C1631.41936439 405.81453635 1632.35701815 407.16345787 1633.29736328 408.51049805 C1633.72388184 409.12707275 1634.15040039 409.74364746 1634.58984375 410.37890625 C1634.95972412 410.9107251 1635.32960449 411.44254395 1635.71069336 411.99047852 C1637.59409429 414.92595911 1639.2755897 417.96842607 1641 421 C1602.4245608 421.01649586 1563.84912133 421.03231146 1525.27368164 421.04760742 C1524.51878064 421.04790681 1523.76387963 421.04820621 1522.98610284 421.04851467 C1442.07573322 421.08058515 1361.1653635 421.10825217 1280.25498962 421.12702942 C1278.45714461 421.12744777 1276.6592996 421.12786613 1274.86145458 421.12828448 C1237.12174054 421.1370531 1199.38202638 421.14520319 1161.64231205 421.15263903 C1142.68356319 421.15637513 1123.72481436 421.16023005 1104.76606554 421.16419732 C1101.90626306 421.16479507 1099.04646057 421.16538943 1096.18665809 421.16598364 C1052.16528973 421.17516035 1008.14392386 421.18688066 964.12255859 421.20599365 C963.17652264 421.20640435 962.23048668 421.20681505 961.25578297 421.20723819 C946.00350741 421.21387505 930.75123195 421.22072598 915.49895651 421.22760532 C871.55169832 421.24742391 827.60444205 421.26565186 783.65717983 421.27341938 C782.75286214 421.27357999 781.84854445 421.27374059 780.91682319 421.27390606 C761.06174446 421.27740388 741.20666571 421.2800882 721.35158677 421.28200295 C713.36178108 421.28278778 705.3719754 421.28368965 697.38216972 421.28463173 C696.07052036 421.28478215 696.07052036 421.28478215 694.73237303 421.28493561 C666.58844132 421.28822137 638.44452388 421.30102241 610.30059792 421.31884663 C581.93481311 421.33676758 553.56904211 421.3452904 525.2032515 421.34087196 C521.27734035 421.34026278 517.3514292 421.33976061 513.42551804 421.33932304 C512.65597331 421.3392334 511.88642858 421.33914376 511.09356432 421.3390514 C498.94146045 421.33791246 486.78938595 421.34683644 474.63729007 421.36002959 C462.66787001 421.37281527 450.69848776 421.37478217 438.72906407 421.36549544 C432.33431773 421.36097685 425.93966888 421.36111658 419.54493309 421.37464955 C413.71317709 421.38689677 407.88159359 421.38500722 402.04983987 421.37241993 C399.96681742 421.37029886 397.88378183 421.37307365 395.80077619 421.38170573 C351.70441111 421.55267454 307.31683728 410.98819549 271 385 C270.00613281 384.29617188 269.01226562 383.59234375 267.98828125 382.8671875 C240.39249121 362.73849359 221.10981867 337.52025753 202.5625 309.1875 C201.37790164 307.38261723 200.19299913 305.57793404 199.0078125 303.7734375 C196.55368054 300.03641055 194.1008392 296.2985415 191.64892578 292.56005859 C186.49997196 284.71152059 181.33501442 276.87353285 176.17037964 269.03530884 C173.36284769 264.77402572 170.55648634 260.5119718 167.75 256.25 C166.62500554 254.54166302 165.50000554 252.83332969 164.375 251.125 C135.125 206.70833333 105.875 162.29166667 76.625 117.875 C76.06813004 117.02938507 75.51126007 116.18377014 74.93751526 115.31253052 C73.8124554 113.60410139 72.68740454 111.89566633 71.56236267 110.18722534 C68.7508523 105.9178091 65.93918591 101.64849578 63.12719727 97.37939453 C58.05284632 89.67529124 52.97960517 81.97046952 47.9122467 74.26176453 C45.64969823 70.81999225 43.38644581 67.37868334 41.12295532 63.93753052 C40.00587902 62.23915141 38.88899439 60.54064622 37.77230835 58.8420105 C31.39486414 49.14316414 24.98608882 39.46653336 18.5234375 29.82421875 C17.61045647 28.46076324 17.61045647 28.46076324 16.67903137 27.06976318 C13.74896011 22.69461912 10.81419202 18.32277029 7.87084961 13.95654297 C6.82648483 12.39953165 5.78228591 10.84240906 4.73828125 9.28515625 C4.25535614 8.57268234 3.77243103 7.86020844 3.27487183 7.12614441 C0 2.22696865 0 2.22696865 0 0 Z " fill="#EC2F31" transform="translate(24,0)"/>
<path d="M0 0 C20.79 0 41.58 0 63 0 C73.62291465 32.87361425 73.62291465 32.87361425 78.31005859 47.80517578 C79.30027764 50.95523565 80.29649116 54.10339243 81.29223633 57.25170898 C84.41924198 67.14018295 87.51701571 77.0376029 90.60449219 86.93847656 C91.21522782 88.89656779 91.82632177 90.85454688 92.4375 92.8125 C92.64052734 93.46355713 92.84355469 94.11461426 93.05273438 94.78540039 C94.19396673 98.43974372 95.3453505 102.09063205 96.5078125 105.73828125 C97.02626354 107.3671169 97.54449225 108.99602333 98.0625 110.625 C98.31531738 111.41994873 98.56813477 112.21489746 98.82861328 113.03393555 C100.76347891 119.15806887 102.54284354 125.31266882 104.23828125 131.5078125 C104.76177497 133.91828919 104.76177497 133.91828919 106 135 C106.29925888 133.96011429 106.59851776 132.92022858 106.90684509 131.84883118 C109.82631349 121.77281348 112.97653298 111.79911198 116.31640625 101.85546875 C116.8188683 100.35184085 117.321053 98.84812024 117.82298279 97.34431458 C119.13576192 93.41351941 120.45211879 89.48393221 121.76934814 85.55462646 C123.06772001 81.67969334 124.36286831 77.80368357 125.65820312 73.92773438 C127.72187272 67.75407774 129.78650775 61.58074493 131.85205078 55.40771484 C132.10842127 54.64146223 132.36479176 53.87520962 132.62893105 53.08573723 C133.97471256 49.06353387 135.32090948 45.04147011 136.66766357 41.01959229 C138.04676334 36.9006931 139.42422898 32.78125033 140.80067253 28.66146278 C141.31893771 27.11115404 141.83774608 25.56102676 142.35714912 24.01109886 C143.07930278 21.8559412 143.79950249 19.7001393 144.51928711 17.54418945 C144.92714951 16.32504349 145.3350119 15.10589752 145.75523376 13.84980774 C147.24074266 9.25543213 148.61252254 4.62492488 150 0 C169.14 0 188.28 0 208 0 C211.62694834 11.45772004 215.25240531 22.91590381 218.875 34.375 C219.27968946 35.65497486 219.27968946 35.65497486 219.69255447 36.9608078 C225.68827167 55.92566035 231.67537873 74.89294635 237.56640625 93.890625 C237.778452 94.57442356 237.99049774 95.25822212 238.20896912 95.96274185 C240.38765537 102.99083026 242.56000222 110.02086084 244.72802734 117.05224609 C245.081306 118.19602722 245.43458466 119.33980835 245.79856873 120.51824951 C246.45236891 122.63548232 247.10469783 124.75317025 247.75526428 126.87139893 C248.03897385 127.78991638 248.32268341 128.70843384 248.61499023 129.65478516 C248.86014877 130.45147614 249.10530731 131.24816711 249.3578949 132.06900024 C249.96591682 134.05028528 249.96591682 134.05028528 251 136 C251.24564697 135.12520996 251.49129395 134.25041992 251.74438477 133.34912109 C255.83662813 119.01376516 260.57005565 104.88378941 265.24287796 90.73017883 C266.41649026 87.17333261 267.58702754 83.61547518 268.75756836 80.05761719 C268.99130818 79.3471801 269.22504801 78.63674301 269.46587086 77.90477753 C269.93740607 76.4715466 270.40892842 75.03831143 270.88043785 73.60507202 C271.58425701 71.4660448 272.2884116 69.32712823 272.99263 67.18823242 C277.60762674 53.16855065 282.1775877 39.134336 286.73608398 25.09619141 C287.1307637 23.88145645 287.1307637 23.88145645 287.53341675 22.6421814 C288.00557913 21.18873858 288.47733973 19.73516511 288.94851685 18.28140259 C290.93152066 12.17563344 292.96966951 6.09099146 295 0 C314.47 0 333.94 0 354 0 C347.02716294 22.24246759 339.92471537 44.43214013 332.65740967 66.57974243 C327.43134488 82.51065207 322.27572941 98.46206016 317.1875 114.4375 C310.34385587 135.9235463 303.34156735 157.35583269 296.2871542 178.7734108 C295.65742509 180.68562598 295.02816407 182.59799461 294.39903259 184.51040649 C293.63184419 186.84173909 292.86359701 189.17272368 292.0940094 191.50326538 C289.90828254 198.14541089 287.82302467 204.80938756 285.82489014 211.51054382 C285 214 285 214 284 215 C281.94443339 215.09413687 279.88559819 215.11742998 277.82788086 215.11352539 C276.86205833 215.11374443 276.86205833 215.11374443 275.87672424 215.1139679 C273.73939697 215.11326885 271.60215587 215.10547691 269.46484375 215.09765625 C267.98653715 215.09579204 266.50822993 215.09436815 265.02992249 215.09336853 C261.13201198 215.08954359 257.23413851 215.07971352 253.33624268 215.06866455 C249.36153667 215.05844992 245.38682471 215.0538708 241.41210938 215.04882812 C233.608056 215.03809122 225.80403318 215.02101509 218 215 C217.77696701 214.27031509 217.55393402 213.54063019 217.32414246 212.78883362 C216.29433944 209.42258776 215.2624157 206.05699546 214.23046875 202.69140625 C213.87980347 201.54401978 213.52913818 200.3966333 213.16784668 199.21447754 C210.98061824 192.08736905 208.70580618 184.99800053 206.3125 177.9375 C204.02046533 171.14963016 201.88647059 164.34511818 199.91552734 157.45751953 C197.97970494 150.76654741 195.74625818 144.18331868 193.515625 137.5859375 C191.52986954 131.68069965 189.75805792 125.74878395 188.1015625 119.7421875 C186.38924151 113.92515379 184.42610247 108.19296148 182.4609375 102.45703125 C180.72262131 97.3429671 179.23256364 92.25975178 178 87 C177.67 87 177.34 87 177 87 C176.77795898 87.73903564 176.55591797 88.47807129 176.32714844 89.23950195 C173.71510874 97.83933294 170.89921275 106.35859027 168.02886963 114.87484741 C164.24716406 126.10364725 160.52800236 137.33699132 157.125 148.6875 C152.3333138 164.62455433 146.82194233 180.32784027 141.38345337 196.05314636 C139.20789953 202.35419394 137.10844594 208.67466217 135 215 C113.22 215 91.44 215 69 215 C62.32853403 197.20942408 62.32853403 197.20942408 60.5625 190.75 C58.77751938 184.40736886 56.71858321 178.203717 54.5 172 C52.06952395 165.19752416 49.88430584 158.38198525 47.9140625 151.43359375 C46.31491641 145.8781187 44.4445975 140.44321094 42.5 135 C40.06976903 128.19743042 37.88431029 121.38200095 35.9140625 114.43359375 C34.31491641 108.8781187 32.4445975 103.44321094 30.5 98 C28.06976903 91.19743042 25.88431029 84.38200095 23.9140625 77.43359375 C22.31491641 71.8781187 20.4445975 66.44321094 18.5 61 C16.31255304 54.87701813 14.27397896 48.75553215 12.5 42.5 C10.21021749 34.43289049 7.46615232 26.55232899 4.6484375 18.65625 C4.37612305 17.88667969 4.10380859 17.11710937 3.82324219 16.32421875 C3.26254254 14.74122331 2.69521292 13.16056418 2.12207031 11.58203125 C1.84717773 10.80214844 1.57228516 10.02226563 1.2890625 9.21875 C1.0410791 8.52716797 0.7930957 7.83558594 0.53759766 7.12304688 C0 5 0 5 0 0 Z " fill="#FEFDFE" transform="translate(890,106)"/>
<path d="M0 0 C16.83 0 33.66 0 51 0 C56.55968358 6.11565194 61.81674825 11.90485009 66.875 18.33984375 C69.33824382 21.42342655 71.87932439 24.43264484 74.4375 27.4375 C80.10972146 34.10657467 85.64955906 40.87823453 91.171875 47.671875 C95.1874514 52.59878789 99.2493488 57.47793409 103.375 62.3125 C107.1578153 66.74861488 110.80532258 71.26600025 114.375 75.875 C118.82510521 81.61329356 123.50010895 87.11744548 128.28222656 92.58081055 C134.08053556 99.20981534 139.71405392 105.9520719 145 113 C145.33 75.71 145.66 38.42 146 0 C165.47 0 184.94 0 205 0 C205 70.95 205 141.9 205 215 C188.17 215 171.34 215 154 215 C151.03 211.37 148.06 207.74 145 204 C143.15265885 201.80673281 141.29972142 199.61814707 139.4375 197.4375 C135.56647913 192.88810829 131.80036876 188.27163093 128.08984375 183.58984375 C125.62814774 180.53918121 123.10188875 177.54852806 120.5625 174.5625 C114.89067155 167.89308441 109.35044923 161.12177567 103.828125 154.328125 C99.76593919 149.34402468 95.66218057 144.40058544 91.5 139.5 C86.59463118 133.72437864 81.78359143 127.87698376 77 122 C76.236875 121.071875 75.47375 120.14375 74.6875 119.1875 C73.924375 118.259375 73.16125 117.33125 72.375 116.375 C71.70210937 115.55773437 71.02921875 114.74046875 70.3359375 113.8984375 C67.17248869 109.97322175 64.09506012 105.97936301 61 102 C60.67 139.29 60.34 176.58 60 215 C40.2 215 20.4 215 0 215 C0 144.05 0 73.1 0 0 Z " fill="#FEFEFE" transform="translate(454,106)"/>
<path d="M0 0 C55.77 0 111.54 0 169 0 C169 15.51 169 31.02 169 47 C133.36 47 97.72 47 61 47 C61 58.88 61 70.76 61 83 C92.68 83 124.36 83 157 83 C157 98.18 157 113.36 157 129 C125.32 129 93.64 129 61 129 C61 141.87 61 154.74 61 168 C97.96 168 134.92 168 173 168 C173 183.51 173 199.02 173 215 C115.91 215 58.82 215 0 215 C0 144.05 0 73.1 0 0 Z " fill="#FEFEFE" transform="translate(702,106)"/>
</svg>
