<svg version="1.1" id="Layer_1" xmlns="http://www.w3.org/2000/svg" xmlns:xlink="http://www.w3.org/1999/xlink" x="0px" y="0px"
	 width="100%" viewBox="0 0 512 512" enable-background="new 0 0 512 512" xml:space="preserve">
<path fill="transparent" opacity="1.000000" stroke="none" 
	d="
M223.000000,513.000000 
	C149.065308,513.000000 75.130600,513.000000 1.000000,513.000000 
	C1.000000,421.979187 1.000000,330.958252 1.368587,239.372528 
	C2.200838,239.621460 2.756139,240.396927 3.114281,241.254684 
	C7.716482,252.277161 14.981929,260.840851 26.066010,266.370483 
	C38.228626,273.574799 51.276363,276.897980 64.965569,278.532104 
	C65.656471,283.825470 66.140236,288.724945 67.041245,293.546478 
	C69.542740,306.932587 74.763023,319.175842 83.102280,330.410400 
	C86.265053,334.407196 89.154541,338.210541 92.329292,341.758606 
	C94.850487,344.576263 95.838493,346.945892 93.714203,350.790894 
	C82.996368,370.190521 82.928062,389.715546 94.101929,409.414917 
	C95.976891,412.125519 97.582741,414.627655 99.445793,416.920837 
	C103.873367,422.370728 108.291435,427.084503 109.452904,435.102020 
	C111.431862,448.762604 118.125740,460.926361 128.065506,471.350403 
	C131.865417,474.970978 135.313004,478.541229 139.179260,481.578583 
	C149.051025,489.333740 159.787170,495.579224 172.173950,499.381042 
	C187.313278,505.664337 202.970657,508.615509 218.766357,511.048920 
	C220.242737,511.276367 221.591827,512.329956 223.000000,513.000000 
z"/>
<path fill="transparent" opacity="1.000000" stroke="none" 
	d="
M244.000000,0.999999 
	C333.583160,1.000000 423.166290,1.000000 513.000000,1.000000 
	C513.000000,67.687355 513.000000,134.375015 512.641602,201.523163 
	C511.552246,200.744110 510.671051,199.568375 510.113495,198.255234 
	C504.241943,184.427078 494.393829,174.052185 481.858154,165.539337 
	C470.171051,160.720367 458.687927,156.205002 447.263031,151.546936 
	C445.682434,150.902481 444.125916,149.779938 443.010132,148.488342 
	C438.595032,143.377548 434.359711,138.111465 430.011383,132.560425 
	C428.256500,130.029999 426.641144,127.761261 424.824249,125.667366 
	C413.589539,112.720062 402.309479,99.812111 390.971008,86.559715 
	C390.236755,85.294991 389.722626,84.198639 388.893341,83.452576 
	C375.302338,71.225632 361.671570,59.042896 347.846313,46.585892 
	C333.091522,37.609138 318.540222,28.896708 303.668549,20.004589 
	C293.451965,16.160374 283.684296,12.079475 273.616547,8.970237 
	C266.281982,6.705083 258.551483,5.721895 250.651367,3.982777 
	C248.203506,2.865580 246.101746,1.932789 244.000000,0.999999 
z"/>
<path fill="transparent" opacity="1.000000" stroke="none" 
	d="
M513.000000,324.000000 
	C513.000000,386.934937 513.000000,449.869873 513.000000,513.000000 
	C434.979218,513.000000 356.958252,513.000000 278.488159,512.612244 
	C278.710205,511.831207 279.335144,511.264801 280.059692,511.071259 
	C288.024933,508.943848 296.005676,506.874451 304.323212,504.695190 
	C329.338837,495.822571 351.593170,482.762665 371.008331,465.302155 
	C394.302765,444.352905 411.854187,419.187622 423.124573,389.823181 
	C424.373962,386.567841 426.106262,384.321259 430.398865,384.885254 
	C435.063812,384.288544 439.349579,383.843658 443.546661,382.971802 
	C476.173950,376.194244 499.592743,358.412903 511.008423,326.326202 
	C511.327881,325.428253 512.321045,324.770020 513.000000,324.000000 
z"/>
<path fill="transparent" opacity="1.000000" stroke="none" 
	d="
M0.999999,212.000000 
	C1.000000,141.745621 1.000000,71.491241 1.000000,1.000000 
	C60.354019,1.000000 119.708351,1.000000 179.580002,1.410841 
	C175.060425,2.882070 170.026169,3.955123 164.986130,5.000326 
	C152.794189,7.528684 140.854294,10.791142 129.552750,17.011906 
	C124.688774,19.743881 120.042236,22.225733 115.691551,25.148066 
	C98.971130,36.379089 87.847260,52.110077 80.061134,70.380371 
	C73.500893,85.774124 69.471649,101.862816 67.976059,118.520012 
	C66.826218,131.326416 66.087448,144.169754 65.106155,157.419937 
	C64.976074,161.176056 65.789284,164.957581 60.593658,165.947983 
	C52.539749,169.329742 44.639786,172.215866 37.223736,176.040359 
	C22.019245,183.881363 8.951685,194.057068 2.814105,210.965118 
	C2.633051,211.463852 1.623341,211.661804 0.999999,212.000000 
z"/>
<path fill="#323E44" opacity="1.000000" stroke="none" 
	d="
M513.000000,323.531342 
	C512.321045,324.770020 511.327881,325.428253 511.008423,326.326202 
	C499.592743,358.412903 476.173950,376.194244 443.546661,382.971802 
	C439.349579,383.843658 435.063812,384.288544 430.314209,384.554993 
	C429.810486,381.573059 429.258270,378.813660 429.930298,376.394318 
	C431.245819,371.658600 433.244263,367.112549 435.309235,362.342163 
	C454.158051,359.084106 470.216705,351.576508 481.840210,336.267914 
	C488.122070,327.994476 492.016174,318.649048 491.570862,308.192596 
	C491.130493,297.851746 488.485352,287.934906 483.010468,278.913513 
	C484.187042,277.532776 485.274719,276.441162 485.893188,275.128448 
	C493.897705,258.139465 501.808380,241.106201 509.835876,224.128143 
	C510.560303,222.595932 511.929962,221.368790 513.000000,220.000000 
	C513.000000,225.022095 513.000000,230.044189 512.634766,235.579407 
	C512.011841,236.289581 511.594666,236.438904 511.519318,236.690567 
	C508.795654,245.785400 505.407196,254.516830 498.993591,261.808197 
	C498.386871,262.497925 498.786591,264.540619 499.311432,265.683014 
	C503.083405,273.892944 506.985840,282.043396 510.913086,290.180817 
	C511.412384,291.215302 512.294983,292.064789 513.000000,293.000000 
	C513.000000,303.020905 513.000000,313.041779 513.000000,323.531342 
z"/>
<path fill="#354146" opacity="1.000000" stroke="none" 
	d="
M513.000000,219.532043 
	C511.929962,221.368790 510.560303,222.595932 509.835876,224.128143 
	C501.808380,241.106201 493.897705,258.139465 485.893188,275.128448 
	C485.274719,276.441162 484.187042,277.532776 482.731689,278.748108 
	C473.213837,268.633636 462.236633,265.258026 450.619751,269.187500 
	C448.564941,269.972870 446.860413,270.752869 445.134094,271.108582 
	C445.861450,268.216125 446.461121,265.690094 447.389923,263.291534 
	C449.506989,257.824524 451.785461,252.420013 454.371948,246.864716 
	C461.239014,247.516830 467.771393,248.069214 474.207123,249.181000 
	C476.834198,249.634811 479.233978,251.166077 481.479980,247.974365 
	C493.203674,233.733353 498.782745,206.224716 476.751068,189.249832 
	C475.443604,188.242477 474.245880,187.092743 473.071106,185.646667 
	C476.123596,178.788605 479.102081,172.293167 482.080566,165.797745 
	C494.393829,174.052185 504.241943,184.427078 510.113495,198.255234 
	C510.671051,199.568375 511.552246,200.744110 512.641602,201.991821 
	C513.000000,207.688034 513.000000,213.376083 513.000000,219.532043 
z"/>
<path fill="#576166" opacity="1.000000" stroke="none" 
	d="
M0.999999,212.468658 
	C1.623341,211.661804 2.633051,211.463852 2.814105,210.965118 
	C8.951685,194.057068 22.019245,183.881363 37.223736,176.040359 
	C44.639786,172.215866 52.539749,169.329742 60.670868,166.289307 
	C61.033833,169.133835 61.448929,171.852325 60.758812,174.253098 
	C59.130020,179.919357 56.974987,185.434326 54.770653,191.235718 
	C47.111084,196.147217 39.255829,200.254517 32.424438,205.656586 
	C22.390533,213.591095 19.166121,225.780106 24.893953,235.280457 
	C28.086651,240.575974 33.701225,244.411346 37.925198,249.096893 
	C36.000217,252.267349 34.616547,255.415329 32.681282,258.176758 
	C30.702322,261.000519 28.182438,263.445190 25.899353,266.055817 
	C14.981929,260.840851 7.716482,252.277161 3.114281,241.254684 
	C2.756139,240.396927 2.200838,239.621460 1.368587,238.903870 
	C1.000000,230.312439 1.000000,221.624863 0.999999,212.468658 
z"/>
<path fill="#3C474C" opacity="1.000000" stroke="none" 
	d="
M303.982239,504.789337 
	C296.005676,506.874451 288.024933,508.943848 280.059692,511.071259 
	C279.335144,511.264801 278.710205,511.831207 278.019501,512.612244 
	C264.645782,513.000000 251.291550,513.000000 237.392761,512.667542 
	C236.887634,509.912659 236.426758,507.346985 237.070801,505.097687 
	C238.405731,500.435486 240.327652,495.941345 242.427917,491.326508 
	C252.777786,490.960846 263.001434,492.031921 272.568695,490.004974 
	C286.578827,487.036804 300.118744,481.849121 313.866028,478.005371 
	C312.574402,481.617767 311.198822,484.803497 309.994263,488.052673 
	C307.933838,493.610626 305.980530,499.208344 303.982239,504.789337 
z"/>
<path fill="#414C51" opacity="1.000000" stroke="none" 
	d="
M242.008224,491.378113 
	C240.327652,495.941345 238.405731,500.435486 237.070801,505.097687 
	C236.426758,507.346985 236.887634,509.912659 236.924103,512.667542 
	C232.643097,513.000000 228.286194,513.000000 223.464661,513.000000 
	C221.591827,512.329956 220.242737,511.276367 218.766357,511.048920 
	C202.970657,508.615509 187.313278,505.664337 172.329025,499.064392 
	C174.219543,494.870789 176.129654,491.242432 178.158417,487.681702 
	C179.502884,485.321991 181.017380,483.059143 182.818939,480.788940 
	C202.303909,487.056824 222.015717,489.999756 242.008224,491.378113 
z"/>
<path fill="#555E63" opacity="1.000000" stroke="none" 
	d="
M129.906067,16.964088 
	C140.854294,10.791142 152.794189,7.528684 164.986130,5.000326 
	C170.026169,3.955123 175.060425,2.882070 180.048660,1.410841 
	C184.024551,1.000000 188.049088,1.000000 192.635864,1.350190 
	C194.181976,2.438031 195.135315,3.760861 196.154968,3.814117 
	C201.111572,4.073000 200.771927,6.229005 199.161423,9.924541 
	C197.364609,14.047579 196.357391,18.514713 194.594269,22.930208 
	C192.583817,23.322947 190.996521,23.777599 189.385666,23.887798 
	C169.867538,25.223047 151.169373,29.399431 134.176422,39.207958 
	C137.222061,30.632704 140.282974,22.477747 143.701126,13.370985 
	C138.076859,14.835899 133.991455,15.899994 129.906067,16.964088 
z"/>
<path fill="#505A5F" opacity="1.000000" stroke="none" 
	d="
M195.006485,22.832077 
	C196.357391,18.514713 197.364609,14.047579 199.161423,9.924541 
	C200.771927,6.229005 201.111572,4.073000 196.154968,3.814117 
	C195.135315,3.760861 194.181976,2.438031 193.099030,1.350190 
	C209.687561,1.000000 226.375122,1.000000 243.531342,0.999999 
	C246.101746,1.932789 248.203506,2.865580 250.780640,4.290517 
	C251.705917,5.251289 252.077667,5.990039 252.617905,6.146327 
	C257.475281,7.551510 256.969391,10.276314 255.113785,14.023990 
	C253.307083,17.672903 252.232971,21.684546 250.409943,25.486834 
	C245.987366,24.974552 241.992065,24.512362 237.598328,23.922510 
	C235.230621,23.540894 233.263504,23.087198 231.291672,23.065645 
	C219.197189,22.933447 207.101669,22.899044 195.006485,22.832077 
z"/>
<path fill="transparent" opacity="1.000000" stroke="none" 
	d="
M513.000000,292.531342 
	C512.294983,292.064789 511.412384,291.215302 510.913086,290.180817 
	C506.985840,282.043396 503.083405,273.892944 499.311432,265.683014 
	C498.786591,264.540619 498.386871,262.497925 498.993591,261.808197 
	C505.407196,254.516830 508.795654,245.785400 511.519318,236.690567 
	C511.594666,236.438904 512.011841,236.289581 512.634766,236.046265 
	C513.000000,254.687561 513.000000,273.375122 513.000000,292.531342 
z"/>
<path fill="#515B60" opacity="1.000000" stroke="none" 
	d="
M82.952065,330.106812 
	C74.763023,319.175842 69.542740,306.932587 67.041245,293.546478 
	C66.140236,288.724945 65.656471,283.825470 65.156891,278.244843 
	C66.792084,275.539642 68.614105,273.723083 69.655151,271.534973 
	C76.865150,256.380737 83.980316,241.180115 90.962181,225.919464 
	C92.600807,222.337799 93.612366,218.469238 95.092445,214.464447 
	C108.838509,202.344070 124.587067,194.134644 141.258087,186.792328 
	C145.748428,185.250122 149.876831,183.776291 153.973022,182.657639 
	C152.979874,185.303207 152.014572,187.591797 151.058762,189.884354 
	C148.384933,196.297607 145.715042,202.712524 142.825363,209.390869 
	C134.041840,214.363342 125.476540,219.071701 116.911240,223.780060 
	C117.114738,224.245590 117.318245,224.711121 117.521744,225.176651 
	C118.795860,225.477463 120.075615,225.756363 121.343193,226.082550 
	C130.771927,228.508835 139.865753,231.691513 147.005081,238.696381 
	C151.126923,242.740585 151.318069,248.972610 147.761444,253.182709 
	C144.096359,257.521210 138.034821,258.452698 133.417999,254.798019 
	C122.963905,246.522507 110.739151,245.073578 98.089371,245.084167 
	C96.691330,245.085342 94.673561,245.425278 93.994408,246.366547 
	C88.563675,253.893097 84.585365,261.919769 87.124153,272.807831 
	C94.617561,260.693695 105.013405,256.419861 117.992210,258.378632 
	C116.988419,261.516296 115.947815,264.247650 115.006454,267.012817 
	C113.699577,270.851562 112.467178,274.715729 110.945969,278.759277 
	C100.936043,286.602997 98.579735,297.606445 96.751419,309.106567 
	C94.882576,311.833954 93.283875,314.420288 91.814743,317.078278 
	C89.261070,321.698364 88.338356,327.415619 82.952065,330.106812 
z"/>
<path fill="#4E585D" opacity="1.000000" stroke="none" 
	d="
M111.202896,278.569000 
	C112.467178,274.715729 113.699577,270.851562 115.006454,267.012817 
	C115.947815,264.247650 116.988419,261.516296 118.379959,258.322021 
	C128.669113,259.926758 135.122223,266.460449 140.081894,274.666290 
	C148.001755,287.769836 150.523331,302.243073 150.142715,317.328949 
	C150.069260,320.240631 150.244232,322.564911 152.767639,324.769318 
	C155.890503,327.497375 156.439529,331.431488 154.915970,335.354187 
	C153.419724,339.206604 150.603912,341.588898 146.387878,342.122772 
	C144.256622,342.392639 142.130157,342.700500 139.603760,342.954834 
	C133.918106,345.017792 127.889862,346.119995 123.476456,349.397003 
	C108.173981,360.759247 104.321953,375.841156 110.437286,395.111938 
	C107.816658,399.330292 105.568451,403.478058 103.192810,407.551544 
	C102.120483,409.390259 100.794334,411.080933 99.944603,412.314392 
	C97.317307,410.910645 95.633522,410.011047 93.949738,409.111420 
	C82.928062,389.715546 82.996368,370.190521 93.714203,350.790894 
	C95.838493,346.945892 94.850487,344.576263 92.329292,341.758606 
	C89.154541,338.210541 86.265053,334.407196 83.102280,330.410400 
	C88.338356,327.415619 89.261070,321.698364 91.814743,317.078278 
	C93.283875,314.420288 94.882576,311.833954 96.826302,309.477295 
	C98.357193,312.248596 99.484718,314.757996 100.720627,317.595886 
	C103.235474,321.002319 105.641937,324.080261 108.750778,328.056549 
	C106.550728,314.284088 111.758492,304.136688 122.525848,301.337799 
	C127.749870,299.979858 127.677315,297.882660 125.433151,293.796967 
	C123.585213,290.080261 122.134232,286.566284 120.103516,283.427399 
	C118.116226,280.355652 115.510635,277.717346 111.202896,278.569000 
z"/>
<path fill="#4A5459" opacity="1.000000" stroke="none" 
	d="
M94.101936,409.414917 
	C95.633522,410.011047 97.317307,410.910645 99.944603,412.314392 
	C100.794334,411.080933 102.120483,409.390259 103.192810,407.551544 
	C105.568451,403.478058 107.816658,399.330292 110.637161,395.417053 
	C117.896111,409.221466 129.173782,415.902802 143.973480,417.535187 
	C143.386261,419.422211 142.820999,420.940979 142.273453,422.466064 
	C140.470703,427.487396 138.674393,432.510986 136.481461,437.545380 
	C135.071655,437.557037 134.056015,437.557037 132.176041,437.557037 
	C134.804977,442.508331 137.102631,446.835693 139.215088,451.519775 
	C137.598587,454.669098 136.291580,457.534668 134.705688,460.236511 
	C132.550095,463.908997 130.181229,467.456329 127.903847,471.057343 
	C118.125740,460.926361 111.431862,448.762604 109.452904,435.102020 
	C108.291435,427.084503 103.873367,422.370728 99.445793,416.920837 
	C97.582741,414.627655 95.976891,412.125519 94.101936,409.414917 
z"/>
<path fill="#545D62" opacity="1.000000" stroke="none" 
	d="
M94.912399,214.732666 
	C93.612366,218.469238 92.600807,222.337799 90.962181,225.919464 
	C83.980316,241.180115 76.865150,256.380737 69.655151,271.534973 
	C68.614105,273.723083 66.792084,275.539642 65.140167,277.815430 
	C51.276363,276.897980 38.228626,273.574799 26.066006,266.370483 
	C28.182438,263.445190 30.702322,261.000519 32.681282,258.176758 
	C34.616547,255.415329 36.000217,252.267349 38.271492,249.167694 
	C43.619576,250.612137 48.322182,252.177933 53.415459,253.854523 
	C55.754215,254.395706 57.742294,254.696411 59.642372,255.282440 
	C64.127357,256.665710 66.546867,256.015930 68.310913,250.703766 
	C73.207748,235.957565 82.746094,224.287872 94.912399,214.732666 
z"/>
<path fill="#455055" opacity="1.000000" stroke="none" 
	d="
M128.065506,471.350403 
	C130.181229,467.456329 132.550095,463.908997 134.705688,460.236511 
	C136.291580,457.534668 137.598587,454.669098 139.482758,451.749451 
	C149.289841,464.632172 162.228760,472.600677 177.226486,478.244873 
	C179.115936,479.255798 180.785843,480.004364 182.455750,480.752930 
	C181.017380,483.059143 179.502884,485.321991 178.158417,487.681702 
	C176.129654,491.242432 174.219543,494.870789 172.103943,498.787048 
	C159.787170,495.579224 149.051025,489.333740 139.179260,481.578583 
	C135.313004,478.541229 131.865417,474.970978 128.065506,471.350403 
z"/>
<path fill="#3B454B" opacity="1.000000" stroke="none" 
	d="
M481.858154,165.539337 
	C479.102081,172.293167 476.123596,178.788605 472.739685,185.549255 
	C461.299072,178.423508 449.171570,173.816238 435.812317,171.421814 
	C433.664703,170.277084 431.274139,169.747803 430.058136,168.259125 
	C426.415741,163.799973 423.232544,158.965714 420.023834,153.933762 
	C423.470947,146.694092 426.764343,139.798523 430.057739,132.902954 
	C434.359711,138.111465 438.595032,143.377548 443.010132,148.488342 
	C444.125916,149.779938 445.682434,150.902481 447.263031,151.546936 
	C458.687927,156.205002 470.171051,160.720367 481.858154,165.539337 
z"/>
<path fill="#434E53" opacity="1.000000" stroke="none" 
	d="
M348.049744,46.850204 
	C361.671570,59.042896 375.302338,71.225632 388.893341,83.452576 
	C389.722626,84.198639 390.236755,85.294991 390.987854,86.956589 
	C390.621063,90.985474 390.640076,94.447014 389.592194,97.548027 
	C388.119934,101.904884 385.855286,105.993988 383.648041,110.025848 
	C381.951843,108.482819 380.537140,107.111542 378.977142,105.447884 
	C365.663513,92.540863 352.495148,79.926224 339.633820,67.081604 
	C342.643799,60.184490 345.346771,53.517345 348.049744,46.850204 
z"/>
<path fill="#3F4A4F" opacity="1.000000" stroke="none" 
	d="
M383.929535,110.197601 
	C385.855286,105.993988 388.119934,101.904884 389.592194,97.548027 
	C390.640076,94.447014 390.621063,90.985474 391.061340,87.287949 
	C402.309479,99.812111 413.589539,112.720062 424.824249,125.667366 
	C426.641144,127.761261 428.256500,130.029999 430.011414,132.560440 
	C426.764343,139.798523 423.470947,146.694092 419.735840,153.748749 
	C407.505920,139.337753 395.717743,124.767677 383.929535,110.197601 
z"/>
<path fill="#485257" opacity="1.000000" stroke="none" 
	d="
M347.846313,46.585888 
	C345.346771,53.517345 342.643799,60.184490 339.351990,66.941109 
	C330.842499,61.684669 322.921875,56.338753 314.781219,50.734795 
	C308.497101,47.089077 302.432983,43.701408 296.671051,40.080116 
	C301.008057,33.897659 304.564209,27.778038 303.988892,20.184277 
	C318.540222,28.896708 333.091522,37.609138 347.846313,46.585888 
z"/>
<path fill="#4C565B" opacity="1.000000" stroke="none" 
	d="
M303.668549,20.004589 
	C304.564209,27.778038 301.008057,33.897659 296.341675,40.008858 
	C280.752472,35.293121 265.794830,30.415020 250.837219,25.536922 
	C252.232971,21.684546 253.307083,17.672903 255.113785,14.023990 
	C256.969391,10.276314 257.475281,7.551510 252.617905,6.146327 
	C252.077667,5.990039 251.705917,5.251289 251.126755,4.474923 
	C258.551483,5.721895 266.281982,6.705083 273.616547,8.970237 
	C283.684296,12.079475 293.451965,16.160374 303.668549,20.004589 
z"/>
<path fill="#374248" opacity="1.000000" stroke="none" 
	d="
M304.323212,504.695190 
	C305.980530,499.208344 307.933838,493.610626 309.994263,488.052673 
	C311.198822,484.803497 312.574402,481.617767 314.115540,477.778992 
	C338.273743,465.674377 358.594147,449.626312 375.326294,429.052399 
	C388.672821,412.641388 398.579895,394.303925 405.693512,374.419861 
	C408.922974,365.392792 410.749603,364.115265 420.048950,363.675140 
	C425.026886,363.439575 429.990143,362.893799 434.960022,362.488007 
	C433.244263,367.112549 431.245819,371.658600 429.930298,376.394318 
	C429.258270,378.813660 429.810486,381.573059 429.893951,384.509033 
	C426.106262,384.321259 424.373962,386.567841 423.124573,389.823181 
	C411.854187,419.187622 394.302765,444.352905 371.008331,465.302155 
	C351.593170,482.762665 329.338837,495.822571 304.323212,504.695190 
z"/>
<path fill="#555F64" opacity="1.000000" stroke="none" 
	d="
M55.032791,191.010483 
	C56.974987,185.434326 59.130020,179.919357 60.758812,174.253098 
	C61.448929,171.852325 61.033833,169.133835 61.043850,166.218414 
	C65.789284,164.957581 64.976074,161.176056 65.478180,157.411270 
	C67.304016,156.039001 69.364456,155.417587 69.990410,154.109650 
	C77.245216,138.950500 84.144691,123.621132 91.413857,108.469063 
	C100.473663,89.584541 109.790901,70.823532 119.390228,52.031570 
	C121.485855,51.505108 123.187050,50.952568 124.890831,50.408108 
	C129.586761,48.907471 134.283768,47.410221 138.958618,46.300186 
	C137.156097,51.062981 135.272934,55.399117 133.626450,59.823330 
	C132.272064,63.462612 131.198563,67.206421 129.676483,71.036026 
	C122.003654,75.989662 115.553841,81.699760 111.870811,89.890465 
	C109.042458,96.180481 106.425674,102.583481 107.792488,109.922462 
	C109.320091,108.944962 110.297821,107.719330 111.239677,106.466721 
	C117.732719,97.831551 124.143417,89.133148 130.732178,80.571732 
	C135.232437,74.724136 140.704544,74.154518 146.379211,78.794327 
	C144.935349,80.193512 143.458115,81.220299 142.786072,82.630730 
	C138.869019,90.851479 134.954651,99.085152 131.473785,107.494278 
	C130.549789,109.726448 131.153839,112.591133 130.965622,115.487831 
	C126.527153,121.643677 122.179344,127.477089 117.722572,133.456711 
	C119.385155,135.336639 120.906990,137.057419 122.109619,138.965729 
	C120.721329,140.388931 119.317398,141.464386 118.637115,142.886108 
	C113.989761,152.598572 109.435783,162.357498 105.032364,172.182419 
	C104.542099,173.276276 105.187454,174.879105 105.011017,176.452972 
	C103.143829,177.109589 101.571777,177.559158 99.582123,178.013275 
	C97.699013,178.257599 96.183311,178.332947 94.775826,178.762695 
	C81.517609,182.810776 68.277870,186.919357 55.032791,191.010483 
z"/>
<path fill="#576166" opacity="1.000000" stroke="none" 
	d="
M118.996979,52.009186 
	C109.790901,70.823532 100.473663,89.584541 91.413857,108.469063 
	C84.144691,123.621132 77.245216,138.950500 69.990410,154.109650 
	C69.364456,155.417587 67.304016,156.039001 65.537895,156.987991 
	C66.087448,144.169754 66.826218,131.326416 67.976059,118.520012 
	C69.471649,101.862816 73.500893,85.774124 80.061134,70.380371 
	C87.847260,52.110077 98.971130,36.379089 115.691551,25.148066 
	C120.042236,22.225733 124.688774,19.743881 129.552750,17.011906 
	C133.991455,15.899994 138.076859,14.835899 143.701126,13.370985 
	C140.282974,22.477747 137.222061,30.632704 133.937759,39.411568 
	C128.808563,44.026714 123.902771,48.017948 118.996979,52.009186 
z"/>
<path fill="#E5CFBE" opacity="1.000000" stroke="none" 
	d="
M435.309235,362.342163 
	C429.990143,362.893799 425.026886,363.439575 420.048950,363.675140 
	C410.749603,364.115265 408.922974,365.392792 405.693512,374.419861 
	C398.579895,394.303925 388.672821,412.641388 375.326294,429.052399 
	C358.594147,449.626312 338.273743,465.674377 314.108582,477.380890 
	C300.118744,481.849121 286.578827,487.036804 272.568695,490.004974 
	C263.001434,492.031921 252.777786,490.960846 242.427902,491.326508 
	C222.015717,489.999756 202.303909,487.056824 182.818939,480.788971 
	C180.785843,480.004364 179.115936,479.255798 177.531616,478.035980 
	C178.914108,477.583099 180.227020,477.475769 181.505524,477.638672 
	C199.969101,479.991241 218.448471,482.785675 237.090622,480.072510 
	C280.111603,473.811340 314.535675,452.357513 342.252075,419.536865 
	C356.575989,402.575134 366.937408,383.296570 374.123901,362.286194 
	C376.531006,355.248779 379.794373,353.343445 387.141479,352.933472 
	C393.925201,352.554901 400.797668,352.153351 407.416809,350.750732 
	C425.182709,346.986145 440.813416,339.344421 451.197571,323.611450 
	C457.185791,314.538757 460.626434,304.858032 459.245331,293.527008 
	C458.168243,284.690491 455.102234,276.828186 450.970062,269.182098 
	C462.236633,265.258026 473.213837,268.633636 482.424744,278.934448 
	C488.485352,287.934906 491.130493,297.851746 491.570862,308.192596 
	C492.016174,318.649048 488.122070,327.994476 481.840210,336.267914 
	C470.216705,351.576508 454.158051,359.084106 435.309235,362.342163 
z"/>
<path fill="#FDE5D2" opacity="1.000000" stroke="none" 
	d="
M450.619751,269.187500 
	C455.102234,276.828186 458.168243,284.690491 459.245331,293.527008 
	C460.626434,304.858032 457.185791,314.538757 451.197571,323.611450 
	C440.813416,339.344421 425.182709,346.986145 407.416809,350.750732 
	C400.797668,352.153351 393.925201,352.554901 387.141479,352.933472 
	C379.794373,353.343445 376.531006,355.248779 374.123901,362.286194 
	C366.937408,383.296570 356.575989,402.575134 342.252075,419.536865 
	C314.535675,452.357513 280.111603,473.811340 237.090622,480.072510 
	C218.448471,482.785675 199.969101,479.991241 181.505524,477.638672 
	C180.227020,477.475769 178.914108,477.583099 177.312073,477.773651 
	C162.228760,472.600677 149.289841,464.632172 139.667953,451.392700 
	C137.102631,446.835693 134.804977,442.508331 132.176041,437.557037 
	C134.056015,437.557037 135.071655,437.557037 136.872223,437.687988 
	C146.263565,438.604218 154.773972,438.505157 162.937790,435.122498 
	C166.509903,433.642395 169.700531,434.115234 173.176758,436.050903 
	C177.905121,438.683838 183.045425,440.576996 188.334808,442.968872 
	C193.247391,444.612610 197.748871,446.484039 202.436768,447.462097 
	C217.843048,450.676361 232.491989,449.316376 245.699570,439.088135 
	C248.698563,435.648346 251.279663,432.220184 254.124603,429.027069 
	C255.536850,427.441956 257.233917,425.763000 259.147675,425.035217 
	C265.805847,422.503235 272.786713,420.772888 279.329865,417.995605 
	C291.548828,412.809204 303.012024,406.483124 308.832611,393.454529 
	C309.257874,392.502686 310.326996,391.719330 311.268799,391.134918 
	C332.573181,377.914612 341.543854,358.096954 342.220825,333.734131 
	C342.350555,329.065460 341.314545,325.143463 337.146271,322.598328 
	C332.764801,319.923065 328.732574,321.070892 324.516632,323.464233 
	C317.462921,327.468567 310.180908,331.070770 302.997681,334.447601 
	C303.380249,332.283264 303.454041,330.373474 304.189484,328.766510 
	C309.105347,318.025604 314.163055,307.349609 319.173309,296.651886 
	C329.193848,275.256500 339.318359,253.908508 349.117798,232.412292 
	C350.551086,229.268250 350.433868,225.417358 351.390442,221.943115 
	C356.817627,224.697998 361.888428,227.403320 367.153259,230.385513 
	C369.053131,231.699188 370.661621,232.970810 372.484039,233.726639 
	C377.070862,235.628922 377.900757,238.473022 375.965240,243.007324 
	C368.790649,259.815430 361.950592,276.766235 354.782135,293.577026 
	C351.779297,300.618988 352.980072,306.303223 359.269745,309.198730 
	C364.979889,311.827423 370.990753,313.802856 377.117523,316.328430 
	C389.057983,321.290161 400.702454,326.112885 412.458649,330.645935 
	C420.244415,333.648041 426.978241,329.270996 427.714661,320.962616 
	C427.993195,317.820282 427.737305,314.627808 428.059570,311.492584 
	C429.609314,296.414368 432.117188,281.709686 445.155914,271.532837 
	C446.860413,270.752869 448.564941,269.972870 450.619751,269.187500 
z"/>
<path fill="#E6423F" opacity="1.000000" stroke="none" 
	d="
M481.198151,248.146332 
	C479.233978,251.166077 476.834198,249.634811 474.207123,249.181000 
	C467.771393,248.069214 461.239014,247.516830 453.956726,246.824829 
	C448.695618,248.117355 444.058502,248.924042 439.809418,250.673309 
	C437.014648,251.823853 435.347656,251.460388 433.186005,249.660202 
	C427.567444,244.981232 421.758392,240.531036 415.844727,235.708420 
	C404.711243,227.419952 393.758362,219.412613 382.970093,211.060364 
	C387.670288,201.006866 392.393860,191.379822 396.657776,181.553345 
	C398.624756,177.020279 400.770111,174.265457 406.158203,177.280945 
	C407.786591,179.344849 409.136993,181.212936 410.675018,182.911148 
	C414.695374,187.350342 418.797791,191.715225 423.146301,196.347748 
	C425.460510,197.262573 427.515686,197.885590 429.527863,198.625549 
	C438.220062,201.822006 447.437714,204.072571 455.468719,208.480820 
	C470.837982,216.917084 482.517395,228.522614 481.198151,248.146332 
z"/>
<path fill="#39444A" opacity="1.000000" stroke="none" 
	d="
M416.025360,235.989548 
	C421.758392,240.531036 427.567444,244.981232 433.186005,249.660202 
	C435.347656,251.460388 437.014648,251.823853 439.809418,250.673309 
	C444.058502,248.924042 448.695618,248.117355 453.583130,246.950211 
	C451.785461,252.420013 449.506989,257.824524 447.389923,263.291534 
	C446.461121,265.690094 445.861450,268.216125 445.134094,271.108582 
	C432.117188,281.709686 429.609314,296.414368 428.059570,311.492584 
	C427.737305,314.627808 427.993195,317.820282 427.714661,320.962616 
	C426.978241,329.270996 420.244415,333.648041 412.458649,330.645935 
	C400.702454,326.112885 389.057983,321.290161 377.351532,316.054718 
	C379.890533,309.355774 382.444061,303.192657 385.363678,297.091064 
	C392.508789,299.708557 399.287811,302.264526 406.193756,304.868347 
	C406.784180,303.566925 407.311035,302.855011 407.427643,302.081299 
	C409.179779,290.456665 412.867706,279.532410 418.689117,269.282288 
	C419.219330,268.348724 418.334900,265.839905 417.325317,264.942810 
	C413.734131,261.751831 409.804535,258.941772 406.029938,255.606262 
	C408.441650,248.327133 410.114410,241.060150 416.025360,235.989548 
z"/>
<path fill="#EA6763" opacity="1.000000" stroke="none" 
	d="
M481.479980,247.974365 
	C482.517395,228.522614 470.837982,216.917084 455.468719,208.480820 
	C447.437714,204.072571 438.220062,201.822006 429.527863,198.625549 
	C427.515686,197.885590 425.460510,197.262573 423.444550,196.154282 
	C427.678101,187.681442 431.892212,179.640076 436.106323,171.598694 
	C449.171570,173.816238 461.299072,178.423508 472.665710,185.911865 
	C474.245880,187.092743 475.443604,188.242477 476.751068,189.249832 
	C498.782745,206.224716 493.203674,233.733353 481.479980,247.974365 
z"/>
<path fill="#C95151" opacity="1.000000" stroke="none" 
	d="
M54.770657,191.235718 
	C68.277870,186.919357 81.517609,182.810776 94.775826,178.762695 
	C96.183311,178.332947 97.699013,178.257599 99.508728,178.374695 
	C98.321266,182.319382 96.520874,185.824753 95.382812,189.533371 
	C94.888817,191.143112 95.757927,193.171158 95.727829,195.225220 
	C83.618637,201.301193 71.126968,206.140976 60.130535,213.282974 
	C46.807339,221.936172 40.124512,236.533600 52.244061,251.929642 
	C52.637520,252.429474 52.770428,253.134399 53.024792,253.743744 
	C48.322182,252.177933 43.619576,250.612137 38.570671,248.975540 
	C33.701225,244.411346 28.086651,240.575974 24.893953,235.280457 
	C19.166121,225.780106 22.390533,213.591095 32.424438,205.656586 
	C39.255829,200.254517 47.111084,196.147217 54.770657,191.235718 
z"/>
<path fill="#EC7B77" opacity="1.000000" stroke="none" 
	d="
M119.390228,52.031574 
	C123.902771,48.017948 128.808563,44.026714 133.953018,39.831863 
	C151.169373,29.399431 169.867538,25.223047 189.385666,23.887798 
	C190.996521,23.777599 192.583817,23.322947 194.594269,22.930206 
	C207.101669,22.899044 219.197189,22.933447 231.291672,23.065645 
	C233.263504,23.087198 235.230621,23.540894 237.571106,24.300821 
	C233.957611,32.929264 229.972931,41.051735 225.520538,49.144615 
	C211.866455,49.180126 198.680099,49.245235 185.120056,49.246307 
	C180.545898,47.978161 176.345428,46.774044 171.798691,45.400475 
	C160.582001,43.243584 149.741913,42.704781 138.980347,45.911629 
	C134.283768,47.410221 129.586761,48.907471 124.890831,50.408108 
	C123.187050,50.952568 121.485855,51.505108 119.390228,52.031574 
z"/>
<path fill="#EC7672" opacity="1.000000" stroke="none" 
	d="
M225.988251,49.174210 
	C229.972931,41.051735 233.957611,32.929264 237.969513,24.428480 
	C241.992065,24.512362 245.987366,24.974552 250.409943,25.486832 
	C265.794830,30.415020 280.752472,35.293121 296.039459,40.242477 
	C302.432983,43.701408 308.497101,47.089077 314.699371,51.080849 
	C311.219971,59.828064 307.602417,67.971184 303.642273,76.016098 
	C300.546234,74.577950 297.792816,73.238014 294.792542,71.663681 
	C281.379578,66.244965 268.213470,61.060635 254.747894,55.668068 
	C252.717590,54.918652 251.017487,54.229874 249.250580,53.861782 
	C241.507034,52.248585 233.744125,50.728237 225.988251,49.174210 
z"/>
<path fill="#FDE6D5" opacity="1.000000" stroke="none" 
	d="
M351.034058,221.893539 
	C350.433868,225.417358 350.551086,229.268250 349.117798,232.412292 
	C339.318359,253.908508 329.193848,275.256500 319.173309,296.651886 
	C314.163055,307.349609 309.105347,318.025604 304.189484,328.766510 
	C303.454041,330.373474 303.380249,332.283264 302.713257,334.662628 
	C293.574493,339.067047 284.722870,342.861786 275.487976,346.710266 
	C257.738190,351.294037 240.371674,355.824097 222.603607,360.335754 
	C213.797409,361.230011 205.404984,362.735199 196.985046,362.909363 
	C185.802246,363.140717 181.434265,368.191467 182.002869,378.881714 
	C183.020126,398.006439 168.786591,414.142181 149.946732,416.097534 
	C148.607056,415.175476 147.535583,414.369324 146.331161,414.014984 
	C131.842896,409.752350 122.177330,400.311798 119.425362,385.616486 
	C116.479424,369.885376 121.395668,356.435272 135.273224,347.115356 
	C136.995682,345.958557 138.432404,344.376312 140.001526,342.991211 
	C142.130157,342.700500 144.256622,342.392639 146.387878,342.122772 
	C150.603912,341.588898 153.419724,339.206604 154.915970,335.354187 
	C156.439529,331.431488 155.890503,327.497375 152.767639,324.769318 
	C150.244232,322.564911 150.069260,320.240631 150.142715,317.328949 
	C150.523331,302.243073 148.001755,287.769836 140.081894,274.666290 
	C135.122223,266.460449 128.669113,259.926758 118.387405,257.930786 
	C105.013405,256.419861 94.617561,260.693695 87.124153,272.807831 
	C84.585365,261.919769 88.563675,253.893097 93.994408,246.366547 
	C94.673561,245.425278 96.691330,245.085342 98.089371,245.084167 
	C110.739151,245.073578 122.963905,246.522507 133.417999,254.798019 
	C138.034821,258.452698 144.096359,257.521210 147.761444,253.182709 
	C151.318069,248.972610 151.126923,242.740585 147.005081,238.696381 
	C139.865753,231.691513 130.771927,228.508835 121.343193,226.082550 
	C120.075615,225.756363 118.795860,225.477463 117.521744,225.176651 
	C117.318245,224.711121 117.114738,224.245590 116.911240,223.780060 
	C125.476540,219.071701 134.041840,214.363342 143.194916,209.348358 
	C148.849640,207.029617 153.768234,204.418671 159.011826,203.119720 
	C173.617630,199.501587 188.358276,196.427841 203.507507,193.207520 
	C219.651260,193.378036 235.333160,193.480118 251.409180,193.686920 
	C253.530869,193.930267 255.258453,194.068878 257.737946,194.267822 
	C253.624985,195.282166 250.298508,196.102554 246.587830,196.910767 
	C233.119507,200.314804 224.164154,209.355103 216.106140,219.409653 
	C213.162292,223.082932 213.896667,228.280869 216.930237,231.839310 
	C219.963531,235.397476 224.781128,236.587418 229.122726,234.797974 
	C230.465561,234.244492 231.753586,233.558090 233.334152,233.225296 
	C232.547974,234.575043 231.496368,235.634033 230.440475,236.688751 
	C214.800446,252.311569 209.568314,281.191040 218.821075,301.437622 
	C227.290527,323.552612 243.029480,333.241638 266.134521,330.972046 
	C267.221649,330.726837 268.079651,330.277008 269.157166,329.588684 
	C270.587585,328.909302 271.798523,328.468445 273.249451,328.196960 
	C274.327789,327.658783 275.166046,326.951172 276.246033,326.013306 
	C277.604492,325.064240 278.721191,324.345459 280.050903,323.805023 
	C280.822296,323.269379 281.380646,322.555359 282.061279,321.566528 
	C283.083069,320.513153 283.982635,319.734680 285.184662,318.943695 
	C285.884216,318.241455 286.281281,317.551697 286.804077,316.551086 
	C288.019653,314.827942 289.109528,313.415649 290.560608,311.941956 
	C291.568726,310.452942 292.215607,309.025330 292.917480,307.251648 
	C295.022339,300.604065 297.072266,294.302490 299.404907,287.871033 
	C299.577118,286.759399 299.466583,285.777649 299.327637,284.344971 
	C299.322327,279.665100 299.345428,275.436157 299.619995,271.012085 
	C299.615631,269.877716 299.359741,268.938446 298.967163,267.628967 
	C296.912445,257.926270 293.757294,249.099335 287.788635,241.532379 
	C280.191254,231.900543 270.763092,225.484467 257.579407,225.118500 
	C250.188507,225.007935 243.849869,227.046326 237.938797,230.670837 
	C236.762543,231.392075 235.279205,231.612549 233.887390,231.735123 
	C235.027924,229.931961 236.218552,228.457611 237.715057,226.795776 
	C245.006851,218.496796 253.910248,214.957001 264.475372,216.059341 
	C270.022064,216.638062 275.496277,217.912094 281.342224,219.038345 
	C286.689484,220.975494 291.652710,222.890213 296.719025,224.475418 
	C301.415527,225.944916 306.283234,223.888199 308.765228,219.758881 
	C311.185760,215.731796 310.609192,210.302017 307.140839,206.915985 
	C306.069885,205.870453 304.445618,205.391678 303.074677,204.653412 
	C303.635864,203.914185 304.197021,203.174973 304.758179,202.435745 
	C308.861023,203.896591 312.963898,205.357422 317.137329,207.100342 
	C318.194061,207.562164 319.180237,207.741882 320.528503,207.938110 
	C323.595093,208.920776 326.299652,209.886932 329.288879,211.044922 
	C331.380249,212.164352 333.186890,213.091995 335.061218,214.258301 
	C335.750519,214.671570 336.372192,214.846176 337.355865,215.046844 
	C342.156616,217.346451 346.595337,219.619995 351.034058,221.893539 
z"/>
<path fill="#4E585D" opacity="1.000000" stroke="none" 
	d="
M203.045670,193.139099 
	C188.358276,196.427841 173.617630,199.501587 159.011826,203.119720 
	C153.768234,204.418671 148.849640,207.029617 143.413147,209.084274 
	C145.715042,202.712524 148.384933,196.297607 151.058762,189.884354 
	C152.014572,187.591797 152.979874,185.303207 154.332626,182.503876 
	C167.868790,178.632126 181.013168,175.269302 195.571091,171.544846 
	C182.512787,171.544846 170.767700,171.544846 159.020142,171.174225 
	C159.479187,168.899811 159.734634,166.915497 160.441010,165.107346 
	C162.533554,159.750824 164.804001,154.463821 167.352478,149.002197 
	C177.727493,146.102325 186.686539,141.647018 193.355759,133.312500 
	C189.350220,127.697708 185.620758,122.469917 182.049835,116.912323 
	C184.380814,111.930473 186.372925,107.180855 188.812271,102.673248 
	C189.822891,100.805740 191.790543,99.456139 193.595703,98.051041 
	C196.735016,102.003624 199.601593,105.776192 203.100723,110.381210 
	C204.404617,100.804695 201.389786,93.401123 197.905609,85.980515 
	C201.621689,79.236374 205.021118,72.688316 208.704498,66.347336 
	C212.650772,72.214516 216.898621,77.587173 219.848831,83.596863 
	C225.336334,94.775032 225.945343,106.801224 223.940567,119.350800 
	C221.074631,131.346802 215.220261,141.370422 206.799225,150.826294 
	C212.185501,151.377823 216.591309,151.828964 220.913300,152.611694 
	C217.251953,160.564163 213.562210,168.134995 210.134018,175.822464 
	C207.594971,181.516068 205.396088,187.361374 203.045670,193.139099 
z"/>
<path fill="#DA5353" opacity="1.000000" stroke="none" 
	d="
M53.415462,253.854523 
	C52.770428,253.134399 52.637520,252.429474 52.244061,251.929642 
	C40.124512,236.533600 46.807339,221.936172 60.130535,213.282974 
	C71.126968,206.140976 83.618637,201.301193 96.120644,195.193054 
	C107.276558,192.444504 117.715919,189.733368 128.264542,187.550003 
	C132.347702,186.704865 136.678268,187.055054 140.896133,186.860687 
	C124.587067,194.134644 108.838509,202.344070 95.092438,214.464447 
	C82.746094,224.287872 73.207748,235.957565 68.310913,250.703766 
	C66.546867,256.015930 64.127357,256.665710 59.642372,255.282440 
	C57.742294,254.696411 55.754215,254.395706 53.415462,253.854523 
z"/>
<path fill="#C74D4D" opacity="1.000000" stroke="none" 
	d="
M141.258087,186.792313 
	C136.678268,187.055054 132.347702,186.704865 128.264542,187.550003 
	C117.715919,189.733368 107.276558,192.444504 96.400742,194.977020 
	C95.757927,193.171158 94.888817,191.143112 95.382812,189.533371 
	C96.520874,185.824753 98.321266,182.319382 99.926331,178.370148 
	C101.571777,177.559158 103.143829,177.109589 105.424072,176.448181 
	C123.762383,174.672501 141.392502,173.108673 159.022614,171.544846 
	C170.767700,171.544846 182.512787,171.544846 195.571091,171.544846 
	C181.013168,175.269302 167.868790,178.632126 154.364838,182.148712 
	C149.876831,183.776291 145.748428,185.250122 141.258087,186.792313 
z"/>
<path fill="#FAFBFB" opacity="1.000000" stroke="none" 
	d="
M100.612244,317.267365 
	C99.484718,314.757996 98.357193,312.248596 97.154785,309.368530 
	C98.579735,297.606445 100.936043,286.602997 110.945969,278.759277 
	C115.510635,277.717346 118.116226,280.355652 120.103516,283.427399 
	C122.134232,286.566284 123.585213,290.080261 125.007034,293.683289 
	C119.803642,291.657257 115.693741,293.235138 112.060127,296.703949 
	C106.127640,302.367401 102.713196,309.457855 100.612244,317.267365 
z"/>
<path fill="#FCEADC" opacity="1.000000" stroke="none" 
	d="
M139.603775,342.954834 
	C138.432404,344.376312 136.995682,345.958557 135.273224,347.115356 
	C121.395668,356.435272 116.479424,369.885376 119.425362,385.616486 
	C122.177330,400.311798 131.842896,409.752350 146.331161,414.014984 
	C147.535583,414.369324 148.607056,415.175476 149.636719,416.337158 
	C147.689926,416.991699 145.846725,417.080750 144.003525,417.169800 
	C129.173782,415.902802 117.896111,409.221466 110.957603,395.316223 
	C104.321953,375.841156 108.173981,360.759247 123.476456,349.397003 
	C127.889862,346.119995 133.918106,345.017792 139.603775,342.954834 
z"/>
<path fill="#50C1F4" opacity="1.000000" stroke="none" 
	d="
M100.720627,317.595886 
	C102.713196,309.457855 106.127640,302.367401 112.060127,296.703949 
	C115.693741,293.235138 119.803642,291.657257 125.150208,294.050232 
	C127.677315,297.882660 127.749870,299.979858 122.525848,301.337799 
	C111.758492,304.136688 106.550728,314.284088 108.750778,328.056549 
	C105.641937,324.080261 103.235474,321.002319 100.720627,317.595886 
z"/>
<path fill="#465156" opacity="1.000000" stroke="none" 
	d="
M143.973480,417.535187 
	C145.846725,417.080750 147.689926,416.991699 149.843140,416.662994 
	C168.786591,414.142181 183.020126,398.006439 182.002869,378.881714 
	C181.434265,368.191467 185.802246,363.140717 196.985046,362.909363 
	C205.404984,362.735199 213.797409,361.230011 222.595734,360.704926 
	C222.456314,362.802917 222.020264,364.551086 221.372253,366.216766 
	C219.297501,371.549896 217.144226,376.852509 214.681244,382.350494 
	C213.028442,382.715698 211.720139,382.943665 210.402115,383.070435 
	C206.018433,383.492096 202.923645,384.468994 202.245392,390.113312 
	C201.074402,399.858002 196.702621,408.534912 190.554977,416.255829 
	C189.790146,417.216339 189.359695,418.443176 188.669907,419.743408 
	C191.701218,421.287872 194.351715,422.638336 196.849442,424.303528 
	C193.800797,430.674652 190.904938,436.731018 188.009079,442.787354 
	C183.045425,440.576996 177.905121,438.683838 173.176758,436.050903 
	C169.700531,434.115234 166.509903,433.642395 162.937790,435.122498 
	C154.773972,438.505157 146.263565,438.604218 137.266373,437.676331 
	C138.674393,432.510986 140.470703,427.487396 142.273453,422.466064 
	C142.820999,420.940979 143.386261,419.422211 143.973480,417.535187 
z"/>
<path fill="#EB6B68" opacity="1.000000" stroke="none" 
	d="
M435.812317,171.421814 
	C431.892212,179.640076 427.678101,187.681442 423.165771,195.916275 
	C418.797791,191.715225 414.695374,187.350342 410.675018,182.911148 
	C409.136993,181.212936 407.786591,179.344849 405.997070,176.989304 
	C398.135437,167.115677 390.653076,157.786133 383.110474,148.505554 
	C378.104645,142.346283 373.012573,136.257111 368.110809,129.812347 
	C371.882477,121.572174 375.502472,113.656219 379.122437,105.740265 
	C380.537140,107.111542 381.951843,108.482819 383.648071,110.025848 
	C395.717743,124.767677 407.505920,139.337753 419.582092,154.092834 
	C423.232544,158.965714 426.415741,163.799973 430.058136,168.259125 
	C431.274139,169.747803 433.664703,170.277084 435.812317,171.421814 
z"/>
<path fill="#EB706D" opacity="1.000000" stroke="none" 
	d="
M378.977142,105.447876 
	C375.502472,113.656219 371.882477,121.572174 367.835510,129.618698 
	C364.965820,127.485863 362.523163,125.222450 359.897766,122.679115 
	C355.643280,118.265968 351.778748,113.899452 347.450623,110.054932 
	C341.164429,104.471184 334.543671,99.264084 327.875549,93.622269 
	C326.680969,92.487503 325.734894,91.545059 324.662537,90.779427 
	C317.785400,85.869446 310.880585,80.998238 303.984863,76.114304 
	C307.602417,67.971184 311.219971,59.828064 314.919373,51.338890 
	C322.921875,56.338753 330.842499,61.684669 339.044983,67.171082 
	C352.495148,79.926224 365.663513,92.540863 378.977142,105.447876 
z"/>
<path fill="#535D62" opacity="1.000000" stroke="none" 
	d="
M193.322968,97.871002 
	C191.790543,99.456139 189.822891,100.805740 188.812271,102.673248 
	C186.372925,107.180855 184.380814,111.930473 181.753967,116.741394 
	C178.788651,113.609543 176.277710,110.318825 173.473831,106.644218 
	C170.794922,111.985825 168.273743,116.834984 165.918091,121.763260 
	C163.837723,126.115585 160.483185,128.438339 155.693481,128.439575 
	C150.921616,128.440811 147.538666,126.207146 145.461746,121.811615 
	C143.134552,116.886459 140.581894,112.067848 137.933228,106.818123 
	C135.407730,109.883598 133.232010,112.524498 131.056305,115.165405 
	C131.153839,112.591133 130.549789,109.726448 131.473785,107.494278 
	C134.954651,99.085152 138.869019,90.851479 142.786072,82.630730 
	C143.458115,81.220299 144.935349,80.193512 146.647079,78.978394 
	C149.976288,83.846817 152.699066,88.726349 155.755295,94.203461 
	C157.979614,89.804855 159.907333,85.632706 162.149719,81.637154 
	C166.186050,74.445038 174.879593,73.476341 180.002625,79.834152 
	C184.687988,85.648819 188.901505,91.843681 193.322968,97.871002 
z"/>
<path fill="#FDFDFD" opacity="1.000000" stroke="none" 
	d="
M130.965637,115.487823 
	C133.232010,112.524498 135.407730,109.883598 137.933228,106.818123 
	C140.581894,112.067848 143.134552,116.886459 145.461746,121.811615 
	C147.538666,126.207146 150.921616,128.440811 155.693481,128.439575 
	C160.483185,128.438339 163.837723,126.115585 165.918091,121.763260 
	C168.273743,116.834984 170.794922,111.985825 173.473831,106.644218 
	C176.277710,110.318825 178.788651,113.609543 181.595428,117.071198 
	C185.620758,122.469917 189.350220,127.697708 193.355759,133.312500 
	C186.686539,141.647018 177.727493,146.102325 166.932159,148.973999 
	C150.051834,152.158752 135.556335,148.368591 122.428825,138.778214 
	C120.906990,137.057419 119.385155,135.336639 117.722572,133.456711 
	C122.179344,127.477089 126.527153,121.643677 130.965637,115.487823 
z"/>
<path fill="#535B60" opacity="1.000000" stroke="none" 
	d="
M122.109619,138.965729 
	C135.556335,148.368591 150.051834,152.158752 166.584564,149.121429 
	C164.804001,154.463821 162.533554,159.750824 160.441010,165.107346 
	C159.734634,166.915497 159.479187,168.899811 159.020142,171.174225 
	C141.392502,173.108673 123.762383,174.672501 105.719208,176.241119 
	C105.187454,174.879105 104.542099,173.276276 105.032364,172.182419 
	C109.435783,162.357498 113.989761,152.598572 118.637115,142.886108 
	C119.317398,141.464386 120.721329,140.388931 122.109619,138.965729 
z"/>
<path fill="#FAFBFB" opacity="1.000000" stroke="none" 
	d="
M193.595703,98.051025 
	C188.901505,91.843681 184.687988,85.648819 180.002625,79.834152 
	C174.879593,73.476341 166.186050,74.445038 162.149719,81.637154 
	C159.907333,85.632706 157.979614,89.804855 155.755295,94.203461 
	C152.699066,88.726349 149.976288,83.846817 146.985657,78.783218 
	C140.704544,74.154518 135.232437,74.724136 130.732178,80.571732 
	C124.143417,89.133148 117.732719,97.831551 111.239677,106.466721 
	C110.297821,107.719330 109.320091,108.944962 107.792488,109.922462 
	C106.425674,102.583481 109.042458,96.180481 111.870811,89.890465 
	C115.553841,81.699760 122.003654,75.989662 130.040375,70.989510 
	C141.281967,65.781326 152.407089,64.101700 164.316833,65.334320 
	C178.276718,68.176926 189.490585,74.690308 197.588928,86.176590 
	C201.389786,93.401123 204.404617,100.804695 203.100723,110.381210 
	C199.601593,105.776192 196.735016,102.003624 193.595703,98.051025 
z"/>
<path fill="#555E63" opacity="1.000000" stroke="none" 
	d="
M163.995132,65.135483 
	C152.407089,64.101700 141.281967,65.781326 130.364471,70.857391 
	C131.198563,67.206421 132.272064,63.462612 133.626450,59.823330 
	C135.272934,55.399117 137.156097,51.062981 138.958618,46.300186 
	C149.741913,42.704781 160.582001,43.243584 171.707108,45.777122 
	C169.306229,52.593975 166.650681,58.864727 163.995132,65.135483 
z"/>
<path fill="#3F494F" opacity="1.000000" stroke="none" 
	d="
M275.871277,346.656555 
	C284.722870,342.861786 293.574493,339.067047 302.710571,335.057251 
	C310.180908,331.070770 317.462921,327.468567 324.516632,323.464233 
	C328.732574,321.070892 332.764801,319.923065 337.146271,322.598328 
	C341.314545,325.143463 342.350555,329.065460 342.220825,333.734131 
	C341.543854,358.096954 332.573181,377.914612 311.268799,391.134918 
	C310.326996,391.719330 309.257874,392.502686 308.832611,393.454529 
	C303.012024,406.483124 291.548828,412.809204 279.329865,417.995605 
	C272.786713,420.772888 265.805847,422.503235 259.147675,425.035217 
	C257.233917,425.763000 255.536850,427.441956 254.124603,429.027069 
	C251.279663,432.220184 248.698563,435.648346 245.448944,438.815430 
	C245.222824,436.508209 245.131912,434.182709 245.961395,432.252747 
	C250.176422,422.445740 254.629990,412.741241 259.293274,402.797607 
	C267.302887,399.113495 275.166107,395.913452 282.654541,391.996857 
	C285.215393,390.657440 288.029388,387.795929 288.640350,385.148193 
	C289.949188,379.475800 293.044373,376.322754 298.071442,373.873444 
	C306.699554,369.669617 312.789795,362.910706 316.881897,352.705048 
	C314.080719,353.613953 312.355347,354.020721 310.757965,354.719940 
	C305.274780,357.120178 299.946960,359.916992 294.355377,362.018433 
	C285.662720,365.285400 276.802277,368.105957 268.012085,370.704102 
	C269.524597,366.160736 271.129791,362.059692 272.523926,357.888031 
	C273.761475,354.184906 274.764648,350.403442 275.871277,346.656555 
z"/>
<path fill="#3D474D" opacity="1.000000" stroke="none" 
	d="
M384.997589,297.029541 
	C382.444061,303.192657 379.890533,309.355774 377.103027,315.792603 
	C370.990753,313.802856 364.979889,311.827423 359.269745,309.198730 
	C352.980072,306.303223 351.779297,300.618988 354.782135,293.577026 
	C361.950592,276.766235 368.790649,259.815430 375.965240,243.007324 
	C377.900757,238.473022 377.070862,235.628922 372.484039,233.726639 
	C370.661621,232.970810 369.053131,231.699188 367.163025,229.973907 
	C370.021942,222.070114 373.065033,214.854797 376.432373,207.772079 
	C378.772949,209.071564 380.789215,210.238434 382.805481,211.405289 
	C393.758362,219.412613 404.711243,227.419952 415.844727,235.708420 
	C410.114410,241.060150 408.441650,248.327133 405.732849,255.447021 
	C402.578064,253.777298 399.747192,251.885651 396.375458,249.632568 
	C395.396912,252.026947 394.711456,253.655396 394.063171,255.298538 
	C389.937195,265.756104 385.987274,276.287354 381.639984,286.651978 
	C378.734680,293.578827 378.483490,293.473480 384.997589,297.029541 
z"/>
<path fill="#424C52" opacity="1.000000" stroke="none" 
	d="
M259.000000,403.000854 
	C254.629990,412.741241 250.176422,422.445740 245.961395,432.252747 
	C245.131912,434.182709 245.222824,436.508209 245.139893,438.924011 
	C232.491989,449.316376 217.843048,450.676361 202.436768,447.462097 
	C197.748871,446.484039 193.247391,444.612610 188.334808,442.968872 
	C190.904938,436.731018 193.800797,430.674652 197.222122,424.371582 
	C207.279587,427.789459 216.919281,429.019684 226.834930,425.626709 
	C231.961502,423.872528 235.319321,420.824554 236.079636,415.135773 
	C236.657318,410.813629 239.404007,407.903992 243.577301,406.741547 
	C248.670364,405.322876 253.854980,404.232971 259.000000,403.000854 
z"/>
<path fill="#404B50" opacity="1.000000" stroke="none" 
	d="
M376.108093,207.639465 
	C373.065033,214.854797 370.021942,222.070114 366.969055,229.697021 
	C361.888428,227.403320 356.817627,224.697998 351.390442,221.943115 
	C346.595337,219.619995 342.156616,217.346451 337.176208,214.810944 
	C336.087524,214.372528 335.540527,214.196075 334.993561,214.019623 
	C333.186890,213.091995 331.380249,212.164352 329.290863,210.648804 
	C332.396576,202.238678 335.784973,194.416473 339.521423,186.704407 
	C351.949005,193.756180 364.028564,200.697830 376.108093,207.639465 
z"/>
<path fill="#E74945" opacity="1.000000" stroke="none" 
	d="
M376.432373,207.772079 
	C364.028564,200.697830 351.949005,193.756180 339.271301,186.486023 
	C335.440765,184.460022 332.208435,182.762543 329.051758,180.706543 
	C337.449677,162.345734 345.674744,144.296829 354.251831,126.416801 
	C355.064789,124.722168 358.085022,124.086395 360.080505,122.959045 
	C362.523163,125.222450 364.965820,127.485863 367.683807,129.942932 
	C373.012573,136.257111 378.104645,142.346283 383.110474,148.505554 
	C390.653076,157.786133 398.135437,167.115677 405.804565,176.716064 
	C400.770111,174.265457 398.624756,177.020279 396.657776,181.553345 
	C392.393860,191.379822 387.670288,201.006866 382.970093,211.060364 
	C380.789215,210.238434 378.772949,209.071564 376.432373,207.772079 
z"/>
<path fill="#73544A" opacity="1.000000" stroke="none" 
	d="
M385.363678,297.091064 
	C378.483490,293.473480 378.734680,293.578827 381.639984,286.651978 
	C385.987274,276.287354 389.937195,265.756104 394.063171,255.298538 
	C394.711456,253.655396 395.396912,252.026947 396.375458,249.632568 
	C399.747192,251.885651 402.578064,253.777298 405.705994,255.828201 
	C409.804535,258.941772 413.734131,261.751831 417.325317,264.942810 
	C418.334900,265.839905 419.219330,268.348724 418.689117,269.282288 
	C412.867706,279.532410 409.179779,290.456665 407.427643,302.081299 
	C407.311035,302.855011 406.784180,303.566925 406.193756,304.868347 
	C399.287811,302.264526 392.508789,299.708557 385.363678,297.091064 
z"/>
<path fill="#E85653" opacity="1.000000" stroke="none" 
	d="
M224.077057,118.995834 
	C225.945343,106.801224 225.336334,94.775032 219.848831,83.596863 
	C216.898621,77.587173 212.650772,72.214516 208.542297,66.093979 
	C200.562012,60.192482 193.027863,54.751415 185.493729,49.310345 
	C198.680099,49.245235 211.866455,49.180126 225.520538,49.144615 
	C233.744125,50.728237 241.507034,52.248585 249.250580,53.861782 
	C251.017487,54.229874 252.717590,54.918652 254.658081,56.028473 
	C247.293961,72.951096 239.832962,89.358849 232.075363,105.625145 
	C229.849655,110.292061 226.766861,114.550240 224.077057,118.995834 
z"/>
<path fill="#525B60" opacity="1.000000" stroke="none" 
	d="
M185.120056,49.246307 
	C193.027863,54.751415 200.562012,60.192482 208.258347,65.886909 
	C205.021118,72.688316 201.621689,79.236374 197.905609,85.980515 
	C189.490585,74.690308 178.276718,68.176926 164.316833,65.334320 
	C166.650681,58.864727 169.306229,52.593975 172.053360,45.946571 
	C176.345428,46.774044 180.545898,47.978161 185.120056,49.246307 
z"/>
<path fill="#E8524F" opacity="1.000000" stroke="none" 
	d="
M223.940567,119.350800 
	C226.766861,114.550240 229.849655,110.292061 232.075363,105.625145 
	C239.832962,89.358849 247.293961,72.951096 254.957520,56.236710 
	C268.213470,61.060635 281.379578,66.244965 294.713165,72.027069 
	C286.582733,90.425346 278.244904,108.207375 270.002289,126.033424 
	C265.255310,136.299576 260.662323,146.636917 255.586517,156.963287 
	C243.781036,155.416260 232.389084,153.848175 220.997131,152.280090 
	C216.591309,151.828964 212.185501,151.377823 206.799225,150.826294 
	C215.220261,141.370422 221.074631,131.346802 223.940567,119.350800 
z"/>
<path fill="#E84F4B" opacity="1.000000" stroke="none" 
	d="
M256.000031,156.942230 
	C260.662323,146.636917 265.255310,136.299576 270.002289,126.033424 
	C278.244904,108.207375 286.582733,90.425346 294.960022,72.261467 
	C297.792816,73.238014 300.546234,74.577950 303.642273,76.016090 
	C310.880585,80.998238 317.785400,85.869446 324.662537,90.779427 
	C325.734894,91.545059 326.680969,92.487503 327.678192,93.912933 
	C326.298920,96.323196 324.577728,98.003181 323.611633,100.041130 
	C317.350006,113.249290 311.198761,126.510689 305.120453,139.804535 
	C300.979919,148.860336 297.016815,157.997284 292.602783,166.999527 
	C283.488159,164.600449 274.745148,162.299789 265.744720,159.737427 
	C262.324890,158.631210 259.162476,157.786713 256.000031,156.942230 
z"/>
<path fill="#444F54" opacity="1.000000" stroke="none" 
	d="
M299.122192,288.000946 
	C297.072266,294.302490 295.022339,300.604065 292.652161,307.447327 
	C291.621063,309.327179 290.910248,310.665253 290.199402,312.003357 
	C289.109528,313.415649 288.019653,314.827942 286.549988,316.678772 
	C285.740875,317.730225 285.311523,318.343201 284.882172,318.956177 
	C283.982635,319.734680 283.083069,320.513153 281.791077,321.653870 
	C280.878357,322.552948 280.358124,323.089813 279.837891,323.626678 
	C278.721191,324.345459 277.604492,325.064240 275.955322,326.074036 
	C274.618408,326.919220 273.813904,327.473389 273.009430,328.027588 
	C271.798523,328.468445 270.587585,328.909302 268.830139,329.593384 
	C267.490845,330.146851 266.698120,330.457123 265.905365,330.767426 
	C243.029480,333.241638 227.290527,323.552612 219.159729,301.325684 
	C220.526840,299.444855 221.877686,298.180328 222.621323,296.625397 
	C225.594971,290.407593 228.226685,284.021912 231.338135,277.877197 
	C232.158340,276.257355 234.245010,275.278748 235.795013,274.467957 
	C235.895111,277.907196 235.612793,280.936646 236.065628,283.851868 
	C237.773788,294.848480 241.337387,304.761383 252.904312,309.745209 
	C258.157410,311.122131 262.614807,310.160370 266.671326,306.466583 
	C259.537262,300.346710 255.355759,293.236237 257.985779,283.592010 
	C260.621399,273.927277 267.981049,269.708160 277.658844,267.430847 
	C275.879547,263.788269 274.378967,260.716217 272.690125,257.284241 
	C264.598694,244.865463 256.306152,243.220596 245.206772,251.097458 
	C247.779800,241.344971 251.108871,232.374634 258.006378,225.202560 
	C270.763092,225.484467 280.191254,231.900543 287.788635,241.532379 
	C293.757294,249.099335 296.912445,257.926270 298.910339,267.950897 
	C299.116272,269.497803 299.242401,270.352539 299.368500,271.207245 
	C299.345428,275.436157 299.322327,279.665100 299.215149,284.651001 
	C299.128082,286.272339 299.125153,287.136627 299.122192,288.000946 
z"/>
<path fill="#465156" opacity="1.000000" stroke="none" 
	d="
M266.002106,159.999130 
	C274.745148,162.299789 283.488159,164.600449 292.829681,167.290268 
	C296.286285,168.579971 299.144409,169.480530 301.992920,170.747620 
	C298.109650,180.533234 294.376251,190.013321 290.314758,199.350708 
	C287.440826,205.957870 284.122925,212.371902 281.003235,218.872162 
	C275.496277,217.912094 270.022064,216.638062 264.475372,216.059341 
	C253.910248,214.957001 245.006851,218.496796 237.550186,226.393585 
	C237.348618,223.528687 237.073654,220.671295 237.988983,218.267075 
	C240.733856,211.057388 243.943665,204.024704 246.972031,196.922943 
	C250.298508,196.102554 253.624985,195.282166 257.737946,194.267822 
	C255.258453,194.068878 253.530869,193.930267 251.410843,193.309372 
	C256.012970,181.884445 261.007538,170.941788 266.002106,159.999130 
M263.463287,194.042938 
	C263.171692,194.139191 262.880066,194.235443 262.588470,194.331696 
	C263.061066,194.516861 263.533661,194.702026 264.006287,194.887177 
	C263.961273,194.614639 263.916260,194.342117 263.463287,194.042938 
z"/>
<path fill="#4A5459" opacity="1.000000" stroke="none" 
	d="
M265.744720,159.737427 
	C261.007538,170.941788 256.012970,181.884445 251.016739,193.204651 
	C235.333160,193.480118 219.651260,193.378036 203.507507,193.207520 
	C205.396088,187.361374 207.594971,181.516068 210.134018,175.822464 
	C213.562210,168.134995 217.251953,160.564163 220.913300,152.611694 
	C232.389084,153.848175 243.781036,155.416260 255.586517,156.963287 
	C259.162476,157.786713 262.324890,158.631210 265.744720,159.737427 
z"/>
<path fill="#434E53" opacity="1.000000" stroke="none" 
	d="
M281.342255,219.038361 
	C284.122925,212.371902 287.440826,205.957870 290.314758,199.350708 
	C294.376251,190.013321 298.109650,180.533234 302.323212,170.853577 
	C311.434113,174.083694 320.205078,177.574371 328.976074,181.065063 
	C332.208435,182.762543 335.440765,184.460022 338.923279,186.375885 
	C335.784973,194.416473 332.396576,202.238678 329.006165,210.457001 
	C326.299652,209.886932 323.595093,208.920776 320.292175,207.693207 
	C318.818085,207.227280 317.942413,207.022766 317.066742,206.818253 
	C312.963898,205.357422 308.861023,203.896591 304.758179,202.435745 
	C304.197021,203.174973 303.635864,203.914185 303.074677,204.653412 
	C304.445618,205.391678 306.069885,205.870453 307.140839,206.915985 
	C310.609192,210.302017 311.185760,215.731796 308.765228,219.758881 
	C306.283234,223.888199 301.415527,225.944916 296.719025,224.475418 
	C291.652710,222.890213 286.689484,220.975494 281.342255,219.038361 
M304.849762,202.984024 
	C303.883331,202.487656 302.916870,201.991302 301.436066,201.414246 
	C301.082001,201.807068 300.727966,202.199875 300.373901,202.592697 
	C301.232727,203.067123 302.091553,203.541550 303.598450,204.327469 
	C303.963898,204.243591 304.329376,204.159729 304.849762,202.984024 
M297.531128,200.665634 
	C296.394897,200.285263 295.258698,199.904877 294.122498,199.524490 
	C294.103760,200.144913 294.085052,200.765350 294.066315,201.385773 
	C295.365509,201.213333 296.664673,201.040894 297.531128,200.665634 
z"/>
<path fill="#495358" opacity="1.000000" stroke="none" 
	d="
M257.579407,225.118500 
	C251.108871,232.374634 247.779800,241.344971 245.061310,251.388153 
	C239.267883,258.301361 236.894150,265.895203 235.750153,274.005676 
	C234.245010,275.278748 232.158340,276.257355 231.338135,277.877197 
	C228.226685,284.021912 225.594971,290.407593 222.621323,296.625397 
	C221.877686,298.180328 220.526840,299.444855 219.116425,300.954773 
	C209.568314,281.191040 214.800446,252.311569 230.440475,236.688751 
	C231.496368,235.634033 232.547974,234.575043 233.300858,233.251984 
	C233.000122,232.985901 232.941284,233.047684 233.366547,233.187622 
	C233.873978,232.867035 233.956146,232.406509 234.010635,231.973373 
	C233.982956,232.000763 233.937485,232.063950 233.937485,232.063950 
	C235.279205,231.612549 236.762543,231.392075 237.938797,230.670837 
	C243.849869,227.046326 250.188507,225.007935 257.579407,225.118500 
z"/>
<path fill="#424D52" opacity="1.000000" stroke="none" 
	d="
M275.488007,346.710266 
	C274.764648,350.403442 273.761475,354.184906 272.523926,357.888031 
	C271.129791,362.059692 269.524597,366.160736 267.719543,370.909058 
	C250.380112,377.146698 232.911835,380.696686 215.021271,382.166901 
	C217.144226,376.852509 219.297501,371.549896 221.372253,366.216766 
	C222.020264,364.551086 222.456314,362.802917 222.997253,360.723358 
	C240.371674,355.824097 257.738190,351.294037 275.488007,346.710266 
z"/>
<path fill="#4A5459" opacity="1.000000" stroke="none" 
	d="
M246.587830,196.910767 
	C243.943665,204.024704 240.733856,211.057388 237.988983,218.267075 
	C237.073654,220.671295 237.348618,223.528687 237.244324,226.581085 
	C236.218552,228.457611 235.027924,229.931961 233.887390,231.735123 
	C233.937485,232.063950 233.982956,232.000763 233.678818,231.955063 
	C233.230209,232.288803 233.085739,232.668243 232.941284,233.047684 
	C232.941284,233.047684 233.000122,232.985901 233.033417,232.959229 
	C231.753586,233.558090 230.465561,234.244492 229.122726,234.797974 
	C224.781128,236.587418 219.963531,235.397476 216.930237,231.839310 
	C213.896667,228.280869 213.162292,223.082932 216.106140,219.409653 
	C224.164154,209.355103 233.119507,200.314804 246.587830,196.910767 
z"/>
<path fill="#FDE5D2" opacity="1.000000" stroke="none" 
	d="
M290.560608,311.941956 
	C290.910248,310.665253 291.621063,309.327179 292.597198,307.793396 
	C292.215607,309.025330 291.568726,310.452942 290.560608,311.941956 
z"/>
<path fill="#FDE5D2" opacity="1.000000" stroke="none" 
	d="
M273.249451,328.196960 
	C273.813904,327.473389 274.618408,326.919220 275.713593,326.304291 
	C275.166046,326.951172 274.327789,327.658783 273.249451,328.196960 
z"/>
<path fill="#FDE5D2" opacity="1.000000" stroke="none" 
	d="
M266.134521,330.972046 
	C266.698120,330.457123 267.490845,330.146851 268.610596,329.831879 
	C268.079651,330.277008 267.221649,330.726837 266.134521,330.972046 
z"/>
<path fill="#FDE5D2" opacity="1.000000" stroke="none" 
	d="
M299.404907,287.871033 
	C299.125153,287.136627 299.128082,286.272339 299.243530,285.101990 
	C299.466583,285.777649 299.577118,286.759399 299.404907,287.871033 
z"/>
<path fill="#FDE5D2" opacity="1.000000" stroke="none" 
	d="
M299.619995,271.012085 
	C299.242401,270.352539 299.116272,269.497803 299.046997,268.321167 
	C299.359741,268.938446 299.615631,269.877716 299.619995,271.012085 
z"/>
<path fill="#FDE5D2" opacity="1.000000" stroke="none" 
	d="
M280.050903,323.805023 
	C280.358124,323.089813 280.878357,322.552948 281.668823,321.928711 
	C281.380646,322.555359 280.822296,323.269379 280.050903,323.805023 
z"/>
<path fill="#FDE5D2" opacity="1.000000" stroke="none" 
	d="
M285.184662,318.943695 
	C285.311523,318.343201 285.740875,317.730225 286.424286,316.989594 
	C286.281281,317.551697 285.884216,318.241455 285.184662,318.943695 
z"/>
<path fill="#FDE5D2" opacity="1.000000" stroke="none" 
	d="
M317.137329,207.100342 
	C317.942413,207.022766 318.818085,207.227280 319.930084,207.676697 
	C319.180237,207.741882 318.194061,207.562164 317.137329,207.100342 
z"/>
<path fill="#FDE5D2" opacity="1.000000" stroke="none" 
	d="
M335.061218,214.258301 
	C335.540527,214.196075 336.087524,214.372528 336.814148,214.784882 
	C336.372192,214.846176 335.750519,214.671570 335.061218,214.258301 
z"/>
<path fill="#795B51" opacity="1.000000" stroke="none" 
	d="
M214.681229,382.350494 
	C232.911835,380.696686 250.380112,377.146698 267.720398,371.320679 
	C276.802277,368.105957 285.662720,365.285400 294.355377,362.018433 
	C299.946960,359.916992 305.274780,357.120178 310.757965,354.719940 
	C312.355347,354.020721 314.080719,353.613953 316.881897,352.705048 
	C312.789795,362.910706 306.699554,369.669617 298.071442,373.873444 
	C293.044373,376.322754 289.949188,379.475800 288.640350,385.148193 
	C288.029388,387.795929 285.215393,390.657440 282.654541,391.996857 
	C275.166107,395.913452 267.302887,399.113495 259.293274,402.797607 
	C253.854980,404.232971 248.670364,405.322876 243.577301,406.741547 
	C239.404007,407.903992 236.657318,410.813629 236.079636,415.135773 
	C235.319321,420.824554 231.961502,423.872528 226.834930,425.626709 
	C216.919281,429.019684 207.279587,427.789459 197.374908,424.056824 
	C194.351715,422.638336 191.701218,421.287872 188.669907,419.743408 
	C189.359695,418.443176 189.790146,417.216339 190.554977,416.255829 
	C196.702621,408.534912 201.074402,399.858002 202.245392,390.113312 
	C202.923645,384.468994 206.018433,383.492096 210.402115,383.070435 
	C211.720139,382.943665 213.028442,382.715698 214.681229,382.350494 
z"/>
<path fill="#E84C49" opacity="1.000000" stroke="none" 
	d="
M329.051758,180.706543 
	C320.205078,177.574371 311.434113,174.083694 302.332825,170.487045 
	C299.144409,169.480530 296.286285,168.579971 293.201263,167.388687 
	C297.016815,157.997284 300.979919,148.860336 305.120453,139.804535 
	C311.198761,126.510689 317.350006,113.249290 323.611633,100.041130 
	C324.577728,98.003181 326.298920,96.323196 327.868286,94.187019 
	C334.543671,99.264084 341.164429,104.471184 347.450623,110.054932 
	C351.778748,113.899452 355.643280,118.265968 359.897766,122.679108 
	C358.085022,124.086395 355.064789,124.722168 354.251831,126.416801 
	C345.674744,144.296829 337.449677,162.345734 329.051758,180.706543 
z"/>
<path fill="#FBFCFD" opacity="1.000000" stroke="none" 
	d="
M235.795013,274.467957 
	C236.894150,265.895203 239.267883,258.301361 245.099396,251.808472 
	C256.306152,243.220596 264.598694,244.865463 272.206879,257.186829 
	C263.682037,256.379120 257.130341,260.039978 252.536530,269.003937 
	C245.630585,282.479523 246.244675,296.088287 252.670242,309.600037 
	C241.337387,304.761383 237.773788,294.848480 236.065628,283.851868 
	C235.612793,280.936646 235.895111,277.907196 235.795013,274.467957 
z"/>
<path fill="#43BDF5" opacity="1.000000" stroke="none" 
	d="
M252.904312,309.745209 
	C246.244675,296.088287 245.630585,282.479523 252.536530,269.003937 
	C257.130341,260.039978 263.682037,256.379120 272.395142,257.546722 
	C274.378967,260.716217 275.879547,263.788269 277.658844,267.430847 
	C267.981049,269.708160 260.621399,273.927277 257.985779,283.592010 
	C255.355759,293.236237 259.537262,300.346710 266.671326,306.466583 
	C262.614807,310.160370 258.157410,311.122131 252.904312,309.745209 
z"/>
<path fill="#4A5459" opacity="1.000000" stroke="none" 
	d="
M263.667267,194.056274 
	C263.916260,194.342117 263.961273,194.614639 264.006287,194.887177 
	C263.533661,194.702026 263.061066,194.516861 262.588470,194.331696 
	C262.880066,194.235443 263.171692,194.139191 263.667267,194.056274 
z"/>
<path fill="#465156" opacity="1.000000" stroke="none" 
	d="
M297.747498,200.767029 
	C296.664673,201.040894 295.365509,201.213333 294.066315,201.385773 
	C294.085052,200.765350 294.103760,200.144913 294.122498,199.524490 
	C295.258698,199.904877 296.394897,200.285263 297.747498,200.767029 
z"/>
<path fill="#465156" opacity="1.000000" stroke="none" 
	d="
M302.950378,204.015976 
	C302.091553,203.541550 301.232727,203.067123 300.373901,202.592697 
	C300.727966,202.199875 301.082001,201.807068 301.715027,201.793243 
	C302.307343,202.455811 302.620636,202.739365 302.953003,203.270935 
	C302.972015,203.518951 302.950378,204.015976 302.950378,204.015976 
z"/>
<path fill="#FDE5D2" opacity="1.000000" stroke="none" 
	d="
M302.933960,203.022919 
	C302.620636,202.739365 302.307343,202.455811 301.972229,201.833603 
	C302.916870,201.991302 303.883331,202.487656 304.386871,203.164993 
	C303.593964,203.238281 303.263977,203.130600 302.933960,203.022919 
z"/>
<path fill="#FDE6D5" opacity="1.000000" stroke="none" 
	d="
M302.953003,203.270935 
	C303.263977,203.130600 303.593964,203.238281 304.309387,203.710907 
	C304.329376,204.159729 303.963898,204.243591 303.274414,204.171722 
	C302.950378,204.015976 302.972015,203.518951 302.953003,203.270935 
z"/>
<path fill="#FDE6D5" opacity="1.000000" stroke="none" 
	d="
M233.366547,233.187622 
	C233.085739,232.668243 233.230209,232.288803 233.706497,231.927673 
	C233.956146,232.406509 233.873978,232.867035 233.366547,233.187622 
z"/>
</svg>
