<?xml version="1.0" encoding="UTF-8"?>
<svg version="1.1" viewBox="0 0 2048 608" width="175" height="57" xmlns="http://www.w3.org/2000/svg">
<path transform="translate(86,8)" d="m0 0h1871l23 1 15 4 13 7 10 8 9 9 9 14 5 12 2 12v459l-3 14-5 12-10 14-9 9-10 7-14 7-17 5-14 1-117 1-1759-1-18-2-16-5-11-6-10-8-11-11-7-10-5-11-3-14-1-16v-430l1-19 3-13 8-15 8-10 9-9 14-9 10-4 9-2z" fill="#030101"/>
<path transform="translate(301,314)" d="m0 0h202l1 1 1 8v72l-1 110-1 1h-202l-1-6v-179z" fill="#FEB601"/>
<path transform="translate(347,100)" d="m0 0h113l43 1 1 1 1 14v73l-1 99-1 5h-202v-189l1-3z" fill="#90B205"/>
<path transform="translate(77,101)" d="m0 0h178l22 1 1 6v185l-1 1-56 1h-143l-2-1-1-12v-42l1-138z" fill="#FF5112"/>
<path transform="translate(78,313)" d="m0 0h42l158 1v189l-3 2h-200l-1-24v-166z" fill="#00A0F7"/>
<path transform="translate(86,8)" d="m0 0h1871l23 1 15 4 13 7 10 8 9 9 9 14 5 12 2 12v459l-3 14-5 12-10 14-9 9-10 7-14 7-17 5-14 1-117 1-1759-1-18-2-16-5-11-6-10-8-11-11-7-10-5-11-3-14-1-16v-430l1-19 3-13 8-15 8-10 9-9 14-9 10-4 9-2zm1515 3-1511 1-26 2-13 4-11 7-13 12-7 7-7 10-1 2-1 37v432l1 30 5 8 12 13 9 8 11 7 6 3 17 2 29 1h1820l51-1 16-3 12-5 14-10 9-9 10-14 1-4 1-35 1-453-2-9-8-11-9-10-11-9-14-7-14-3-13-1-40-1-155-1z" fill="#BBBCBC"/>
<path transform="translate(86,8)" d="m0 0h1871l8 2-2 2h-362l-1511 1-26 2-13 4-11 7-13 12-10 11-7 11-2 3h-2l3-9 6-11 8-10 9-9 14-9 10-4 9-2z" fill="#F1F1F1"/>
<path transform="translate(685,280)" d="m0 0h6l5 4 5 10 30 75 11 28 1 2 5-10 10-25 18-44 10-23 8-15 3-2 11 1 2 2 1 45-1 96h-12l-1-1-1-10v-106l-8 16-22 54-15 36-5 11h-4l-5-8-16-38-16-40-10-24-4-7-1 115-1 2h-12l-1-2v-138l4-3z" fill="#F2F2F1"/>
<path transform="translate(1380,271)" d="m0 0 9 1 5 5 1 5-3 1-16 2-5 3h-2l-2 9-1 27h45v-17l1-10 7-3h6v30h23l1 1v6l-2 3-3 1h-19l1 70 2 7 5 1h15l2 1-1 7-3 3-5 2h-13l-7-3-6-7-3-6-1-21v-54h-45v89l-11 1-2-2v-88h-15l-2-2-1-6 3-3h14v-16l1-13 6-12 9-8 7-3z" fill="#F1F1F1"/>
<path transform="translate(1895,320)" d="m0 0h11l10 3 6 4 5 4 7 11 4 11 1 5v18l-2 1-65 1v7l4 12 8 11 6 4 11 2 14-1 9-4 7-4 4 2-1 6-5 6-8 5-9 2-13 1-13-2-8-4-9-9-6-10-4-12-1-6v-19l4-15 6-11 9-10 9-6z" fill="#F2F2F1"/>
<path transform="translate(1128,114)" d="m0 0h30l10 4 8 7 4 7v10l-6 10-2 4 7 9 4 7v7l-3 8-7 8-7 4-13 2h-25l-2-2-1-4v-77z" fill="#F2F2F2"/>
<path transform="translate(1722,332)" d="m0 0h10l10 3 8 6 5 8 3 9 1 9v15l-3 14-6 10-8 6-10 3h-11l-9-3-8-6-7-11-2-7v-24l4-14 7-10 5-4 6-3z" fill="#030101"/>
<path transform="translate(1080,332)" d="m0 0h8l9 2 10 7 6 10 2 7v31l-4 12-7 8-10 5-5 1h-10l-10-3-10-9-6-10-2-8v-15l3-15 5-10 6-7 10-5z" fill="#030101"/>
<path transform="translate(1274,332)" d="m0 0 11 1 8 4 5 4 6 10 3 11v24l-3 11-6 9-8 6-4 2-13 1-10-2-7-4-7-7-5-10-1-5v-23l4-13 5-8 8-7 7-3z" fill="#030101"/>
<path transform="translate(1963,9)" d="m0 0h17l15 4 13 7 10 8 9 9 9 14 5 12 2 12v459l-1 7-5 6-3 1 1-485-2-9-8-11-9-10-10-8-14-7-14-3-13-1-40-1v-1l38-1z" fill="#999592"/>
<path transform="translate(11,57)" d="m0 0h1v497l-5-4-3-14-1-16v-430l1-19 2-8h2l2-4z" fill="#BCBDBD"/>
<path transform="translate(1554,279)" d="m0 0h22l9 3 7 6 2 6v6l-6-1-10-4-6-1h-19l-10 4-5 4-5 10v8l4 8 10 9 20 12 14 10 9 9 6 10 2 8-1 11-4 9-6 8-7 6-8 4-9 2h-23l-16-4-6-7-1-2v-10l2-1 15 8 9 2 16 1 9-2 8-6 5-8 1-3v-8l-3-8-8-8-14-9-18-11-10-9-6-8-4-10v-15l6-12 4-5 10-7 10-4z" fill="#F3F3F3"/>
<path transform="translate(935,123)" d="m0 0 12 1 8 4 10 9 4 7 2 9-1 14-4 10-9 9-11 5-12 1-12-3-6-4-5-5-5-8-2-6v-16l5-12 6-7 10-6z" fill="#030101"/>
<path transform="translate(1269,320)" d="m0 0h12l10 2 10 5 8 7 8 14 4 12v23l-3 13-6 11-9 10-11 7-8 2h-19l-10-3-9-6-8-10-7-14-2-10v-18l3-13 6-12 9-10 9-6zm5 12-10 2-8 5-7 8-5 12-1 5v23l3 10 6 8 8 7 6 2 14 1 8-2 9-6 6-8 3-8 1-5v-24l-3-11-6-10-8-6-5-2z" fill="#F2F2F2"/>
<path transform="translate(1078,320)" d="m0 0h12l13 3 9 6 8 8 6 10 3 9 1 6v21l-4 15-6 10-9 10-10 6-8 2h-21l-11-4-11-10-8-14-4-15v-17l4-16 7-13 9-9 11-6zm2 12-10 3-8 6-7 11-3 11-1 7v15l3 10 6 9 9 8 10 3h10l10-3 8-6 5-7 3-10v-31l-4-11-6-8-8-5-9-2z" fill="#F2F2F2"/>
<path transform="translate(1721,320)" d="m0 0h11l10 2 9 4 8 7 7 9 5 12 2 9v19l-3 13-6 12-10 11-10 6-8 2-11 1-14-2-8-4-10-9-8-14-3-10-1-8v-14l3-14 7-14 7-8 9-6 8-3zm1 12-9 3-6 4-7 9-4 11-1 5v24l4 11 7 9 10 6 5 1h11l10-3 8-6 6-10 3-14v-15l-2-13-5-10-5-5-5-4-10-3z" fill="#F2F2F2"/>
<path transform="translate(827,114)" d="m0 0h29l11 4 7 6 6 10 1 9-3 7-7 8-8 4-9 2-21 1-1 36h-7l-2-6 1-77 1-3z" fill="#F3F3F2"/>
<path transform="translate(640,125)" d="m0 0h20l10 3 8 5 7 8 3 12-1 14-3 8-8 9-8 4-9 2h-19l-1-5v-56z" fill="#030101"/>
<path transform="translate(928,113)" d="m0 0h18l10 4 8 5 6 5 7 10 5 11 1 4v8l-3 12-6 11-8 9-9 6-9 3-6 1h-11l-9-2-11-6-8-8-7-11-3-8-1-14 3-12 7-11 9-9 8-5zm7 10-10 2-10 6-7 9-4 10v16l4 10 5 7 9 6 12 3 12-1 12-6 8-8 4-10 1-14-3-11-4-6-9-8-8-4z" fill="#F0F0F0"/>
<path transform="translate(1177,320)" d="m0 0h15l9 3 5 3 3 6v5l-8-1-8-2-12-1-10 3-5 5-2 5v6l6 8 23 12 10 7 6 7 2 4v14l-3 6-9 10-10 5-12 2-14-1-10-4-4-5-2-5 1-5 6 1 8 4 12 2 11-1 8-4 4-5 1-7-4-7-9-6-22-11-8-7-5-10-1-8 3-10 9-10 10-6z" fill="#F2F2F2"/>
<path transform="translate(634,114)" d="m0 0h23l16 4 10 6 8 8 7 13 2 9-1 13-4 9-7 10-9 8-8 4-11 2-12 1h-17l-2-2-1-8v-66l1-9zm6 11-1 4v56l1 5h19l12-3 8-6 6-8 2-6 1-14-3-12-9-10-8-4-8-2z" fill="#F1F1F1"/>
<path transform="translate(1636,294)" d="m0 0h6v30h24l1 1v8l-4 2h-21v50l1 21 2 6 6 2 14-1 2 1 1 4-3 5-7 3h-13l-8-4-5-6-3-9-1-10v-62h-14l-3-3-1-6 3-2h15v-22l3-5z" fill="#F0EFEF"/>
<path transform="translate(924,320)" d="m0 0h15l11 4 5 6 3 9-2 1-12-5-4-1h-16l-10 5-7 7-6 13-2 9v17l4 13 10 11 8 4 13 1 9-2 10-5h4l-1 6-6 8-7 4-10 2h-9l-12-3-7-4-8-7-7-11-4-10-2-14 1-16 4-13 6-10 8-9 10-6z" fill="#F2F1F1"/>
<path transform="translate(1441,113)" d="m0 0 7 1 8 9 13 19 19 28 7 9 1-8 1-56 2-1h7v87l-3 1-5-3-7-10-18-27-13-19-9-12-1-1-1 11-1 59-1 1h-8l-1-1v-53l1-22z" fill="#EFEFEF"/>
<path transform="translate(1e3 113)" d="m0 0 8 1 8 11 19 28 12 18 7 8 1-47 1-18h8l1 1v86h-7l-7-10-10-16-8-11-16-24-8-10-1 2-2 69h-7l-1-1v-68l1-18z" fill="#eee"/>
<path transform="translate(1402,113)" d="m0 0h15l2 2v7l-2 2-41 1v27l38 1 1 1v7l-7 2h-33v28h42l1 1v8l-1 1h-48l-2-3-1-17v-59l2-7 3-1z" fill="#EDEDED"/>
<path transform="translate(1268,114)" d="m0 0h48v9l-1 1h-41l1 28 38 1v9l-12 1h-27v28h42l1 8-2 2-45 1-3-1-1-2-1-18v-57l1-9z" fill="#EDEDED"/>
<path transform="translate(1836,320)" d="m0 0 7 1 4 4 1 9-2 1h-12l-8 3-8 9-3 7-2 15-1 54-3 2h-7l-3-4v-96l4-3h6l2 2 1 15 12-11 8-6z" fill="#EFEFEF"/>
<path transform="translate(1017,320)" d="m0 0 7 1 4 8-2 6h-12l-9 4-7 7-4 9-1 7-2 62-10 1-2-1-1-99 1-2 9-1 3 2v16l8-7 8-8z" fill="#F3F3F3"/>
<path transform="translate(771,112)" d="m0 0h8l10 3 8 7 3 6v4l-5-1-11-7-3-1h-12l-8 5-2 3v7l5 6 12 6 10 4 10 7 9 10 1 2v7l-4 8-11 11-8 4-8 1-10-3-9-6-8-9-1-7 2-1 9 7v2l14 7h9l7-4 7-8 1-6-4-7-11-7-15-6-10-7-8-10-1-4 3-8 10-10 7-4z" fill="#EEEDED"/>
<path transform="translate(1895,332)" d="m0 0h12l8 4 6 7 4 11 1 10-1 1h-54l1-8 6-12 7-8z" fill="#030101"/>
<path transform="translate(845,323)" d="m0 0h12l2 1v98l-1 2h-12l-1-1z" fill="#F1F1F1"/>
<path transform="translate(1200,114)" d="m0 0h8l1 1 1 76h36l3 2v6l-1 2h-47l-1-2-1-42v-42z" fill="#F0F0F0"/>
<path transform="translate(1138,162)" d="m0 0 23 1 6 3 4 5v11l-4 5-9 3h-20l-2-4v-23z" fill="#030101"/>
<path transform="translate(840,124)" d="m0 0 17 1 6 3 4 6 1 3v7l-4 6-6 3-8 1h-11l-3-1-1-3v-21l2-4z" fill="#030101"/>
<path transform="translate(1093,114)" d="m0 0h8l1 2v84h-10l-1-2v-23l1-60z" fill="#F5F5F5"/>
<path transform="translate(719,114)" d="m0 0h8v87l-5 1-3-1-1-5v-81z" fill="#F0EFEF"/>
<path transform="translate(1137,124)" d="m0 0 21 1 8 4 2 4v9l-4 5-5 2-7 1h-12l-3-1-1-2v-20z" fill="#030101"/>
<path transform="translate(1963,9)" d="m0 0h17l15 4 13 7 10 8 9 9 9 14 4 10h-4l-6-12-11-13-11-10-16-8-14-3-13-1-40-1v-1l38-1z" fill="#B4B5B4"/>
<path transform="translate(846,277)" d="m0 0h10l6 3-1 7-4 6-4 2h-5l-4-4-1-4v-7z" fill="#EFEEEE"/>
<path transform="translate(8,550)" d="m0 0 5 5 5 8 12 13 8 7 11 7 6 3 3 5-9-3-12-7-12-11-10-11-7-13z" fill="#D3D2D1"/>
<path transform="translate(10,417)" d="m0 0h1l1 108v29l-2-4-1-7v-28z" fill="#999592"/>
<path transform="translate(2034,555)" d="m0 0h1v5l-10 14-9 9-7 4 1-5 12-11 10-12z" fill="#9D9A98"/>
<path transform="translate(2040,542)" d="m0 0 1 3-5 13-2-1-7 9-9 10-7 6-2-1 12-11 9-12 3-7 2-7 2 2z" fill="#B9BBBB"/>
<path transform="translate(42,17)" d="m0 0 2 1-12 11-8 8-11 14-2-1 7-11 9-10 9-8z" fill="#9F9C9A"/>
<path transform="translate(2011,27)" d="m0 0 4 2 11 11 6 8 3 1 5 11-4 1-6-12-11-13-8-7z" fill="#F1F1F1"/>
<path transform="translate(35,582)" d="m0 0 5 2 9 6 6 3 3 5-9-3-10-6-4-5z" fill="#E4E4E3"/>
<path transform="translate(2012,24)" d="m0 0 5 3 10 10 7 10v2l-4-2-8-10-8-8v-3h-2z" fill="#9A9795"/>
<path transform="translate(20,42)" d="m0 0 1 2-7 10-6 9h-2l3-9 7-8z" fill="#EDEDEC"/>
<path transform="translate(2031,556)" d="m0 0 2 1-2 4-9 11-8 8-5 2 13-13z" fill="#AEAEAD"/>
<path transform="translate(11,57)" d="m0 0h1v36h-1l-1-30-4 1 2-1 2-4z" fill="#95918E"/>
<path transform="translate(2011,27)" d="m0 0 4 2 11 11 4 5-1 3-9-11-9-8z" fill="#DDDDDC"/>
<path transform="translate(42,17)" d="m0 0 2 1-11 10-3-1 5-5z" fill="#625F5D"/>
<path transform="translate(2035,59)" d="m0 0 1 2h4l1 5-3 1-1 11h-1z" fill="#B8B9B9"/>
</svg>
