<?xml version="1.0" encoding="UTF-8"?>
<svg version="1.1" viewBox="0 0 2048 608" width="175" height="57" xmlns="http://www.w3.org/2000/svg">
<path transform="translate(73,3)" d="m0 0h1900l27 9 9 6 10 6 10 9 7 8 2 12 4 5 3 9v472l-3 14-8 16-12 13-10 8-23 11-5 3-8 2-21 1-1868-1-21-1-7-2-8-5-10-2-12-11-10-10-8-10-6-13-2-10-1-22-1-50v-267l1-112 1-25 3-13 6-12 11-12 9-9 10-6 18-8 10-2z" fill="#010001"/>
<path transform="translate(305,318)" d="m0 0h197l1 1v163l-1 18-2 2-166 1h-29l-1-1-1-39v-131l1-13z" fill="#FEB702"/>
<path transform="translate(81,105)" d="m0 0h194v184l-6 1-104 1h-76l-10-1-1-10v-43l1-129z" fill="#FE5013"/>
<path transform="translate(78,319)" d="m0 0h197v182l-1 1h-194l-2-6-1-175z" fill="#00A0F7"/>
<path transform="translate(313,106)" d="m0 0h122l63 1v156l-1 22-2 1-188-1-1-1v-177z" fill="#90B206"/>
<path transform="translate(648,291)" d="m0 0h26l5 10 19 46 18 43 18 44 5 13 1 3 4-4 18-40 10-23 16-36 18-42 5-12 1-1 31-1h21l2 1v211l-13 1h-24l-1-1-1-164h-2l-6 12-11 26-18 43-13 31-12 28-9 20-5 5h-19l-5-4-9-20-19-43-16-37-21-49-6-11v-2h-3l1 7v158l-14 1h-20l-1-1-1-8v-202l1-1z" fill="#FEFEFE"/>
<path transform="translate(1619,348)" d="m0 0h18l19 3 13 5 13 7 12 11 7 11 5 12 4 15v30l-4 15-8 16-8 10-11 10-15 8-19 5-17 2h-9l-21-3-14-5-12-7-10-9-6-7-8-15-5-19-1-15 3-21 5-15 7-12 9-10 8-7 12-7 15-5z" fill="#FEFEFE"/>
<path transform="translate(1304,348)" d="m0 0h19l18 3 14 5 12 7 13 13 8 14 4 11 4 22v9l-3 17-5 15-6 10-11 13-12 9-10 5-19 5-16 2h-11l-16-2-16-5-11-6-11-9-9-11-8-16-4-15-1-6v-15l4-20 6-15 7-11 6-7 12-9 16-8 12-3z" fill="#FEFEFE"/>
<path transform="translate(1794,275)" d="m0 0h21l9 3 1 27-5 1-11-2-11 1-8 4-6 9-2 12-1 22h59v-34l7-3 18-5 10-4h2l1 2-1 44h40v27l-39 1v64l1 18 4 10 7 5 7 2h7l7-3 5-2 1 1v26l-3 3-15 3h-24l-10-3-9-6-7-7-6-12-2-9-1-14v-76h-58l-1 123-18 1h-19l-1-1v-124l-10 1h-16l-1-1v-27h27v-26l2-10 5-12 6-9 9-9 16-8z" fill="#FEFEFE"/>
<path transform="translate(1472,347)" d="m0 0 17 1 22 4 3 2 1 3 1 28-3 1-13-6-10-3-11-1h-9l-9 3-6 5-1 2v10l3 6 11 7 30 13 13 9 7 8 5 11 2 7v7l-3 10-5 9-9 10-10 7-16 5-10 2h-28l-20-4-8-3-1-1v-33l19 9 16 4h20l8-2 6-4 3-5-1-8-5-8-14-7-23-10-12-7-8-7-8-16-1-3v-13l5-13 8-11 9-7 12-6 17-4z" fill="#FEFEFE"/>
<path transform="translate(1056,347)" d="m0 0 15 1 23 5 3 2 1 5v29l-11-6-10-4-11-2h-11l-16 4-10 6-7 6-7 11-4 13-1 15 2 14 4 10 9 11 11 7 13 4 6 1h9l16-4 14-7 4-1v30l-3 3-17 5-12 2-17 1-18-2-13-4-15-8-9-7-9-10-8-14-5-15-1-6v-21l4-18 6-14 10-14 6-7 10-7 14-7 14-4z" fill="#FEFEFE"/>
<path transform="translate(1099,117)" d="m0 0h10l10 2 12 9h2l1-8 3-2h12l2 1-1 87-3 12-4 8-9 10-9 6-10 3-7 1h-18l-12-2-6-3-3-5v-6l1-2 9 2 6 2 8 1h14l12-4 9-8 4-11 2-18-6 4-9 7-7 3-6 1h-11l-12-3-9-7-7-10-5-13-1-13 3-14 4-9 6-9 8-7 11-4z" fill="#FEFEFE"/>
<path transform="translate(1303,377)" d="m0 0h18l13 4 9 6 6 7 5 11 2 9 1 15-2 21-4 10-10 11-12 6-14 3-14-1-14-5-9-7-7-10-4-11-1-7v-19l3-14 7-14 10-9 12-5z" fill="#010001"/>
<path transform="translate(1618,377)" d="m0 0h17l12 3 10 6 7 8 5 10 2 9 1 10v11l-2 15-5 13-6 7-9 6-13 4-13 1-12-2-14-7-8-8-7-14-2-12 1-24 4-12 7-11 10-8 10-4z" fill="#010001"/>
<path transform="translate(1655,77)" d="m0 0h15l2 1v126l-2 2h-12l-3-2v-12l-6 4-9 7-9 3-12 1-12-2-10-6-8-11-5-12-1-4v-16l3-12 6-11 7-8 8-5 11-3h14l10 3 12 9v-51z" fill="#FEFEFE"/>
<path transform="translate(1202,350)" d="m0 0h18l4 2v33l-6-1-6-2h-21l-9 5-8 9-5 11-2 11-1 85-15 1h-20l-2-3 1-149h36v9l-1 11 4-1 13-13 10-6z" fill="#FEFEFE"/>
<path transform="translate(761,117)" d="m0 0h16l11 2 12 6 8 9 5 11 2 10v12l-3 13-6 10-6 7-12 7-9 2h-24l-10-3-9-6-7-8-6-12-2-9v-12l4-13 5-9 5-6 10-7z" fill="#FEFEFE"/>
<path transform="translate(1467,117)" d="m0 0h17l16 4 10 7 6 8 5 12 1 7v12l-2 11-6 11-10 10-10 5-8 2h-24l-12-4-9-7-7-10-4-9-2-10 1-13 4-12 6-9 8-8 10-5z" fill="#FEFEFE"/>
<path transform="translate(904,352)" d="m0 0h38l1 1v150l-12 1h-25l-2-1z" fill="#FEFEFE"/>
<path transform="translate(1732,117)" d="m0 0h14l12 3 8 6 7 8 5 12 2 12v7l-2 1-24 1h-23l-19-1 3 12 6 9 5 4 8 3h17l12-3 5-3h4v7l-6 7-13 4-8 1h-13l-11-2-10-6-7-8-6-11-3-14 1-13 5-14 7-9 8-7 8-4z" fill="#FEFEFE"/>
<path transform="translate(1317,117)" d="m0 0h16l9 2 10 6 6 8 4 8 3 10v14l-1 1-28 1h-38l2 8 4 8 4 5 6 4 6 2h18l13-4 4-2 4 1-1 6-6 7-13 4-10 1h-10l-14-3-6-4-8-8-7-14-2-6-1-13 3-12 6-12 11-11 12-6z" fill="#FEFEFE"/>
<path transform="translate(661,82)" d="m0 0h24l15 3 3 5v10l-1 2-5-1-11-4-6-1h-15l-13 3-10 5-9 8-8 16-2 10v16l3 12 5 9 7 8 10 6 10 3h24l12-3 6-3h3l1 7-3 6-5 4-14 3-7 1h-18l-16-4-14-7-7-6-7-10-6-13-2-9-1-14 2-15 5-13 6-10 6-7 13-9 11-5z" fill="#FEFEFE"/>
<path transform="translate(1181,118)" d="m0 0h10l6 1v59l3 8 7 6 6 2h9l11-4 7-8 2-9 1-54 2-1h12l2 1v86l-2 1h-11l-2-1-1-11-6 3-11 8-3 1h-20l-9-3-7-6-5-9-2-10v-59z" fill="#FEFEFE"/>
<path transform="translate(1470,129)" d="m0 0h12l9 3 7 5 5 8 1 4v26l-3 8-4 5-6 4-6 2h-19l-9-4-8-9-3-7-1-5v-12l3-12 6-9 8-5z" fill="#010001"/>
<path transform="translate(764,129)" d="m0 0h11l9 3 8 7 4 7 1 4v24l-4 10-9 8-6 2h-18l-8-3-9-8-4-10-1-5v-11l3-12 6-9 8-5z" fill="#010001"/>
<path transform="translate(882,117)" d="m0 0h10l10 2 7 5 6 9 2 6 1 10v56l-4 1h-10l-2-2-1-57-3-9-4-5-7-3h-11l-9 3-5 4-6 12-1 9-1 47-3 1h-9l-3-2v-85l1-1h12l2 2v11h2l10-8 10-5z" fill="#FEFEFE"/>
<path transform="translate(1621,129)" d="m0 0h13l9 4 7 6 4 7 1 20-2 13-6 8-9 6-8 2h-7l-9-3-8-7-5-9-1-4v-18l4-11 4-6 8-6z" fill="#010001"/>
<path transform="translate(1101,129)" d="m0 0h11l9 3 9 8 3 6v29l-3 8-9 8-11 4h-9l-8-3-8-7-5-9-1-4v-16l2-9 5-9 7-6z" fill="#010001"/>
<path transform="translate(965,117)" d="m0 0h17l8 1 3 5 1 10-11-3h-18l-6 3-2 4 2 9 7 6 19 9 10 9 3 7v10l-3 6-4 5-8 6-14 3h-10l-13-2-5-3-2-4v-10l12 5 5 1h15l8-4 3-5-1-6-5-5-26-13-7-8-3-7v-7l4-10 5-5 8-5z" fill="#FEFEFE"/>
<path transform="translate(1389,77)" d="m0 0 16 1v126l-7 2h-7l-2-1z" fill="#FEFEFE"/>
<path transform="translate(922,286)" d="m0 0 10 1 7 4 6 7 2 5v7l-4 7-4 5-8 4-10 1-11-4-7-8-2-5 1-9 6-9 8-5z" fill="#FEFEFE"/>
<path transform="translate(1023,118)" d="m0 0h14l1 1v85l-3 2h-10l-3-2v-85z" fill="#FEFEFE"/>
<path transform="translate(1324,128)" d="m0 0 10 1 6 4 6 7 4 9-1 4-2 1h-49l-1-2 6-12 7-7 9-4z" fill="#010001"/>
<path transform="translate(1733,129)" d="m0 0h14l6 3 6 7 3 7v7l-1 1h-48l-1-3 4-10 6-7 7-4z" fill="#010001"/>
<path transform="translate(1046,73)" d="m0 0h5l-1 4-7 8-13 14-4 2h-5l-1-4 11-13 6-7 5-3z" fill="#FEFEFE"/>
<path transform="translate(1965)" d="m0 0h6l-4 2z" fill="#919191"/>
<path transform="translate(70,607)" d="m0 0 4 1z" fill="#FEFEFE"/>
<path transform="translate(1961)" d="m0 0 3 1z" fill="#FEFEFE"/>
</svg>
