<svg version="1.1" id="Layer_1" xmlns="http://www.w3.org/2000/svg" xmlns:xlink="http://www.w3.org/1999/xlink" x="0px" y="0px"
	 width="100%" viewBox="0 0 512 512" enable-background="new 0 0 512 512" xml:space="preserve">
<path fill="transparent" opacity="1.000000" stroke="none" 
	d="
M278.000000,513.000000 
	C185.705612,513.000000 93.411232,513.000000 1.058422,513.000000 
	C1.058422,342.444275 1.058422,171.888550 1.058422,1.000000 
	C80.688370,1.000000 160.377213,1.000000 240.612122,1.366855 
	C239.774994,2.515936 238.344116,3.225168 237.016357,4.092326 
	C228.846939,9.427655 219.826157,13.858274 212.781876,20.410349 
	C205.040375,27.610935 198.699860,36.475609 192.562988,45.188602 
	C188.397369,51.102837 185.634232,58.004898 182.210220,64.425888 
	C182.176544,64.386574 182.221176,64.291428 181.964554,64.204491 
	C181.465515,64.363281 181.223114,64.609001 180.609421,64.918526 
	C177.346802,66.352188 174.365753,67.561760 171.580109,69.120522 
	C161.249313,74.901314 151.343811,81.162247 144.865189,91.605247 
	C136.837128,104.545776 138.676575,115.021172 151.806244,121.395844 
	C150.484695,123.406914 149.079865,124.983871 148.001602,126.759178 
	C138.298828,142.734482 130.158173,159.329376 126.464752,177.892899 
	C124.340759,188.568268 122.873581,199.450806 125.308296,209.895905 
	C127.479149,219.209015 132.323242,227.898987 135.578079,236.910126 
	C131.015808,236.094681 126.852783,235.279556 122.712273,234.362762 
	C109.773079,231.497787 96.842384,228.594406 83.929016,225.310379 
	C85.007805,220.059525 82.145020,217.305542 78.202591,216.249069 
	C73.643387,215.027344 68.799362,214.868454 64.025719,213.855560 
	C62.963928,209.506958 61.949097,205.552536 60.949818,201.594162 
	C60.507557,199.842270 60.569572,197.723465 59.568310,196.404709 
	C57.763866,194.028122 55.631264,191.308136 53.040058,190.360672 
	C51.654675,189.854095 49.166180,193.089996 46.918629,194.007904 
	C44.749435,194.893814 41.929768,195.878387 39.972179,195.187241 
	C37.166412,194.196655 34.665276,191.955627 32.420414,189.838776 
	C26.400986,184.162567 19.523018,184.309326 15.446376,191.532639 
	C11.532194,198.468063 8.568485,206.060059 6.146500,213.668915 
	C4.854422,217.728119 4.822519,222.563782 5.548875,226.822678 
	C8.163579,242.153641 23.468037,250.950821 37.960300,255.391449 
	C38.336914,256.819550 38.655560,257.873810 39.017338,258.913025 
	C42.098255,267.763214 54.717476,272.003326 62.951176,266.972229 
	C82.514313,273.751465 101.718666,280.397980 120.946350,287.435883 
	C113.824890,309.724426 110.785065,332.037415 113.992508,355.339142 
	C109.986107,356.236053 107.260979,358.186615 106.006203,361.948425 
	C105.053955,364.803284 103.594078,367.614044 103.298859,370.539154 
	C102.439049,379.058258 103.082947,387.268860 110.639420,393.162598 
	C115.726097,397.129974 120.756165,401.169952 125.849548,405.545288 
	C125.334999,407.422699 124.939369,409.013794 124.204559,410.428772 
	C119.235100,419.997986 114.193916,429.529938 108.995193,439.371094 
	C105.597954,444.775330 102.381432,449.882416 99.114006,455.070312 
	C96.835999,454.449158 94.798027,453.841156 92.734184,453.339630 
	C83.385925,451.067963 73.008347,457.059570 70.402611,466.109528 
	C69.559433,469.037964 70.069138,471.264252 72.774323,472.938904 
	C77.103119,475.618652 81.288803,478.535370 85.669617,481.124084 
	C95.851990,487.141083 106.114738,493.022095 117.453636,499.601532 
	C120.778923,493.389954 123.790825,487.653931 126.910278,481.976990 
	C128.852203,478.442993 130.687073,474.800507 133.059647,471.565857 
	C135.759338,467.885315 139.004425,464.604828 142.323288,460.989136 
	C148.421158,457.083832 154.303177,453.477600 159.975113,449.566681 
	C171.322662,441.742310 182.555206,433.751160 194.297668,425.907227 
	C199.326813,426.324402 203.891037,426.909210 208.460693,426.955383 
	C221.565033,427.087769 234.671753,427.032745 247.777084,426.964844 
	C249.519196,426.955841 251.258698,426.445770 253.005402,426.543823 
	C253.995789,429.697021 254.952988,432.484100 255.969254,435.249451 
	C260.335571,447.130768 265.324768,458.673950 274.009216,468.595032 
	C274.534058,471.393890 275.003510,473.802185 275.601990,476.177979 
	C276.681793,480.464691 279.430298,485.059052 278.632874,488.939423 
	C276.963440,497.063171 277.223267,504.958374 278.000000,513.000000 
z"/>
<path fill="transparent" opacity="1.000000" stroke="none" 
	d="
M271.000000,0.999998 
	C351.629242,1.000000 432.258453,1.000000 512.943848,1.000000 
	C512.943848,171.550034 512.943848,342.100098 512.943848,513.000000 
	C451.312347,513.000000 389.624023,513.000000 327.407837,512.601929 
	C327.378784,511.836334 327.904602,511.118408 328.372162,511.154572 
	C333.871979,511.579681 335.034058,508.378601 335.035492,503.747833 
	C335.038696,493.457336 330.335144,486.775482 319.801880,484.269043 
	C315.092621,483.148468 314.098236,480.567078 314.012634,476.657135 
	C313.921997,472.518311 313.898804,468.378021 313.904114,463.792999 
	C313.647247,462.092346 313.125488,460.849030 313.052002,459.579773 
	C312.641022,452.484467 312.466003,445.373871 311.962830,438.286072 
	C311.462189,431.233673 310.669098,424.201996 310.404877,417.089111 
	C317.508667,414.886292 324.211853,412.755646 330.997406,410.979553 
	C332.118774,412.405243 333.030884,413.648712 334.216034,414.521210 
	C348.099121,424.741882 364.033051,429.045563 380.928802,429.934357 
	C402.401031,431.063873 423.501465,428.067413 443.967010,421.751617 
	C463.974823,415.577148 482.714508,406.867493 496.456543,390.060608 
	C508.134003,375.778778 510.924622,359.357605 508.319489,341.618927 
	C506.615021,330.012878 501.804626,319.601501 495.893646,309.599823 
	C482.140503,286.328827 464.773682,266.173187 444.040833,248.652771 
	C448.182617,244.807846 451.358337,240.853058 451.250122,235.021057 
	C462.275360,231.399307 470.316681,224.286072 475.766235,214.861526 
	C478.432770,210.250046 480.356232,203.969498 479.618530,198.878754 
	C477.913971,187.115738 472.195160,176.691071 463.626862,168.275391 
	C458.448059,163.188812 452.327057,164.266647 447.940826,170.083542 
	C446.252686,172.322311 444.198486,174.305740 442.177216,176.267593 
	C439.474457,178.890869 436.810669,178.577957 433.766571,176.413300 
	C431.683258,174.931854 428.075409,172.791656 426.802643,173.588181 
	C424.533844,175.008011 422.830750,178.252838 422.118469,181.047333 
	C420.632202,186.878433 419.945862,192.913437 418.505493,198.924774 
	C416.928864,198.988983 415.774170,198.936111 414.626953,199.006439 
	C406.768127,199.488098 400.900146,204.981750 400.783203,211.762405 
	C398.942474,212.295654 397.460907,212.667343 395.986267,212.579651 
	C396.360291,205.851852 396.528107,199.563950 397.137451,193.319153 
	C398.287598,181.531265 399.728699,169.772064 400.970673,157.992691 
	C401.409760,153.828339 401.620514,149.639938 401.990936,144.727829 
	C387.861237,151.366165 374.498505,157.644150 360.966248,163.587631 
	C359.564789,160.182510 358.332886,157.111923 357.412659,153.908264 
	C359.822906,150.566513 362.773193,147.620773 363.860168,144.099792 
	C367.109467,133.574478 363.844604,123.561989 359.483795,114.103500 
	C352.874115,99.767288 342.480927,88.385963 329.969238,78.458801 
	C328.935913,74.300430 327.947845,70.520874 326.776978,66.042183 
	C339.503479,72.671219 351.324219,78.828476 363.068298,85.385574 
	C363.327667,87.178963 363.673706,88.570183 363.998108,89.966431 
	C365.221344,95.231903 369.765228,98.914703 375.155334,99.000740 
	C380.904419,99.092491 386.550171,95.639069 387.943970,91.178123 
	C389.883820,84.969498 387.399841,79.056633 382.453857,75.787292 
	C377.403564,72.449013 372.893066,74.303360 367.997864,75.685226 
	C359.804169,59.096241 347.954773,46.000504 334.075592,34.551594 
	C317.419067,20.811640 299.281769,9.956283 278.046906,4.804214 
	C275.537964,4.195487 273.341370,2.299344 271.000000,0.999998 
z"/>
<path fill="#AF0F0F" opacity="1.000000" stroke="none" 
	d="
M270.531342,0.999998 
	C273.341370,2.299344 275.537964,4.195487 278.046906,4.804214 
	C299.281769,9.956283 317.419067,20.811640 334.075592,34.551594 
	C347.954773,46.000504 359.804169,59.096241 367.908356,76.033813 
	C366.371918,79.460823 364.758453,82.223274 363.144989,84.985725 
	C351.324219,78.828476 339.503479,72.671219 326.776978,66.042183 
	C327.947845,70.520874 328.935913,74.300430 329.624390,78.492676 
	C294.558258,53.503090 255.853683,46.700359 214.207565,55.188965 
	C203.372894,57.397366 192.888931,61.326435 182.243896,64.465195 
	C185.634232,58.004898 188.397369,51.102837 192.562988,45.188602 
	C198.699860,36.475609 205.040375,27.610935 212.781876,20.410349 
	C219.826157,13.858274 228.846939,9.427655 237.016357,4.092326 
	C238.344116,3.225168 239.774994,2.515936 241.079102,1.366855 
	C250.687561,1.000000 260.375122,1.000000 270.531342,0.999998 
z"/>
<path fill="#71564B" opacity="1.000000" stroke="none" 
	d="
M313.846130,464.238373 
	C313.898804,468.378021 313.921997,472.518311 314.012634,476.657135 
	C314.098236,480.567078 315.092621,483.148468 319.801880,484.269043 
	C330.335144,486.775482 335.038696,493.457336 335.035492,503.747833 
	C335.034058,508.378601 333.871979,511.579681 328.372162,511.154572 
	C327.904602,511.118408 327.378784,511.836334 326.940002,512.601929 
	C310.979095,513.000000 294.958221,513.000000 278.468658,513.000000 
	C277.223267,504.958374 276.963440,497.063171 278.632874,488.939423 
	C279.430298,485.059052 276.681793,480.464691 275.601990,476.177979 
	C275.003510,473.802185 274.534058,471.393890 274.418396,468.542847 
	C287.835663,466.803101 300.840881,465.520721 313.846130,464.238373 
z"/>
<path fill="#AF0E0E" opacity="1.000000" stroke="none" 
	d="
M114.164886,355.000732 
	C110.785065,332.037415 113.824890,309.724426 121.208862,287.196655 
	C126.514648,275.950470 131.533447,265.311676 136.675476,254.732788 
	C138.332199,251.324356 140.313416,248.073654 142.443970,244.914612 
	C149.003952,251.520035 155.108261,258.124847 161.561676,264.368835 
	C174.466064,276.854370 187.534042,289.171814 200.644318,301.441284 
	C201.465393,302.209686 203.268600,302.279144 204.558914,302.143066 
	C223.585587,300.136139 242.576904,297.752960 261.628510,296.034119 
	C287.007538,293.744415 311.865784,289.924683 333.971680,276.178772 
	C338.704987,286.035919 343.363953,295.532684 348.112671,305.269409 
	C348.479401,305.681183 348.756439,305.853027 349.014099,306.021729 
	C348.994751,306.018555 348.973572,305.985840 348.932343,306.395691 
	C352.274048,321.010803 355.190735,335.295471 352.952545,349.985504 
	C352.166931,355.141968 350.506042,360.165070 349.220642,365.216736 
	C349.196472,365.184418 349.273468,365.160217 348.982727,365.221375 
	C348.563782,365.637390 348.435516,365.992249 348.285339,366.301086 
	C348.263428,366.255035 348.362366,366.230255 348.050262,366.317261 
	C347.411163,366.951874 347.084137,367.499542 346.581604,368.315369 
	C341.939423,372.029510 337.731171,375.892029 332.962372,378.851166 
	C309.225647,393.580017 282.641907,398.736053 255.348801,400.920593 
	C233.891266,402.637970 212.464981,401.598389 191.233002,397.954315 
	C171.576889,394.580627 152.377182,389.664642 135.102463,379.149963 
	C126.412498,373.860596 118.960678,367.437408 115.985397,357.122711 
	C115.750420,356.308136 114.788803,355.703156 114.164886,355.000732 
z"/>
<path fill="#E0E0E0" opacity="1.000000" stroke="none" 
	d="
M333.897369,275.818359 
	C311.865784,289.924683 287.007538,293.744415 261.628510,296.034119 
	C242.576904,297.752960 223.585587,300.136139 204.558914,302.143066 
	C203.268600,302.279144 201.465393,302.209686 200.644318,301.441284 
	C187.534042,289.171814 174.466064,276.854370 161.561676,264.368835 
	C155.108261,258.124847 149.003952,251.520035 142.338928,244.597336 
	C139.953278,241.698807 137.970459,239.281372 135.987625,236.863953 
	C132.323242,227.898987 127.479149,219.209015 125.308296,209.895905 
	C122.873581,199.450806 124.340759,188.568268 126.464752,177.892899 
	C130.158173,159.329376 138.298828,142.734482 148.001602,126.759178 
	C149.079865,124.983871 150.484695,123.406914 152.184143,121.448090 
	C156.552109,120.454636 160.528915,119.963112 164.375336,118.967728 
	C166.671936,118.373405 168.764099,116.989029 170.902496,116.323517 
	C166.232010,131.123306 161.607193,145.559402 156.672089,159.848160 
	C154.645279,158.689941 152.958099,157.624191 151.203247,156.684875 
	C149.700226,155.880310 147.314255,154.226944 146.735153,154.696335 
	C145.382050,155.793137 144.438461,157.859268 144.106720,159.674942 
	C142.268860,169.733688 147.807922,176.303528 155.491577,181.122986 
	C171.814026,191.360992 189.915268,197.281006 208.861282,199.659973 
	C221.606354,201.260330 235.006042,201.663452 242.007202,187.393066 
	C243.291611,192.344864 243.726837,197.367325 246.067184,201.237839 
	C249.339844,206.650208 255.193558,209.325729 261.348145,210.858719 
	C277.571442,214.899567 293.937439,214.912003 310.354797,212.383057 
	C320.407288,210.834564 330.440613,209.080627 339.004456,202.979004 
	C343.654236,199.666061 346.074738,195.158218 346.009583,189.370193 
	C345.939026,183.099518 344.750153,182.342117 338.975220,184.550064 
	C339.381531,174.397537 339.758118,164.668991 340.526978,155.035324 
	C346.313171,154.767242 351.707092,154.404282 357.101013,154.041321 
	C358.332886,157.111923 359.564789,160.182510 360.904480,163.990387 
	C361.195007,165.694916 361.322510,166.676483 361.568665,167.627319 
	C365.859772,184.201660 367.066528,200.989929 364.075317,217.861542 
	C362.467560,226.930130 359.844299,235.818680 357.720490,244.811417 
	C357.761719,244.834366 357.747070,244.741135 357.500061,244.840973 
	C357.202759,245.282150 357.152435,245.623489 356.922821,246.271576 
	C351.314362,258.033142 344.373932,268.307220 333.897369,275.818359 
M216.009888,228.311462 
	C222.887161,237.823669 232.389191,240.849350 243.567688,239.001282 
	C250.736130,237.816162 255.979279,233.946411 258.536285,225.994949 
	C253.218292,225.389923 248.934921,222.311234 243.647690,226.175903 
	C239.278717,229.369415 230.144974,227.458328 227.341232,222.921448 
	C223.930817,217.402832 218.830185,218.732574 212.781723,216.968140 
	C213.986588,221.477310 214.813705,224.572723 216.009888,228.311462 
z"/>
<path fill="#EFEEEE" opacity="1.000000" stroke="none" 
	d="
M357.412659,153.908264 
	C351.707092,154.404282 346.313171,154.767242 340.415161,154.693481 
	C338.571625,150.196167 336.420074,146.211044 336.034393,142.061783 
	C334.428741,124.786652 325.696045,112.224083 310.744049,104.397667 
	C301.824371,99.728752 292.210693,96.022942 282.514771,93.275139 
	C262.274963,87.539200 241.449814,87.400406 220.646500,89.245651 
	C207.335861,90.426285 194.808945,94.040665 184.533661,103.306999 
	C180.459320,106.981247 176.194305,110.444038 171.806763,114.198517 
	C171.387268,114.917313 171.177109,115.440697 170.971786,115.970711 
	C170.976624,115.977348 170.948166,115.959816 170.948166,115.959808 
	C168.764099,116.989029 166.671936,118.373405 164.375336,118.967728 
	C160.528915,119.963112 156.552109,120.454636 152.252289,121.105972 
	C138.676575,115.021172 136.837128,104.545776 144.865189,91.605247 
	C151.343811,81.162247 161.249313,74.901314 171.580109,69.120522 
	C174.365753,67.561760 177.346802,66.352188 180.887085,64.995468 
	C181.764420,64.769547 181.992798,64.530487 182.221176,64.291428 
	C182.221176,64.291428 182.176544,64.386574 182.210220,64.425888 
	C192.888931,61.326435 203.372894,57.397366 214.207565,55.188965 
	C255.853683,46.700359 294.558258,53.503090 329.669617,78.871490 
	C342.480927,88.385963 352.874115,99.767288 359.483795,114.103500 
	C363.844604,123.561989 367.109467,133.574478 363.860168,144.099792 
	C362.773193,147.620773 359.822906,150.566513 357.412659,153.908264 
z"/>
<path fill="#E0DFDF" opacity="1.000000" stroke="none" 
	d="
M113.992508,355.339142 
	C114.788803,355.703156 115.750420,356.308136 115.985397,357.122711 
	C118.960678,367.437408 126.412498,373.860596 135.102463,379.149963 
	C152.377182,389.664642 171.576889,394.580627 191.233002,397.954315 
	C212.464981,401.598389 233.891266,402.637970 255.348801,400.920593 
	C282.641907,398.736053 309.225647,393.580017 332.962372,378.851166 
	C337.731171,375.892029 341.939423,372.029510 346.894592,368.205688 
	C347.709473,367.295319 348.035919,366.762787 348.362366,366.230255 
	C348.362366,366.230255 348.263428,366.255035 348.572449,366.224731 
	C349.012146,365.849701 349.142792,365.504974 349.273468,365.160217 
	C349.273468,365.160217 349.196472,365.184418 349.562805,365.163269 
	C351.062988,365.065125 352.742249,364.466003 353.246185,364.992249 
	C358.141388,370.104370 361.951965,375.864227 363.033691,383.087646 
	C364.000916,389.546661 361.126892,394.203613 355.829956,397.235016 
	C347.649780,401.916443 339.231995,406.182648 330.915009,410.625000 
	C324.211853,412.755646 317.508667,414.886292 310.010590,417.023254 
	C290.476898,420.075653 271.738159,423.121704 252.999405,426.167725 
	C251.258698,426.445770 249.519196,426.955841 247.777084,426.964844 
	C234.671753,427.032745 221.565033,427.087769 208.460693,426.955383 
	C203.891037,426.909210 199.326813,426.324402 194.065674,425.611176 
	C170.784470,422.081665 148.765549,417.043427 128.594543,405.813263 
	C127.796318,405.368835 126.744965,405.379089 125.811554,405.177490 
	C120.756165,401.169952 115.726097,397.129974 110.639420,393.162598 
	C103.082947,387.268860 102.439049,379.058258 103.298859,370.539154 
	C103.594078,367.614044 105.053955,364.803284 106.006203,361.948425 
	C107.260979,358.186615 109.986107,356.236053 113.992508,355.339142 
z"/>
<path fill="#960000" opacity="1.000000" stroke="none" 
	d="
M135.578079,236.910126 
	C137.970459,239.281372 139.953278,241.698807 142.041138,244.433517 
	C140.313416,248.073654 138.332199,251.324356 136.675476,254.732788 
	C131.533447,265.311676 126.514648,275.950470 121.185524,286.805237 
	C101.718666,280.397980 82.514313,273.751465 63.067646,266.638153 
	C65.060074,262.727386 67.636414,259.454559 69.463875,255.806580 
	C74.447739,245.857697 79.115440,235.750427 83.908394,225.705902 
	C96.842384,228.594406 109.773079,231.497787 122.712273,234.362762 
	C126.852783,235.279556 131.015808,236.094681 135.578079,236.910126 
z"/>
<path fill="#71564B" opacity="1.000000" stroke="none" 
	d="
M37.922333,255.010620 
	C23.468037,250.950821 8.163579,242.153641 5.548875,226.822678 
	C4.822519,222.563782 4.854422,217.728119 6.146500,213.668915 
	C8.568485,206.060059 11.532194,198.468063 15.446376,191.532639 
	C19.523018,184.309326 26.400986,184.162567 32.420414,189.838776 
	C34.665276,191.955627 37.166412,194.196655 39.972179,195.187241 
	C41.929768,195.878387 44.749435,194.893814 46.918629,194.007904 
	C49.166180,193.089996 51.654675,189.854095 53.040058,190.360672 
	C55.631264,191.308136 57.763866,194.028122 59.568310,196.404709 
	C60.569572,197.723465 60.507557,199.842270 60.949818,201.594162 
	C61.949097,205.552536 62.963928,209.506958 63.899391,214.165329 
	C60.768005,217.598053 57.429295,220.076233 54.703739,223.106018 
	C46.438179,232.294128 40.163288,242.613739 37.922333,255.010620 
z"/>
<path fill="#AF0F0F" opacity="1.000000" stroke="none" 
	d="
M125.849548,405.545288 
	C126.744965,405.379089 127.796318,405.368835 128.594543,405.813263 
	C148.765549,417.043427 170.784470,422.081665 193.603241,425.532806 
	C182.555206,433.751160 171.322662,441.742310 159.975113,449.566681 
	C154.303177,453.477600 148.421158,457.083832 142.028046,460.817993 
	C139.125839,458.925140 136.978546,456.814209 134.506531,455.200714 
	C126.124954,449.730194 117.628479,444.435699 109.175919,439.073944 
	C114.193916,429.529938 119.235100,419.997986 124.204559,410.428772 
	C124.939369,409.013794 125.334999,407.422699 125.849548,405.545288 
z"/>
<path fill="#71564B" opacity="1.000000" stroke="none" 
	d="
M108.995193,439.371094 
	C117.628479,444.435699 126.124954,449.730194 134.506531,455.200714 
	C136.978546,456.814209 139.125839,458.925140 141.717194,460.979248 
	C139.004425,464.604828 135.759338,467.885315 133.059647,471.565857 
	C130.687073,474.800507 128.852203,478.442993 126.910278,481.976990 
	C123.790825,487.653931 120.778923,493.389954 117.453636,499.601532 
	C106.114738,493.022095 95.851990,487.141083 85.669617,481.124084 
	C81.288803,478.535370 77.103119,475.618652 72.774323,472.938904 
	C70.069138,471.264252 69.559433,469.037964 70.402611,466.109528 
	C73.008347,457.059570 83.385925,451.067963 92.734184,453.339630 
	C94.798027,453.841156 96.835999,454.449158 99.114006,455.070312 
	C102.381432,449.882416 105.597954,444.775330 108.995193,439.371094 
z"/>
<path fill="#AF0F0E" opacity="1.000000" stroke="none" 
	d="
M253.005402,426.543854 
	C271.738159,423.121704 290.476898,420.075653 309.609955,417.095428 
	C310.669098,424.201996 311.462189,431.233673 311.962830,438.286072 
	C312.466003,445.373871 312.641022,452.484467 313.052002,459.579773 
	C313.125488,460.849030 313.647247,462.092346 313.904083,463.792999 
	C300.840881,465.520721 287.835663,466.803101 274.421204,468.137634 
	C265.324768,458.673950 260.335571,447.130768 255.969254,435.249451 
	C254.952988,432.484100 253.995789,429.697021 253.005402,426.543854 
z"/>
<path fill="#E0DFDF" opacity="1.000000" stroke="none" 
	d="
M37.960300,255.391449 
	C40.163288,242.613739 46.438179,232.294128 54.703739,223.106018 
	C57.429295,220.076233 60.768005,217.598053 63.952679,214.557892 
	C68.799362,214.868454 73.643387,215.027344 78.202591,216.249069 
	C82.145020,217.305542 85.007805,220.059525 83.929016,225.310394 
	C79.115440,235.750427 74.447739,245.857697 69.463875,255.806580 
	C67.636414,259.454559 65.060074,262.727386 62.708862,266.505432 
	C54.717476,272.003326 42.098255,267.763214 39.017338,258.913025 
	C38.655560,257.873810 38.336914,256.819550 37.960300,255.391449 
z"/>
<path fill="#AF0F0F" opacity="1.000000" stroke="none" 
	d="
M181.964554,64.204491 
	C181.992798,64.530487 181.764420,64.769547 181.258362,64.931664 
	C181.223114,64.609001 181.465515,64.363281 181.964554,64.204491 
z"/>
<path fill="#71564B" opacity="1.000000" stroke="none" 
	d="
M330.997406,410.979553 
	C339.231995,406.182648 347.649780,401.916443 355.829956,397.235016 
	C361.126892,394.203613 364.000916,389.546661 363.033691,383.087646 
	C361.951965,375.864227 358.141388,370.104370 353.246185,364.992249 
	C352.742249,364.466003 351.062988,365.065125 349.586975,365.195587 
	C350.506042,360.165070 352.166931,355.141968 352.952545,349.985504 
	C355.190735,335.295471 352.274048,321.010803 349.276428,306.403961 
	C351.643341,305.566559 353.900574,305.595184 355.557373,304.612000 
	C361.705353,300.963654 367.792633,297.178558 373.655151,293.089844 
	C393.144684,279.497131 412.526764,265.750366 432.362274,252.021225 
	C436.496094,250.979996 440.217712,249.980179 443.939301,248.980347 
	C464.773682,266.173187 482.140503,286.328827 495.893646,309.599823 
	C501.804626,319.601501 506.615021,330.012878 508.319489,341.618927 
	C510.924622,359.357605 508.134003,375.778778 496.456543,390.060608 
	C482.714508,406.867493 463.974823,415.577148 443.967010,421.751617 
	C423.501465,428.067413 402.401031,431.063873 380.928802,429.934357 
	C364.033051,429.045563 348.099121,424.741882 334.216034,414.521210 
	C333.030884,413.648712 332.118774,412.405243 330.997406,410.979553 
z"/>
<path fill="#960101" opacity="1.000000" stroke="none" 
	d="
M431.950043,252.062637 
	C412.526764,265.750366 393.144684,279.497131 373.655151,293.089844 
	C367.792633,297.178558 361.705353,300.963654 355.557373,304.612000 
	C353.900574,305.595184 351.643341,305.566559 349.317657,305.994080 
	C348.973572,305.985840 348.994751,306.018555 348.934967,305.779724 
	C348.591095,305.370422 348.307007,305.199951 348.022919,305.029480 
	C343.363953,295.532684 338.704987,286.035919 333.971680,276.178772 
	C344.373932,268.307220 351.314362,258.033142 357.128235,246.128143 
	C357.590942,245.365677 357.669006,245.053406 357.747070,244.741135 
	C357.747070,244.741135 357.761719,244.834366 358.073486,244.785065 
	C370.639099,234.817886 382.893005,224.900040 395.422729,214.815399 
	C395.810608,214.088547 395.922699,213.528488 396.014526,212.981079 
	C395.994263,212.993713 395.979370,213.039047 395.979370,213.039032 
	C397.460907,212.667343 398.942474,212.295654 401.084412,211.963867 
	C408.046326,221.951599 414.026978,232.125458 420.801422,241.739990 
	C423.654449,245.789078 428.183105,248.657501 431.950043,252.062637 
z"/>
<path fill="#71564B" opacity="1.000000" stroke="none" 
	d="
M418.930908,198.864670 
	C419.945862,192.913437 420.632202,186.878433 422.118469,181.047333 
	C422.830750,178.252838 424.533844,175.008011 426.802643,173.588181 
	C428.075409,172.791656 431.683258,174.931854 433.766571,176.413300 
	C436.810669,178.577957 439.474457,178.890869 442.177216,176.267593 
	C444.198486,174.305740 446.252686,172.322311 447.940826,170.083542 
	C452.327057,164.266647 458.448059,163.188812 463.626862,168.275391 
	C472.195160,176.691071 477.913971,187.115738 479.618530,198.878754 
	C480.356232,203.969498 478.432770,210.250046 475.766235,214.861526 
	C470.316681,224.286072 462.275360,231.399307 450.950562,234.818481 
	C444.763794,218.381882 434.043579,206.699493 418.930908,198.864670 
z"/>
<path fill="#71564B" opacity="1.000000" stroke="none" 
	d="
M395.146912,214.982178 
	C382.893005,224.900040 370.639099,234.817886 358.032227,244.762115 
	C359.844299,235.818680 362.467560,226.930130 364.075317,217.861542 
	C367.066528,200.989929 365.859772,184.201660 361.568665,167.627319 
	C361.322510,166.676483 361.195007,165.694916 361.074036,164.324905 
	C374.498505,157.644150 387.861237,151.366165 401.990936,144.727829 
	C401.620514,149.639938 401.409760,153.828339 400.970673,157.992691 
	C399.728699,169.772064 398.287598,181.531265 397.137451,193.319153 
	C396.528107,199.563950 396.360291,205.851852 395.986267,212.579666 
	C395.979370,213.039047 395.994263,212.993713 395.735504,213.111755 
	C395.366791,213.813934 395.256866,214.398071 395.146912,214.982178 
z"/>
<path fill="#DFDEDE" opacity="1.000000" stroke="none" 
	d="
M418.505493,198.924774 
	C434.043579,206.699493 444.763794,218.381882 450.564331,234.838623 
	C451.358337,240.853058 448.182617,244.807846 444.040833,248.652771 
	C440.217712,249.980179 436.496094,250.979996 432.362274,252.021225 
	C428.183105,248.657501 423.654449,245.789078 420.801422,241.739990 
	C414.026978,232.125458 408.046326,221.951599 401.443604,211.802322 
	C400.900146,204.981750 406.768127,199.488098 414.626953,199.006439 
	C415.774170,198.936111 416.928864,198.988983 418.505493,198.924774 
z"/>
<path fill="#EFEFEF" opacity="1.000000" stroke="none" 
	d="
M363.068298,85.385574 
	C364.758453,82.223274 366.371918,79.460823 368.074890,76.349792 
	C372.893066,74.303360 377.403564,72.449013 382.453857,75.787292 
	C387.399841,79.056633 389.883820,84.969498 387.943970,91.178123 
	C386.550171,95.639069 380.904419,99.092491 375.155334,99.000740 
	C369.765228,98.914703 365.221344,95.231903 363.998108,89.966431 
	C363.673706,88.570183 363.327667,87.178963 363.068298,85.385574 
z"/>
<path fill="#71564B" opacity="1.000000" stroke="none" 
	d="
M348.050262,366.317261 
	C348.035919,366.762787 347.709473,367.295319 347.070068,367.937500 
	C347.084137,367.499542 347.411163,366.951874 348.050262,366.317261 
z"/>
<path fill="#71564B" opacity="1.000000" stroke="none" 
	d="
M348.982727,365.221375 
	C349.142792,365.504974 349.012146,365.849701 348.594360,366.270782 
	C348.435516,365.992249 348.563782,365.637390 348.982727,365.221375 
z"/>
<path fill="#71564B" opacity="1.000000" stroke="none" 
	d="
M348.112671,305.269409 
	C348.307007,305.199951 348.591095,305.370422 348.954315,305.782898 
	C348.756439,305.853027 348.479401,305.681183 348.112671,305.269409 
z"/>
<path fill="#EFCDB1" opacity="1.000000" stroke="none" 
	d="
M172.016113,114.003113 
	C176.194305,110.444038 180.459320,106.981247 184.533661,103.306999 
	C194.808945,94.040665 207.335861,90.426285 220.646500,89.245651 
	C241.449814,87.400406 262.274963,87.539200 282.514771,93.275139 
	C292.210693,96.022942 301.824371,99.728752 310.744049,104.397667 
	C325.696045,112.224083 334.428741,124.786652 336.034393,142.061783 
	C336.420074,146.211044 338.571625,150.196167 340.022888,154.598602 
	C339.758118,164.668991 339.381531,174.397537 338.636963,184.706772 
	C326.993561,189.786041 315.890320,187.867081 304.646698,184.823990 
	C291.076050,181.151077 277.362915,178.004791 263.767822,174.248169 
	C264.524536,167.952133 261.632782,163.972076 256.616455,161.583878 
	C248.379272,157.662308 238.729813,157.980499 232.761658,166.837906 
	C225.431183,165.460739 218.472198,163.357986 211.465988,163.186737 
	C198.557968,162.871216 185.613159,164.110535 172.702362,163.832947 
	C167.437302,163.719742 162.220917,161.342606 156.982376,159.995483 
	C161.607193,145.559402 166.232010,131.123306 170.902496,116.323517 
	C170.948166,115.959816 170.976624,115.977348 171.184708,115.779114 
	C171.600571,115.054962 171.808350,114.529037 172.016113,114.003113 
M326.148407,159.557266 
	C319.264648,148.164154 303.317749,144.277405 292.792419,151.504730 
	C289.634979,153.672821 287.017395,156.308380 287.074097,160.820709 
	C292.042267,161.727356 296.367065,163.805130 301.497192,160.842438 
	C305.644958,158.447098 310.773926,159.845154 313.812103,163.407211 
	C317.679565,167.941528 322.515717,166.899704 328.206329,168.343277 
	C327.474670,164.910919 326.977692,162.579590 326.148407,159.557266 
M212.205978,129.116074 
	C198.115982,122.921471 182.848465,127.984734 182.399170,139.427826 
	C187.131409,139.912933 191.511337,142.033768 196.665161,139.171326 
	C200.816956,136.865417 205.921600,138.121719 209.028641,141.762238 
	C212.892593,146.289627 217.581039,145.536179 222.701218,146.128479 
	C223.046616,137.844223 218.819946,133.148163 212.205978,129.116074 
z"/>
<path fill="#EFEFEF" opacity="1.000000" stroke="none" 
	d="
M263.711426,174.630569 
	C277.362915,178.004791 291.076050,181.151077 304.646698,184.823990 
	C315.890320,187.867081 326.993561,189.786041 338.607208,185.130753 
	C344.750153,182.342117 345.939026,183.099518 346.009583,189.370193 
	C346.074738,195.158218 343.654236,199.666061 339.004456,202.979004 
	C330.440613,209.080627 320.407288,210.834564 310.354797,212.383057 
	C293.937439,214.912003 277.571442,214.899567 261.348145,210.858719 
	C255.193558,209.325729 249.339844,206.650208 246.067184,201.237839 
	C243.726837,197.367325 243.291611,192.344864 242.003937,187.075134 
	C241.998749,185.888504 241.995956,185.463135 242.227661,184.811646 
	C242.978470,183.409897 243.494766,182.234283 244.419815,181.045044 
	C252.261581,182.257065 258.967957,181.339172 263.711426,174.630569 
z"/>
<path fill="#EFEFEF" opacity="1.000000" stroke="none" 
	d="
M241.993149,185.037781 
	C241.995956,185.463135 241.998749,185.888504 242.004822,186.631805 
	C235.006042,201.663452 221.606354,201.260330 208.861282,199.659973 
	C189.915268,197.281006 171.814026,191.360992 155.491577,181.122986 
	C147.807922,176.303528 142.268860,169.733688 144.106720,159.674942 
	C144.438461,157.859268 145.382050,155.793137 146.735153,154.696335 
	C147.314255,154.226944 149.700226,155.880310 151.203247,156.684875 
	C152.958099,157.624191 154.645279,158.689941 156.672089,159.848160 
	C162.220917,161.342606 167.437302,163.719742 172.702362,163.832947 
	C185.613159,164.110535 198.557968,162.871216 211.465988,163.186737 
	C218.472198,163.357986 225.431183,165.460739 232.754700,167.243637 
	C232.593002,174.406082 236.984070,177.512070 241.978333,180.592316 
	C241.987442,182.341873 241.990295,183.689819 241.993149,185.037781 
z"/>
<path fill="#707070" opacity="1.000000" stroke="none" 
	d="
M215.825348,227.989807 
	C214.813705,224.572723 213.986588,221.477310 212.781723,216.968140 
	C218.830185,218.732574 223.930817,217.402832 227.341232,222.921448 
	C230.144974,227.458328 239.278717,229.369415 243.647690,226.175903 
	C248.934921,222.311234 253.218292,225.389923 258.536285,225.994949 
	C255.979279,233.946411 250.736130,237.816162 243.567688,239.001282 
	C232.389191,240.849350 222.887161,237.823669 215.825348,227.989807 
z"/>
<path fill="#71564B" opacity="1.000000" stroke="none" 
	d="
M357.500061,244.840973 
	C357.669006,245.053406 357.590942,245.365677 357.307495,245.821396 
	C357.152435,245.623489 357.202759,245.282150 357.500061,244.840973 
z"/>
<path fill="#E0E0E0" opacity="1.000000" stroke="none" 
	d="
M171.806763,114.198524 
	C171.808350,114.529037 171.600571,115.054962 171.179871,115.772476 
	C171.177109,115.440697 171.387268,114.917313 171.806763,114.198524 
z"/>
<path fill="#000000" opacity="1.000000" stroke="none" 
	d="
M395.422729,214.815399 
	C395.256866,214.398071 395.366791,213.813934 395.755737,213.099121 
	C395.922699,213.528488 395.810608,214.088547 395.422729,214.815399 
z"/>
<path fill="#F98295" opacity="1.000000" stroke="none" 
	d="
M241.972076,180.190704 
	C236.984070,177.512070 232.593002,174.406082 233.104889,167.389297 
	C238.729813,157.980499 248.379272,157.662308 256.616455,161.583878 
	C261.632782,163.972076 264.524536,167.952133 263.767822,174.248169 
	C258.967957,181.339172 252.261581,182.257065 244.186203,180.888214 
	C243.019913,180.560257 242.495987,180.375473 241.972076,180.190704 
z"/>
<path fill="#71706F" opacity="1.000000" stroke="none" 
	d="
M326.314575,159.902756 
	C326.977692,162.579590 327.474670,164.910919 328.206329,168.343277 
	C322.515717,166.899704 317.679565,167.941528 313.812103,163.407211 
	C310.773926,159.845154 305.644958,158.447098 301.497192,160.842438 
	C296.367065,163.805130 292.042267,161.727356 287.074097,160.820709 
	C287.017395,156.308380 289.634979,153.672821 292.792419,151.504730 
	C303.317749,144.277405 319.264648,148.164154 326.314575,159.902756 
z"/>
<path fill="#71706F" opacity="1.000000" stroke="none" 
	d="
M212.532562,129.300644 
	C218.819946,133.148163 223.046616,137.844223 222.701218,146.128479 
	C217.581039,145.536179 212.892593,146.289627 209.028641,141.762238 
	C205.921600,138.121719 200.816956,136.865417 196.665161,139.171326 
	C191.511337,142.033768 187.131409,139.912933 182.399170,139.427826 
	C182.848465,127.984734 198.115982,122.921471 212.532562,129.300644 
z"/>
<path fill="#E0E0E0" opacity="1.000000" stroke="none" 
	d="
M241.978333,180.592316 
	C242.495987,180.375473 243.019913,180.560257 243.777435,180.901855 
	C243.494766,182.234283 242.978470,183.409897 242.227661,184.811646 
	C241.990295,183.689819 241.987442,182.341873 241.978333,180.592316 
z"/>
</svg>
