<svg xmlns="http://www.w3.org/2000/svg" viewBox="0 0.56 482.341 499.44">
  <g transform="matrix(5.178152, 0, 0, 5.178152, -17.63625, -8.642355)" style="">
    <path d="M50,8c1.49,0,2.97,0.7,3.88,2.11l4,6.19c0.87,1.35,2.35,2.11,3.88,2.11c0.56,0,1.12-0.1,1.66-0.31l6.87-2.65 c0.56-0.21,1.12-0.31,1.67-0.31c2.53,0,4.76,2.13,4.61,4.88l-0.4,7.36c-0.12,2.19,1.31,4.16,3.43,4.72l7.12,1.9 c3.24,0.86,4.51,4.78,2.4,7.38l-4.65,5.72c-1.38,1.7-1.38,4.13,0,5.83l4.65,5.72c2.12,2.6,0.84,6.52-2.4,7.38l-7.12,1.9 c-2.12,0.56-3.55,2.53-3.43,4.72l0.4,7.36c0.15,2.75-2.08,4.88-4.61,4.88c-0.55,0-1.11-0.1-1.67-0.32l-6.87-2.65 c-0.54-0.21-1.11-0.31-1.66-0.31c-1.53,0-3.01,0.76-3.88,2.11l-4,6.18C52.97,91.3,51.48,92,50,92c-1.49,0-2.97-0.7-3.88-2.11 l-4-6.19c-0.87-1.35-2.35-2.11-3.88-2.11c-0.56,0-1.12,0.1-1.66,0.31l-6.87,2.65c-0.56,0.22-1.12,0.32-1.67,0.32 c-2.53,0-4.76-2.13-4.61-4.88l0.4-7.36c0.12-2.19-1.31-4.15-3.43-4.72l-7.12-1.9c-3.24-0.86-4.51-4.78-2.4-7.38l4.65-5.72 c1.38-1.7,1.38-4.13,0-5.83l-4.65-5.72c-2.12-2.6-0.84-6.52,2.4-7.38l7.12-1.9c2.12-0.56,3.55-2.53,3.43-4.72l-0.4-7.36 c-0.15-2.75,2.08-4.88,4.61-4.88c0.55,0,1.11,0.1,1.67,0.31l6.87,2.65c0.54,0.21,1.11,0.31,1.66,0.31c1.53,0,3.01-0.76,3.88-2.11 l4-6.19C47.03,8.7,48.51,8,50,8 M50,2c-3.62,0-6.95,1.81-8.92,4.85l-3.39,5.25l-5.83-2.25c-1.23-0.48-2.52-0.72-3.83-0.72 c-2.9,0-5.71,1.21-7.72,3.33c-2.02,2.13-3.05,4.93-2.89,7.87l0.34,6.24l-6.04,1.61c-3.5,0.93-6.25,3.54-7.37,6.98 c-1.12,3.44-0.42,7.17,1.86,9.98L10.15,50l-3.94,4.85c-2.28,2.81-2.98,6.54-1.86,9.98c1.12,3.44,3.87,6.05,7.37,6.98l6.04,1.61 l-0.34,6.24c-0.16,2.94,0.87,5.74,2.89,7.87c2.01,2.12,4.82,3.33,7.71,3.33c1.31,0,2.6-0.24,3.83-0.72l5.83-2.25l3.39,5.25 C43.05,96.19,46.38,98,50,98s6.95-1.81,8.92-4.85l3.39-5.25l5.83,2.25c1.23,0.48,2.52,0.72,3.83,0.72c2.9,0,5.71-1.21,7.71-3.33 c2.02-2.13,3.05-4.93,2.89-7.87l-0.34-6.24l6.04-1.61c3.5-0.93,6.25-3.54,7.37-6.98c1.12-3.44,0.42-7.17-1.86-9.98L89.85,50 l3.94-4.85c2.28-2.81,2.98-6.54,1.86-9.98c-1.12-3.44-3.87-6.05-7.37-6.98l-6.04-1.61l0.34-6.24c0.16-2.94-0.87-5.74-2.89-7.87 c-2.01-2.12-4.82-3.33-7.71-3.33c-1.31,0-2.6,0.24-3.83,0.72l-5.83,2.25l-3.39-5.25C56.95,3.81,53.62,2,50,2L50,2z" style="fill: rgb(0, 198, 230);"/>
    <path d="M59.43,31.71v26.65L42.19,30.04c-1.01-1.66-2.81-2.67-4.75-2.67h0c-3.07,0-5.56,2.49-5.56,5.56v35.35 c0,2.4,1.94,4.34,4.34,4.34h0c2.4,0,4.34-1.94,4.34-4.34V41.64l17.24,28.32c1.01,1.66,2.81,2.67,4.75,2.67h0 c3.07,0,5.56-2.49,5.56-5.56V31.71c0-2.4-1.94-4.34-4.34-4.34h0C61.37,27.38,59.43,29.32,59.43,31.71z" style="fill: rgb(0, 198, 230);"/>
  </g>
</svg>
