<svg version="1.1" id="Layer_1" xmlns="http://www.w3.org/2000/svg" xmlns:xlink="http://www.w3.org/1999/xlink" x="0px" y="0px"
	 width="100%" viewBox="0 0 512 512" enable-background="new 0 0 512 512" xml:space="preserve">
<path fill="#000000" opacity="1.000000" stroke="none" 
	d="
M269.394989,33.255043 
	C282.776672,39.423172 294.700836,47.439999 307.580994,53.740845 
	C342.536255,70.840645 379.144348,82.403610 417.692261,87.805069 
	C424.105042,88.703667 430.595886,89.318169 436.883911,90.780899 
	C453.619019,94.673836 465.315735,109.595139 465.333282,126.709053 
	C465.373535,166.028946 465.991302,205.362442 465.174805,244.665497 
	C464.109772,295.932434 446.780426,341.644989 414.993896,381.854614 
	C394.424927,407.874115 368.844818,427.731598 339.725067,443.374054 
	C318.458008,454.798218 297.491699,466.781677 276.370758,478.478699 
	C263.751648,485.467316 250.923523,485.802826 238.286575,478.794617 
	C211.199081,463.772491 183.620331,449.516327 157.345032,433.174225 
	C100.656815,397.916687 66.231575,346.681366 52.728970,281.388824 
	C49.656937,266.533844 48.508675,251.477158 48.594673,236.270966 
	C48.796303,200.617584 49.175724,164.951981 48.465679,129.311600 
	C48.040318,107.960838 64.534805,91.422523 84.306145,89.366852 
	C130.432571,84.570976 174.115448,71.028297 215.143097,49.246937 
	C221.758850,45.734669 228.383545,42.186169 234.700714,38.176430 
	C245.469055,31.341360 256.783691,29.380213 269.394989,33.255043 
M428.575043,277.139557 
	C431.466766,261.732239 432.772766,246.205704 432.699829,230.515274 
	C432.552673,198.858704 432.661499,167.200958 432.662323,135.543686 
	C432.662659,122.810150 432.487366,122.769798 419.865143,121.356865 
	C390.822510,118.105858 362.656708,111.072403 335.160278,101.276207 
	C309.508087,92.137054 285.085449,80.395248 261.833252,66.240974 
	C258.421112,64.163925 255.537384,64.093971 252.150177,66.281647 
	C247.540573,69.258858 242.698029,71.884773 237.892197,74.547340 
	C191.616287,100.185455 142.124405,115.853683 89.651268,122.202873 
	C82.251381,123.098251 81.355568,123.906403 81.353653,131.570038 
	C81.345200,165.393326 81.382668,199.216660 81.333199,233.039886 
	C81.311974,247.549194 82.330330,261.963348 85.303322,276.172974 
	C96.712135,330.702301 125.456238,373.669220 172.394073,403.721985 
	C198.335815,420.331665 226.109253,433.887787 252.859436,449.169708 
	C256.557953,451.282593 259.393829,450.217590 262.595703,448.428314 
	C282.949280,437.054199 303.287384,425.650238 323.741516,414.458862 
	C340.917145,405.061310 357.142456,394.360260 371.279755,380.734985 
	C400.774475,352.308441 419.766388,318.008789 428.575043,277.139557 
z"/>
<path fill="#000000" opacity="1.000000" stroke="none" 
	d="
M303.855743,251.848724 
	C289.728149,266.945862 275.844116,281.787231 261.957306,296.626038 
	C260.932709,297.720886 259.917358,298.826813 258.848389,299.877380 
	C251.703217,306.899567 242.588287,307.466187 235.080597,300.899628 
	C219.156296,286.971527 203.342972,272.914490 187.615906,258.763916 
	C180.462601,252.327698 179.967316,242.518570 186.045502,235.453156 
	C191.790802,228.774704 201.792801,227.822861 208.953583,233.878922 
	C219.635834,242.913177 229.971069,252.357422 240.472534,261.606110 
	C241.950287,262.907593 243.184021,264.557953 245.701904,265.366089 
	C252.764908,257.936340 260.010162,250.411804 267.147888,242.786591 
	C282.743958,226.125290 298.220367,209.351486 313.879150,192.749588 
	C320.727417,185.488876 330.589325,185.083893 337.622162,191.386841 
	C344.334351,197.402420 345.069275,207.333633 338.502777,214.668945 
	C327.284698,227.200500 315.591980,239.307175 303.855743,251.848724 
z"/>
</svg>
