<svg version="1.1" id="Layer_1" xmlns="http://www.w3.org/2000/svg" xmlns:xlink="http://www.w3.org/1999/xlink" x="0px" y="0px"
	 width="100%" viewBox="0 0 512 512" enable-background="new 0 0 512 512" xml:space="preserve">
<path fill="transparent" opacity="1.000000" stroke="none" 
	d="
M384.000000,1.000000 
	C426.978607,1.000000 469.957245,1.000000 512.967896,1.000000 
	C512.967896,171.560425 512.967896,342.120850 512.967896,513.000000 
	C433.646057,513.000000 354.291687,513.000000 274.137756,512.720947 
	C274.248108,511.783997 275.067657,510.886841 276.081421,510.504150 
	C291.680084,504.615845 307.315308,498.824371 322.918671,492.948334 
	C335.944305,488.042969 348.939392,483.056671 361.971802,478.493591 
	C363.765808,488.169800 369.897339,494.536316 376.985016,499.860809 
	C380.309906,502.358643 384.738342,504.706635 388.717041,504.792664 
	C408.806793,505.227081 428.913177,504.894684 449.476868,504.901184 
	C469.531128,504.971039 489.122192,504.971039 508.826080,504.971039 
	C508.907440,503.820740 508.992279,503.180176 508.992432,502.539612 
	C508.999634,467.561310 509.194427,432.580688 508.782166,397.607239 
	C508.723022,392.591980 506.440063,387.218506 503.941345,382.699097 
	C499.209503,374.140594 490.607849,369.459045 482.887573,363.995819 
	C469.920349,354.819672 457.105408,345.416229 443.918579,336.567139 
	C436.075012,331.303741 427.642975,326.917267 419.293365,321.845520 
	C418.348846,319.700134 417.586487,317.845764 416.883667,315.612579 
	C412.717957,304.031006 408.450012,292.844086 404.279236,281.621063 
	C400.044098,270.224792 395.941925,258.779022 391.694000,247.387619 
	C390.783203,244.945190 389.681946,242.998383 386.231567,244.819046 
	C382.968475,246.540878 379.260162,247.421875 375.742279,248.657394 
	C366.916107,251.757217 358.086884,254.848389 349.282410,257.613708 
	C362.185608,243.727112 364.209595,227.859940 358.671661,209.866608 
	C380.100098,209.866608 400.950348,209.866608 422.001007,209.866608 
	C422.001007,183.605179 422.025574,157.985291 421.993866,132.365463 
	C421.964020,108.237877 421.874847,84.110367 421.882477,59.521355 
	C421.377075,52.242867 421.709747,45.195347 420.050385,38.653088 
	C415.507111,20.740826 403.551666,9.332393 386.367065,3.096498 
	C385.445770,2.762178 384.783081,1.715214 384.000000,1.000000 
z"/>
<path fill="#88B337" opacity="1.000000" stroke="none" 
	d="
M43.000000,1.000000 
	C99.354225,1.000000 155.708450,1.000000 212.627487,1.460811 
	C213.189697,18.849142 213.187103,35.776661 212.995865,53.017002 
	C206.400253,58.859230 200.175064,64.617470 193.553635,69.876862 
	C169.880417,88.680481 144.187927,104.341301 117.284050,118.034126 
	C90.678093,131.575333 63.148190,142.966293 34.845455,152.428131 
	C25.084797,155.691208 15.057913,158.157928 5.091549,160.524048 
	C5.020385,123.146484 5.009125,86.233322 5.005752,49.320160 
	C5.005645,48.160149 4.939631,46.972404 5.152044,45.844227 
	C9.126946,24.732403 20.742788,10.069397 41.345161,2.957819 
	C42.039330,2.718204 42.454685,1.670849 43.000000,1.000000 
z"/>
<path fill="#E8594A" opacity="1.000000" stroke="none" 
	d="
M213.184509,52.704182 
	C213.187103,35.776661 213.189697,18.849142 213.096146,1.460811 
	C269.687561,1.000000 326.375122,1.000000 383.531342,1.000000 
	C384.783081,1.715214 385.445770,2.762178 386.367065,3.096498 
	C403.551666,9.332393 415.507111,20.740826 420.050385,38.653088 
	C421.709747,45.195347 421.377075,52.242867 421.563538,59.609787 
	C420.342804,60.936596 419.432922,61.645344 418.692841,62.500999 
	C411.852051,70.410255 405.796204,79.192497 398.058472,86.090256 
	C383.335083,99.215401 368.166626,111.968506 352.242889,123.587692 
	C332.462067,138.021271 310.894104,149.825104 288.266144,159.138260 
	C263.848724,169.187927 238.829041,177.774353 214.020721,186.532623 
	C213.969376,172.692673 213.969376,159.319153 213.969376,145.600723 
	C235.985703,152.226974 254.208939,147.854797 267.027557,129.171951 
	C277.633392,113.714180 277.638367,96.902588 267.270233,81.377808 
	C254.501724,62.258808 235.956009,58.272671 214.399292,64.494736 
	C213.985596,60.479416 213.585052,56.591801 213.184509,52.704182 
z"/>
<path fill="transparent" opacity="1.000000" stroke="none" 
	d="
M42.531342,1.000000 
	C42.454685,1.670849 42.039330,2.718204 41.345161,2.957819 
	C20.742788,10.069397 9.126946,24.732403 5.152044,45.844227 
	C4.939631,46.972404 5.005645,48.160149 5.005752,49.320160 
	C5.009125,86.233322 5.020385,123.146484 5.025858,160.989410 
	C5.073896,177.679581 5.126530,193.439987 5.110801,209.648117 
	C5.028176,232.418884 4.986482,254.741959 5.006780,277.064972 
	C5.030711,303.382843 5.108309,329.700653 5.089884,356.479431 
	C5.340843,363.181091 5.033207,369.531952 6.099143,375.643219 
	C10.382166,400.198730 31.107826,417.607239 55.696949,417.890167 
	C95.775314,418.351318 135.862152,418.076874 175.945343,418.532196 
	C174.214386,428.166840 174.033264,437.255127 178.099014,446.356079 
	C182.952774,459.336029 192.136612,467.654999 204.914352,471.294769 
	C220.531372,475.743286 235.208267,473.347839 248.123199,461.733826 
	C254.591339,479.300201 260.795685,496.150085 267.000000,513.000000 
	C178.380661,513.000000 89.761307,513.000000 1.070982,513.000000 
	C1.070982,342.333344 1.070982,171.666672 1.077748,1.000005 
	C14.743904,1.000000 28.403294,1.000000 42.531342,1.000000 
z"/>
<path fill="#3E8FC9" opacity="1.000000" stroke="none" 
	d="
M267.437500,513.000000 
	C260.795685,496.150085 254.591339,479.300201 248.123199,461.733826 
	C235.208267,473.347839 220.531372,475.743286 204.914352,471.294769 
	C192.136612,467.654999 182.952774,459.336029 178.527832,446.358673 
	C188.173859,444.380798 197.403351,443.100189 206.472977,441.096100 
	C259.799377,429.312653 310.149658,410.390656 354.749146,378.097504 
	C372.589020,365.180206 388.829956,350.476562 402.593658,333.160980 
	C407.218109,327.343170 412.074005,321.709320 416.824097,315.991394 
	C417.586487,317.845764 418.348846,319.700134 419.365448,322.233521 
	C420.255463,324.799591 420.841858,326.704956 421.534576,328.570831 
	C429.451019,349.895203 437.538971,371.157562 445.252899,392.554810 
	C449.756226,405.046295 448.967773,417.487976 443.472137,430.131439 
	C441.860657,428.630981 440.629089,427.551178 439.472168,426.396637 
	C428.157318,415.104919 416.918396,403.736298 405.529572,392.519836 
	C395.815765,382.953033 382.712067,382.721924 373.956451,391.756531 
	C365.417175,400.567902 365.952484,413.573486 375.289062,422.966034 
	C383.154205,430.878235 390.805542,439.030731 399.054382,446.523224 
	C403.877716,450.904205 405.800110,455.703522 404.500732,461.950043 
	C390.069061,467.353760 376.008545,472.730011 361.948029,478.106262 
	C348.939392,483.056671 335.944305,488.042969 322.918671,492.948334 
	C307.315308,498.824371 291.680084,504.615845 276.081421,510.504150 
	C275.067657,510.886841 274.248108,511.783997 273.669098,512.720947 
	C271.958344,513.000000 269.916656,513.000000 267.437500,513.000000 
z"/>
<path fill="#4398D1" opacity="1.000000" stroke="none" 
	d="
M416.883667,315.612549 
	C412.074005,321.709320 407.218109,327.343170 402.593658,333.160980 
	C388.829956,350.476562 372.589020,365.180206 354.749146,378.097504 
	C310.149658,410.390656 259.799377,429.312653 206.472977,441.096100 
	C197.403351,443.100189 188.173859,444.380798 178.589386,445.993042 
	C174.033264,437.255127 174.214386,428.166840 176.233231,418.303650 
	C177.509720,415.210724 178.346832,412.690887 179.511551,410.332886 
	C186.603165,395.975800 198.557312,388.420563 214.434464,385.923309 
	C216.397720,385.978302 217.962616,385.978302 219.855576,385.978302 
	C217.838318,381.025787 216.001755,376.516876 214.094330,371.615662 
	C212.977127,368.122833 211.930786,365.022308 210.794525,361.574585 
	C205.272430,347.132904 199.807510,333.050629 194.507675,318.906494 
	C194.250824,318.221008 195.219406,316.404816 195.997787,316.105957 
	C204.607269,312.800171 213.305527,309.726807 221.953079,306.518677 
	C232.863556,302.471039 243.749283,298.356720 254.733002,294.238434 
	C256.773102,319.515900 268.971924,335.221466 292.356689,339.556915 
	C307.036591,342.278534 325.220673,336.238312 335.956451,317.321198 
	C344.178375,302.833618 343.577057,284.741516 330.583008,268.591278 
	C331.405884,267.255737 332.111359,265.844727 333.237549,265.294128 
	C338.514587,262.714081 343.907410,260.370850 349.258881,257.943054 
	C358.086884,254.848389 366.916107,251.757217 375.742279,248.657394 
	C379.260162,247.421875 382.968475,246.540878 386.231567,244.819046 
	C389.681946,242.998383 390.783203,244.945190 391.694000,247.387619 
	C395.941925,258.779022 400.044098,270.224792 404.279236,281.621063 
	C408.450012,292.844086 412.717957,304.031006 416.883667,315.612549 
z"/>
<path fill="#D65245" opacity="1.000000" stroke="none" 
	d="
M349.282410,257.613708 
	C343.907410,260.370850 338.514587,262.714081 333.237549,265.294128 
	C332.111359,265.844727 331.405884,267.255737 330.183838,268.628448 
	C312.637329,273.101105 297.067474,269.550812 285.221008,256.416962 
	C273.331299,243.235153 270.658417,227.335205 277.078979,210.015106 
	C255.721359,210.015106 234.921692,210.015106 214.015823,209.800613 
	C213.909607,209.586121 213.727097,209.143570 213.764343,208.667557 
	C213.891769,201.127396 213.981934,194.063232 214.072083,186.999084 
	C238.829041,177.774353 263.848724,169.187927 288.266144,159.138260 
	C310.894104,149.825104 332.462067,138.021271 352.242889,123.587692 
	C368.166626,111.968506 383.335083,99.215401 398.058472,86.090256 
	C405.796204,79.192497 411.852051,70.410255 418.692841,62.500999 
	C419.432922,61.645344 420.342804,60.936596 421.492828,60.071259 
	C421.874847,84.110367 421.964020,108.237877 421.993866,132.365463 
	C422.025574,157.985291 422.001007,183.605179 422.001007,209.866608 
	C400.950348,209.866608 380.100098,209.866608 358.671661,209.866608 
	C364.209595,227.859940 362.185608,243.727112 349.282410,257.613708 
z"/>
<path fill="#FDC9A3" opacity="1.000000" stroke="none" 
	d="
M404.871857,461.922607 
	C405.800110,455.703522 403.877716,450.904205 399.054382,446.523224 
	C390.805542,439.030731 383.154205,430.878235 375.289062,422.966034 
	C365.952484,413.573486 365.417175,400.567902 373.956451,391.756531 
	C382.712067,382.721924 395.815765,382.953033 405.529572,392.519836 
	C416.918396,403.736298 428.157318,415.104919 439.472168,426.396637 
	C440.629089,427.551178 441.860657,428.630981 443.472137,430.131439 
	C448.967773,417.487976 449.756226,405.046295 445.252899,392.554810 
	C437.538971,371.157562 429.451019,349.895203 421.534576,328.570831 
	C420.841858,326.704956 420.255463,324.799591 419.547607,322.524536 
	C427.642975,326.917267 436.075012,331.303741 443.918579,336.567139 
	C457.105408,345.416229 469.920349,354.819672 482.887573,363.995819 
	C490.607849,369.459045 499.209503,374.140594 503.941345,382.699097 
	C506.440063,387.218506 508.723022,392.591980 508.782166,397.607239 
	C509.194427,432.580688 508.999634,467.561310 508.992432,502.539612 
	C508.992279,503.180176 508.907440,503.820740 508.826080,504.971039 
	C489.122192,504.971039 469.531128,504.971039 449.311584,504.584351 
	C447.815002,503.803741 446.983856,503.237610 446.073181,503.041962 
	C433.820618,500.409821 423.073975,494.892212 416.079285,484.362518 
	C411.487976,477.450836 408.550171,469.440765 404.871857,461.922607 
z"/>
<path fill="#FABD92" opacity="1.000000" stroke="none" 
	d="
M404.500732,461.950043 
	C408.550171,469.440765 411.487976,477.450836 416.079285,484.362518 
	C423.073975,494.892212 433.820618,500.409821 446.073181,503.041962 
	C446.983856,503.237610 447.815002,503.803741 448.848389,504.514465 
	C428.913177,504.894684 408.806793,505.227081 388.717041,504.792664 
	C384.738342,504.706635 380.309906,502.358643 376.985016,499.860809 
	C369.897339,494.536316 363.765808,488.169800 361.971802,478.493591 
	C376.008545,472.730011 390.069061,467.353760 404.500732,461.950043 
z"/>
<path fill="#80A834" opacity="1.000000" stroke="none" 
	d="
M214.020737,186.532623 
	C213.981934,194.063232 213.891769,201.127396 213.319489,208.674896 
	C191.982361,209.158264 171.127365,209.158264 149.403854,209.158264 
	C154.389359,194.680252 153.866837,181.717682 146.443130,169.602112 
	C138.924850,157.332214 127.928047,150.228394 113.483818,148.965118 
	C100.326729,147.814392 88.749252,151.591599 79.324074,161.012665 
	C65.807953,174.522888 63.466660,190.674042 69.338104,209.200394 
	C47.403660,209.200394 26.291410,209.200394 5.179163,209.200394 
	C5.126530,193.439987 5.073896,177.679581 5.086954,161.453796 
	C15.057913,158.157928 25.084797,155.691208 34.845455,152.428131 
	C63.148190,142.966293 90.678093,131.575333 117.284050,118.034126 
	C144.187927,104.341301 169.880417,88.680481 193.553635,69.876862 
	C200.175064,64.617470 206.400253,58.859230 212.995850,53.017002 
	C213.585052,56.591801 213.985596,60.479416 214.399292,64.494736 
	C235.956009,58.272671 254.501724,62.258808 267.270233,81.377808 
	C277.638367,96.902588 277.633392,113.714180 267.027557,129.171951 
	C254.208939,147.854797 235.985703,152.226974 213.969376,145.600723 
	C213.969376,159.319153 213.969376,172.692673 214.020737,186.532623 
z"/>
<path fill="#FDB62F" opacity="1.000000" stroke="none" 
	d="
M5.110801,209.648117 
	C26.291410,209.200394 47.403660,209.200394 69.338104,209.200394 
	C63.466660,190.674042 65.807953,174.522888 79.324074,161.012665 
	C88.749252,151.591599 100.326729,147.814392 113.483818,148.965118 
	C127.928047,150.228394 138.924850,157.332214 146.443130,169.602112 
	C153.866837,181.717682 154.389359,194.680252 149.403854,209.158264 
	C171.127365,209.158264 191.982361,209.158264 213.282227,209.150909 
	C213.727097,209.143570 213.909607,209.586121 213.962646,210.268738 
	C214.015671,234.919083 214.015671,258.886780 214.015671,283.225067 
	C184.829498,270.254120 153.551682,291.691010 152.804367,323.139587 
	C151.568649,323.993011 150.625504,324.714783 149.566772,325.164276 
	C103.422607,344.756256 55.487461,355.984528 5.162639,356.018494 
	C5.108309,329.700653 5.030711,303.382843 5.006780,277.064972 
	C4.986482,254.741959 5.028176,232.418884 5.110801,209.648117 
z"/>
<path fill="#FFA719" opacity="1.000000" stroke="none" 
	d="
M5.089884,356.479431 
	C55.487461,355.984528 103.422607,344.756256 149.566772,325.164276 
	C150.625504,324.714783 151.568649,323.993011 153.164032,323.363403 
	C154.149506,337.412323 159.980637,348.801605 171.473221,356.828461 
	C183.577942,365.282898 196.763275,367.850342 210.884460,361.921753 
	C211.930786,365.022308 212.977127,368.122833 214.023560,372.074402 
	C214.027786,377.239746 214.031937,381.554016 214.036102,385.868317 
	C198.557312,388.420563 186.603165,395.975800 179.511551,410.332886 
	C178.346832,412.690887 177.509720,415.210724 176.233292,417.884277 
	C135.862152,418.076874 95.775314,418.351318 55.696949,417.890167 
	C31.107826,417.607239 10.382166,400.198730 6.099143,375.643219 
	C5.033207,369.531952 5.340843,363.181091 5.089884,356.479431 
z"/>
<path fill="transparent" opacity="1.000000" stroke="none" 
	d="
M210.794525,361.574585 
	C196.763275,367.850342 183.577942,365.282898 171.473221,356.828461 
	C159.980637,348.801605 154.149506,337.412323 153.402710,323.104736 
	C153.551682,291.691010 184.829498,270.254120 214.015671,283.225067 
	C214.015671,258.886780 214.015671,234.919083 214.068848,210.483246 
	C234.921692,210.015106 255.721359,210.015106 277.078979,210.015106 
	C270.658417,227.335205 273.331299,243.235153 285.221008,256.416962 
	C297.067474,269.550812 312.637329,273.101105 330.260254,268.949371 
	C343.577057,284.741516 344.178375,302.833618 335.956451,317.321198 
	C325.220673,336.238312 307.036591,342.278534 292.356689,339.556915 
	C268.971924,335.221466 256.773102,319.515900 254.733002,294.238434 
	C243.749283,298.356720 232.863556,302.471039 221.953079,306.518677 
	C213.305527,309.726807 204.607269,312.800171 195.997787,316.105957 
	C195.219406,316.404816 194.250824,318.221008 194.507675,318.906494 
	C199.807510,333.050629 205.272430,347.132904 210.794525,361.574585 
z"/>
<path fill="transparent" opacity="1.000000" stroke="none" 
	d="
M214.434448,385.923309 
	C214.031937,381.554016 214.027786,377.239746 214.094421,372.466705 
	C216.001755,376.516876 217.838318,381.025787 219.855576,385.978302 
	C217.962616,385.978302 216.397720,385.978302 214.434448,385.923309 
z"/>
</svg>
