<svg version="1.1" id="Layer_1" xmlns="http://www.w3.org/2000/svg" xmlns:xlink="http://www.w3.org/1999/xlink" x="0px" y="0px"
	 width="100%" viewBox="0 0 512 512" enable-background="new 0 0 512 512" xml:space="preserve">
<path fill="transparent" opacity="1.000000" stroke="none" 
	d="
M179.000000,1.000000 
	C290.289124,1.000000 401.578247,1.000000 512.933716,1.000000 
	C512.933716,171.554642 512.933716,342.109314 512.933716,513.000000 
	C432.644348,513.000000 352.288208,513.000000 271.632629,512.649780 
	C283.359406,510.838562 291.538330,502.834991 300.066040,495.416321 
	C308.361084,488.200165 317.705170,482.561768 328.631348,481.152802 
	C341.839630,479.449585 355.218842,479.110901 368.503784,477.949799 
	C377.486145,477.164795 386.580475,476.674622 395.363525,474.817352 
	C410.155396,471.689423 423.623016,465.516174 434.391724,453.906189 
	C448.037720,440.779999 454.341217,424.263550 458.520874,406.343262 
	C471.486633,404.294037 477.586639,394.961121 480.898224,383.304749 
	C482.857056,376.409821 483.936035,369.263306 485.375092,362.222626 
	C489.786621,340.639282 498.618317,320.123077 500.256165,297.826447 
	C501.092560,286.440063 500.605438,275.576843 495.068726,265.419861 
	C489.607452,255.401184 477.236023,252.760666 468.651703,259.972382 
	C463.520599,264.283112 458.948334,269.259003 454.070923,273.495178 
	C455.009705,267.464813 455.417786,261.692444 457.097382,256.317413 
	C463.934814,234.436798 460.081879,211.432663 464.911407,189.269409 
	C451.256592,191.437729 449.455231,190.248825 452.639130,172.737503 
	C468.677521,174.200043 484.777374,175.668182 501.499146,177.193039 
	C477.572296,147.117783 447.157288,128.737000 409.361816,121.055290 
	C430.199219,109.681496 447.282593,95.763954 461.328156,76.779045 
	C447.270782,75.472458 433.990479,73.714157 420.660217,73.161606 
	C409.602814,72.703262 398.423981,73.052628 387.414490,74.176262 
	C377.116516,75.227272 366.870850,77.353806 356.790222,79.786339 
	C349.258545,81.603767 342.343964,82.147041 335.441162,77.856331 
	C321.791779,69.372009 307.950653,61.196362 294.291168,52.727974 
	C289.531067,49.776894 285.072876,46.338886 279.681610,42.566891 
	C279.681610,56.412296 279.681610,69.151154 279.681610,81.816315 
	C262.517029,84.102180 246.094284,67.679710 257.011505,46.980312 
	C221.463715,56.132469 188.741928,70.741920 158.088745,90.463295 
	C171.060532,61.819340 178.623901,32.253384 179.000000,1.000000 
z"/>
<path fill="#3A556A" opacity="1.000000" stroke="none" 
	d="
M178.666672,1.000000 
	C178.623901,32.253384 171.060532,61.819340 158.088745,90.463295 
	C188.741928,70.741920 221.463715,56.132469 257.011505,46.980312 
	C246.094284,67.679710 262.517029,84.102180 279.681610,81.816315 
	C279.681610,69.151154 279.681610,56.412296 279.681610,42.566891 
	C285.072876,46.338886 289.531067,49.776894 294.291168,52.727974 
	C307.950653,61.196362 321.791779,69.372009 335.441162,77.856331 
	C342.343964,82.147041 349.258545,81.603767 356.790222,79.786339 
	C366.870850,77.353806 377.116516,75.227272 387.414490,74.176262 
	C398.423981,73.052628 409.602814,72.703262 420.660217,73.161606 
	C433.990479,73.714157 447.270782,75.472458 461.328156,76.779045 
	C447.282593,95.763954 430.199219,109.681496 409.361816,121.055290 
	C447.157288,128.737000 477.572296,147.117783 501.499146,177.193039 
	C484.777374,175.668182 468.677521,174.200043 452.639130,172.737503 
	C449.455231,190.248825 451.256592,191.437729 464.911407,189.269409 
	C460.081879,211.432663 463.934814,234.436798 457.097382,256.317413 
	C455.417786,261.692444 455.009705,267.464813 453.992615,273.904449 
	C453.085510,280.667755 452.202881,286.581085 451.320251,292.494446 
	C450.379242,292.015533 450.075256,291.491516 450.029968,290.945984 
	C448.666901,274.528687 443.818634,259.097137 437.141968,244.122757 
	C427.545349,222.599396 416.588898,201.588928 411.911835,178.154648 
	C411.656677,176.876205 409.394684,175.376968 407.851196,175.072052 
	C390.285828,171.601883 372.636230,168.549500 355.100403,164.941925 
	C346.552856,163.183472 338.196655,160.495148 329.577911,158.180481 
	C336.856598,168.663406 342.420135,183.388031 341.942200,190.929306 
	C316.995697,183.792206 293.450073,173.603745 271.410767,159.939590 
	C261.799438,153.980667 251.873032,153.824585 242.705124,160.349655 
	C224.852219,173.056122 205.738358,183.405624 185.674927,192.023102 
	C179.016953,194.882767 171.920792,196.722244 165.014343,199.016144 
	C165.003708,199.004166 164.980408,198.983887 165.079803,198.657166 
	C168.485275,194.012772 171.799683,189.701462 175.095688,185.376144 
	C181.769516,176.618210 188.433350,167.852692 195.280243,159.013550 
	C195.435074,158.738235 195.410995,158.539658 195.386902,158.341095 
	C195.221848,158.520950 195.056793,158.700790 194.519623,158.890594 
	C177.055862,167.170944 159.111893,172.965332 140.906174,177.999344 
	C140.696884,177.597488 140.487610,177.195633 140.278320,176.793777 
	C149.187317,170.407944 158.096313,164.022095 167.005310,157.636246 
	C166.729156,157.172821 166.453018,156.709381 166.176865,156.245956 
	C165.092804,156.245956 163.999847,156.155167 162.926041,156.260223 
	C153.682129,157.164490 144.454330,158.685486 135.197006,158.887207 
	C123.408699,159.144073 111.585442,158.550858 99.802391,157.881622 
	C95.739563,157.650894 94.577095,159.348907 94.060509,162.757141 
	C91.184731,181.730118 90.513237,200.809464 91.085625,220.425446 
	C90.369446,233.122711 89.795052,245.357544 89.042053,257.581360 
	C88.005692,274.404968 84.304939,290.684540 77.707436,306.164948 
	C74.032181,314.788544 70.313278,323.586792 62.951118,329.539551 
	C62.977409,319.272430 63.008327,309.474609 62.995251,299.676880 
	C62.986019,292.763062 62.917103,285.849274 62.928963,278.481750 
	C61.032837,264.157745 58.965347,250.302673 57.167065,236.412735 
	C55.543423,223.871735 47.915634,216.325974 36.964672,211.511139 
	C31.733124,209.210953 26.327808,207.305969 20.824919,205.153030 
	C30.522848,196.363098 39.960094,187.809448 49.509480,179.154160 
	C32.867706,161.834045 19.923067,143.031967 12.925708,120.041679 
	C14.240646,120.041679 15.088142,119.884865 15.856772,120.064850 
	C31.150564,123.646011 46.411652,127.371117 61.736355,130.813324 
	C66.242943,131.825577 70.365189,131.132767 73.003250,126.341484 
	C76.598228,119.812241 80.117401,113.153358 84.511948,107.169014 
	C96.855484,90.360031 109.017029,73.352295 122.419090,57.405167 
	C134.364899,43.190849 147.808304,30.227358 160.719421,16.835846 
	C165.971313,11.388536 171.562943,6.268784 177.000000,0.999999 
	C177.444443,1.000000 177.888901,1.000000 178.666672,1.000000 
z"/>
<path fill="transparent" opacity="1.000000" stroke="none" 
	d="
M176.531342,0.999999 
	C171.562943,6.268784 165.971313,11.388536 160.719421,16.835846 
	C147.808304,30.227358 134.364899,43.190849 122.419090,57.405167 
	C109.017029,73.352295 96.855484,90.360031 84.511948,107.169014 
	C80.117401,113.153358 76.598228,119.812241 73.003250,126.341484 
	C70.365189,131.132767 66.242943,131.825577 61.736355,130.813324 
	C46.411652,127.371117 31.150564,123.646011 15.856772,120.064850 
	C15.088142,119.884865 14.240646,120.041679 12.925708,120.041679 
	C19.923067,143.031967 32.867706,161.834045 49.509480,179.154160 
	C39.960094,187.809448 30.522848,196.363098 20.824919,205.153030 
	C26.327808,207.305969 31.733124,209.210953 36.964672,211.511139 
	C47.915634,216.325974 55.543423,223.871735 57.167065,236.412735 
	C58.965347,250.302673 61.032837,264.157745 62.614841,278.365021 
	C56.821640,272.621765 51.707611,266.215027 45.826050,260.614288 
	C43.304321,258.212921 39.278801,256.522705 35.776070,256.187866 
	C26.520617,255.303009 19.310223,260.961273 15.994755,270.461395 
	C11.680389,282.823853 11.961051,295.490326 14.613834,307.946991 
	C17.937864,323.555603 22.300573,338.942505 26.190832,354.431183 
	C29.164600,366.270935 31.580423,378.282471 35.209965,389.916351 
	C38.413383,400.184387 51.967213,411.523071 62.357464,403.054413 
	C63.128845,405.531342 63.529285,407.784485 64.014793,410.019073 
	C67.708458,427.019897 75.032730,442.377258 87.376228,454.580688 
	C100.807648,467.859680 117.857391,474.744537 136.450516,476.828522 
	C151.993698,478.570679 167.673935,479.335663 183.316162,479.872253 
	C196.321289,480.318359 207.715149,484.870514 217.774139,492.462799 
	C228.007401,500.186676 237.005936,509.665009 250.000000,513.000000 
	C167.038773,513.000000 84.077530,513.000000 1.058149,513.000000 
	C1.058149,342.451843 1.058149,171.903625 1.058149,1.000000 
	C59.353748,1.000000 117.708214,1.000000 176.531342,0.999999 
z"/>
<path fill="#3EA69B" opacity="1.000000" stroke="none" 
	d="
M250.468536,513.000000 
	C237.005936,509.665009 228.007401,500.186676 217.774139,492.462799 
	C207.715149,484.870514 196.321289,480.318359 183.316162,479.872253 
	C167.673935,479.335663 151.993698,478.570679 136.450516,476.828522 
	C117.857391,474.744537 100.807648,467.859680 87.376228,454.580688 
	C75.032730,442.377258 67.708458,427.019897 64.014793,410.019073 
	C63.529285,407.784485 63.128845,405.531342 62.352360,402.609192 
	C61.976871,399.437164 62.242031,396.894012 61.851379,394.455933 
	C58.543407,373.811096 60.012718,353.114441 61.094666,332.425934 
	C61.138363,331.590424 62.297504,330.813263 62.936943,330.008911 
	C70.313278,323.586792 74.032181,314.788544 77.707436,306.164948 
	C84.304939,290.684540 88.005692,274.404968 89.042053,257.581360 
	C89.795052,245.357544 90.369446,233.122711 91.411179,220.496490 
	C98.385063,228.343445 102.132423,237.707764 103.008560,248.235931 
	C103.924072,259.237091 100.347832,269.251617 95.951141,278.966278 
	C87.948822,296.647705 86.144447,315.145233 89.333282,333.956573 
	C91.845665,348.777405 95.312004,363.490997 99.298325,377.992828 
	C103.663460,393.872803 111.391159,407.453430 128.367996,413.396973 
	C133.160660,415.074860 135.929947,419.059448 136.667526,424.357208 
	C138.426178,436.988831 146.297302,445.715698 156.884766,451.131226 
	C168.337997,456.989624 180.493164,461.833038 192.818283,465.533325 
	C206.278687,469.574402 220.046326,470.465698 233.118256,462.605560 
	C239.715469,458.638641 247.258759,457.379303 254.679184,460.465271 
	C261.733154,463.398865 268.621155,466.769379 275.428741,470.247925 
	C283.713409,474.481140 292.213654,475.306244 301.001862,472.464966 
	C311.046417,469.217529 321.300232,467.319641 331.841187,468.071838 
	C342.672607,468.844727 351.869415,464.987091 361.013458,459.739044 
	C375.223663,451.583282 390.695740,448.789093 407.004395,450.812286 
	C416.026093,451.931458 425.058167,452.966980 434.085541,454.040222 
	C423.623016,465.516174 410.155396,471.689423 395.363525,474.817352 
	C386.580475,476.674622 377.486145,477.164795 368.503784,477.949799 
	C355.218842,479.110901 341.839630,479.449585 328.631348,481.152802 
	C317.705170,482.561768 308.361084,488.200165 300.066040,495.416321 
	C291.538330,502.834991 283.359406,510.838562 271.166565,512.649780 
	C264.312347,513.000000 257.624725,513.000000 250.468536,513.000000 
z"/>
<path fill="#44C4A1" opacity="1.000000" stroke="none" 
	d="
M434.391724,453.906189 
	C425.058167,452.966980 416.026093,451.931458 407.004395,450.812286 
	C390.695740,448.789093 375.223663,451.583282 361.013458,459.739044 
	C351.869415,464.987091 342.672607,468.844727 331.841187,468.071838 
	C321.300232,467.319641 311.046417,469.217529 301.001862,472.464966 
	C292.213654,475.306244 283.713409,474.481140 275.428741,470.247925 
	C268.621155,466.769379 261.733154,463.398865 254.679184,460.465271 
	C247.258759,457.379303 239.715469,458.638641 233.118256,462.605560 
	C220.046326,470.465698 206.278687,469.574402 192.818283,465.533325 
	C180.493164,461.833038 168.337997,456.989624 156.884766,451.131226 
	C146.297302,445.715698 138.426178,436.988831 136.667526,424.357208 
	C135.929947,419.059448 133.160660,415.074860 128.367996,413.396973 
	C111.391159,407.453430 103.663460,393.872803 99.298325,377.992828 
	C95.312004,363.490997 91.845665,348.777405 89.333282,333.956573 
	C86.144447,315.145233 87.948822,296.647705 95.951141,278.966278 
	C100.347832,269.251617 103.924072,259.237091 103.008560,248.235931 
	C102.132423,237.707764 98.385063,228.343445 91.473328,220.029144 
	C90.513237,200.809464 91.184731,181.730118 94.060509,162.757141 
	C94.577095,159.348907 95.739563,157.650894 99.802391,157.881622 
	C111.585442,158.550858 123.408699,159.144073 135.197006,158.887207 
	C144.454330,158.685486 153.682129,157.164490 162.926041,156.260223 
	C163.999847,156.155167 165.092804,156.245956 166.176865,156.245956 
	C166.453018,156.709381 166.729156,157.172821 167.005310,157.636246 
	C158.096313,164.022095 149.187317,170.407944 140.278320,176.793777 
	C140.487610,177.195633 140.696884,177.597488 140.906174,177.999344 
	C159.111893,172.965332 177.055862,167.170944 194.570633,158.944397 
	C194.993759,158.988220 195.101303,159.090286 195.101303,159.090286 
	C188.433350,167.852692 181.769516,176.618210 175.095688,185.376144 
	C171.799683,189.701462 168.485275,194.012772 164.907883,198.712830 
	C164.766037,199.072861 164.895508,199.050491 165.024963,199.028122 
	C171.920792,196.722244 179.016953,194.882767 185.674927,192.023102 
	C205.738358,183.405624 224.852219,173.056122 242.705124,160.349655 
	C251.873032,153.824585 261.799438,153.980667 271.410767,159.939590 
	C293.450073,173.603745 316.995697,183.792206 341.942200,190.929306 
	C342.420135,183.388031 336.856598,168.663406 329.577911,158.180481 
	C338.196655,160.495148 346.552856,163.183472 355.100403,164.941925 
	C372.636230,168.549500 390.285828,171.601883 407.851196,175.072052 
	C409.394684,175.376968 411.656677,176.876205 411.911835,178.154648 
	C416.588898,201.588928 427.545349,222.599396 437.141968,244.122757 
	C443.818634,259.097137 448.666901,274.528687 450.029968,290.945984 
	C450.075256,291.491516 450.379242,292.015533 451.320251,292.494446 
	C452.202881,286.581085 453.085510,280.667755 454.046509,274.345154 
	C458.948334,269.259003 463.520599,264.283112 468.651703,259.972382 
	C477.236023,252.760666 489.607452,255.401184 495.068726,265.419861 
	C500.605438,275.576843 501.092560,286.440063 500.256165,297.826447 
	C498.618317,320.123077 489.786621,340.639282 485.375092,362.222626 
	C483.936035,369.263306 482.857056,376.409821 480.898224,383.304749 
	C477.586639,394.961121 471.486633,404.294037 458.520874,406.343262 
	C454.341217,424.263550 448.037720,440.779999 434.391724,453.906189 
M367.996338,258.004242 
	C367.996338,258.004242 368.005127,258.014252 367.685577,257.485291 
	C367.102203,257.356781 366.518860,257.228241 365.204590,256.972931 
	C356.771637,253.006393 348.217743,251.382553 338.692993,252.843979 
	C311.743744,256.978973 292.979156,285.928040 300.932678,312.737274 
	C301.270050,313.536743 301.607422,314.336212 301.977966,315.517151 
	C301.977966,315.517151 302.034729,315.895813 301.991241,316.689850 
	C305.558228,329.948730 313.244568,340.582581 323.192627,349.729279 
	C334.013458,359.678406 345.939880,365.575134 361.497345,363.177551 
	C383.306458,359.816467 402.558105,338.762909 403.077301,316.824493 
	C403.392914,303.489166 399.793823,291.315399 391.999542,280.866028 
	C386.562897,273.577423 379.371124,267.597961 372.989960,260.997040 
	C372.989960,260.997040 372.976532,261.037262 372.702515,260.408386 
	C371.483887,259.914886 370.265259,259.421387 368.989166,258.966827 
	C368.989166,258.966827 369.054810,258.949402 368.863312,258.476471 
	C368.570404,258.316925 368.277527,258.157379 367.996338,258.004242 
M151.517883,259.145691 
	C151.328079,259.415833 151.138275,259.686005 151.010361,259.971161 
	C151.010361,259.971161 150.957840,259.933319 150.256378,259.927277 
	C148.841766,260.959747 147.427155,261.992218 146.003250,262.999146 
	C146.003250,262.999146 146.024399,263.018524 145.332825,263.065887 
	C141.274155,267.171875 136.726227,270.904663 133.253326,275.457489 
	C124.646576,286.740601 118.038322,299.353546 118.295906,313.772064 
	C118.590363,330.254456 124.894646,344.676788 139.068344,354.289032 
	C153.352036,363.975922 168.725555,367.771210 185.022385,359.393707 
	C196.662567,353.409943 205.894348,344.474487 212.249878,333.069061 
	C215.570953,327.109192 217.473907,320.359131 220.029861,313.140137 
	C220.104828,312.314148 220.046341,311.449188 220.274704,310.668030 
	C224.031937,297.814850 222.166489,285.819946 215.231445,274.396667 
	C204.209686,256.241791 179.451599,247.452972 159.426529,255.012405 
	C158.936890,255.329285 158.447235,255.646164 157.997726,256.000824 
	C157.997726,256.000824 157.983078,255.947708 157.309723,255.948685 
	C156.560516,256.323730 155.811310,256.698761 155.017349,257.001221 
	C155.017349,257.001221 155.052109,257.074463 154.559952,257.198547 
	C154.361145,257.459503 154.162338,257.720428 154.004379,257.998016 
	C154.004379,257.998016 153.985870,257.957855 153.376022,257.980774 
	C152.911575,258.319275 152.447128,258.657745 152.001724,259.002441 
	C152.001724,259.002441 152.000626,258.982574 151.517883,259.145691 
M382.267822,245.555161 
	C382.823212,245.750244 383.378571,245.945328 384.409454,246.654633 
	C390.182556,249.528549 395.955658,252.402451 402.201141,255.511536 
	C401.850830,254.324982 401.826233,253.594116 401.465973,253.116318 
	C392.723694,241.521347 383.177551,230.679718 370.410095,223.368668 
	C359.719330,217.246765 348.698608,211.838974 335.688934,213.964951 
	C331.931641,214.578934 328.928375,215.862320 328.725739,220.286407 
	C328.544678,224.240128 327.895355,228.423203 333.138275,230.741623 
	C333.800873,234.669327 335.884247,236.739410 340.083862,237.141434 
	C345.171600,237.628464 350.221283,238.628662 355.248413,239.607452 
	C364.172302,241.344925 373.066833,243.233536 381.998474,245.000214 
	C381.998474,245.000214 381.955933,245.047806 382.267822,245.555161 
M118.706306,256.007294 
	C124.451134,252.974564 130.195969,249.941833 136.437881,246.795181 
	C136.673111,246.556625 136.908340,246.318085 137.531921,246.029266 
	C137.531921,246.029266 137.915924,245.952545 138.714706,245.980164 
	C153.012024,243.011566 167.280090,239.888641 181.624405,237.167892 
	C185.956772,236.346146 188.169510,234.486465 188.798828,229.922546 
	C194.462540,228.151886 193.081451,223.422867 192.842300,219.508728 
	C192.612747,215.751663 189.633255,214.520508 186.228607,213.958542 
	C177.917038,212.586670 170.220047,214.525238 162.569748,217.619156 
	C143.345749,225.393723 129.586594,239.408432 117.686455,256.118988 
	C117.782837,256.069946 117.879227,256.020905 118.706306,256.007294 
M248.098007,377.866730 
	C244.933685,378.895386 241.769379,379.924072 237.870834,380.893707 
	C231.868439,383.947601 225.866043,387.001465 219.276779,390.339630 
	C216.154587,393.223206 213.032394,396.106781 209.323547,399.290649 
	C206.445251,403.487335 203.566956,407.684021 200.173920,412.312897 
	C193.437271,423.449738 190.616806,435.627258 191.170822,448.512268 
	C191.263031,450.656891 193.087784,453.609894 194.922455,454.479675 
	C196.103439,455.039581 199.199554,452.871368 200.685471,451.240723 
	C206.023209,445.383270 210.433609,438.552338 216.298172,433.328339 
	C231.597107,419.700562 250.155945,414.685974 270.114899,417.493774 
	C291.587708,420.514526 308.604736,431.549835 320.223480,450.271149 
	C321.785461,452.788025 323.666199,456.352753 327.001770,454.510010 
	C329.011932,453.399536 330.678711,449.744812 330.674957,447.236145 
	C330.656281,434.751373 327.807953,422.870331 321.066925,411.359894 
	C318.067474,407.455139 315.067993,403.550415 311.866364,399.028870 
	C308.553986,396.031219 305.241608,393.033539 301.353271,389.689850 
	C295.357330,386.502289 289.361359,383.314728 282.596497,379.867554 
	C278.355438,378.932007 274.114380,377.996460 269.055695,376.984741 
	C262.346863,377.278046 255.638016,377.571350 248.098007,377.866730 
M254.655380,316.885315 
	C244.821899,326.104797 238.723419,337.521973 235.072235,350.349182 
	C234.765091,351.428192 234.558594,353.015656 235.115189,353.766876 
	C236.538483,355.687866 238.243774,358.462860 240.152817,358.743561 
	C244.350250,359.360718 248.742615,358.634308 253.056351,358.483276 
	C257.479523,358.328461 261.907623,358.026733 266.326569,358.120056 
	C270.628204,358.210876 274.918854,358.952301 279.218170,358.991791 
	C285.595520,359.050354 288.679108,355.669037 286.199982,349.805481 
	C282.159515,340.249329 277.163147,331.044189 271.934784,322.060699 
	C267.988007,315.279175 262.833771,313.982819 254.655380,316.885315 
M483.009399,323.569275 
	C483.992615,317.375397 485.427124,311.211578 485.842102,304.979858 
	C486.335022,297.578186 486.875183,289.950745 482.985260,283.098206 
	C481.082001,279.745361 477.918640,276.681122 474.166443,279.170837 
	C469.532440,282.245605 465.777924,286.645752 461.260223,290.827911 
	C475.800049,297.082764 479.918610,303.369720 477.859222,315.527283 
	C476.232635,325.130035 474.294434,334.681427 472.398682,344.236603 
	C471.178497,350.386627 472.851593,356.658447 477.357391,359.126434 
	C479.271179,347.346252 481.131134,335.897614 483.009399,323.569275 
z"/>
<path fill="#44C4A1" opacity="1.000000" stroke="none" 
	d="
M62.951118,329.539551 
	C62.297504,330.813263 61.138363,331.590424 61.094666,332.425934 
	C60.012718,353.114441 58.543407,373.811096 61.851379,394.455933 
	C62.242031,396.894012 61.976871,399.437164 62.020817,402.376831 
	C51.967213,411.523071 38.413383,400.184387 35.209965,389.916351 
	C31.580423,378.282471 29.164600,366.270935 26.190832,354.431183 
	C22.300573,338.942505 17.937864,323.555603 14.613834,307.946991 
	C11.961051,295.490326 11.680389,282.823853 15.994755,270.461395 
	C19.310223,260.961273 26.520617,255.303009 35.776070,256.187866 
	C39.278801,256.522705 43.304321,258.212921 45.826050,260.614288 
	C51.707611,266.215027 56.821640,272.621765 62.560711,278.818756 
	C62.917103,285.849274 62.986019,292.763062 62.995251,299.676880 
	C63.008327,309.474609 62.977409,319.272430 62.951118,329.539551 
M29.500313,316.010345 
	C31.348318,328.400848 33.133705,340.801300 35.106838,353.171844 
	C35.430447,355.200745 36.580231,357.097809 37.348183,359.055817 
	C37.973358,358.996246 38.598537,358.936676 39.223713,358.877106 
	C39.816582,356.620239 41.122753,354.284393 40.883049,352.119720 
	C39.614418,340.663177 38.358036,329.177826 36.327496,317.840393 
	C34.055592,305.155334 37.018894,298.307312 48.664200,292.650757 
	C51.089443,291.472717 51.634197,290.162140 49.644047,288.160431 
	C47.769024,286.274506 46.112453,284.065094 43.952572,282.597229 
	C41.586849,280.989471 37.950359,278.409393 36.301117,279.209137 
	C33.303101,280.662903 29.573399,284.145081 29.316105,287.060242 
	C28.495083,296.362671 29.128143,305.793457 29.500313,316.010345 
z"/>
<path fill="#44C4A1" opacity="1.000000" stroke="none" 
	d="
M194.942749,158.934418 
	C195.056793,158.700790 195.221848,158.520950 195.386902,158.341095 
	C195.410995,158.539658 195.435074,158.738235 195.280243,159.013550 
	C195.101303,159.090286 194.993759,158.988220 194.942749,158.934418 
z"/>
<path fill="#3B576B" opacity="1.000000" stroke="none" 
	d="
M209.910187,398.990356 
	C213.032394,396.106781 216.154587,393.223206 219.648300,390.557861 
	C220.349136,391.706207 220.671173,392.638947 221.008957,393.565948 
	C223.323975,399.918762 225.862686,401.131042 232.366928,398.994629 
	C242.203033,395.763855 242.958282,394.143951 239.477249,383.782654 
	C239.162994,382.847260 238.894699,381.896393 238.605057,380.952728 
	C241.769379,379.924072 244.933685,378.895386 248.556183,378.291260 
	C249.974670,383.574219 250.808762,388.462067 251.933136,393.282227 
	C252.924454,397.531921 255.852966,399.170319 260.112854,398.504730 
	C261.581451,398.275269 263.052704,398.053558 264.510437,397.765839 
	C270.991486,396.486755 272.899048,393.705292 271.730927,387.289276 
	C271.110229,383.880096 270.492432,380.470398 269.873322,377.060913 
	C274.114380,377.996460 278.355438,378.932007 282.877869,380.368317 
	C282.231934,383.680573 280.714478,386.460938 280.563843,389.313446 
	C280.443085,391.599823 281.304871,395.268677 282.893372,396.098663 
	C293.173584,401.470001 298.554596,402.839478 301.575928,390.956604 
	C301.656342,390.640198 301.809814,390.342377 301.929230,390.035889 
	C305.241608,393.033539 308.553986,396.031219 311.686401,399.571198 
	C310.230804,401.858337 308.875610,403.551178 307.695221,405.358215 
	C304.670380,409.988770 305.667450,413.934723 310.456177,416.630951 
	C314.561920,418.942627 317.418121,417.733582 321.312683,412.035309 
	C327.807953,422.870331 330.656281,434.751373 330.674957,447.236145 
	C330.678711,449.744812 329.011932,453.399536 327.001770,454.510010 
	C323.666199,456.352753 321.785461,452.788025 320.223480,450.271149 
	C308.604736,431.549835 291.587708,420.514526 270.114899,417.493774 
	C250.155945,414.685974 231.597107,419.700562 216.298172,433.328339 
	C210.433609,438.552338 206.023209,445.383270 200.685471,451.240723 
	C199.199554,452.871368 196.103439,455.039581 194.922455,454.479675 
	C193.087784,453.609894 191.263031,450.656891 191.170822,448.512268 
	C190.616806,435.627258 193.437271,423.449738 200.640213,412.407471 
	C205.423111,417.412201 208.277084,418.012054 212.405014,414.876984 
	C216.493927,411.771545 216.721329,408.422028 213.149872,403.352356 
	C212.107132,401.872192 210.992111,400.442932 209.910187,398.990356 
z"/>
<path fill="#3D576A" opacity="1.000000" stroke="none" 
	d="
M160.043365,255.002991 
	C179.451599,247.452972 204.209686,256.241791 215.231445,274.396667 
	C222.166489,285.819946 224.031937,297.814850 220.274704,310.668030 
	C220.046341,311.449188 220.104828,312.314148 219.742294,313.766571 
	C219.006409,315.279755 218.497986,316.141602 218.118729,317.056976 
	C211.917984,332.022461 201.596085,343.495941 187.663940,351.448730 
	C172.283493,360.228210 151.983902,354.902191 139.564575,344.153809 
	C128.839035,334.871277 123.305977,322.911377 123.362587,309.155212 
	C123.414070,296.642212 128.808197,285.383820 136.265335,275.321991 
	C139.380539,271.118683 142.763306,267.113708 146.024399,263.018524 
	C146.024399,263.018524 146.003250,262.999146 146.361755,263.022583 
	C148.132767,262.008423 149.545303,260.970856 150.957840,259.933319 
	C150.957840,259.933319 151.010361,259.971161 151.222198,259.885071 
	C151.622910,259.526825 151.811768,259.254700 152.000626,258.982574 
	C152.000626,258.982574 152.001724,259.002441 152.299438,258.995331 
	C153.060043,258.644775 153.522964,258.301300 153.985870,257.957855 
	C153.985870,257.957855 154.004379,257.998016 154.220581,257.913544 
	C154.741394,257.658661 154.946503,257.407104 155.052109,257.074463 
	C155.052109,257.074463 155.017349,257.001221 155.375412,257.033020 
	C156.483337,256.692413 157.233215,256.320068 157.983078,255.947708 
	C157.983078,255.947708 157.997726,256.000824 158.285400,255.982208 
	C159.063171,255.643387 159.553268,255.323181 160.043365,255.002991 
M146.358566,333.609497 
	C151.634583,336.299072 156.642365,339.987244 162.237152,341.490112 
	C178.724533,345.919006 193.168930,341.136719 203.826385,328.105194 
	C214.385071,315.194458 216.621033,300.402649 208.988510,284.166779 
	C201.017166,269.100281 188.377304,260.894775 171.472275,261.491699 
	C153.126923,262.139404 138.869858,273.138092 134.037308,288.733002 
	C128.702911,305.947418 132.533035,320.839722 146.358566,333.609497 
z"/>
<path fill="#3C576B" opacity="1.000000" stroke="none" 
	d="
M300.860504,312.062317 
	C292.979156,285.928040 311.743744,256.978973 338.692993,252.843979 
	C348.217743,251.382553 356.771637,253.006393 365.758667,257.266907 
	C366.876892,257.712006 367.441010,257.863129 368.005127,258.014252 
	C368.005127,258.014252 367.996338,258.004242 368.092651,258.233521 
	C368.477570,258.624969 368.766174,258.787201 369.054810,258.949402 
	C369.054810,258.949402 368.989166,258.966827 369.144470,259.270325 
	C370.525330,260.061615 371.750946,260.549438 372.976532,261.037262 
	C372.976532,261.037262 372.989960,260.997040 373.005005,261.358948 
	C377.621582,266.936523 382.713043,271.801636 386.739380,277.428833 
	C403.744049,301.194672 402.397095,329.533813 378.255951,346.983948 
	C367.855194,354.501953 355.803253,358.077026 342.939392,354.734375 
	C328.771820,351.052979 318.607910,341.562897 310.464813,329.823669 
	C307.377686,325.373260 304.828888,320.549438 302.034729,315.895813 
	C302.034729,315.895813 301.977966,315.517151 301.984009,314.967224 
	C301.613556,313.632294 301.237030,312.847290 300.860504,312.062317 
M311.435699,286.441498 
	C308.496368,294.005188 307.159210,301.669006 308.993317,309.801788 
	C312.412445,324.962799 321.284119,335.601196 335.802002,340.680267 
	C350.119507,345.689240 363.605835,343.265076 375.908905,332.842926 
	C387.091797,322.434631 391.842712,309.798523 389.147736,294.589233 
	C386.576050,280.075745 374.480957,262.621979 350.194214,261.406219 
	C333.503540,260.570709 317.688507,271.074463 311.435699,286.441498 
z"/>
<path fill="#3A566B" opacity="1.000000" stroke="none" 
	d="
M254.975433,316.680634 
	C262.833771,313.982819 267.988007,315.279175 271.934784,322.060699 
	C277.163147,331.044189 282.159515,340.249329 286.199982,349.805481 
	C288.679108,355.669037 285.595520,359.050354 279.218170,358.991791 
	C274.918854,358.952301 270.628204,358.210876 266.326569,358.120056 
	C261.907623,358.026733 257.479523,358.328461 253.056351,358.483276 
	C248.742615,358.634308 244.350250,359.360718 240.152817,358.743561 
	C238.243774,358.462860 236.538483,355.687866 235.115189,353.766876 
	C234.558594,353.015656 234.765091,351.428192 235.072235,350.349182 
	C238.723419,337.521973 244.821899,326.104797 254.975433,316.680634 
z"/>
<path fill="#627A8A" opacity="1.000000" stroke="none" 
	d="
M145.678619,263.042206 
	C142.763306,267.113708 139.380539,271.118683 136.265335,275.321991 
	C128.808197,285.383820 123.414070,296.642212 123.362587,309.155212 
	C123.305977,322.911377 128.839035,334.871277 139.564575,344.153809 
	C151.983902,354.902191 172.283493,360.228210 187.663940,351.448730 
	C201.596085,343.495941 211.917984,332.022461 218.118729,317.056976 
	C218.497986,316.141602 219.006409,315.279755 219.736053,314.179474 
	C217.473907,320.359131 215.570953,327.109192 212.249878,333.069061 
	C205.894348,344.474487 196.662567,353.409943 185.022385,359.393707 
	C168.725555,367.771210 153.352036,363.975922 139.068344,354.289032 
	C124.894646,344.676788 118.590363,330.254456 118.295906,313.772064 
	C118.038322,299.353546 124.646576,286.740601 133.253326,275.457489 
	C136.726227,270.904663 141.274155,267.171875 145.678619,263.042206 
z"/>
<path fill="#627A8A" opacity="1.000000" stroke="none" 
	d="
M302.013000,316.292847 
	C304.828888,320.549438 307.377686,325.373260 310.464813,329.823669 
	C318.607910,341.562897 328.771820,351.052979 342.939392,354.734375 
	C355.803253,358.077026 367.855194,354.501953 378.255951,346.983948 
	C402.397095,329.533813 403.744049,301.194672 386.739380,277.428833 
	C382.713043,271.801636 377.621582,266.936523 372.991730,261.377289 
	C379.371124,267.597961 386.562897,273.577423 391.999542,280.866028 
	C399.793823,291.315399 403.392914,303.489166 403.077301,316.824493 
	C402.558105,338.762909 383.306458,359.816467 361.497345,363.177551 
	C345.939880,365.575134 334.013458,359.678406 323.192627,349.729279 
	C313.244568,340.582581 305.558228,329.948730 302.013000,316.292847 
z"/>
<path fill="#3A576B" opacity="1.000000" stroke="none" 
	d="
M137.915924,245.952545 
	C137.915924,245.952545 137.531921,246.029266 137.085754,246.108215 
	C136.406662,246.427795 136.173737,246.668457 135.940796,246.909119 
	C130.195969,249.941833 124.451134,252.974564 118.351974,256.002045 
	C117.997650,255.996796 118.023079,256.017609 118.023079,256.017609 
	C129.586594,239.408432 143.345749,225.393723 162.569748,217.619156 
	C170.220047,214.525238 177.917038,212.586670 186.228607,213.958542 
	C189.633255,214.520508 192.612747,215.751663 192.842300,219.508728 
	C193.081451,223.422867 194.462540,228.151886 187.981979,229.972412 
	C177.657959,231.904694 167.921478,233.048248 158.716675,235.904999 
	C151.444153,238.162048 144.825165,242.524887 137.915924,245.952545 
z"/>
<path fill="#3B576B" opacity="1.000000" stroke="none" 
	d="
M333.053009,230.009933 
	C327.895355,228.423203 328.544678,224.240128 328.725739,220.286407 
	C328.928375,215.862320 331.931641,214.578934 335.688934,213.964951 
	C348.698608,211.838974 359.719330,217.246765 370.410095,223.368668 
	C383.177551,230.679718 392.723694,241.521347 401.465973,253.116318 
	C401.826233,253.594116 401.850830,254.324982 402.201141,255.511536 
	C395.955658,252.402451 390.182556,249.528549 384.046509,246.110672 
	C383.107697,245.393738 382.531799,245.220779 381.955933,245.047821 
	C381.955933,245.047806 381.998474,245.000214 381.810425,244.732224 
	C366.512878,236.016098 350.567902,230.375381 333.053009,230.009933 
z"/>
<path fill="#3EA79B" opacity="1.000000" stroke="none" 
	d="
M483.000244,324.009094 
	C481.131134,335.897614 479.271179,347.346252 477.357391,359.126434 
	C472.851593,356.658447 471.178497,350.386627 472.398682,344.236603 
	C474.294434,334.681427 476.232635,325.130035 477.859222,315.527283 
	C479.918610,303.369720 475.800049,297.082764 461.260223,290.827911 
	C465.777924,286.645752 469.532440,282.245605 474.166443,279.170837 
	C477.918640,276.681122 481.082001,279.745361 482.985260,283.098206 
	C486.875183,289.950745 486.335022,297.578186 485.842102,304.979858 
	C485.427124,311.211578 483.992615,317.375397 483.000244,324.009094 
z"/>
<path fill="#DDE3E6" opacity="1.000000" stroke="none" 
	d="
M269.464508,377.022827 
	C270.492432,380.470398 271.110229,383.880096 271.730927,387.289276 
	C272.899048,393.705292 270.991486,396.486755 264.510437,397.765839 
	C263.052704,398.053558 261.581451,398.275269 260.112854,398.504730 
	C255.852966,399.170319 252.924454,397.531921 251.933136,393.282227 
	C250.808762,388.462067 249.974670,383.574219 248.971771,378.290222 
	C255.638016,377.571350 262.346863,377.278046 269.464508,377.022827 
z"/>
<path fill="#DDE3E6" opacity="1.000000" stroke="none" 
	d="
M301.641235,389.862854 
	C301.809814,390.342377 301.656342,390.640198 301.575928,390.956604 
	C298.554596,402.839478 293.173584,401.470001 282.893372,396.098663 
	C281.304871,395.268677 280.443085,391.599823 280.563843,389.313446 
	C280.714478,386.460938 282.231934,383.680573 283.262329,380.498108 
	C289.361359,383.314728 295.357330,386.502289 301.641235,389.862854 
z"/>
<path fill="#DCE2E6" opacity="1.000000" stroke="none" 
	d="
M238.237946,380.923218 
	C238.894699,381.896393 239.162994,382.847260 239.477249,383.782654 
	C242.958282,394.143951 242.203033,395.763855 232.366928,398.994629 
	C225.862686,401.131042 223.323975,399.918762 221.008957,393.565948 
	C220.671173,392.638947 220.349136,391.706207 219.941727,390.415710 
	C225.866043,387.001465 231.868439,383.947601 238.237946,380.923218 
z"/>
<path fill="#627A89" opacity="1.000000" stroke="none" 
	d="
M138.315308,245.966354 
	C144.825165,242.524887 151.444153,238.162048 158.716675,235.904999 
	C167.921478,233.048248 177.657959,231.904694 187.619354,230.047623 
	C188.169510,234.486465 185.956772,236.346146 181.624405,237.167892 
	C167.280090,239.888641 153.012024,243.011566 138.315308,245.966354 
z"/>
<path fill="#627B8A" opacity="1.000000" stroke="none" 
	d="
M333.095642,230.375778 
	C350.567902,230.375381 366.512878,236.016098 381.797974,244.761581 
	C373.066833,243.233536 364.172302,241.344925 355.248413,239.607452 
	C350.221283,238.628662 345.171600,237.628464 340.083862,237.141434 
	C335.884247,236.739410 333.800873,234.669327 333.095642,230.375778 
z"/>
<path fill="#DBE1E4" opacity="1.000000" stroke="none" 
	d="
M321.189819,411.697601 
	C317.418121,417.733582 314.561920,418.942627 310.456177,416.630951 
	C305.667450,413.934723 304.670380,409.988770 307.695221,405.358215 
	C308.875610,403.551178 310.230804,401.858337 311.787476,399.879578 
	C315.067993,403.550415 318.067474,407.455139 321.189819,411.697601 
z"/>
<path fill="#DBE1E4" opacity="1.000000" stroke="none" 
	d="
M209.616882,399.140503 
	C210.992111,400.442932 212.107132,401.872192 213.149872,403.352356 
	C216.721329,408.422028 216.493927,411.771545 212.405014,414.876984 
	C208.277084,418.012054 205.423111,417.412201 200.897583,412.191376 
	C203.566956,407.684021 206.445251,403.487335 209.616882,399.140503 
z"/>
<path fill="#627A8A" opacity="1.000000" stroke="none" 
	d="
M150.607117,259.930298 
	C149.545303,260.970856 148.132767,262.008423 146.366394,263.035339 
	C147.427155,261.992218 148.841766,260.959747 150.607117,259.930298 
z"/>
<path fill="#627A8A" opacity="1.000000" stroke="none" 
	d="
M372.839539,260.722839 
	C371.750946,260.549438 370.525330,260.061615 369.173187,259.250854 
	C370.265259,259.421387 371.483887,259.914886 372.839539,260.722839 
z"/>
<path fill="#627A8A" opacity="1.000000" stroke="none" 
	d="
M300.896606,312.399780 
	C301.237030,312.847290 301.613556,313.632294 301.967438,314.776489 
	C301.607422,314.336212 301.270050,313.536743 300.896606,312.399780 
z"/>
<path fill="#627A8A" opacity="1.000000" stroke="none" 
	d="
M157.646393,255.948196 
	C157.233215,256.320068 156.483337,256.692413 155.397797,257.069275 
	C155.811310,256.698761 156.560516,256.323730 157.646393,255.948196 
z"/>
<path fill="#627A8A" opacity="1.000000" stroke="none" 
	d="
M153.680939,257.969299 
	C153.522964,258.301300 153.060043,258.644775 152.289917,258.992249 
	C152.447128,258.657745 152.911575,258.319275 153.680939,257.969299 
z"/>
<path fill="#627A8A" opacity="1.000000" stroke="none" 
	d="
M367.845337,257.749756 
	C367.441010,257.863129 366.876892,257.712006 366.124146,257.330322 
	C366.518860,257.228241 367.102203,257.356781 367.845337,257.749756 
z"/>
<path fill="#627B8A" opacity="1.000000" stroke="none" 
	d="
M382.111877,245.301483 
	C382.531799,245.220779 383.107697,245.393738 383.808777,245.853546 
	C383.378571,245.945328 382.823212,245.750244 382.111877,245.301483 
z"/>
<path fill="#627A8A" opacity="1.000000" stroke="none" 
	d="
M159.734955,255.007690 
	C159.553268,255.323181 159.063171,255.643387 158.265335,255.963318 
	C158.447235,255.646164 158.936890,255.329285 159.734955,255.007690 
z"/>
<path fill="#3A556A" opacity="1.000000" stroke="none" 
	d="
M165.014343,199.016144 
	C164.895508,199.050491 164.766037,199.072861 164.808502,199.039551 
	C164.980408,198.983887 165.003708,199.004166 165.014343,199.016144 
z"/>
<path fill="#627A89" opacity="1.000000" stroke="none" 
	d="
M136.189346,246.852142 
	C136.173737,246.668457 136.406662,246.427795 136.891586,246.133331 
	C136.908340,246.318085 136.673111,246.556625 136.189346,246.852142 
z"/>
<path fill="#3A576B" opacity="1.000000" stroke="none" 
	d="
M117.986633,255.984329 
	C117.879227,256.020905 117.782837,256.069946 117.854767,256.068298 
	C118.023079,256.017609 117.997650,255.996796 117.986633,255.984329 
z"/>
<path fill="#627A8A" opacity="1.000000" stroke="none" 
	d="
M154.806030,257.136505 
	C154.946503,257.407104 154.741394,257.658661 154.200165,257.905212 
	C154.162338,257.720428 154.361145,257.459503 154.806030,257.136505 
z"/>
<path fill="#627A8A" opacity="1.000000" stroke="none" 
	d="
M368.959045,258.712952 
	C368.766174,258.787201 368.477570,258.624969 368.086792,258.230286 
	C368.277527,258.157379 368.570404,258.316925 368.959045,258.712952 
z"/>
<path fill="#627A8A" opacity="1.000000" stroke="none" 
	d="
M151.759247,259.064148 
	C151.811768,259.254700 151.622910,259.526825 151.191254,259.877563 
	C151.138275,259.686005 151.328079,259.415833 151.759247,259.064148 
z"/>
<path fill="#3EA79B" opacity="1.000000" stroke="none" 
	d="
M29.349979,315.592499 
	C29.128143,305.793457 28.495083,296.362671 29.316105,287.060242 
	C29.573399,284.145081 33.303101,280.662903 36.301117,279.209137 
	C37.950359,278.409393 41.586849,280.989471 43.952572,282.597229 
	C46.112453,284.065094 47.769024,286.274506 49.644047,288.160431 
	C51.634197,290.162140 51.089443,291.472717 48.664200,292.650757 
	C37.018894,298.307312 34.055592,305.155334 36.327496,317.840393 
	C38.358036,329.177826 39.614418,340.663177 40.883049,352.119720 
	C41.122753,354.284393 39.816582,356.620239 39.223713,358.877106 
	C38.598537,358.936676 37.973358,358.996246 37.348183,359.055817 
	C36.580231,357.097809 35.430447,355.200745 35.106838,353.171844 
	C33.133705,340.801300 31.348318,328.400848 29.349979,315.592499 
z"/>
<path fill="#FAD362" opacity="1.000000" stroke="none" 
	d="
M146.070480,333.009369 
	C132.533035,320.839722 128.702911,305.947418 134.037308,288.733002 
	C138.869858,273.138092 153.126923,262.139404 171.472275,261.491699 
	C188.377304,260.894775 201.017166,269.100281 208.990173,284.869385 
	C202.477051,295.442688 198.535995,306.486450 194.122070,317.356232 
	C191.549011,323.692627 186.632538,328.765472 179.588989,329.761169 
	C168.485001,331.330902 157.250015,331.973999 146.070480,333.009369 
M152.428574,283.443695 
	C146.433182,292.057007 146.711563,301.081055 153.186050,307.997375 
	C159.419296,314.656036 169.085495,315.963348 176.799973,311.006195 
	C183.282394,306.840790 186.006439,300.732086 185.186783,293.123688 
	C184.281479,284.720154 179.198624,279.790649 171.116974,276.798553 
	C168.188431,272.764069 164.307465,270.753052 159.450333,272.445404 
	C154.617386,274.129364 152.687302,278.025238 152.428574,283.443695 
z"/>
<path fill="#F4A74C" opacity="1.000000" stroke="none" 
	d="
M146.214523,333.309448 
	C157.250015,331.973999 168.485001,331.330902 179.588989,329.761169 
	C186.632538,328.765472 191.549011,323.692627 194.122070,317.356232 
	C198.535995,306.486450 202.477051,295.442688 209.063843,285.209900 
	C216.621033,300.402649 214.385071,315.194458 203.826385,328.105194 
	C193.168930,341.136719 178.724533,345.919006 162.237152,341.490112 
	C156.642365,339.987244 151.634583,336.299072 146.214523,333.309448 
z"/>
<path fill="#FAD262" opacity="1.000000" stroke="none" 
	d="
M311.993652,285.960022 
	C317.688507,271.074463 333.503540,260.570709 350.194214,261.406219 
	C374.480957,262.621979 386.576050,280.075745 389.147736,294.589233 
	C391.842712,309.798523 387.091797,322.434631 375.167694,332.957458 
	C369.820038,332.710236 365.204834,332.434235 360.609253,331.965820 
	C354.379486,331.330841 348.098083,330.902588 341.958771,329.748138 
	C332.168518,327.907135 328.183319,320.039429 325.152740,311.808807 
	C321.777191,302.641296 318.458313,293.521851 311.993652,285.960022 
M368.777527,282.083832 
	C368.247192,277.289551 366.239960,273.427887 361.291473,272.161102 
	C356.276703,270.877411 352.748688,273.426270 349.329620,277.597046 
	C340.642609,280.747559 335.540405,288.008301 336.102692,296.419708 
	C336.669922,304.905426 342.950714,311.964905 351.468964,313.691193 
	C358.534241,315.122986 366.331635,311.738251 370.403961,305.471771 
	C374.836365,298.651245 374.249695,290.508453 368.777527,282.083832 
z"/>
<path fill="#F4A74C" opacity="1.000000" stroke="none" 
	d="
M311.714661,286.200745 
	C318.458313,293.521851 321.777191,302.641296 325.152740,311.808807 
	C328.183319,320.039429 332.168518,327.907135 341.958771,329.748138 
	C348.098083,330.902588 354.379486,331.330841 360.609253,331.965820 
	C365.204834,332.434235 369.820038,332.710236 374.891174,333.131348 
	C363.605835,343.265076 350.119507,345.689240 335.802002,340.680267 
	C321.284119,335.601196 312.412445,324.962799 308.993317,309.801788 
	C307.159210,301.669006 308.496368,294.005188 311.714661,286.200745 
z"/>
<path fill="#324A5A" opacity="1.000000" stroke="none" 
	d="
M171.487762,277.174316 
	C179.198624,279.790649 184.281479,284.720154 185.186783,293.123688 
	C186.006439,300.732086 183.282394,306.840790 176.799973,311.006195 
	C169.085495,315.963348 159.419296,314.656036 153.186050,307.997375 
	C146.711563,301.081055 146.433182,292.057007 152.877716,283.553253 
	C155.081635,285.735748 156.510605,289.000122 158.670700,289.590820 
	C161.607574,290.393921 165.579163,290.034027 168.251205,288.589661 
	C172.596603,286.240814 172.524460,281.606171 171.487762,277.174316 
z"/>
<path fill="#DEE3E5" opacity="1.000000" stroke="none" 
	d="
M171.302368,276.986450 
	C172.524460,281.606171 172.596603,286.240814 168.251205,288.589661 
	C165.579163,290.034027 161.607574,290.393921 158.670700,289.590820 
	C156.510605,289.000122 155.081635,285.735748 153.159256,283.362488 
	C152.687302,278.025238 154.617386,274.129364 159.450333,272.445404 
	C164.307465,270.753052 168.188431,272.764069 171.302368,276.986450 
z"/>
<path fill="#324A5A" opacity="1.000000" stroke="none" 
	d="
M368.770782,282.804626 
	C374.249695,290.508453 374.836365,298.651245 370.403961,305.471771 
	C366.331635,311.738251 358.534241,315.122986 351.468964,313.691193 
	C342.950714,311.964905 336.669922,304.905426 336.102692,296.419708 
	C335.540405,288.008301 340.642609,280.747559 349.662903,278.022339 
	C349.223297,285.579224 352.241852,290.135773 358.174927,290.793701 
	C362.633972,291.288177 366.022400,288.733337 368.770782,282.804626 
z"/>
<path fill="#DFE3E5" opacity="1.000000" stroke="none" 
	d="
M368.774170,282.444214 
	C366.022400,288.733337 362.633972,291.288177 358.174927,290.793701 
	C352.241852,290.135773 349.223297,285.579224 350.048615,277.966125 
	C352.748688,273.426270 356.276703,270.877411 361.291473,272.161102 
	C366.239960,273.427887 368.247192,277.289551 368.774170,282.444214 
z"/>
</svg>
